<svg width="304" height="252" viewBox="0 0 304 252" fill="none" xmlns="http://www.w3.org/2000/svg">
<rect x="22.3594" width="281.221" height="252" rx="10" fill="#CCD3E4"/>
<path d="M2.18315 31.7035C1.45963 31.2532 1.09787 31.0281 0.973951 30.7396C0.865736 30.4877 0.865736 30.2023 0.973951 29.9504C1.09787 29.6618 1.45963 29.4367 2.18315 28.9865L23.8221 15.5216C24.6204 15.0249 25.0196 14.7765 25.3489 14.8034C25.6359 14.8269 25.8989 14.973 26.0705 15.2043C26.2674 15.4697 26.2674 15.9398 26.2674 16.8801V43.8099C26.2674 44.7502 26.2674 45.2203 26.0705 45.4857C25.8989 45.717 25.6359 45.8631 25.3489 45.8866C25.0196 45.9135 24.6204 45.6651 23.8221 45.1683L2.18315 31.7035Z" fill="#CCD3E4"/>
<path d="M2.18315 127.703C1.45963 127.253 1.09787 127.028 0.973951 126.74C0.865736 126.488 0.865736 126.202 0.973951 125.95C1.09787 125.662 1.45963 125.437 2.18315 124.987L23.8221 111.522C24.6204 111.025 25.0196 110.776 25.3489 110.803C25.6359 110.827 25.8989 110.973 26.0705 111.204C26.2674 111.47 26.2674 111.94 26.2674 112.88V139.81C26.2674 140.75 26.2674 141.22 26.0705 141.486C25.8989 141.717 25.6359 141.863 25.3489 141.887C25.0196 141.913 24.6204 141.665 23.8221 141.168L2.18315 127.703Z" fill="#CCD3E4"/>
<path d="M2.18315 226.703C1.45963 226.253 1.09787 226.028 0.973951 225.74C0.865736 225.488 0.865736 225.202 0.973951 224.95C1.09787 224.662 1.45963 224.437 2.18315 223.987L23.8221 210.522C24.6204 210.025 25.0196 209.776 25.3489 209.803C25.6359 209.827 25.8989 209.973 26.0705 210.204C26.2674 210.47 26.2674 210.94 26.2674 211.88V238.81C26.2674 239.75 26.2674 240.22 26.0705 240.486C25.8989 240.717 25.6359 240.863 25.3489 240.887C25.0196 240.913 24.6204 240.665 23.8221 240.168L2.18315 226.703Z" fill="#CCD3E4"/>
<path d="M58.46 103.12C58.18 103.12 57.8733 103.113 57.54 103.1C57.22 103.087 56.8933 103.067 56.56 103.04C56.24 103.013 55.92 102.98 55.6 102.94C55.28 102.9 54.9867 102.847 54.72 102.78V89.34C54.9867 89.2733 55.28 89.22 55.6 89.18C55.92 89.14 56.24 89.1067 56.56 89.08C56.8933 89.0533 57.22 89.0333 57.54 89.02C57.86 89.0067 58.16 89 58.44 89C59.24 89 59.9867 89.06 60.68 89.18C61.3867 89.3 61.9933 89.5067 62.5 89.8C63.02 90.08 63.4267 90.4533 63.72 90.92C64.0133 91.3867 64.16 91.96 64.16 92.64C64.16 93.4 63.98 94.0267 63.62 94.52C63.26 95 62.78 95.36 62.18 95.6C62.9933 95.84 63.64 96.22 64.12 96.74C64.6 97.26 64.84 97.9933 64.84 98.94C64.84 100.327 64.3267 101.373 63.3 102.08C62.2867 102.773 60.6733 103.12 58.46 103.12ZM56.64 96.54V101.42C56.7867 101.433 56.96 101.447 57.16 101.46C57.3333 101.473 57.5333 101.487 57.76 101.5C58 101.5 58.2733 101.5 58.58 101.5C59.1533 101.5 59.6933 101.467 60.2 101.4C60.72 101.32 61.1733 101.187 61.56 101C61.9467 100.813 62.2533 100.553 62.48 100.22C62.72 99.8867 62.84 99.4667 62.84 98.96C62.84 98.5067 62.7533 98.1267 62.58 97.82C62.4067 97.5 62.1533 97.2467 61.82 97.06C61.5 96.8733 61.1133 96.74 60.66 96.66C60.2067 96.58 59.7 96.54 59.14 96.54H56.64ZM56.64 94.98H58.68C59.16 94.98 59.6133 94.9467 60.04 94.88C60.4667 94.8133 60.8333 94.6933 61.14 94.52C61.46 94.3467 61.7067 94.12 61.88 93.84C62.0667 93.56 62.16 93.2067 62.16 92.78C62.16 92.38 62.0667 92.0467 61.88 91.78C61.6933 91.5 61.4333 91.28 61.1 91.12C60.78 90.9467 60.4 90.82 59.96 90.74C59.52 90.66 59.0533 90.62 58.56 90.62C58.0667 90.62 57.68 90.6267 57.4 90.64C57.12 90.6533 56.8667 90.6733 56.64 90.7V94.98ZM71.4716 101.66C71.9116 101.66 72.2982 101.653 72.6316 101.64C72.9782 101.613 73.2649 101.573 73.4916 101.52V98.42C73.3582 98.3533 73.1382 98.3 72.8316 98.26C72.5382 98.2067 72.1782 98.18 71.7516 98.18C71.4716 98.18 71.1716 98.2 70.8516 98.24C70.5449 98.28 70.2582 98.3667 69.9916 98.5C69.7382 98.62 69.5249 98.7933 69.3516 99.02C69.1782 99.2333 69.0916 99.52 69.0916 99.88C69.0916 100.547 69.3049 101.013 69.7316 101.28C70.1582 101.533 70.7382 101.66 71.4716 101.66ZM71.3116 92.34C72.0582 92.34 72.6849 92.44 73.1916 92.64C73.7116 92.8267 74.1249 93.1 74.4316 93.46C74.7516 93.8067 74.9782 94.2267 75.1116 94.72C75.2449 95.2 75.3116 95.7333 75.3116 96.32V102.82C75.1516 102.847 74.9249 102.887 74.6316 102.94C74.3516 102.98 74.0316 103.02 73.6716 103.06C73.3116 103.1 72.9182 103.133 72.4916 103.16C72.0782 103.2 71.6649 103.22 71.2516 103.22C70.6649 103.22 70.1249 103.16 69.6316 103.04C69.1382 102.92 68.7116 102.733 68.3516 102.48C67.9916 102.213 67.7116 101.867 67.5116 101.44C67.3116 101.013 67.2116 100.5 67.2116 99.9C67.2116 99.3267 67.3249 98.8333 67.5516 98.42C67.7916 98.0067 68.1116 97.6733 68.5116 97.42C68.9116 97.1667 69.3782 96.98 69.9116 96.86C70.4449 96.74 71.0049 96.68 71.5916 96.68C71.7782 96.68 71.9716 96.6933 72.1716 96.72C72.3716 96.7333 72.5582 96.76 72.7316 96.8C72.9182 96.8267 73.0782 96.8533 73.2116 96.88C73.3449 96.9067 73.4382 96.9267 73.4916 96.94V96.42C73.4916 96.1133 73.4582 95.8133 73.3916 95.52C73.3249 95.2133 73.2049 94.9467 73.0316 94.72C72.8582 94.48 72.6182 94.2933 72.3116 94.16C72.0182 94.0133 71.6316 93.94 71.1516 93.94C70.5382 93.94 69.9982 93.9867 69.5316 94.08C69.0782 94.16 68.7382 94.2467 68.5116 94.34L68.2916 92.8C68.5316 92.6933 68.9316 92.5933 69.4916 92.5C70.0516 92.3933 70.6582 92.34 71.3116 92.34ZM78.9008 103V92.6H80.7608V101.46H84.6008V92.6H86.4608V101.46H90.3008V92.6H92.1608V103H78.9008ZM95.2856 97.82C95.2856 96.9 95.419 96.1 95.6856 95.42C95.9523 94.7267 96.3056 94.1533 96.7456 93.7C97.1856 93.2467 97.6923 92.9067 98.2656 92.68C98.839 92.4533 99.4256 92.34 100.026 92.34C101.426 92.34 102.499 92.78 103.246 93.66C103.992 94.5267 104.366 95.8533 104.366 97.64C104.366 97.72 104.366 97.8267 104.366 97.96C104.366 98.08 104.359 98.1933 104.346 98.3H97.2256C97.3056 99.38 97.619 100.2 98.1656 100.76C98.7123 101.32 99.5656 101.6 100.726 101.6C101.379 101.6 101.926 101.547 102.366 101.44C102.819 101.32 103.159 101.207 103.386 101.1L103.646 102.66C103.419 102.78 103.019 102.907 102.446 103.04C101.886 103.173 101.246 103.24 100.526 103.24C99.619 103.24 98.8323 103.107 98.1656 102.84C97.5123 102.56 96.9723 102.18 96.5456 101.7C96.119 101.22 95.799 100.653 95.5856 100C95.3856 99.3333 95.2856 98.6067 95.2856 97.82ZM102.426 96.8C102.439 95.96 102.226 95.2733 101.786 94.74C101.359 94.1933 100.766 93.92 100.006 93.92C99.579 93.92 99.199 94.0067 98.8656 94.18C98.5456 94.34 98.2723 94.5533 98.0456 94.82C97.819 95.0867 97.639 95.3933 97.5056 95.74C97.3856 96.0867 97.3056 96.44 97.2656 96.8H102.426ZM120.646 99.72C121.286 99.72 121.88 99.6333 122.426 99.46C122.986 99.2733 123.466 99.0067 123.866 98.66C124.28 98.3 124.606 97.8667 124.846 97.36C125.086 96.84 125.206 96.2467 125.206 95.58C125.206 94.9133 125.086 94.3267 124.846 93.82C124.606 93.3 124.28 92.8667 123.866 92.52C123.466 92.16 122.986 91.8933 122.426 91.72C121.88 91.5333 121.286 91.44 120.646 91.44V99.72ZM118.766 101.32C117.913 101.32 117.086 101.193 116.286 100.94C115.5 100.687 114.8 100.32 114.186 99.84C113.586 99.3467 113.1 98.7467 112.726 98.04C112.366 97.32 112.186 96.5 112.186 95.58C112.186 94.66 112.366 93.8467 112.726 93.14C113.1 92.4333 113.586 91.84 114.186 91.36C114.8 90.8667 115.5 90.4933 116.286 90.24C117.086 89.9867 117.913 89.8533 118.766 89.84V88.24H120.646V89.84C121.5 89.8533 122.32 89.9867 123.106 90.24C123.893 90.4933 124.593 90.8667 125.206 91.36C125.82 91.84 126.306 92.4333 126.666 93.14C127.04 93.8467 127.226 94.66 127.226 95.58C127.226 96.5 127.04 97.32 126.666 98.04C126.306 98.7467 125.82 99.3467 125.206 99.84C124.593 100.32 123.893 100.687 123.106 100.94C122.32 101.193 121.5 101.32 120.646 101.32V103H118.766V101.32ZM118.766 91.44C118.126 91.44 117.526 91.5333 116.966 91.72C116.42 91.8933 115.94 92.16 115.526 92.52C115.126 92.8667 114.806 93.3 114.566 93.82C114.326 94.3267 114.206 94.9133 114.206 95.58C114.206 96.2467 114.326 96.84 114.566 97.36C114.806 97.8667 115.126 98.3 115.526 98.66C115.94 99.0067 116.42 99.2733 116.966 99.46C117.526 99.6333 118.126 99.72 118.766 99.72V91.44ZM130.572 103V89.14H132.472V99.4C132.898 98.6933 133.418 97.8867 134.032 96.98C134.658 96.0733 135.318 95.1533 136.012 94.22C136.718 93.2733 137.425 92.36 138.132 91.48C138.852 90.5867 139.525 89.8067 140.152 89.14H141.692V103H139.792V92.18C139.418 92.6067 139.012 93.1 138.572 93.66C138.132 94.22 137.678 94.82 137.212 95.46C136.745 96.0867 136.272 96.74 135.792 97.42C135.325 98.1 134.872 98.7733 134.432 99.44C133.992 100.093 133.578 100.727 133.192 101.34C132.818 101.953 132.485 102.507 132.192 103H130.572ZM145.062 96.06C145.062 94.8733 145.236 93.8267 145.582 92.92C145.942 92.0133 146.422 91.26 147.022 90.66C147.636 90.0467 148.342 89.5867 149.142 89.28C149.956 88.9733 150.816 88.82 151.722 88.82C152.616 88.82 153.456 88.9733 154.242 89.28C155.042 89.5867 155.742 90.0467 156.342 90.66C156.942 91.26 157.416 92.0133 157.762 92.92C158.122 93.8267 158.302 94.8733 158.302 96.06C158.302 97.2467 158.122 98.2933 157.762 99.2C157.416 100.107 156.942 100.867 156.342 101.48C155.742 102.08 155.042 102.533 154.242 102.84C153.456 103.147 152.616 103.3 151.722 103.3C150.816 103.3 149.956 103.147 149.142 102.84C148.342 102.533 147.636 102.08 147.022 101.48C146.422 100.867 145.942 100.107 145.582 99.2C145.236 98.2933 145.062 97.2467 145.062 96.06ZM147.102 96.06C147.102 96.9 147.209 97.6667 147.422 98.36C147.636 99.04 147.936 99.62 148.322 100.1C148.722 100.58 149.202 100.953 149.762 101.22C150.336 101.473 150.976 101.6 151.682 101.6C152.389 101.6 153.022 101.473 153.582 101.22C154.142 100.953 154.616 100.58 155.002 100.1C155.402 99.62 155.709 99.04 155.922 98.36C156.136 97.6667 156.242 96.9 156.242 96.06C156.242 95.22 156.136 94.46 155.922 93.78C155.709 93.0867 155.402 92.5 155.002 92.02C154.616 91.54 154.142 91.1733 153.582 90.92C153.022 90.6533 152.389 90.52 151.682 90.52C150.976 90.52 150.336 90.6533 149.762 90.92C149.202 91.1733 148.722 91.54 148.322 92.02C147.936 92.5 147.636 93.0867 147.422 93.78C147.209 94.46 147.102 95.22 147.102 96.06ZM174.038 92.6V94.16H170.658V103H168.798V94.16H165.418V92.6H174.038ZM183.675 97.82C183.675 96.6067 183.375 95.6733 182.775 95.02C182.175 94.3667 181.375 94.04 180.375 94.04C179.815 94.04 179.375 94.06 179.055 94.1C178.749 94.14 178.502 94.1867 178.315 94.24V100.8C178.542 100.987 178.869 101.167 179.295 101.34C179.722 101.513 180.189 101.6 180.695 101.6C181.229 101.6 181.682 101.507 182.055 101.32C182.442 101.12 182.755 100.853 182.995 100.52C183.235 100.173 183.409 99.7733 183.515 99.32C183.622 98.8533 183.675 98.3533 183.675 97.82ZM185.615 97.82C185.615 98.6067 185.509 99.3333 185.295 100C185.095 100.667 184.795 101.24 184.395 101.72C183.995 102.2 183.502 102.573 182.915 102.84C182.342 103.107 181.682 103.24 180.935 103.24C180.335 103.24 179.802 103.16 179.335 103C178.882 102.84 178.542 102.687 178.315 102.54V106.7H176.455V92.92C176.895 92.8133 177.442 92.7 178.095 92.58C178.762 92.4467 179.529 92.38 180.395 92.38C181.195 92.38 181.915 92.5067 182.555 92.76C183.195 93.0133 183.742 93.3733 184.195 93.84C184.649 94.3067 184.995 94.88 185.235 95.56C185.489 96.2267 185.615 96.98 185.615 97.82ZM188.153 97.82C188.153 96.9 188.286 96.1 188.553 95.42C188.819 94.7267 189.173 94.1533 189.613 93.7C190.053 93.2467 190.559 92.9067 191.133 92.68C191.706 92.4533 192.293 92.34 192.893 92.34C194.293 92.34 195.366 92.78 196.113 93.66C196.859 94.5267 197.233 95.8533 197.233 97.64C197.233 97.72 197.233 97.8267 197.233 97.96C197.233 98.08 197.226 98.1933 197.213 98.3H190.093C190.173 99.38 190.486 100.2 191.033 100.76C191.579 101.32 192.433 101.6 193.593 101.6C194.246 101.6 194.793 101.547 195.233 101.44C195.686 101.32 196.026 101.207 196.253 101.1L196.513 102.66C196.286 102.78 195.886 102.907 195.313 103.04C194.753 103.173 194.113 103.24 193.393 103.24C192.486 103.24 191.699 103.107 191.033 102.84C190.379 102.56 189.839 102.18 189.413 101.7C188.986 101.22 188.666 100.653 188.453 100C188.253 99.3333 188.153 98.6067 188.153 97.82ZM195.293 96.8C195.306 95.96 195.093 95.2733 194.653 94.74C194.226 94.1933 193.633 93.92 192.873 93.92C192.446 93.92 192.066 94.0067 191.733 94.18C191.413 94.34 191.139 94.5533 190.913 94.82C190.686 95.0867 190.506 95.3933 190.373 95.74C190.253 96.0867 190.173 96.44 190.133 96.8H195.293ZM202.085 93.8C202.498 93.4667 202.978 93.2133 203.525 93.04C204.085 92.8533 204.618 92.76 205.125 92.76C206.618 92.76 207.745 93.22 208.505 94.14C209.278 95.0467 209.665 96.3133 209.665 97.94C209.665 98.6333 209.571 99.3 209.385 99.94C209.198 100.58 208.905 101.147 208.505 101.64C208.118 102.133 207.625 102.527 207.025 102.82C206.425 103.113 205.711 103.26 204.885 103.26C203.938 103.26 203.151 103.087 202.525 102.74C201.898 102.393 201.398 101.92 201.025 101.32C200.665 100.72 200.411 100.02 200.265 99.22C200.118 98.42 200.045 97.5733 200.045 96.68C200.045 95.52 200.125 94.44 200.285 93.44C200.458 92.44 200.765 91.56 201.205 90.8C201.645 90.04 202.251 89.4133 203.025 88.92C203.811 88.4133 204.818 88.0733 206.045 87.9C206.405 87.8467 206.718 87.8067 206.985 87.78C207.265 87.74 207.505 87.7067 207.705 87.68C207.918 87.6533 208.111 87.6267 208.285 87.6C208.458 87.56 208.638 87.52 208.825 87.48L209.025 89.16C208.931 89.1867 208.831 89.2067 208.725 89.22C208.631 89.2333 208.491 89.2533 208.305 89.28C208.131 89.3067 207.891 89.34 207.585 89.38C207.291 89.42 206.905 89.4667 206.425 89.52C205.105 89.6667 204.091 90.0667 203.385 90.72C202.678 91.3733 202.245 92.4 202.085 93.8ZM201.965 96.98C201.965 97.6067 202.005 98.2 202.085 98.76C202.178 99.32 202.331 99.8133 202.545 100.24C202.771 100.667 203.071 101.007 203.445 101.26C203.818 101.5 204.298 101.62 204.885 101.62C205.391 101.62 205.825 101.527 206.185 101.34C206.545 101.14 206.838 100.873 207.065 100.54C207.291 100.207 207.458 99.82 207.565 99.38C207.671 98.9267 207.725 98.4467 207.725 97.94C207.725 97.4867 207.678 97.0467 207.585 96.62C207.505 96.1933 207.351 95.8133 207.125 95.48C206.898 95.1467 206.591 94.88 206.205 94.68C205.831 94.48 205.358 94.38 204.785 94.38C204.225 94.38 203.685 94.5 203.165 94.74C202.658 94.98 202.265 95.2733 201.985 95.62C201.971 95.7667 201.965 95.9733 201.965 96.24C201.965 96.5067 201.965 96.7533 201.965 96.98ZM211.579 104.94C211.726 105.007 211.913 105.067 212.139 105.12C212.379 105.187 212.613 105.22 212.839 105.22C213.573 105.22 214.146 105.053 214.559 104.72C214.973 104.4 215.346 103.873 215.679 103.14C214.839 101.54 214.053 99.8467 213.319 98.06C212.599 96.26 211.999 94.44 211.519 92.6H213.519C213.666 93.2 213.839 93.8467 214.039 94.54C214.253 95.2333 214.486 95.9467 214.739 96.68C214.993 97.4133 215.266 98.1467 215.559 98.88C215.853 99.6133 216.159 100.32 216.479 101C216.986 99.6 217.426 98.2133 217.799 96.84C218.173 95.4667 218.526 94.0533 218.859 92.6H220.779C220.299 94.56 219.766 96.4467 219.179 98.26C218.593 100.06 217.959 101.747 217.279 103.32C217.013 103.92 216.733 104.433 216.439 104.86C216.159 105.3 215.846 105.66 215.499 105.94C215.153 106.22 214.759 106.427 214.319 106.56C213.893 106.693 213.406 106.76 212.859 106.76C212.713 106.76 212.559 106.747 212.399 106.72C212.239 106.707 212.079 106.68 211.919 106.64C211.773 106.613 211.633 106.58 211.499 106.54C211.379 106.5 211.293 106.467 211.239 106.44L211.579 104.94ZM222.426 97.82C222.426 96.9 222.56 96.1 222.826 95.42C223.093 94.7267 223.446 94.1533 223.886 93.7C224.326 93.2467 224.833 92.9067 225.406 92.68C225.98 92.4533 226.566 92.34 227.166 92.34C228.566 92.34 229.64 92.78 230.386 93.66C231.133 94.5267 231.506 95.8533 231.506 97.64C231.506 97.72 231.506 97.8267 231.506 97.96C231.506 98.08 231.5 98.1933 231.486 98.3H224.366C224.446 99.38 224.76 100.2 225.306 100.76C225.853 101.32 226.706 101.6 227.866 101.6C228.52 101.6 229.066 101.547 229.506 101.44C229.96 101.32 230.3 101.207 230.526 101.1L230.786 102.66C230.56 102.78 230.16 102.907 229.586 103.04C229.026 103.173 228.386 103.24 227.666 103.24C226.76 103.24 225.973 103.107 225.306 102.84C224.653 102.56 224.113 102.18 223.686 101.7C223.26 101.22 222.94 100.653 222.726 100C222.526 99.3333 222.426 98.6067 222.426 97.82ZM229.566 96.8C229.58 95.96 229.366 95.2733 228.926 94.74C228.5 94.1933 227.906 93.92 227.146 93.92C226.72 93.92 226.34 94.0067 226.006 94.18C225.686 94.34 225.413 94.5533 225.186 94.82C224.96 95.0867 224.78 95.3933 224.646 95.74C224.526 96.0867 224.446 96.44 224.406 96.8H229.566ZM242.018 92.6V94.16H238.638V103H236.778V94.16H233.398V92.6H242.018ZM248.956 103.24C248.116 103.24 247.376 103.107 246.736 102.84C246.109 102.573 245.576 102.2 245.136 101.72C244.709 101.24 244.389 100.673 244.176 100.02C243.963 99.3533 243.856 98.62 243.856 97.82C243.856 97.02 243.969 96.2867 244.196 95.62C244.436 94.9533 244.769 94.38 245.196 93.9C245.623 93.4067 246.143 93.0267 246.756 92.76C247.383 92.48 248.076 92.34 248.836 92.34C249.303 92.34 249.769 92.38 250.236 92.46C250.703 92.54 251.149 92.6667 251.576 92.84L251.156 94.42C250.876 94.2867 250.549 94.18 250.176 94.1C249.816 94.02 249.429 93.98 249.016 93.98C247.976 93.98 247.176 94.3067 246.616 94.96C246.069 95.6133 245.796 96.5667 245.796 97.82C245.796 98.38 245.856 98.8933 245.976 99.36C246.109 99.8267 246.309 100.227 246.576 100.56C246.856 100.893 247.209 101.153 247.636 101.34C248.063 101.513 248.583 101.6 249.196 101.6C249.689 101.6 250.136 101.553 250.536 101.46C250.936 101.367 251.249 101.267 251.476 101.16L251.736 102.72C251.629 102.787 251.476 102.853 251.276 102.92C251.076 102.973 250.849 103.02 250.596 103.06C250.343 103.113 250.069 103.153 249.776 103.18C249.496 103.22 249.223 103.24 248.956 103.24ZM258.533 98.96C258.333 98.96 258.139 98.96 257.953 98.96C257.766 98.9467 257.586 98.9333 257.413 98.92C256.986 99.56 256.573 100.247 256.173 100.98C255.786 101.7 255.439 102.373 255.133 103H253.253C253.413 102.613 253.599 102.22 253.813 101.82C254.026 101.407 254.239 101.007 254.453 100.62C254.679 100.233 254.906 99.8667 255.133 99.52C255.359 99.1733 255.573 98.86 255.773 98.58C255.399 98.4467 255.093 98.2867 254.853 98.1C254.613 97.9 254.419 97.68 254.273 97.44C254.126 97.2 254.019 96.9467 253.953 96.68C253.899 96.4 253.873 96.12 253.873 95.84C253.873 95.2533 253.979 94.74 254.193 94.3C254.419 93.86 254.726 93.5 255.113 93.22C255.499 92.9267 255.953 92.7067 256.473 92.56C257.006 92.4133 257.586 92.34 258.213 92.34C259.093 92.34 259.839 92.38 260.453 92.46C261.066 92.54 261.579 92.6333 261.993 92.74V103H260.153V98.96H258.533ZM260.153 93.98C260.006 93.9533 259.759 93.9267 259.413 93.9C259.079 93.8733 258.693 93.86 258.253 93.86C257.493 93.86 256.879 94.02 256.413 94.34C255.946 94.6467 255.713 95.14 255.713 95.82C255.713 96.4867 255.953 96.9467 256.433 97.2C256.913 97.4533 257.533 97.58 258.293 97.58H260.153V93.98ZM53.32 117.48H54.44C54.88 116.84 55.2267 116.18 55.48 115.5C55.7467 114.82 55.9467 114.12 56.08 113.4C56.2133 112.667 56.3 111.907 56.34 111.12C56.38 110.32 56.4067 109.48 56.42 108.6H63.24V117.48H64.64V121.9H62.88V119H55.08V121.9H53.32V117.48ZM61.38 117.48V110.16H58.12C58.1067 110.787 58.0733 111.42 58.02 112.06C57.9667 112.687 57.88 113.313 57.76 113.94C57.64 114.553 57.4667 115.16 57.24 115.76C57.0267 116.347 56.7533 116.92 56.42 117.48H61.38ZM71.2005 110.16C71.2005 110.6 71.1871 111.073 71.1605 111.58C71.1471 112.073 71.1138 112.573 71.0605 113.08C71.0071 113.573 70.9338 114.067 70.8405 114.56C70.7471 115.04 70.6271 115.493 70.4805 115.92C70.3338 116.347 70.1471 116.747 69.9205 117.12C69.7071 117.493 69.4405 117.827 69.1205 118.12C68.8005 118.4 68.4271 118.64 68.0005 118.84C67.5738 119.027 67.0738 119.147 66.5005 119.2L66.2405 117.64C66.8938 117.507 67.4071 117.26 67.7805 116.9C68.1671 116.54 68.4738 116.1 68.7005 115.58C68.9005 115.127 69.0471 114.613 69.1405 114.04C69.2338 113.467 69.3005 112.873 69.3405 112.26C69.3805 111.633 69.4005 111.007 69.4005 110.38C69.4138 109.753 69.4205 109.16 69.4205 108.6H76.3405V119H74.4805V110.16H71.2005ZM84.3336 114.96C84.1336 114.96 83.9403 114.96 83.7536 114.96C83.5669 114.947 83.3869 114.933 83.2136 114.92C82.7869 115.56 82.3736 116.247 81.9736 116.98C81.5869 117.7 81.2403 118.373 80.9336 119H79.0536C79.2136 118.613 79.4003 118.22 79.6136 117.82C79.8269 117.407 80.0403 117.007 80.2536 116.62C80.4803 116.233 80.7069 115.867 80.9336 115.52C81.1603 115.173 81.3736 114.86 81.5736 114.58C81.2003 114.447 80.8936 114.287 80.6536 114.1C80.4136 113.9 80.2203 113.68 80.0736 113.44C79.9269 113.2 79.8203 112.947 79.7536 112.68C79.7003 112.4 79.6736 112.12 79.6736 111.84C79.6736 111.253 79.7803 110.74 79.9936 110.3C80.2203 109.86 80.5269 109.5 80.9136 109.22C81.3003 108.927 81.7536 108.707 82.2736 108.56C82.8069 108.413 83.3869 108.34 84.0136 108.34C84.8936 108.34 85.6403 108.38 86.2536 108.46C86.8669 108.54 87.3803 108.633 87.7936 108.74V119H85.9536V114.96H84.3336ZM85.9536 109.98C85.8069 109.953 85.5603 109.927 85.2136 109.9C84.8803 109.873 84.4936 109.86 84.0536 109.86C83.2936 109.86 82.6803 110.02 82.2136 110.34C81.7469 110.647 81.5136 111.14 81.5136 111.82C81.5136 112.487 81.7536 112.947 82.2336 113.2C82.7136 113.453 83.3336 113.58 84.0936 113.58H85.9536V109.98ZM104.98 119H103.12V110.16H98.4795V119H96.6195V108.6H104.98V119ZM117.862 113.8C117.862 114.627 117.742 115.373 117.502 116.04C117.262 116.707 116.922 117.28 116.482 117.76C116.055 118.24 115.542 118.613 114.942 118.88C114.342 119.133 113.689 119.26 112.982 119.26C112.275 119.26 111.622 119.133 111.022 118.88C110.422 118.613 109.902 118.24 109.462 117.76C109.035 117.28 108.702 116.707 108.462 116.04C108.222 115.373 108.102 114.627 108.102 113.8C108.102 112.987 108.222 112.247 108.462 111.58C108.702 110.9 109.035 110.32 109.462 109.84C109.902 109.36 110.422 108.993 111.022 108.74C111.622 108.473 112.275 108.34 112.982 108.34C113.689 108.34 114.342 108.473 114.942 108.74C115.542 108.993 116.055 109.36 116.482 109.84C116.922 110.32 117.262 110.9 117.502 111.58C117.742 112.247 117.862 112.987 117.862 113.8ZM115.922 113.8C115.922 112.627 115.655 111.7 115.122 111.02C114.602 110.327 113.889 109.98 112.982 109.98C112.075 109.98 111.355 110.327 110.822 111.02C110.302 111.7 110.042 112.627 110.042 113.8C110.042 114.973 110.302 115.907 110.822 116.6C111.355 117.28 112.075 117.62 112.982 117.62C113.889 117.62 114.602 117.28 115.122 116.6C115.655 115.907 115.922 114.973 115.922 113.8ZM119.699 117.48H120.819C121.259 116.84 121.606 116.18 121.859 115.5C122.126 114.82 122.326 114.12 122.459 113.4C122.592 112.667 122.679 111.907 122.719 111.12C122.759 110.32 122.786 109.48 122.799 108.6H129.619V117.48H131.019V121.9H129.259V119H121.459V121.9H119.699V117.48ZM127.759 117.48V110.16H124.499C124.486 110.787 124.452 111.42 124.399 112.06C124.346 112.687 124.259 113.313 124.139 113.94C124.019 114.553 123.846 115.16 123.619 115.76C123.406 116.347 123.132 116.92 122.799 117.48H127.759ZM140.87 108.6V110.16H137.49V119H135.63V110.16H132.25V108.6H140.87ZM145.108 117.6C145.188 117.613 145.301 117.627 145.448 117.64C145.594 117.653 145.761 117.667 145.948 117.68C146.134 117.68 146.328 117.687 146.528 117.7C146.741 117.7 146.941 117.7 147.128 117.7C147.514 117.7 147.881 117.673 148.228 117.62C148.588 117.567 148.894 117.473 149.148 117.34C149.414 117.207 149.621 117.033 149.768 116.82C149.928 116.593 150.008 116.307 150.008 115.96C150.008 115.627 149.934 115.353 149.788 115.14C149.654 114.913 149.468 114.733 149.228 114.6C148.988 114.467 148.701 114.373 148.368 114.32C148.048 114.267 147.701 114.24 147.328 114.24H145.108V117.6ZM147.088 112.86C147.448 112.86 147.774 112.84 148.068 112.8C148.374 112.747 148.634 112.66 148.848 112.54C149.074 112.42 149.248 112.26 149.368 112.06C149.501 111.86 149.568 111.607 149.568 111.3C149.568 110.98 149.488 110.727 149.328 110.54C149.168 110.353 148.954 110.213 148.688 110.12C148.434 110.013 148.141 109.947 147.808 109.92C147.488 109.88 147.161 109.86 146.827 109.86C146.521 109.86 146.208 109.867 145.888 109.88C145.581 109.893 145.321 109.907 145.108 109.92V112.86H147.088ZM147.048 119.18C146.261 119.18 145.534 119.14 144.868 119.06C144.201 118.993 143.674 118.913 143.288 118.82V108.7C143.674 108.607 144.201 108.527 144.868 108.46C145.534 108.38 146.261 108.34 147.048 108.34C147.594 108.34 148.128 108.387 148.648 108.48C149.168 108.573 149.628 108.733 150.028 108.96C150.428 109.173 150.748 109.473 150.988 109.86C151.241 110.233 151.368 110.7 151.368 111.26C151.368 111.767 151.241 112.2 150.988 112.56C150.734 112.92 150.394 113.2 149.968 113.4C150.541 113.6 150.994 113.9 151.328 114.3C151.674 114.687 151.848 115.233 151.848 115.94C151.848 116.567 151.721 117.087 151.468 117.5C151.228 117.913 150.888 118.247 150.448 118.5C150.021 118.753 149.514 118.927 148.928 119.02C148.341 119.127 147.714 119.18 147.048 119.18ZM154.165 113.82C154.165 112.9 154.298 112.1 154.565 111.42C154.831 110.727 155.185 110.153 155.625 109.7C156.065 109.247 156.571 108.907 157.145 108.68C157.718 108.453 158.305 108.34 158.905 108.34C160.305 108.34 161.378 108.78 162.125 109.66C162.871 110.527 163.245 111.853 163.245 113.64C163.245 113.72 163.245 113.827 163.245 113.96C163.245 114.08 163.238 114.193 163.225 114.3H156.105C156.185 115.38 156.498 116.2 157.045 116.76C157.591 117.32 158.445 117.6 159.605 117.6C160.258 117.6 160.805 117.547 161.245 117.44C161.698 117.32 162.038 117.207 162.265 117.1L162.525 118.66C162.298 118.78 161.898 118.907 161.325 119.04C160.765 119.173 160.125 119.24 159.405 119.24C158.498 119.24 157.711 119.107 157.045 118.84C156.391 118.56 155.851 118.18 155.425 117.7C154.998 117.22 154.678 116.653 154.465 116C154.265 115.333 154.165 114.607 154.165 113.82ZM161.305 112.8C161.318 111.96 161.105 111.273 160.665 110.74C160.238 110.193 159.645 109.92 158.885 109.92C158.458 109.92 158.078 110.007 157.745 110.18C157.425 110.34 157.151 110.553 156.925 110.82C156.698 111.087 156.518 111.393 156.385 111.74C156.265 112.087 156.185 112.44 156.145 112.8H161.305ZM173.636 113.82C173.636 112.607 173.336 111.673 172.736 111.02C172.136 110.367 171.336 110.04 170.336 110.04C169.776 110.04 169.336 110.06 169.016 110.1C168.71 110.14 168.463 110.187 168.276 110.24V116.8C168.503 116.987 168.83 117.167 169.256 117.34C169.683 117.513 170.15 117.6 170.656 117.6C171.19 117.6 171.643 117.507 172.016 117.32C172.403 117.12 172.716 116.853 172.956 116.52C173.196 116.173 173.37 115.773 173.476 115.32C173.583 114.853 173.636 114.353 173.636 113.82ZM175.576 113.82C175.576 114.607 175.47 115.333 175.256 116C175.056 116.667 174.756 117.24 174.356 117.72C173.956 118.2 173.463 118.573 172.876 118.84C172.303 119.107 171.643 119.24 170.896 119.24C170.296 119.24 169.763 119.16 169.296 119C168.843 118.84 168.503 118.687 168.276 118.54V122.7H166.416V108.92C166.856 108.813 167.403 108.7 168.056 108.58C168.723 108.447 169.49 108.38 170.356 108.38C171.156 108.38 171.876 108.507 172.516 108.76C173.156 109.013 173.703 109.373 174.156 109.84C174.61 110.307 174.956 110.88 175.196 111.56C175.45 112.227 175.576 112.98 175.576 113.82ZM191.065 108.6C190.798 108.933 190.498 109.3 190.165 109.7C189.831 110.087 189.485 110.493 189.125 110.92C188.765 111.333 188.398 111.747 188.025 112.16C187.665 112.573 187.318 112.967 186.985 113.34C187.385 113.727 187.798 114.147 188.225 114.6C188.651 115.053 189.065 115.527 189.465 116.02C189.878 116.5 190.271 117 190.645 117.52C191.018 118.027 191.345 118.52 191.625 119H189.545C189.265 118.56 188.938 118.1 188.565 117.62C188.205 117.127 187.825 116.653 187.425 116.2C187.038 115.747 186.645 115.327 186.245 114.94C185.858 114.54 185.498 114.213 185.165 113.96V119H183.385V113.96C183.051 114.213 182.685 114.54 182.285 114.94C181.898 115.327 181.505 115.747 181.105 116.2C180.718 116.653 180.338 117.127 179.965 117.62C179.605 118.1 179.285 118.56 179.005 119H176.945C177.225 118.52 177.545 118.027 177.905 117.52C178.278 117.013 178.665 116.52 179.065 116.04C179.478 115.547 179.898 115.073 180.325 114.62C180.751 114.167 181.165 113.747 181.565 113.36C181.231 112.987 180.878 112.593 180.505 112.18C180.145 111.767 179.785 111.353 179.425 110.94C179.065 110.513 178.718 110.107 178.385 109.72C178.051 109.32 177.745 108.947 177.465 108.6H179.525C180.005 109.2 180.558 109.867 181.185 110.6C181.811 111.333 182.545 112.18 183.385 113.14V108.6H185.165V113.14C186.005 112.18 186.738 111.333 187.365 110.6C187.991 109.867 188.545 109.2 189.025 108.6H191.065ZM193.187 117.48H194.307C194.747 116.84 195.094 116.18 195.347 115.5C195.614 114.82 195.814 114.12 195.947 113.4C196.081 112.667 196.167 111.907 196.207 111.12C196.247 110.32 196.274 109.48 196.287 108.6H203.107V117.48H204.507V121.9H202.747V119H194.947V121.9H193.187V117.48ZM201.247 117.48V110.16H197.987C197.974 110.787 197.941 111.42 197.887 112.06C197.834 112.687 197.747 113.313 197.627 113.94C197.507 114.553 197.334 115.16 197.107 115.76C196.894 116.347 196.621 116.92 196.287 117.48H201.247ZM206.438 113.82C206.438 112.9 206.571 112.1 206.838 111.42C207.105 110.727 207.458 110.153 207.898 109.7C208.338 109.247 208.845 108.907 209.418 108.68C209.991 108.453 210.578 108.34 211.178 108.34C212.578 108.34 213.651 108.78 214.398 109.66C215.145 110.527 215.518 111.853 215.518 113.64C215.518 113.72 215.518 113.827 215.518 113.96C215.518 114.08 215.511 114.193 215.498 114.3H208.378C208.458 115.38 208.771 116.2 209.318 116.76C209.865 117.32 210.718 117.6 211.878 117.6C212.531 117.6 213.078 117.547 213.518 117.44C213.971 117.32 214.311 117.207 214.538 117.1L214.798 118.66C214.571 118.78 214.171 118.907 213.598 119.04C213.038 119.173 212.398 119.24 211.678 119.24C210.771 119.24 209.985 119.107 209.318 118.84C208.665 118.56 208.125 118.18 207.698 117.7C207.271 117.22 206.951 116.653 206.738 116C206.538 115.333 206.438 114.607 206.438 113.82ZM213.578 112.8C213.591 111.96 213.378 111.273 212.938 110.74C212.511 110.193 211.918 109.92 211.158 109.92C210.731 109.92 210.351 110.007 210.018 110.18C209.698 110.34 209.425 110.553 209.198 110.82C208.971 111.087 208.791 111.393 208.658 111.74C208.538 112.087 208.458 112.44 208.418 112.8H213.578ZM227.21 119H225.35V114.4H220.55V119H218.69V108.6H220.55V112.84H225.35V108.6H227.21V119ZM239.649 108.6V119H237.849V111.08C237.449 111.587 237.009 112.18 236.529 112.86C236.049 113.54 235.569 114.247 235.089 114.98C234.609 115.7 234.149 116.413 233.709 117.12C233.269 117.827 232.889 118.453 232.569 119H230.909V108.6H232.709V116.08C233.055 115.507 233.449 114.88 233.889 114.2C234.329 113.507 234.782 112.827 235.249 112.16C235.729 111.48 236.202 110.833 236.669 110.22C237.149 109.593 237.595 109.053 238.009 108.6H239.649ZM247.642 114.96C247.442 114.96 247.249 114.96 247.062 114.96C246.876 114.947 246.696 114.933 246.522 114.92C246.096 115.56 245.682 116.247 245.282 116.98C244.896 117.7 244.549 118.373 244.242 119H242.362C242.522 118.613 242.709 118.22 242.922 117.82C243.136 117.407 243.349 117.007 243.562 116.62C243.789 116.233 244.016 115.867 244.242 115.52C244.469 115.173 244.682 114.86 244.882 114.58C244.509 114.447 244.202 114.287 243.962 114.1C243.722 113.9 243.529 113.68 243.382 113.44C243.236 113.2 243.129 112.947 243.062 112.68C243.009 112.4 242.982 112.12 242.982 111.84C242.982 111.253 243.089 110.74 243.302 110.3C243.529 109.86 243.836 109.5 244.222 109.22C244.609 108.927 245.062 108.707 245.582 108.56C246.116 108.413 246.696 108.34 247.322 108.34C248.202 108.34 248.949 108.38 249.562 108.46C250.176 108.54 250.689 108.633 251.102 108.74V119H249.262V114.96H247.642ZM249.262 109.98C249.116 109.953 248.869 109.927 248.522 109.9C248.189 109.873 247.802 109.86 247.362 109.86C246.602 109.86 245.989 110.02 245.522 110.34C245.056 110.647 244.822 111.14 244.822 111.82C244.822 112.487 245.062 112.947 245.542 113.2C246.022 113.453 246.642 113.58 247.402 113.58H249.262V109.98ZM62.96 135H61.1V126.16H56.46V135H54.6V124.6H62.96V135ZM73.8825 129.82C73.8825 128.607 73.5825 127.673 72.9825 127.02C72.3825 126.367 71.5825 126.04 70.5825 126.04C70.0225 126.04 69.5825 126.06 69.2625 126.1C68.9558 126.14 68.7092 126.187 68.5225 126.24V132.8C68.7492 132.987 69.0758 133.167 69.5025 133.34C69.9292 133.513 70.3958 133.6 70.9025 133.6C71.4358 133.6 71.8892 133.507 72.2625 133.32C72.6492 133.12 72.9625 132.853 73.2025 132.52C73.4425 132.173 73.6158 131.773 73.7225 131.32C73.8292 130.853 73.8825 130.353 73.8825 129.82ZM75.8225 129.82C75.8225 130.607 75.7158 131.333 75.5025 132C75.3025 132.667 75.0025 133.24 74.6025 133.72C74.2025 134.2 73.7092 134.573 73.1225 134.84C72.5492 135.107 71.8892 135.24 71.1425 135.24C70.5425 135.24 70.0092 135.16 69.5425 135C69.0892 134.84 68.7492 134.687 68.5225 134.54V138.7H66.6625V124.92C67.1025 124.813 67.6492 124.7 68.3025 124.58C68.9692 124.447 69.7358 124.38 70.6025 124.38C71.4025 124.38 72.1225 124.507 72.7625 124.76C73.4025 125.013 73.9492 125.373 74.4025 125.84C74.8558 126.307 75.2025 126.88 75.4425 127.56C75.6958 128.227 75.8225 128.98 75.8225 129.82ZM87.6798 124.6V135H85.8798V127.08C85.4798 127.587 85.0398 128.18 84.5598 128.86C84.0798 129.54 83.5998 130.247 83.1198 130.98C82.6398 131.7 82.1798 132.413 81.7398 133.12C81.2998 133.827 80.9198 134.453 80.5998 135H78.9398V124.6H80.7398V132.08C81.0865 131.507 81.4798 130.88 81.9198 130.2C82.3598 129.507 82.8132 128.827 83.2798 128.16C83.7598 127.48 84.2332 126.833 84.6998 126.22C85.1798 125.593 85.6265 125.053 86.0398 124.6H87.6798ZM99.8934 135H98.0334V130.4H93.2334V135H91.3734V124.6H93.2334V128.84H98.0334V124.6H99.8934V135ZM107.112 133.66C107.552 133.66 107.939 133.653 108.272 133.64C108.619 133.613 108.906 133.573 109.132 133.52V130.42C108.999 130.353 108.779 130.3 108.472 130.26C108.179 130.207 107.819 130.18 107.392 130.18C107.112 130.18 106.812 130.2 106.492 130.24C106.186 130.28 105.899 130.367 105.632 130.5C105.379 130.62 105.166 130.793 104.992 131.02C104.819 131.233 104.732 131.52 104.732 131.88C104.732 132.547 104.946 133.013 105.372 133.28C105.799 133.533 106.379 133.66 107.112 133.66ZM106.952 124.34C107.699 124.34 108.326 124.44 108.832 124.64C109.352 124.827 109.766 125.1 110.072 125.46C110.392 125.807 110.619 126.227 110.752 126.72C110.886 127.2 110.952 127.733 110.952 128.32V134.82C110.792 134.847 110.566 134.887 110.272 134.94C109.992 134.98 109.672 135.02 109.312 135.06C108.952 135.1 108.559 135.133 108.132 135.16C107.719 135.2 107.306 135.22 106.892 135.22C106.306 135.22 105.766 135.16 105.272 135.04C104.779 134.92 104.352 134.733 103.992 134.48C103.632 134.213 103.352 133.867 103.152 133.44C102.952 133.013 102.852 132.5 102.852 131.9C102.852 131.327 102.966 130.833 103.192 130.42C103.432 130.007 103.752 129.673 104.152 129.42C104.552 129.167 105.019 128.98 105.552 128.86C106.086 128.74 106.646 128.68 107.232 128.68C107.419 128.68 107.612 128.693 107.812 128.72C108.012 128.733 108.199 128.76 108.372 128.8C108.559 128.827 108.719 128.853 108.852 128.88C108.986 128.907 109.079 128.927 109.132 128.94V128.42C109.132 128.113 109.099 127.813 109.032 127.52C108.966 127.213 108.846 126.947 108.672 126.72C108.499 126.48 108.259 126.293 107.952 126.16C107.659 126.013 107.272 125.94 106.792 125.94C106.179 125.94 105.639 125.987 105.172 126.08C104.719 126.16 104.379 126.247 104.152 126.34L103.932 124.8C104.172 124.693 104.572 124.593 105.132 124.5C105.692 124.393 106.299 124.34 106.952 124.34ZM113.261 133.48H114.381C114.821 132.84 115.168 132.18 115.421 131.5C115.688 130.82 115.888 130.12 116.021 129.4C116.155 128.667 116.241 127.907 116.281 127.12C116.321 126.32 116.348 125.48 116.361 124.6H123.181V133.48H124.581V137.9H122.821V135H115.021V137.9H113.261V133.48ZM121.321 133.48V126.16H118.061C118.048 126.787 118.015 127.42 117.961 128.06C117.908 128.687 117.821 129.313 117.701 129.94C117.581 130.553 117.408 131.16 117.181 131.76C116.968 132.347 116.695 132.92 116.361 133.48H121.321ZM131.142 126.16C131.142 126.6 131.129 127.073 131.102 127.58C131.089 128.073 131.055 128.573 131.002 129.08C130.949 129.573 130.875 130.067 130.782 130.56C130.689 131.04 130.569 131.493 130.422 131.92C130.275 132.347 130.089 132.747 129.862 133.12C129.649 133.493 129.382 133.827 129.062 134.12C128.742 134.4 128.369 134.64 127.942 134.84C127.515 135.027 127.015 135.147 126.442 135.2L126.182 133.64C126.835 133.507 127.349 133.26 127.722 132.9C128.109 132.54 128.415 132.1 128.642 131.58C128.842 131.127 128.989 130.613 129.082 130.04C129.175 129.467 129.242 128.873 129.282 128.26C129.322 127.633 129.342 127.007 129.342 126.38C129.355 125.753 129.362 125.16 129.362 124.6H136.282V135H134.422V126.16H131.142ZM139.395 129.82C139.395 128.9 139.528 128.1 139.795 127.42C140.062 126.727 140.415 126.153 140.855 125.7C141.295 125.247 141.802 124.907 142.375 124.68C142.948 124.453 143.535 124.34 144.135 124.34C145.535 124.34 146.608 124.78 147.355 125.66C148.102 126.527 148.475 127.853 148.475 129.64C148.475 129.72 148.475 129.827 148.475 129.96C148.475 130.08 148.468 130.193 148.455 130.3H141.335C141.415 131.38 141.728 132.2 142.275 132.76C142.822 133.32 143.675 133.6 144.835 133.6C145.488 133.6 146.035 133.547 146.475 133.44C146.928 133.32 147.268 133.207 147.495 133.1L147.755 134.66C147.528 134.78 147.128 134.907 146.555 135.04C145.995 135.173 145.355 135.24 144.635 135.24C143.728 135.24 142.942 135.107 142.275 134.84C141.622 134.56 141.082 134.18 140.655 133.7C140.228 133.22 139.908 132.653 139.695 132C139.495 131.333 139.395 130.607 139.395 129.82ZM146.535 128.8C146.548 127.96 146.335 127.273 145.895 126.74C145.468 126.193 144.875 125.92 144.115 125.92C143.688 125.92 143.308 126.007 142.975 126.18C142.655 126.34 142.382 126.553 142.155 126.82C141.928 127.087 141.748 127.393 141.615 127.74C141.495 128.087 141.415 128.44 141.375 128.8H146.535ZM164.467 124.6C164.2 124.933 163.9 125.3 163.567 125.7C163.234 126.087 162.887 126.493 162.527 126.92C162.167 127.333 161.8 127.747 161.427 128.16C161.067 128.573 160.72 128.967 160.387 129.34C160.787 129.727 161.2 130.147 161.627 130.6C162.054 131.053 162.467 131.527 162.867 132.02C163.28 132.5 163.674 133 164.047 133.52C164.42 134.027 164.747 134.52 165.027 135H162.947C162.667 134.56 162.34 134.1 161.967 133.62C161.607 133.127 161.227 132.653 160.827 132.2C160.44 131.747 160.047 131.327 159.647 130.94C159.26 130.54 158.9 130.213 158.567 129.96V135H156.787V129.96C156.454 130.213 156.087 130.54 155.687 130.94C155.3 131.327 154.907 131.747 154.507 132.2C154.12 132.653 153.74 133.127 153.367 133.62C153.007 134.1 152.687 134.56 152.407 135H150.347C150.627 134.52 150.947 134.027 151.307 133.52C151.68 133.013 152.067 132.52 152.467 132.04C152.88 131.547 153.3 131.073 153.727 130.62C154.154 130.167 154.567 129.747 154.967 129.36C154.634 128.987 154.28 128.593 153.907 128.18C153.547 127.767 153.187 127.353 152.827 126.94C152.467 126.513 152.12 126.107 151.787 125.72C151.454 125.32 151.147 124.947 150.867 124.6H152.927C153.407 125.2 153.96 125.867 154.587 126.6C155.214 127.333 155.947 128.18 156.787 129.14V124.6H158.567V129.14C159.407 128.18 160.14 127.333 160.767 126.6C161.394 125.867 161.947 125.2 162.427 124.6H164.467ZM175.921 135H174.061V130.4H169.261V135H167.401V124.6H169.261V128.84H174.061V124.6H175.921V135ZM188.8 129.8C188.8 130.627 188.68 131.373 188.44 132.04C188.2 132.707 187.86 133.28 187.42 133.76C186.993 134.24 186.48 134.613 185.88 134.88C185.28 135.133 184.626 135.26 183.92 135.26C183.213 135.26 182.56 135.133 181.96 134.88C181.36 134.613 180.84 134.24 180.4 133.76C179.973 133.28 179.64 132.707 179.4 132.04C179.16 131.373 179.04 130.627 179.04 129.8C179.04 128.987 179.16 128.247 179.4 127.58C179.64 126.9 179.973 126.32 180.4 125.84C180.84 125.36 181.36 124.993 181.96 124.74C182.56 124.473 183.213 124.34 183.92 124.34C184.626 124.34 185.28 124.473 185.88 124.74C186.48 124.993 186.993 125.36 187.42 125.84C187.86 126.32 188.2 126.9 188.44 127.58C188.68 128.247 188.8 128.987 188.8 129.8ZM186.86 129.8C186.86 128.627 186.593 127.7 186.06 127.02C185.54 126.327 184.826 125.98 183.92 125.98C183.013 125.98 182.293 126.327 181.76 127.02C181.24 127.7 180.98 128.627 180.98 129.8C180.98 130.973 181.24 131.907 181.76 132.6C182.293 133.28 183.013 133.62 183.92 133.62C184.826 133.62 185.54 133.28 186.06 132.6C186.593 131.907 186.86 130.973 186.86 129.8ZM196.436 135.24C195.596 135.24 194.856 135.107 194.216 134.84C193.59 134.573 193.056 134.2 192.616 133.72C192.19 133.24 191.87 132.673 191.656 132.02C191.443 131.353 191.336 130.62 191.336 129.82C191.336 129.02 191.45 128.287 191.676 127.62C191.916 126.953 192.25 126.38 192.676 125.9C193.103 125.407 193.623 125.027 194.236 124.76C194.863 124.48 195.556 124.34 196.316 124.34C196.783 124.34 197.25 124.38 197.716 124.46C198.183 124.54 198.63 124.667 199.056 124.84L198.636 126.42C198.356 126.287 198.03 126.18 197.656 126.1C197.296 126.02 196.91 125.98 196.496 125.98C195.456 125.98 194.656 126.307 194.096 126.96C193.55 127.613 193.276 128.567 193.276 129.82C193.276 130.38 193.336 130.893 193.456 131.36C193.59 131.827 193.79 132.227 194.056 132.56C194.336 132.893 194.69 133.153 195.116 133.34C195.543 133.513 196.063 133.6 196.676 133.6C197.17 133.6 197.616 133.553 198.016 133.46C198.416 133.367 198.73 133.267 198.956 133.16L199.216 134.72C199.11 134.787 198.956 134.853 198.756 134.92C198.556 134.973 198.33 135.02 198.076 135.06C197.823 135.113 197.55 135.153 197.256 135.18C196.976 135.22 196.703 135.24 196.436 135.24ZM209.346 124.6V126.16H205.966V135H204.106V126.16H200.726V124.6H209.346ZM220.504 124.6V135H218.704V127.08C218.304 127.587 217.864 128.18 217.384 128.86C216.904 129.54 216.424 130.247 215.944 130.98C215.464 131.7 215.004 132.413 214.564 133.12C214.124 133.827 213.744 134.453 213.424 135H211.764V124.6H213.564V132.08C213.911 131.507 214.304 130.88 214.744 130.2C215.184 129.507 215.637 128.827 216.104 128.16C216.584 127.48 217.057 126.833 217.524 126.22C218.004 125.593 218.451 125.053 218.864 124.6H220.504ZM233.127 129.34C233.54 129.633 233.987 130.007 234.467 130.46C234.947 130.9 235.413 131.38 235.867 131.9C236.333 132.42 236.767 132.953 237.167 133.5C237.567 134.033 237.907 134.533 238.187 135H235.987C235.693 134.547 235.347 134.087 234.947 133.62C234.56 133.14 234.153 132.68 233.727 132.24C233.3 131.8 232.867 131.393 232.427 131.02C231.987 130.647 231.573 130.333 231.187 130.08V135H229.327V124.6H231.187V129.06C231.507 128.753 231.873 128.4 232.287 128C232.7 127.587 233.113 127.173 233.527 126.76C233.953 126.333 234.347 125.933 234.707 125.56C235.067 125.173 235.36 124.853 235.587 124.6H237.747C237.453 124.92 237.107 125.287 236.707 125.7C236.32 126.1 235.913 126.513 235.487 126.94C235.073 127.367 234.66 127.793 234.247 128.22C233.833 128.633 233.46 129.007 233.127 129.34ZM249.163 129.8C249.163 130.627 249.043 131.373 248.803 132.04C248.563 132.707 248.223 133.28 247.783 133.76C247.356 134.24 246.843 134.613 246.243 134.88C245.643 135.133 244.989 135.26 244.283 135.26C243.576 135.26 242.923 135.133 242.323 134.88C241.723 134.613 241.203 134.24 240.763 133.76C240.336 133.28 240.003 132.707 239.763 132.04C239.523 131.373 239.403 130.627 239.403 129.8C239.403 128.987 239.523 128.247 239.763 127.58C240.003 126.9 240.336 126.32 240.763 125.84C241.203 125.36 241.723 124.993 242.323 124.74C242.923 124.473 243.576 124.34 244.283 124.34C244.989 124.34 245.643 124.473 246.243 124.74C246.843 124.993 247.356 125.36 247.783 125.84C248.223 126.32 248.563 126.9 248.803 127.58C249.043 128.247 249.163 128.987 249.163 129.8ZM247.223 129.8C247.223 128.627 246.956 127.7 246.423 127.02C245.903 126.327 245.189 125.98 244.283 125.98C243.376 125.98 242.656 126.327 242.123 127.02C241.603 127.7 241.343 128.627 241.343 129.8C241.343 130.973 241.603 131.907 242.123 132.6C242.656 133.28 243.376 133.62 244.283 133.62C245.189 133.62 245.903 133.28 246.423 132.6C246.956 131.907 247.223 130.973 247.223 129.8ZM251 133.48H252.12C252.56 132.84 252.906 132.18 253.16 131.5C253.426 130.82 253.626 130.12 253.76 129.4C253.893 128.667 253.98 127.907 254.02 127.12C254.06 126.32 254.086 125.48 254.1 124.6H260.92V133.48H262.32V137.9H260.56V135H252.76V137.9H251V133.48ZM259.06 133.48V126.16H255.8C255.786 126.787 255.753 127.42 255.7 128.06C255.646 128.687 255.56 129.313 255.44 129.94C255.32 130.553 255.146 131.16 254.92 131.76C254.706 132.347 254.433 132.92 254.1 133.48H259.06ZM268.35 133.66C268.79 133.66 269.177 133.653 269.51 133.64C269.857 133.613 270.144 133.573 270.37 133.52V130.42C270.237 130.353 270.017 130.3 269.71 130.26C269.417 130.207 269.057 130.18 268.63 130.18C268.35 130.18 268.05 130.2 267.73 130.24C267.424 130.28 267.137 130.367 266.87 130.5C266.617 130.62 266.404 130.793 266.23 131.02C266.057 131.233 265.97 131.52 265.97 131.88C265.97 132.547 266.184 133.013 266.61 133.28C267.037 133.533 267.617 133.66 268.35 133.66ZM268.19 124.34C268.937 124.34 269.564 124.44 270.07 124.64C270.59 124.827 271.004 125.1 271.31 125.46C271.63 125.807 271.857 126.227 271.99 126.72C272.124 127.2 272.19 127.733 272.19 128.32V134.82C272.03 134.847 271.804 134.887 271.51 134.94C271.23 134.98 270.91 135.02 270.55 135.06C270.19 135.1 269.797 135.133 269.37 135.16C268.957 135.2 268.544 135.22 268.13 135.22C267.544 135.22 267.004 135.16 266.51 135.04C266.017 134.92 265.59 134.733 265.23 134.48C264.87 134.213 264.59 133.867 264.39 133.44C264.19 133.013 264.09 132.5 264.09 131.9C264.09 131.327 264.204 130.833 264.43 130.42C264.67 130.007 264.99 129.673 265.39 129.42C265.79 129.167 266.257 128.98 266.79 128.86C267.324 128.74 267.884 128.68 268.47 128.68C268.657 128.68 268.85 128.693 269.05 128.72C269.25 128.733 269.437 128.76 269.61 128.8C269.797 128.827 269.957 128.853 270.09 128.88C270.224 128.907 270.317 128.927 270.37 128.94V128.42C270.37 128.113 270.337 127.813 270.27 127.52C270.204 127.213 270.084 126.947 269.91 126.72C269.737 126.48 269.497 126.293 269.19 126.16C268.897 126.013 268.51 125.94 268.03 125.94C267.417 125.94 266.877 125.987 266.41 126.08C265.957 126.16 265.617 126.247 265.39 126.34L265.17 124.8C265.41 124.693 265.81 124.593 266.37 124.5C266.93 124.393 267.537 124.34 268.19 124.34ZM58.46 151.12C58.18 151.12 57.8733 151.113 57.54 151.1C57.22 151.087 56.8933 151.067 56.56 151.04C56.24 151.013 55.92 150.98 55.6 150.94C55.28 150.9 54.9867 150.847 54.72 150.78V137.34C54.9867 137.273 55.28 137.22 55.6 137.18C55.92 137.14 56.24 137.107 56.56 137.08C56.8933 137.053 57.22 137.033 57.54 137.02C57.86 137.007 58.16 137 58.44 137C59.24 137 59.9867 137.06 60.68 137.18C61.3867 137.3 61.9933 137.507 62.5 137.8C63.02 138.08 63.4267 138.453 63.72 138.92C64.0133 139.387 64.16 139.96 64.16 140.64C64.16 141.4 63.98 142.027 63.62 142.52C63.26 143 62.78 143.36 62.18 143.6C62.9933 143.84 63.64 144.22 64.12 144.74C64.6 145.26 64.84 145.993 64.84 146.94C64.84 148.327 64.3267 149.373 63.3 150.08C62.2867 150.773 60.6733 151.12 58.46 151.12ZM56.64 144.54V149.42C56.7867 149.433 56.96 149.447 57.16 149.46C57.3333 149.473 57.5333 149.487 57.76 149.5C58 149.5 58.2733 149.5 58.58 149.5C59.1533 149.5 59.6933 149.467 60.2 149.4C60.72 149.32 61.1733 149.187 61.56 149C61.9467 148.813 62.2533 148.553 62.48 148.22C62.72 147.887 62.84 147.467 62.84 146.96C62.84 146.507 62.7533 146.127 62.58 145.82C62.4067 145.5 62.1533 145.247 61.82 145.06C61.5 144.873 61.1133 144.74 60.66 144.66C60.2067 144.58 59.7 144.54 59.14 144.54H56.64ZM56.64 142.98H58.68C59.16 142.98 59.6133 142.947 60.04 142.88C60.4667 142.813 60.8333 142.693 61.14 142.52C61.46 142.347 61.7067 142.12 61.88 141.84C62.0667 141.56 62.16 141.207 62.16 140.78C62.16 140.38 62.0667 140.047 61.88 139.78C61.6933 139.5 61.4333 139.28 61.1 139.12C60.78 138.947 60.4 138.82 59.96 138.74C59.52 138.66 59.0533 138.62 58.56 138.62C58.0667 138.62 57.68 138.627 57.4 138.64C57.12 138.653 56.8667 138.673 56.64 138.7V142.98ZM71.4716 149.66C71.9116 149.66 72.2982 149.653 72.6316 149.64C72.9782 149.613 73.2649 149.573 73.4916 149.52V146.42C73.3582 146.353 73.1382 146.3 72.8316 146.26C72.5382 146.207 72.1782 146.18 71.7516 146.18C71.4716 146.18 71.1716 146.2 70.8516 146.24C70.5449 146.28 70.2582 146.367 69.9916 146.5C69.7382 146.62 69.5249 146.793 69.3516 147.02C69.1782 147.233 69.0916 147.52 69.0916 147.88C69.0916 148.547 69.3049 149.013 69.7316 149.28C70.1582 149.533 70.7382 149.66 71.4716 149.66ZM71.3116 140.34C72.0582 140.34 72.6849 140.44 73.1916 140.64C73.7116 140.827 74.1249 141.1 74.4316 141.46C74.7516 141.807 74.9782 142.227 75.1116 142.72C75.2449 143.2 75.3116 143.733 75.3116 144.32V150.82C75.1516 150.847 74.9249 150.887 74.6316 150.94C74.3516 150.98 74.0316 151.02 73.6716 151.06C73.3116 151.1 72.9182 151.133 72.4916 151.16C72.0782 151.2 71.6649 151.22 71.2516 151.22C70.6649 151.22 70.1249 151.16 69.6316 151.04C69.1382 150.92 68.7116 150.733 68.3516 150.48C67.9916 150.213 67.7116 149.867 67.5116 149.44C67.3116 149.013 67.2116 148.5 67.2116 147.9C67.2116 147.327 67.3249 146.833 67.5516 146.42C67.7916 146.007 68.1116 145.673 68.5116 145.42C68.9116 145.167 69.3782 144.98 69.9116 144.86C70.4449 144.74 71.0049 144.68 71.5916 144.68C71.7782 144.68 71.9716 144.693 72.1716 144.72C72.3716 144.733 72.5582 144.76 72.7316 144.8C72.9182 144.827 73.0782 144.853 73.2116 144.88C73.3449 144.907 73.4382 144.927 73.4916 144.94V144.42C73.4916 144.113 73.4582 143.813 73.3916 143.52C73.3249 143.213 73.2049 142.947 73.0316 142.72C72.8582 142.48 72.6182 142.293 72.3116 142.16C72.0182 142.013 71.6316 141.94 71.1516 141.94C70.5382 141.94 69.9982 141.987 69.5316 142.08C69.0782 142.16 68.7382 142.247 68.5116 142.34L68.2916 140.8C68.5316 140.693 68.9316 140.593 69.4916 140.5C70.0516 140.393 70.6582 140.34 71.3116 140.34ZM80.8808 143.34C80.7474 144.66 80.6474 145.98 80.5808 147.3C80.5141 148.607 80.4608 149.84 80.4208 151H78.6408C78.6674 150.187 78.7074 149.34 78.7608 148.46C78.8141 147.567 78.8741 146.673 78.9408 145.78C79.0074 144.873 79.0808 143.987 79.1608 143.12C79.2408 142.24 79.3274 141.4 79.4208 140.6H81.1208C81.5474 141.293 82.0474 142.247 82.6208 143.46C83.1941 144.66 83.8541 146.047 84.6008 147.62C85.3474 146.047 86.0074 144.66 86.5808 143.46C87.1541 142.247 87.6541 141.293 88.0808 140.6H89.8008C89.8941 141.4 89.9808 142.24 90.0608 143.12C90.1408 143.987 90.2141 144.873 90.2808 145.78C90.3474 146.673 90.4074 147.567 90.4608 148.46C90.5141 149.34 90.5541 150.187 90.5808 151H88.7408C88.7008 149.84 88.6474 148.607 88.5808 147.3C88.5141 145.98 88.4141 144.66 88.2808 143.34C88.0674 143.753 87.8208 144.253 87.5408 144.84C87.2608 145.413 86.9808 146 86.7008 146.6C86.4341 147.2 86.1808 147.773 85.9408 148.32C85.7008 148.867 85.5141 149.3 85.3808 149.62H83.8208C83.6741 149.287 83.4741 148.847 83.2208 148.3C82.9808 147.753 82.7208 147.18 82.4408 146.58C82.1741 145.967 81.9008 145.373 81.6208 144.8C81.3408 144.213 81.0941 143.727 80.8808 143.34Z" fill="#0231A1"/>
</svg>
