<svg width="400" height="101" viewBox="0 0 400 101" fill="none" xmlns="http://www.w3.org/2000/svg">
<path d="M2.18315 52.317C1.45963 51.8668 1.09787 51.6417 0.973951 51.3531C0.865736 51.1012 0.865736 50.8158 0.973951 50.5639C1.09787 50.2754 1.45963 50.0503 2.18315 49.6L23.8221 36.1352C24.6204 35.6384 25.0196 35.39 25.3489 35.4169C25.6359 35.4404 25.8989 35.5865 26.0705 35.8178C26.2674 36.0832 26.2674 36.5533 26.2674 37.4936L26.2674 64.4234C26.2674 65.3637 26.2674 65.8338 26.0705 66.0992C25.8989 66.3305 25.6359 66.4766 25.3489 66.5001C25.0196 66.527 24.6204 66.2786 23.8221 65.7819L2.18315 52.317Z" fill="#CCD3E4"/>
<rect x="21.0139" width="378.25" height="100.03" rx="10" fill="#CCD3E4"/>
<path d="M57.98 14.14C57.5667 14.5933 57.1 15.1 56.58 15.66C56.06 16.2067 55.5133 16.7733 54.94 17.36C54.38 17.9333 53.82 18.5 53.26 19.06C52.7 19.62 52.1733 20.14 51.68 20.62C52.2533 21.02 52.86 21.5133 53.5 22.1C54.14 22.6867 54.7667 23.3133 55.38 23.98C55.9933 24.6467 56.5667 25.3267 57.1 26.02C57.6467 26.7133 58.1 27.3733 58.46 28H56.18C55.78 27.3733 55.32 26.7467 54.8 26.12C54.28 25.48 53.7267 24.8733 53.14 24.3C52.5667 23.7133 51.98 23.1733 51.38 22.68C50.7933 22.1867 50.22 21.7667 49.66 21.42V28H47.72V14.14H49.66V20.26C50.1267 19.82 50.64 19.3267 51.2 18.78C51.76 18.22 52.3133 17.66 52.86 17.1C53.4067 16.54 53.92 16.0067 54.4 15.5C54.8933 14.98 55.3067 14.5267 55.64 14.14H57.98ZM69.487 22.8C69.487 23.6267 69.367 24.3733 69.127 25.04C68.887 25.7067 68.547 26.28 68.107 26.76C67.6804 27.24 67.167 27.6133 66.567 27.88C65.967 28.1333 65.3137 28.26 64.607 28.26C63.9004 28.26 63.247 28.1333 62.647 27.88C62.047 27.6133 61.527 27.24 61.087 26.76C60.6604 26.28 60.327 25.7067 60.087 25.04C59.847 24.3733 59.727 23.6267 59.727 22.8C59.727 21.9867 59.847 21.2467 60.087 20.58C60.327 19.9 60.6604 19.32 61.087 18.84C61.527 18.36 62.047 17.9933 62.647 17.74C63.247 17.4733 63.9004 17.34 64.607 17.34C65.3137 17.34 65.967 17.4733 66.567 17.74C67.167 17.9933 67.6804 18.36 68.107 18.84C68.547 19.32 68.887 19.9 69.127 20.58C69.367 21.2467 69.487 21.9867 69.487 22.8ZM67.547 22.8C67.547 21.6267 67.2804 20.7 66.747 20.02C66.227 19.3267 65.5137 18.98 64.607 18.98C63.7004 18.98 62.9804 19.3267 62.447 20.02C61.927 20.7 61.667 21.6267 61.667 22.8C61.667 23.9733 61.927 24.9067 62.447 25.6C62.9804 26.28 63.7004 26.62 64.607 26.62C65.5137 26.62 66.227 26.28 66.747 25.6C67.2804 24.9067 67.547 23.9733 67.547 22.8ZM71.3239 26.48H72.4439C72.8839 25.84 73.2306 25.18 73.4839 24.5C73.7506 23.82 73.9506 23.12 74.0839 22.4C74.2172 21.6667 74.3039 20.9067 74.3439 20.12C74.3839 19.32 74.4106 18.48 74.4239 17.6H81.2439V26.48H82.6439V30.9H80.8839V28H73.0839V30.9H71.3239V26.48ZM79.3839 26.48V19.16H76.1239C76.1106 19.7867 76.0772 20.42 76.0239 21.06C75.9706 21.6867 75.8839 22.3133 75.7639 22.94C75.6439 23.5533 75.4706 24.16 75.2439 24.76C75.0306 25.3467 74.7572 25.92 74.4239 26.48H79.3839ZM98.8036 28H96.9436V23.4H92.1436V28H90.2836V17.6H92.1436V21.84H96.9436V17.6H98.8036V28ZM101.282 29.94C101.429 30.0067 101.616 30.0667 101.842 30.12C102.082 30.1867 102.316 30.22 102.542 30.22C103.276 30.22 103.849 30.0533 104.262 29.72C104.676 29.4 105.049 28.8733 105.382 28.14C104.542 26.54 103.756 24.8467 103.022 23.06C102.302 21.26 101.702 19.44 101.222 17.6H103.222C103.369 18.2 103.542 18.8467 103.742 19.54C103.956 20.2333 104.189 20.9467 104.442 21.68C104.696 22.4133 104.969 23.1467 105.262 23.88C105.556 24.6133 105.862 25.32 106.182 26C106.689 24.6 107.129 23.2133 107.502 21.84C107.876 20.4667 108.229 19.0533 108.562 17.6H110.482C110.002 19.56 109.469 21.4467 108.882 23.26C108.296 25.06 107.662 26.7467 106.982 28.32C106.716 28.92 106.436 29.4333 106.142 29.86C105.862 30.3 105.549 30.66 105.202 30.94C104.856 31.22 104.462 31.4267 104.022 31.56C103.596 31.6933 103.109 31.76 102.562 31.76C102.416 31.76 102.262 31.7467 102.102 31.72C101.942 31.7067 101.782 31.68 101.622 31.64C101.476 31.6133 101.336 31.58 101.202 31.54C101.082 31.5 100.996 31.4667 100.942 31.44L101.282 29.94ZM125.764 17.6C125.497 17.9333 125.197 18.3 124.864 18.7C124.53 19.0867 124.184 19.4933 123.824 19.92C123.464 20.3333 123.097 20.7467 122.724 21.16C122.364 21.5733 122.017 21.9667 121.684 22.34C122.084 22.7267 122.497 23.1467 122.924 23.6C123.35 24.0533 123.764 24.5267 124.164 25.02C124.577 25.5 124.97 26 125.344 26.52C125.717 27.0267 126.044 27.52 126.324 28H124.244C123.964 27.56 123.637 27.1 123.264 26.62C122.904 26.1267 122.524 25.6533 122.124 25.2C121.737 24.7467 121.344 24.3267 120.944 23.94C120.557 23.54 120.197 23.2133 119.864 22.96V28H118.084V22.96C117.75 23.2133 117.384 23.54 116.984 23.94C116.597 24.3267 116.204 24.7467 115.804 25.2C115.417 25.6533 115.037 26.1267 114.664 26.62C114.304 27.1 113.984 27.56 113.704 28H111.644C111.924 27.52 112.244 27.0267 112.604 26.52C112.977 26.0133 113.364 25.52 113.764 25.04C114.177 24.5467 114.597 24.0733 115.024 23.62C115.45 23.1667 115.864 22.7467 116.264 22.36C115.93 21.9867 115.577 21.5933 115.204 21.18C114.844 20.7667 114.484 20.3533 114.124 19.94C113.764 19.5133 113.417 19.1067 113.084 18.72C112.75 18.32 112.444 17.9467 112.164 17.6H114.224C114.704 18.2 115.257 18.8667 115.884 19.6C116.51 20.3333 117.244 21.18 118.084 22.14V17.6H119.864V22.14C120.704 21.18 121.437 20.3333 122.064 19.6C122.69 18.8667 123.244 18.2 123.724 17.6H125.764ZM127.59 22.82C127.59 21.9 127.724 21.1 127.99 20.42C128.257 19.7267 128.61 19.1533 129.05 18.7C129.49 18.2467 129.997 17.9067 130.57 17.68C131.144 17.4533 131.73 17.34 132.33 17.34C133.73 17.34 134.804 17.78 135.55 18.66C136.297 19.5267 136.67 20.8533 136.67 22.64C136.67 22.72 136.67 22.8267 136.67 22.96C136.67 23.08 136.664 23.1933 136.65 23.3H129.53C129.61 24.38 129.924 25.2 130.47 25.76C131.017 26.32 131.87 26.6 133.03 26.6C133.684 26.6 134.23 26.5467 134.67 26.44C135.124 26.32 135.464 26.2067 135.69 26.1L135.95 27.66C135.724 27.78 135.324 27.9067 134.75 28.04C134.19 28.1733 133.55 28.24 132.83 28.24C131.924 28.24 131.137 28.1067 130.47 27.84C129.817 27.56 129.277 27.18 128.85 26.7C128.424 26.22 128.104 25.6533 127.89 25C127.69 24.3333 127.59 23.6067 127.59 22.82ZM134.73 21.8C134.744 20.96 134.53 20.2733 134.09 19.74C133.664 19.1933 133.07 18.92 132.31 18.92C131.884 18.92 131.504 19.0067 131.17 19.18C130.85 19.34 130.577 19.5533 130.35 19.82C130.124 20.0867 129.944 20.3933 129.81 20.74C129.69 21.0867 129.61 21.44 129.57 21.8H134.73ZM148.362 28H146.502V23.4H141.702V28H139.842V17.6H141.702V21.84H146.502V17.6H148.362V28ZM155.91 26.48H157.03C157.47 25.84 157.817 25.18 158.07 24.5C158.337 23.82 158.537 23.12 158.67 22.4C158.803 21.6667 158.89 20.9067 158.93 20.12C158.97 19.32 158.997 18.48 159.01 17.6H165.83V26.48H167.23V30.9H165.47V28H157.67V30.9H155.91V26.48ZM163.97 26.48V19.16H160.71C160.697 19.7867 160.663 20.42 160.61 21.06C160.557 21.6867 160.47 22.3133 160.35 22.94C160.23 23.5533 160.057 24.16 159.83 24.76C159.617 25.3467 159.343 25.92 159.01 26.48H163.97ZM173.79 19.16C173.79 19.6 173.777 20.0733 173.75 20.58C173.737 21.0733 173.704 21.5733 173.65 22.08C173.597 22.5733 173.524 23.0667 173.43 23.56C173.337 24.04 173.217 24.4933 173.07 24.92C172.924 25.3467 172.737 25.7467 172.51 26.12C172.297 26.4933 172.03 26.8267 171.71 27.12C171.39 27.4 171.017 27.64 170.59 27.84C170.164 28.0267 169.664 28.1467 169.09 28.2L168.83 26.64C169.484 26.5067 169.997 26.26 170.37 25.9C170.757 25.54 171.064 25.1 171.29 24.58C171.49 24.1267 171.637 23.6133 171.73 23.04C171.824 22.4667 171.89 21.8733 171.93 21.26C171.97 20.6333 171.99 20.0067 171.99 19.38C172.004 18.7533 172.01 18.16 172.01 17.6H178.93V28H177.07V19.16H173.79ZM186.923 23.96C186.723 23.96 186.53 23.96 186.343 23.96C186.157 23.9467 185.977 23.9333 185.803 23.92C185.377 24.56 184.963 25.2467 184.563 25.98C184.177 26.7 183.83 27.3733 183.523 28H181.643C181.803 27.6133 181.99 27.22 182.203 26.82C182.417 26.4067 182.63 26.0067 182.843 25.62C183.07 25.2333 183.297 24.8667 183.523 24.52C183.75 24.1733 183.963 23.86 184.163 23.58C183.79 23.4467 183.483 23.2867 183.243 23.1C183.003 22.9 182.81 22.68 182.663 22.44C182.517 22.2 182.41 21.9467 182.343 21.68C182.29 21.4 182.263 21.12 182.263 20.84C182.263 20.2533 182.37 19.74 182.583 19.3C182.81 18.86 183.117 18.5 183.503 18.22C183.89 17.9267 184.343 17.7067 184.863 17.56C185.397 17.4133 185.977 17.34 186.603 17.34C187.483 17.34 188.23 17.38 188.843 17.46C189.457 17.54 189.97 17.6333 190.383 17.74V28H188.543V23.96H186.923ZM188.543 18.98C188.397 18.9533 188.15 18.9267 187.803 18.9C187.47 18.8733 187.083 18.86 186.643 18.86C185.883 18.86 185.27 19.02 184.803 19.34C184.337 19.6467 184.103 20.14 184.103 20.82C184.103 21.4867 184.343 21.9467 184.823 22.2C185.303 22.4533 185.923 22.58 186.683 22.58H188.543V18.98ZM55.96 44H54.1V35.16H49.46V44H47.6V33.6H55.96V44ZM68.8425 38.8C68.8425 39.6267 68.7225 40.3733 68.4825 41.04C68.2425 41.7067 67.9025 42.28 67.4625 42.76C67.0358 43.24 66.5225 43.6133 65.9225 43.88C65.3225 44.1333 64.6692 44.26 63.9625 44.26C63.2558 44.26 62.6025 44.1333 62.0025 43.88C61.4025 43.6133 60.8825 43.24 60.4425 42.76C60.0158 42.28 59.6825 41.7067 59.4425 41.04C59.2025 40.3733 59.0825 39.6267 59.0825 38.8C59.0825 37.9867 59.2025 37.2467 59.4425 36.58C59.6825 35.9 60.0158 35.32 60.4425 34.84C60.8825 34.36 61.4025 33.9933 62.0025 33.74C62.6025 33.4733 63.2558 33.34 63.9625 33.34C64.6692 33.34 65.3225 33.4733 65.9225 33.74C66.5225 33.9933 67.0358 34.36 67.4625 34.84C67.9025 35.32 68.2425 35.9 68.4825 36.58C68.7225 37.2467 68.8425 37.9867 68.8425 38.8ZM66.9025 38.8C66.9025 37.6267 66.6358 36.7 66.1025 36.02C65.5825 35.3267 64.8692 34.98 63.9625 34.98C63.0558 34.98 62.3358 35.3267 61.8025 36.02C61.2825 36.7 61.0225 37.6267 61.0225 38.8C61.0225 39.9733 61.2825 40.9067 61.8025 41.6C62.3358 42.28 63.0558 42.62 63.9625 42.62C64.8692 42.62 65.5825 42.28 66.1025 41.6C66.6358 40.9067 66.9025 39.9733 66.9025 38.8ZM70.6794 42.48H71.7994C72.2394 41.84 72.586 41.18 72.8394 40.5C73.106 39.82 73.306 39.12 73.4394 38.4C73.5727 37.6667 73.6594 36.9067 73.6994 36.12C73.7394 35.32 73.766 34.48 73.7794 33.6H80.5994V42.48H81.9994V46.9H80.2394V44H72.4394V46.9H70.6794V42.48ZM78.7394 42.48V35.16H75.4794C75.466 35.7867 75.4327 36.42 75.3794 37.06C75.326 37.6867 75.2394 38.3133 75.1194 38.94C74.9994 39.5533 74.826 40.16 74.5994 40.76C74.386 41.3467 74.1127 41.92 73.7794 42.48H78.7394ZM91.8502 33.6V35.16H88.4702V44H86.6102V35.16H83.2302V33.6H91.8502ZM96.088 42.6C96.168 42.6133 96.2813 42.6267 96.428 42.64C96.5746 42.6533 96.7413 42.6667 96.928 42.68C97.1146 42.68 97.308 42.6867 97.508 42.7C97.7213 42.7 97.9213 42.7 98.108 42.7C98.4946 42.7 98.8613 42.6733 99.208 42.62C99.568 42.5667 99.8746 42.4733 100.128 42.34C100.395 42.2067 100.601 42.0333 100.748 41.82C100.908 41.5933 100.988 41.3067 100.988 40.96C100.988 40.6267 100.915 40.3533 100.768 40.14C100.635 39.9133 100.448 39.7333 100.208 39.6C99.968 39.4667 99.6813 39.3733 99.348 39.32C99.028 39.2667 98.6813 39.24 98.308 39.24H96.088V42.6ZM98.068 37.86C98.428 37.86 98.7546 37.84 99.048 37.8C99.3546 37.7467 99.6146 37.66 99.828 37.54C100.055 37.42 100.228 37.26 100.348 37.06C100.481 36.86 100.548 36.6067 100.548 36.3C100.548 35.98 100.468 35.7267 100.308 35.54C100.148 35.3533 99.9346 35.2133 99.668 35.12C99.4146 35.0133 99.1213 34.9467 98.788 34.92C98.468 34.88 98.1413 34.86 97.808 34.86C97.5013 34.86 97.188 34.8667 96.868 34.88C96.5613 34.8933 96.3013 34.9067 96.088 34.92V37.86H98.068ZM98.028 44.18C97.2413 44.18 96.5146 44.14 95.848 44.06C95.1813 43.9933 94.6546 43.9133 94.268 43.82V33.7C94.6546 33.6067 95.1813 33.5267 95.848 33.46C96.5146 33.38 97.2413 33.34 98.028 33.34C98.5746 33.34 99.108 33.3867 99.628 33.48C100.148 33.5733 100.608 33.7333 101.008 33.96C101.408 34.1733 101.728 34.4733 101.968 34.86C102.221 35.2333 102.348 35.7 102.348 36.26C102.348 36.7667 102.221 37.2 101.968 37.56C101.715 37.92 101.375 38.2 100.948 38.4C101.521 38.6 101.975 38.9 102.308 39.3C102.655 39.6867 102.828 40.2333 102.828 40.94C102.828 41.5667 102.701 42.0867 102.448 42.5C102.208 42.9133 101.868 43.2467 101.428 43.5C101.001 43.7533 100.495 43.9267 99.908 44.02C99.3213 44.1267 98.6946 44.18 98.028 44.18ZM105.145 38.82C105.145 37.9 105.278 37.1 105.545 36.42C105.812 35.7267 106.165 35.1533 106.605 34.7C107.045 34.2467 107.552 33.9067 108.125 33.68C108.698 33.4533 109.285 33.34 109.885 33.34C111.285 33.34 112.358 33.78 113.105 34.66C113.852 35.5267 114.225 36.8533 114.225 38.64C114.225 38.72 114.225 38.8267 114.225 38.96C114.225 39.08 114.218 39.1933 114.205 39.3H107.085C107.165 40.38 107.478 41.2 108.025 41.76C108.572 42.32 109.425 42.6 110.585 42.6C111.238 42.6 111.785 42.5467 112.225 42.44C112.678 42.32 113.018 42.2067 113.245 42.1L113.505 43.66C113.278 43.78 112.878 43.9067 112.305 44.04C111.745 44.1733 111.105 44.24 110.385 44.24C109.478 44.24 108.692 44.1067 108.025 43.84C107.372 43.56 106.832 43.18 106.405 42.7C105.978 42.22 105.658 41.6533 105.445 41C105.245 40.3333 105.145 39.6067 105.145 38.82ZM112.285 37.8C112.298 36.96 112.085 36.2733 111.645 35.74C111.218 35.1933 110.625 34.92 109.865 34.92C109.438 34.92 109.058 35.0067 108.725 35.18C108.405 35.34 108.132 35.5533 107.905 35.82C107.678 36.0867 107.498 36.3933 107.365 36.74C107.245 37.0867 107.165 37.44 107.125 37.8H112.285ZM124.617 38.82C124.617 37.6067 124.317 36.6733 123.717 36.02C123.117 35.3667 122.317 35.04 121.317 35.04C120.757 35.04 120.317 35.06 119.997 35.1C119.69 35.14 119.444 35.1867 119.257 35.24V41.8C119.484 41.9867 119.81 42.1667 120.237 42.34C120.664 42.5133 121.13 42.6 121.637 42.6C122.17 42.6 122.624 42.5067 122.997 42.32C123.384 42.12 123.697 41.8533 123.937 41.52C124.177 41.1733 124.35 40.7733 124.457 40.32C124.564 39.8533 124.617 39.3533 124.617 38.82ZM126.557 38.82C126.557 39.6067 126.45 40.3333 126.237 41C126.037 41.6667 125.737 42.24 125.337 42.72C124.937 43.2 124.444 43.5733 123.857 43.84C123.284 44.1067 122.624 44.24 121.877 44.24C121.277 44.24 120.744 44.16 120.277 44C119.824 43.84 119.484 43.6867 119.257 43.54V47.7H117.397V33.92C117.837 33.8133 118.384 33.7 119.037 33.58C119.704 33.4467 120.47 33.38 121.337 33.38C122.137 33.38 122.857 33.5067 123.497 33.76C124.137 34.0133 124.684 34.3733 125.137 34.84C125.59 35.3067 125.937 35.88 126.177 36.56C126.43 37.2267 126.557 37.98 126.557 38.82ZM142.045 33.6C141.778 33.9333 141.478 34.3 141.145 34.7C140.812 35.0867 140.465 35.4933 140.105 35.92C139.745 36.3333 139.378 36.7467 139.005 37.16C138.645 37.5733 138.298 37.9667 137.965 38.34C138.365 38.7267 138.778 39.1467 139.205 39.6C139.632 40.0533 140.045 40.5267 140.445 41.02C140.858 41.5 141.252 42 141.625 42.52C141.998 43.0267 142.325 43.52 142.605 44H140.525C140.245 43.56 139.918 43.1 139.545 42.62C139.185 42.1267 138.805 41.6533 138.405 41.2C138.018 40.7467 137.625 40.3267 137.225 39.94C136.838 39.54 136.478 39.2133 136.145 38.96V44H134.365V38.96C134.032 39.2133 133.665 39.54 133.265 39.94C132.878 40.3267 132.485 40.7467 132.085 41.2C131.698 41.6533 131.318 42.1267 130.945 42.62C130.585 43.1 130.265 43.56 129.985 44H127.925C128.205 43.52 128.525 43.0267 128.885 42.52C129.258 42.0133 129.645 41.52 130.045 41.04C130.458 40.5467 130.878 40.0733 131.305 39.62C131.732 39.1667 132.145 38.7467 132.545 38.36C132.212 37.9867 131.858 37.5933 131.485 37.18C131.125 36.7667 130.765 36.3533 130.405 35.94C130.045 35.5133 129.698 35.1067 129.365 34.72C129.032 34.32 128.725 33.9467 128.445 33.6H130.505C130.985 34.2 131.538 34.8667 132.165 35.6C132.792 36.3333 133.525 37.18 134.365 38.14V33.6H136.145V38.14C136.985 37.18 137.718 36.3333 138.345 35.6C138.972 34.8667 139.525 34.2 140.005 33.6H142.045ZM144.168 42.48H145.288C145.728 41.84 146.074 41.18 146.328 40.5C146.594 39.82 146.794 39.12 146.928 38.4C147.061 37.6667 147.148 36.9067 147.188 36.12C147.228 35.32 147.254 34.48 147.268 33.6H154.088V42.48H155.488V46.9H153.728V44H145.928V46.9H144.168V42.48ZM152.228 42.48V35.16H148.968C148.954 35.7867 148.921 36.42 148.868 37.06C148.814 37.6867 148.728 38.3133 148.608 38.94C148.488 39.5533 148.314 40.16 148.088 40.76C147.874 41.3467 147.601 41.92 147.268 42.48H152.228ZM157.418 38.82C157.418 37.9 157.552 37.1 157.818 36.42C158.085 35.7267 158.438 35.1533 158.878 34.7C159.318 34.2467 159.825 33.9067 160.398 33.68C160.972 33.4533 161.558 33.34 162.158 33.34C163.558 33.34 164.632 33.78 165.378 34.66C166.125 35.5267 166.498 36.8533 166.498 38.64C166.498 38.72 166.498 38.8267 166.498 38.96C166.498 39.08 166.492 39.1933 166.478 39.3H159.358C159.438 40.38 159.752 41.2 160.298 41.76C160.845 42.32 161.698 42.6 162.858 42.6C163.512 42.6 164.058 42.5467 164.498 42.44C164.952 42.32 165.292 42.2067 165.518 42.1L165.778 43.66C165.552 43.78 165.152 43.9067 164.578 44.04C164.018 44.1733 163.378 44.24 162.658 44.24C161.752 44.24 160.965 44.1067 160.298 43.84C159.645 43.56 159.105 43.18 158.678 42.7C158.252 42.22 157.932 41.6533 157.718 41C157.518 40.3333 157.418 39.6067 157.418 38.82ZM164.558 37.8C164.572 36.96 164.358 36.2733 163.918 35.74C163.492 35.1933 162.898 34.92 162.138 34.92C161.712 34.92 161.332 35.0067 160.998 35.18C160.678 35.34 160.405 35.5533 160.178 35.82C159.952 36.0867 159.772 36.3933 159.638 36.74C159.518 37.0867 159.438 37.44 159.398 37.8H164.558ZM178.19 44H176.33V39.4H171.53V44H169.67V33.6H171.53V37.84H176.33V33.6H178.19V44ZM190.629 33.6V44H188.829V36.08C188.429 36.5867 187.989 37.18 187.509 37.86C187.029 38.54 186.549 39.2467 186.069 39.98C185.589 40.7 185.129 41.4133 184.689 42.12C184.249 42.8267 183.869 43.4533 183.549 44H181.889V33.6H183.689V41.08C184.036 40.5067 184.429 39.88 184.869 39.2C185.309 38.5067 185.762 37.8267 186.229 37.16C186.709 36.48 187.182 35.8333 187.649 35.22C188.129 34.5933 188.576 34.0533 188.989 33.6H190.629ZM198.623 39.96C198.423 39.96 198.229 39.96 198.043 39.96C197.856 39.9467 197.676 39.9333 197.503 39.92C197.076 40.56 196.663 41.2467 196.263 41.98C195.876 42.7 195.529 43.3733 195.223 44H193.343C193.503 43.6133 193.689 43.22 193.903 42.82C194.116 42.4067 194.329 42.0067 194.543 41.62C194.769 41.2333 194.996 40.8667 195.223 40.52C195.449 40.1733 195.663 39.86 195.863 39.58C195.489 39.4467 195.183 39.2867 194.943 39.1C194.703 38.9 194.509 38.68 194.363 38.44C194.216 38.2 194.109 37.9467 194.043 37.68C193.989 37.4 193.963 37.12 193.963 36.84C193.963 36.2533 194.069 35.74 194.283 35.3C194.509 34.86 194.816 34.5 195.203 34.22C195.589 33.9267 196.043 33.7067 196.563 33.56C197.096 33.4133 197.676 33.34 198.303 33.34C199.183 33.34 199.929 33.38 200.543 33.46C201.156 33.54 201.669 33.6333 202.083 33.74V44H200.243V39.96H198.623ZM200.243 34.98C200.096 34.9533 199.849 34.9267 199.503 34.9C199.169 34.8733 198.783 34.86 198.343 34.86C197.583 34.86 196.969 35.02 196.503 35.34C196.036 35.6467 195.803 36.14 195.803 36.82C195.803 37.4867 196.043 37.9467 196.523 38.2C197.003 38.4533 197.623 38.58 198.383 38.58H200.243V34.98ZM207.74 41.72C207.753 41.8267 207.76 41.9333 207.76 42.04C207.76 42.1333 207.76 42.2333 207.76 42.34C207.76 43.18 207.633 44.0067 207.38 44.82C207.14 45.6467 206.806 46.4333 206.38 47.18L204.94 46.72C205.273 46.04 205.493 45.3467 205.6 44.64C205.706 43.9467 205.76 43.2933 205.76 42.68C205.76 42.5067 205.753 42.34 205.74 42.18C205.74 42.02 205.733 41.8667 205.72 41.72H207.74ZM217.51 33.6V36.66C217.51 37.4467 217.71 38 218.11 38.32C218.51 38.6267 219.057 38.78 219.75 38.78C220.257 38.78 220.677 38.7533 221.01 38.7C221.357 38.6467 221.664 38.5867 221.93 38.52V33.6H223.79V44H221.93V39.96C221.824 39.9867 221.684 40.02 221.51 40.06C221.337 40.1 221.137 40.14 220.91 40.18C220.697 40.2067 220.47 40.2333 220.23 40.26C219.99 40.2867 219.757 40.3 219.53 40.3C218.957 40.3 218.43 40.24 217.95 40.12C217.484 40 217.077 39.8 216.73 39.52C216.397 39.24 216.13 38.8733 215.93 38.42C215.744 37.9533 215.65 37.3733 215.65 36.68V33.6H217.51ZM234.835 33.6V35.16H231.455V44H229.595V35.16H226.215V33.6H234.835ZM246.432 38.8C246.432 39.6267 246.312 40.3733 246.072 41.04C245.832 41.7067 245.492 42.28 245.052 42.76C244.626 43.24 244.112 43.6133 243.512 43.88C242.912 44.1333 242.259 44.26 241.552 44.26C240.846 44.26 240.192 44.1333 239.592 43.88C238.992 43.6133 238.472 43.24 238.032 42.76C237.606 42.28 237.272 41.7067 237.032 41.04C236.792 40.3733 236.672 39.6267 236.672 38.8C236.672 37.9867 236.792 37.2467 237.032 36.58C237.272 35.9 237.606 35.32 238.032 34.84C238.472 34.36 238.992 33.9933 239.592 33.74C240.192 33.4733 240.846 33.34 241.552 33.34C242.259 33.34 242.912 33.4733 243.512 33.74C244.112 33.9933 244.626 34.36 245.052 34.84C245.492 35.32 245.832 35.9 246.072 36.58C246.312 37.2467 246.432 37.9867 246.432 38.8ZM244.492 38.8C244.492 37.6267 244.226 36.7 243.692 36.02C243.172 35.3267 242.459 34.98 241.552 34.98C240.646 34.98 239.926 35.3267 239.392 36.02C238.872 36.7 238.612 37.6267 238.612 38.8C238.612 39.9733 238.872 40.9067 239.392 41.6C239.926 42.28 240.646 42.62 241.552 42.62C242.459 42.62 243.172 42.28 243.692 41.6C244.226 40.9067 244.492 39.9733 244.492 38.8ZM258.538 44.12C258.258 44.12 257.951 44.1133 257.618 44.1C257.298 44.0867 256.971 44.0667 256.638 44.04C256.318 44.0133 255.998 43.98 255.678 43.94C255.358 43.9 255.065 43.8467 254.798 43.78V30.34C255.065 30.2733 255.358 30.22 255.678 30.18C255.998 30.14 256.318 30.1067 256.638 30.08C256.971 30.0533 257.298 30.0333 257.618 30.02C257.938 30.0067 258.238 30 258.518 30C259.318 30 260.065 30.06 260.758 30.18C261.465 30.3 262.071 30.5067 262.578 30.8C263.098 31.08 263.505 31.4533 263.798 31.92C264.091 32.3867 264.238 32.96 264.238 33.64C264.238 34.4 264.058 35.0267 263.698 35.52C263.338 36 262.858 36.36 262.258 36.6C263.071 36.84 263.718 37.22 264.198 37.74C264.678 38.26 264.918 38.9933 264.918 39.94C264.918 41.3267 264.405 42.3733 263.378 43.08C262.365 43.7733 260.751 44.12 258.538 44.12ZM256.718 37.54V42.42C256.865 42.4333 257.038 42.4467 257.238 42.46C257.411 42.4733 257.611 42.4867 257.838 42.5C258.078 42.5 258.351 42.5 258.658 42.5C259.231 42.5 259.771 42.4667 260.278 42.4C260.798 42.32 261.251 42.1867 261.638 42C262.025 41.8133 262.331 41.5533 262.558 41.22C262.798 40.8867 262.918 40.4667 262.918 39.96C262.918 39.5067 262.831 39.1267 262.658 38.82C262.485 38.5 262.231 38.2467 261.898 38.06C261.578 37.8733 261.191 37.74 260.738 37.66C260.285 37.58 259.778 37.54 259.218 37.54H256.718ZM256.718 35.98H258.758C259.238 35.98 259.691 35.9467 260.118 35.88C260.545 35.8133 260.911 35.6933 261.218 35.52C261.538 35.3467 261.785 35.12 261.958 34.84C262.145 34.56 262.238 34.2067 262.238 33.78C262.238 33.38 262.145 33.0467 261.958 32.78C261.771 32.5 261.511 32.28 261.178 32.12C260.858 31.9467 260.478 31.82 260.038 31.74C259.598 31.66 259.131 31.62 258.638 31.62C258.145 31.62 257.758 31.6267 257.478 31.64C257.198 31.6533 256.945 31.6733 256.718 31.7V35.98ZM271.85 38.86C271.49 38.86 271.136 38.8733 270.79 38.9C270.456 38.9133 270.156 38.9533 269.89 39.02V42.6C269.97 42.6133 270.083 42.6267 270.23 42.64C270.39 42.6533 270.556 42.6667 270.73 42.68C270.916 42.68 271.103 42.6867 271.29 42.7C271.476 42.7 271.643 42.7 271.79 42.7C272.603 42.7 273.23 42.5467 273.67 42.24C274.11 41.9333 274.33 41.44 274.33 40.76C274.33 40.4267 274.256 40.14 274.11 39.9C273.976 39.66 273.79 39.4667 273.55 39.32C273.323 39.16 273.063 39.0467 272.77 38.98C272.476 38.9 272.17 38.86 271.85 38.86ZM268.03 33.6H269.89V37.58C270.116 37.5267 270.443 37.4733 270.87 37.42C271.31 37.3667 271.73 37.34 272.13 37.34C272.676 37.34 273.196 37.4067 273.69 37.54C274.183 37.66 274.616 37.86 274.99 38.14C275.363 38.4067 275.656 38.76 275.87 39.2C276.096 39.6267 276.21 40.14 276.21 40.74C276.21 41.3667 276.103 41.9 275.89 42.34C275.676 42.78 275.376 43.14 274.99 43.42C274.603 43.7 274.136 43.9 273.59 44.02C273.043 44.1533 272.443 44.22 271.79 44.22C271.163 44.22 270.53 44.18 269.89 44.1C269.25 44.0333 268.63 43.9267 268.03 43.78V33.6ZM279.99 44H278.13V33.6H279.99V44ZM50.24 49.34C50.84 49.34 51.4 49.4 51.92 49.52C52.44 49.64 52.8867 49.82 53.26 50.06C53.6333 50.3 53.9267 50.6 54.14 50.96C54.3533 51.32 54.46 51.74 54.46 52.22C54.46 52.5267 54.4067 52.8067 54.3 53.06C54.1933 53.3133 54.06 53.54 53.9 53.74C53.74 53.94 53.56 54.1133 53.36 54.26C53.1733 54.3933 52.9933 54.4867 52.82 54.54C53.4333 54.7267 53.9133 55.06 54.26 55.54C54.62 56.0067 54.8 56.6 54.8 57.32C54.8 58.3067 54.4 59.04 53.6 59.52C52.8 60 51.7133 60.24 50.34 60.24C49.5 60.24 48.7733 60.1733 48.16 60.04C47.56 59.9067 47.1333 59.78 46.88 59.66L47.2 58.08C47.4133 58.16 47.7933 58.2733 48.34 58.42C48.9 58.5533 49.5667 58.62 50.34 58.62C51.18 58.62 51.82 58.4933 52.26 58.24C52.7 57.9733 52.92 57.58 52.92 57.06C52.92 56.6867 52.8333 56.3867 52.66 56.16C52.5 55.92 52.2933 55.74 52.04 55.62C51.7867 55.5 51.5133 55.42 51.22 55.38C50.9267 55.34 50.6533 55.32 50.4 55.32H48.66V53.84H50.34C50.58 53.84 50.8267 53.8267 51.08 53.8C51.3467 53.76 51.5867 53.6867 51.8 53.58C52.0267 53.4733 52.2133 53.3267 52.36 53.14C52.5067 52.94 52.58 52.68 52.58 52.36C52.58 52.1067 52.5133 51.8933 52.38 51.72C52.26 51.5333 52.0933 51.38 51.88 51.26C51.6667 51.14 51.4133 51.0533 51.12 51C50.84 50.9333 50.5467 50.9 50.24 50.9C50 50.9 49.74 50.92 49.46 50.96C49.18 51 48.9067 51.0533 48.64 51.12C48.3733 51.1733 48.1333 51.2333 47.92 51.3C47.7067 51.3667 47.5533 51.4267 47.46 51.48L47.12 49.88C47.2267 49.84 47.3933 49.7867 47.62 49.72C47.8467 49.6533 48.1 49.5933 48.38 49.54C48.6733 49.4867 48.98 49.44 49.3 49.4C49.62 49.36 49.9333 49.34 50.24 49.34ZM61.4052 58.66C61.8452 58.66 62.2318 58.6533 62.5652 58.64C62.9118 58.6133 63.1985 58.5733 63.4252 58.52V55.42C63.2918 55.3533 63.0718 55.3 62.7652 55.26C62.4718 55.2067 62.1118 55.18 61.6852 55.18C61.4052 55.18 61.1052 55.2 60.7852 55.24C60.4785 55.28 60.1918 55.3667 59.9252 55.5C59.6718 55.62 59.4585 55.7933 59.2852 56.02C59.1118 56.2333 59.0252 56.52 59.0252 56.88C59.0252 57.5467 59.2385 58.0133 59.6652 58.28C60.0918 58.5333 60.6718 58.66 61.4052 58.66ZM61.2452 49.34C61.9918 49.34 62.6185 49.44 63.1252 49.64C63.6452 49.8267 64.0585 50.1 64.3652 50.46C64.6852 50.8067 64.9118 51.2267 65.0452 51.72C65.1785 52.2 65.2452 52.7333 65.2452 53.32V59.82C65.0852 59.8467 64.8585 59.8867 64.5652 59.94C64.2852 59.98 63.9652 60.02 63.6052 60.06C63.2452 60.1 62.8518 60.1333 62.4252 60.16C62.0118 60.2 61.5985 60.22 61.1852 60.22C60.5985 60.22 60.0585 60.16 59.5652 60.04C59.0718 59.92 58.6452 59.7333 58.2852 59.48C57.9252 59.2133 57.6452 58.8667 57.4452 58.44C57.2452 58.0133 57.1452 57.5 57.1452 56.9C57.1452 56.3267 57.2585 55.8333 57.4852 55.42C57.7252 55.0067 58.0452 54.6733 58.4452 54.42C58.8452 54.1667 59.3118 53.98 59.8452 53.86C60.3785 53.74 60.9385 53.68 61.5252 53.68C61.7118 53.68 61.9052 53.6933 62.1052 53.72C62.3052 53.7333 62.4918 53.76 62.6652 53.8C62.8518 53.8267 63.0118 53.8533 63.1452 53.88C63.2785 53.9067 63.3718 53.9267 63.4252 53.94V53.42C63.4252 53.1133 63.3918 52.8133 63.3252 52.52C63.2585 52.2133 63.1385 51.9467 62.9652 51.72C62.7918 51.48 62.5518 51.2933 62.2452 51.16C61.9518 51.0133 61.5652 50.94 61.0852 50.94C60.4718 50.94 59.9318 50.9867 59.4652 51.08C59.0118 51.16 58.6718 51.2467 58.4452 51.34L58.2252 49.8C58.4652 49.6933 58.8652 49.5933 59.4252 49.5C59.9852 49.3933 60.5918 49.34 61.2452 49.34ZM70.6544 58.6C70.7344 58.6133 70.8477 58.6267 70.9944 58.64C71.141 58.6533 71.3077 58.6667 71.4944 58.68C71.681 58.68 71.8744 58.6867 72.0744 58.7C72.2877 58.7 72.4877 58.7 72.6744 58.7C73.061 58.7 73.4277 58.6733 73.7744 58.62C74.1344 58.5667 74.441 58.4733 74.6944 58.34C74.961 58.2067 75.1677 58.0333 75.3144 57.82C75.4744 57.5933 75.5544 57.3067 75.5544 56.96C75.5544 56.6267 75.481 56.3533 75.3344 56.14C75.201 55.9133 75.0144 55.7333 74.7744 55.6C74.5344 55.4667 74.2477 55.3733 73.9144 55.32C73.5944 55.2667 73.2477 55.24 72.8744 55.24H70.6544V58.6ZM72.6344 53.86C72.9944 53.86 73.321 53.84 73.6144 53.8C73.921 53.7467 74.181 53.66 74.3944 53.54C74.621 53.42 74.7944 53.26 74.9144 53.06C75.0477 52.86 75.1144 52.6067 75.1144 52.3C75.1144 51.98 75.0344 51.7267 74.8744 51.54C74.7144 51.3533 74.501 51.2133 74.2344 51.12C73.981 51.0133 73.6877 50.9467 73.3544 50.92C73.0344 50.88 72.7077 50.86 72.3744 50.86C72.0677 50.86 71.7544 50.8667 71.4344 50.88C71.1277 50.8933 70.8677 50.9067 70.6544 50.92V53.86H72.6344ZM72.5944 60.18C71.8077 60.18 71.081 60.14 70.4144 60.06C69.7477 59.9933 69.221 59.9133 68.8344 59.82V49.7C69.221 49.6067 69.7477 49.5267 70.4144 49.46C71.081 49.38 71.8077 49.34 72.5944 49.34C73.141 49.34 73.6744 49.3867 74.1944 49.48C74.7144 49.5733 75.1744 49.7333 75.5744 49.96C75.9744 50.1733 76.2944 50.4733 76.5344 50.86C76.7877 51.2333 76.9144 51.7 76.9144 52.26C76.9144 52.7667 76.7877 53.2 76.5344 53.56C76.281 53.92 75.941 54.2 75.5144 54.4C76.0877 54.6 76.541 54.9 76.8744 55.3C77.221 55.6867 77.3944 56.2333 77.3944 56.94C77.3944 57.5667 77.2677 58.0867 77.0144 58.5C76.7744 58.9133 76.4344 59.2467 75.9944 59.5C75.5677 59.7533 75.061 59.9267 74.4744 60.02C73.8877 60.1267 73.261 60.18 72.5944 60.18ZM79.7114 54.82C79.7114 53.9 79.8447 53.1 80.1114 52.42C80.3781 51.7267 80.7314 51.1533 81.1714 50.7C81.6114 50.2467 82.1181 49.9067 82.6914 49.68C83.2647 49.4533 83.8514 49.34 84.4514 49.34C85.8514 49.34 86.9247 49.78 87.6714 50.66C88.4181 51.5267 88.7914 52.8533 88.7914 54.64C88.7914 54.72 88.7914 54.8267 88.7914 54.96C88.7914 55.08 88.7847 55.1933 88.7714 55.3H81.6514C81.7314 56.38 82.0447 57.2 82.5914 57.76C83.1381 58.32 83.9914 58.6 85.1514 58.6C85.8047 58.6 86.3514 58.5467 86.7914 58.44C87.2447 58.32 87.5847 58.2067 87.8114 58.1L88.0714 59.66C87.8447 59.78 87.4447 59.9067 86.8714 60.04C86.3114 60.1733 85.6714 60.24 84.9514 60.24C84.0447 60.24 83.2581 60.1067 82.5914 59.84C81.9381 59.56 81.3981 59.18 80.9714 58.7C80.5447 58.22 80.2247 57.6533 80.0114 57C79.8114 56.3333 79.7114 55.6067 79.7114 54.82ZM86.8514 53.8C86.8647 52.96 86.6514 52.2733 86.2114 51.74C85.7847 51.1933 85.1914 50.92 84.4314 50.92C84.0047 50.92 83.6247 51.0067 83.2914 51.18C82.9714 51.34 82.6981 51.5533 82.4714 51.82C82.2447 52.0867 82.0647 52.3933 81.9314 52.74C81.8114 53.0867 81.7314 53.44 81.6914 53.8H86.8514ZM99.1833 54.82C99.1833 53.6067 98.8833 52.6733 98.2833 52.02C97.6833 51.3667 96.8833 51.04 95.8833 51.04C95.3233 51.04 94.8833 51.06 94.5633 51.1C94.2566 51.14 94.0099 51.1867 93.8233 51.24V57.8C94.0499 57.9867 94.3766 58.1667 94.8033 58.34C95.2299 58.5133 95.6966 58.6 96.2033 58.6C96.7366 58.6 97.1899 58.5067 97.5633 58.32C97.9499 58.12 98.2633 57.8533 98.5033 57.52C98.7433 57.1733 98.9166 56.7733 99.0233 56.32C99.1299 55.8533 99.1833 55.3533 99.1833 54.82ZM101.123 54.82C101.123 55.6067 101.017 56.3333 100.803 57C100.603 57.6667 100.303 58.24 99.9033 58.72C99.5033 59.2 99.0099 59.5733 98.4233 59.84C97.8499 60.1067 97.1899 60.24 96.4433 60.24C95.8433 60.24 95.3099 60.16 94.8433 60C94.3899 59.84 94.0499 59.6867 93.8233 59.54V63.7H91.9633V49.92C92.4033 49.8133 92.9499 49.7 93.6033 49.58C94.2699 49.4467 95.0366 49.38 95.9033 49.38C96.7033 49.38 97.4233 49.5067 98.0633 49.76C98.7033 50.0133 99.2499 50.3733 99.7033 50.84C100.157 51.3067 100.503 51.88 100.743 52.56C100.997 53.2267 101.123 53.98 101.123 54.82ZM104.241 60V49.6H106.101V58.46H109.941V49.6H111.801V58.46H115.641V49.6H117.501V60H104.241ZM129.945 49.6V60H128.145V52.08C127.745 52.5867 127.305 53.18 126.825 53.86C126.345 54.54 125.865 55.2467 125.385 55.98C124.905 56.7 124.445 57.4133 124.005 58.12C123.565 58.8267 123.185 59.4533 122.865 60H121.205V49.6H123.005V57.08C123.352 56.5067 123.745 55.88 124.185 55.2C124.625 54.5067 125.079 53.8267 125.545 53.16C126.025 52.48 126.499 51.8333 126.965 51.22C127.445 50.5933 127.892 50.0533 128.305 49.6H129.945ZM137.259 51.16C137.259 51.6 137.246 52.0733 137.219 52.58C137.206 53.0733 137.172 53.5733 137.119 54.08C137.066 54.5733 136.992 55.0667 136.899 55.56C136.806 56.04 136.686 56.4933 136.539 56.92C136.392 57.3467 136.206 57.7467 135.979 58.12C135.766 58.4933 135.499 58.8267 135.179 59.12C134.859 59.4 134.486 59.64 134.059 59.84C133.632 60.0267 133.132 60.1467 132.559 60.2L132.299 58.64C132.952 58.5067 133.466 58.26 133.839 57.9C134.226 57.54 134.532 57.1 134.759 56.58C134.959 56.1267 135.106 55.6133 135.199 55.04C135.292 54.4667 135.359 53.8733 135.399 53.26C135.439 52.6333 135.459 52.0067 135.459 51.38C135.472 50.7533 135.479 50.16 135.479 49.6H142.399V60H140.539V51.16H137.259ZM154.832 49.6V60H153.032V52.08C152.632 52.5867 152.192 53.18 151.712 53.86C151.232 54.54 150.752 55.2467 150.272 55.98C149.792 56.7 149.332 57.4133 148.892 58.12C148.452 58.8267 148.072 59.4533 147.752 60H146.092V49.6H147.892V57.08C148.239 56.5067 148.632 55.88 149.072 55.2C149.512 54.5067 149.966 53.8267 150.432 53.16C150.912 52.48 151.386 51.8333 151.852 51.22C152.332 50.5933 152.779 50.0533 153.192 49.6H154.832ZM172.835 54.8C172.835 55.6267 172.715 56.3733 172.475 57.04C172.235 57.7067 171.895 58.28 171.455 58.76C171.028 59.24 170.515 59.6133 169.915 59.88C169.315 60.1333 168.661 60.26 167.955 60.26C167.248 60.26 166.595 60.1333 165.995 59.88C165.395 59.6133 164.875 59.24 164.435 58.76C164.008 58.28 163.675 57.7067 163.435 57.04C163.195 56.3733 163.075 55.6267 163.075 54.8C163.075 53.9867 163.195 53.2467 163.435 52.58C163.675 51.9 164.008 51.32 164.435 50.84C164.875 50.36 165.395 49.9933 165.995 49.74C166.595 49.4733 167.248 49.34 167.955 49.34C168.661 49.34 169.315 49.4733 169.915 49.74C170.515 49.9933 171.028 50.36 171.455 50.84C171.895 51.32 172.235 51.9 172.475 52.58C172.715 53.2467 172.835 53.9867 172.835 54.8ZM170.895 54.8C170.895 53.6267 170.628 52.7 170.095 52.02C169.575 51.3267 168.861 50.98 167.955 50.98C167.048 50.98 166.328 51.3267 165.795 52.02C165.275 52.7 165.015 53.6267 165.015 54.8C165.015 55.9733 165.275 56.9067 165.795 57.6C166.328 58.28 167.048 58.62 167.955 58.62C168.861 58.62 169.575 58.28 170.095 57.6C170.628 56.9067 170.895 55.9733 170.895 54.8ZM177.632 50.8C178.045 50.4667 178.525 50.2133 179.072 50.04C179.632 49.8533 180.165 49.76 180.672 49.76C182.165 49.76 183.292 50.22 184.052 51.14C184.825 52.0467 185.212 53.3133 185.212 54.94C185.212 55.6333 185.118 56.3 184.932 56.94C184.745 57.58 184.452 58.1467 184.052 58.64C183.665 59.1333 183.172 59.5267 182.572 59.82C181.972 60.1133 181.258 60.26 180.432 60.26C179.485 60.26 178.698 60.0867 178.072 59.74C177.445 59.3933 176.945 58.92 176.572 58.32C176.212 57.72 175.958 57.02 175.812 56.22C175.665 55.42 175.592 54.5733 175.592 53.68C175.592 52.52 175.672 51.44 175.832 50.44C176.005 49.44 176.312 48.56 176.752 47.8C177.192 47.04 177.798 46.4133 178.572 45.92C179.358 45.4133 180.365 45.0733 181.592 44.9C181.952 44.8467 182.265 44.8067 182.532 44.78C182.812 44.74 183.052 44.7067 183.252 44.68C183.465 44.6533 183.658 44.6267 183.832 44.6C184.005 44.56 184.185 44.52 184.372 44.48L184.572 46.16C184.478 46.1867 184.378 46.2067 184.272 46.22C184.178 46.2333 184.038 46.2533 183.852 46.28C183.678 46.3067 183.438 46.34 183.132 46.38C182.838 46.42 182.452 46.4667 181.972 46.52C180.652 46.6667 179.638 47.0667 178.932 47.72C178.225 48.3733 177.792 49.4 177.632 50.8ZM177.512 53.98C177.512 54.6067 177.552 55.2 177.632 55.76C177.725 56.32 177.878 56.8133 178.092 57.24C178.318 57.6667 178.618 58.0067 178.992 58.26C179.365 58.5 179.845 58.62 180.432 58.62C180.938 58.62 181.372 58.5267 181.732 58.34C182.092 58.14 182.385 57.8733 182.612 57.54C182.838 57.2067 183.005 56.82 183.112 56.38C183.218 55.9267 183.272 55.4467 183.272 54.94C183.272 54.4867 183.225 54.0467 183.132 53.62C183.052 53.1933 182.898 52.8133 182.672 52.48C182.445 52.1467 182.138 51.88 181.752 51.68C181.378 51.48 180.905 51.38 180.332 51.38C179.772 51.38 179.232 51.5 178.712 51.74C178.205 51.98 177.812 52.2733 177.532 52.62C177.518 52.7667 177.512 52.9733 177.512 53.24C177.512 53.5067 177.512 53.7533 177.512 53.98ZM187.126 61.94C187.273 62.0067 187.459 62.0667 187.686 62.12C187.926 62.1867 188.159 62.22 188.386 62.22C189.119 62.22 189.693 62.0533 190.106 61.72C190.519 61.4 190.893 60.8733 191.226 60.14C190.386 58.54 189.599 56.8467 188.866 55.06C188.146 53.26 187.546 51.44 187.066 49.6H189.066C189.213 50.2 189.386 50.8467 189.586 51.54C189.799 52.2333 190.033 52.9467 190.286 53.68C190.539 54.4133 190.813 55.1467 191.106 55.88C191.399 56.6133 191.706 57.32 192.026 58C192.533 56.6 192.973 55.2133 193.346 53.84C193.719 52.4667 194.073 51.0533 194.406 49.6H196.326C195.846 51.56 195.313 53.4467 194.726 55.26C194.139 57.06 193.506 58.7467 192.826 60.32C192.559 60.92 192.279 61.4333 191.986 61.86C191.706 62.3 191.393 62.66 191.046 62.94C190.699 63.22 190.306 63.4267 189.866 63.56C189.439 63.6933 188.953 63.76 188.406 63.76C188.259 63.76 188.106 63.7467 187.946 63.72C187.786 63.7067 187.626 63.68 187.466 63.64C187.319 63.6133 187.179 63.58 187.046 63.54C186.926 63.5 186.839 63.4667 186.786 63.44L187.126 61.94ZM199.968 49.6V52.66C199.968 53.4467 200.168 54 200.568 54.32C200.968 54.6267 201.514 54.78 202.208 54.78C202.714 54.78 203.134 54.7533 203.468 54.7C203.814 54.6467 204.121 54.5867 204.388 54.52V49.6H206.248V60H204.388V55.96C204.281 55.9867 204.141 56.02 203.968 56.06C203.794 56.1 203.594 56.14 203.368 56.18C203.154 56.2067 202.928 56.2333 202.688 56.26C202.448 56.2867 202.214 56.3 201.988 56.3C201.414 56.3 200.888 56.24 200.408 56.12C199.941 56 199.534 55.8 199.188 55.52C198.854 55.24 198.588 54.8733 198.388 54.42C198.201 53.9533 198.108 53.3733 198.108 52.68V49.6H199.968ZM209.372 54.82C209.372 53.9 209.505 53.1 209.772 52.42C210.038 51.7267 210.392 51.1533 210.832 50.7C211.272 50.2467 211.778 49.9067 212.352 49.68C212.925 49.4533 213.512 49.34 214.112 49.34C215.512 49.34 216.585 49.78 217.332 50.66C218.078 51.5267 218.452 52.8533 218.452 54.64C218.452 54.72 218.452 54.8267 218.452 54.96C218.452 55.08 218.445 55.1933 218.432 55.3H211.312C211.392 56.38 211.705 57.2 212.252 57.76C212.798 58.32 213.652 58.6 214.812 58.6C215.465 58.6 216.012 58.5467 216.452 58.44C216.905 58.32 217.245 58.2067 217.472 58.1L217.732 59.66C217.505 59.78 217.105 59.9067 216.532 60.04C215.972 60.1733 215.332 60.24 214.612 60.24C213.705 60.24 212.918 60.1067 212.252 59.84C211.598 59.56 211.058 59.18 210.632 58.7C210.205 58.22 209.885 57.6533 209.672 57C209.472 56.3333 209.372 55.6067 209.372 54.82ZM216.512 53.8C216.525 52.96 216.312 52.2733 215.872 51.74C215.445 51.1933 214.852 50.92 214.092 50.92C213.665 50.92 213.285 51.0067 212.952 51.18C212.632 51.34 212.358 51.5533 212.132 51.82C211.905 52.0867 211.725 52.3933 211.592 52.74C211.472 53.0867 211.392 53.44 211.352 53.8H216.512ZM230.143 60H228.283V55.4H223.483V60H221.623V49.6H223.483V53.84H228.283V49.6H230.143V60ZM242.582 49.6V60H240.782V52.08C240.382 52.5867 239.942 53.18 239.462 53.86C238.982 54.54 238.502 55.2467 238.022 55.98C237.542 56.7 237.082 57.4133 236.642 58.12C236.202 58.8267 235.822 59.4533 235.502 60H233.842V49.6H235.642V57.08C235.989 56.5067 236.382 55.88 236.822 55.2C237.262 54.5067 237.716 53.8267 238.182 53.16C238.662 52.48 239.136 51.8333 239.602 51.22C240.082 50.5933 240.529 50.0533 240.942 49.6H242.582ZM245.696 54.82C245.696 53.9 245.829 53.1 246.096 52.42C246.362 51.7267 246.716 51.1533 247.156 50.7C247.596 50.2467 248.102 49.9067 248.676 49.68C249.249 49.4533 249.836 49.34 250.436 49.34C251.836 49.34 252.909 49.78 253.656 50.66C254.402 51.5267 254.776 52.8533 254.776 54.64C254.776 54.72 254.776 54.8267 254.776 54.96C254.776 55.08 254.769 55.1933 254.756 55.3H247.636C247.716 56.38 248.029 57.2 248.576 57.76C249.122 58.32 249.976 58.6 251.136 58.6C251.789 58.6 252.336 58.5467 252.776 58.44C253.229 58.32 253.569 58.2067 253.796 58.1L254.056 59.66C253.829 59.78 253.429 59.9067 252.856 60.04C252.296 60.1733 251.656 60.24 250.936 60.24C250.029 60.24 249.242 60.1067 248.576 59.84C247.922 59.56 247.382 59.18 246.956 58.7C246.529 58.22 246.209 57.6533 245.996 57C245.796 56.3333 245.696 55.6067 245.696 54.82ZM252.836 53.8C252.849 52.96 252.636 52.2733 252.196 51.74C251.769 51.1933 251.176 50.92 250.416 50.92C249.989 50.92 249.609 51.0067 249.276 51.18C248.956 51.34 248.682 51.5533 248.456 51.82C248.229 52.0867 248.049 52.3933 247.916 52.74C247.796 53.0867 247.716 53.44 247.676 53.8H252.836ZM264.897 58.6C264.977 58.6133 265.09 58.6267 265.237 58.64C265.383 58.6533 265.55 58.6667 265.737 58.68C265.923 58.68 266.117 58.6867 266.317 58.7C266.53 58.7 266.73 58.7 266.917 58.7C267.303 58.7 267.67 58.6733 268.017 58.62C268.377 58.5667 268.683 58.4733 268.937 58.34C269.203 58.2067 269.41 58.0333 269.557 57.82C269.717 57.5933 269.797 57.3067 269.797 56.96C269.797 56.6267 269.723 56.3533 269.577 56.14C269.443 55.9133 269.257 55.7333 269.017 55.6C268.777 55.4667 268.49 55.3733 268.157 55.32C267.837 55.2667 267.49 55.24 267.117 55.24H264.897V58.6ZM266.877 53.86C267.237 53.86 267.563 53.84 267.857 53.8C268.163 53.7467 268.423 53.66 268.637 53.54C268.863 53.42 269.037 53.26 269.157 53.06C269.29 52.86 269.357 52.6067 269.357 52.3C269.357 51.98 269.277 51.7267 269.117 51.54C268.957 51.3533 268.743 51.2133 268.477 51.12C268.223 51.0133 267.93 50.9467 267.597 50.92C267.277 50.88 266.95 50.86 266.617 50.86C266.31 50.86 265.997 50.8667 265.677 50.88C265.37 50.8933 265.11 50.9067 264.897 50.92V53.86H266.877ZM266.837 60.18C266.05 60.18 265.323 60.14 264.657 60.06C263.99 59.9933 263.463 59.9133 263.077 59.82V49.7C263.463 49.6067 263.99 49.5267 264.657 49.46C265.323 49.38 266.05 49.34 266.837 49.34C267.383 49.34 267.917 49.3867 268.437 49.48C268.957 49.5733 269.417 49.7333 269.817 49.96C270.217 50.1733 270.537 50.4733 270.777 50.86C271.03 51.2333 271.157 51.7 271.157 52.26C271.157 52.7667 271.03 53.2 270.777 53.56C270.523 53.92 270.183 54.2 269.757 54.4C270.33 54.6 270.783 54.9 271.117 55.3C271.463 55.6867 271.637 56.2333 271.637 56.94C271.637 57.5667 271.51 58.0867 271.257 58.5C271.017 58.9133 270.677 59.2467 270.237 59.5C269.81 59.7533 269.303 59.9267 268.717 60.02C268.13 60.1267 267.503 60.18 266.837 60.18ZM57.98 62.14C57.5667 62.5933 57.1 63.1 56.58 63.66C56.06 64.2067 55.5133 64.7733 54.94 65.36C54.38 65.9333 53.82 66.5 53.26 67.06C52.7 67.62 52.1733 68.14 51.68 68.62C52.2533 69.02 52.86 69.5133 53.5 70.1C54.14 70.6867 54.7667 71.3133 55.38 71.98C55.9933 72.6467 56.5667 73.3267 57.1 74.02C57.6467 74.7133 58.1 75.3733 58.46 76H56.18C55.78 75.3733 55.32 74.7467 54.8 74.12C54.28 73.48 53.7267 72.8733 53.14 72.3C52.5667 71.7133 51.98 71.1733 51.38 70.68C50.7933 70.1867 50.22 69.7667 49.66 69.42V76H47.72V62.14H49.66V68.26C50.1267 67.82 50.64 67.3267 51.2 66.78C51.76 66.22 52.3133 65.66 52.86 65.1C53.4067 64.54 53.92 64.0067 54.4 63.5C54.8933 62.98 55.3067 62.5267 55.64 62.14H57.98ZM62.4981 74.6C62.5781 74.6133 62.6915 74.6267 62.8381 74.64C62.9848 74.6533 63.1515 74.6667 63.3381 74.68C63.5248 74.68 63.7181 74.6867 63.9181 74.7C64.1315 74.7 64.3315 74.7 64.5181 74.7C64.9048 74.7 65.2715 74.6733 65.6181 74.62C65.9781 74.5667 66.2848 74.4733 66.5381 74.34C66.8048 74.2067 67.0115 74.0333 67.1581 73.82C67.3181 73.5933 67.3981 73.3067 67.3981 72.96C67.3981 72.6267 67.3248 72.3533 67.1781 72.14C67.0448 71.9133 66.8581 71.7333 66.6181 71.6C66.3781 71.4667 66.0915 71.3733 65.7581 71.32C65.4381 71.2667 65.0915 71.24 64.7181 71.24H62.4981V74.6ZM64.4781 69.86C64.8381 69.86 65.1648 69.84 65.4581 69.8C65.7648 69.7467 66.0248 69.66 66.2381 69.54C66.4648 69.42 66.6381 69.26 66.7581 69.06C66.8915 68.86 66.9581 68.6067 66.9581 68.3C66.9581 67.98 66.8781 67.7267 66.7181 67.54C66.5581 67.3533 66.3448 67.2133 66.0781 67.12C65.8248 67.0133 65.5315 66.9467 65.1981 66.92C64.8781 66.88 64.5515 66.86 64.2181 66.86C63.9115 66.86 63.5981 66.8667 63.2781 66.88C62.9715 66.8933 62.7115 66.9067 62.4981 66.92V69.86H64.4781ZM64.4381 76.18C63.6515 76.18 62.9248 76.14 62.2581 76.06C61.5915 75.9933 61.0648 75.9133 60.6781 75.82V65.7C61.0648 65.6067 61.5915 65.5267 62.2581 65.46C62.9248 65.38 63.6515 65.34 64.4381 65.34C64.9848 65.34 65.5181 65.3867 66.0381 65.48C66.5581 65.5733 67.0181 65.7333 67.4181 65.96C67.8181 66.1733 68.1381 66.4733 68.3781 66.86C68.6315 67.2333 68.7581 67.7 68.7581 68.26C68.7581 68.7667 68.6315 69.2 68.3781 69.56C68.1248 69.92 67.7848 70.2 67.3581 70.4C67.9315 70.6 68.3848 70.9 68.7181 71.3C69.0648 71.6867 69.2381 72.2333 69.2381 72.94C69.2381 73.5667 69.1115 74.0867 68.8581 74.5C68.6181 74.9133 68.2781 75.2467 67.8381 75.5C67.4115 75.7533 66.9048 75.9267 66.3181 76.02C65.7315 76.1267 65.1048 76.18 64.4381 76.18ZM75.6552 74.66C76.0952 74.66 76.4818 74.6533 76.8152 74.64C77.1618 74.6133 77.4485 74.5733 77.6752 74.52V71.42C77.5418 71.3533 77.3218 71.3 77.0152 71.26C76.7218 71.2067 76.3618 71.18 75.9352 71.18C75.6552 71.18 75.3552 71.2 75.0352 71.24C74.7285 71.28 74.4418 71.3667 74.1752 71.5C73.9218 71.62 73.7085 71.7933 73.5352 72.02C73.3618 72.2333 73.2752 72.52 73.2752 72.88C73.2752 73.5467 73.4885 74.0133 73.9152 74.28C74.3418 74.5333 74.9218 74.66 75.6552 74.66ZM75.4952 65.34C76.2418 65.34 76.8685 65.44 77.3752 65.64C77.8952 65.8267 78.3085 66.1 78.6152 66.46C78.9352 66.8067 79.1618 67.2267 79.2952 67.72C79.4285 68.2 79.4952 68.7333 79.4952 69.32V75.82C79.3352 75.8467 79.1085 75.8867 78.8152 75.94C78.5352 75.98 78.2152 76.02 77.8552 76.06C77.4952 76.1 77.1018 76.1333 76.6752 76.16C76.2618 76.2 75.8485 76.22 75.4352 76.22C74.8485 76.22 74.3085 76.16 73.8152 76.04C73.3218 75.92 72.8952 75.7333 72.5352 75.48C72.1752 75.2133 71.8952 74.8667 71.6952 74.44C71.4952 74.0133 71.3952 73.5 71.3952 72.9C71.3952 72.3267 71.5085 71.8333 71.7352 71.42C71.9752 71.0067 72.2952 70.6733 72.6952 70.42C73.0952 70.1667 73.5618 69.98 74.0952 69.86C74.6285 69.74 75.1885 69.68 75.7752 69.68C75.9618 69.68 76.1552 69.6933 76.3552 69.72C76.5552 69.7333 76.7418 69.76 76.9152 69.8C77.1018 69.8267 77.2618 69.8533 77.3952 69.88C77.5285 69.9067 77.6218 69.9267 77.6752 69.94V69.42C77.6752 69.1133 77.6418 68.8133 77.5752 68.52C77.5085 68.2133 77.3885 67.9467 77.2152 67.72C77.0418 67.48 76.8018 67.2933 76.4952 67.16C76.2018 67.0133 75.8152 66.94 75.3352 66.94C74.7218 66.94 74.1818 66.9867 73.7152 67.08C73.2618 67.16 72.9218 67.2467 72.6952 67.34L72.4752 65.8C72.7152 65.6933 73.1152 65.5933 73.6752 65.5C74.2352 65.3933 74.8418 65.34 75.4952 65.34ZM91.6044 76H89.7444V71.4H84.9444V76H83.0844V65.6H84.9444V69.84H89.7444V65.6H91.6044V76ZM102.643 65.6V67.16H99.2631V76H97.4031V67.16H94.0231V65.6H102.643ZM114.241 70.8C114.241 71.6267 114.121 72.3733 113.881 73.04C113.641 73.7067 113.301 74.28 112.861 74.76C112.434 75.24 111.921 75.6133 111.321 75.88C110.721 76.1333 110.068 76.26 109.361 76.26C108.654 76.26 108.001 76.1333 107.401 75.88C106.801 75.6133 106.281 75.24 105.841 74.76C105.414 74.28 105.081 73.7067 104.841 73.04C104.601 72.3733 104.481 71.6267 104.481 70.8C104.481 69.9867 104.601 69.2467 104.841 68.58C105.081 67.9 105.414 67.32 105.841 66.84C106.281 66.36 106.801 65.9933 107.401 65.74C108.001 65.4733 108.654 65.34 109.361 65.34C110.068 65.34 110.721 65.4733 111.321 65.74C111.921 65.9933 112.434 66.36 112.861 66.84C113.301 67.32 113.641 67.9 113.881 68.58C114.121 69.2467 114.241 69.9867 114.241 70.8ZM112.301 70.8C112.301 69.6267 112.034 68.7 111.501 68.02C110.981 67.3267 110.268 66.98 109.361 66.98C108.454 66.98 107.734 67.3267 107.201 68.02C106.681 68.7 106.421 69.6267 106.421 70.8C106.421 71.9733 106.681 72.9067 107.201 73.6C107.734 74.28 108.454 74.62 109.361 74.62C110.268 74.62 110.981 74.28 111.501 73.6C112.034 72.9067 112.301 71.9733 112.301 70.8ZM124.578 70.82C124.578 69.6067 124.278 68.6733 123.678 68.02C123.078 67.3667 122.278 67.04 121.278 67.04C120.718 67.04 120.278 67.06 119.958 67.1C119.651 67.14 119.404 67.1867 119.218 67.24V73.8C119.444 73.9867 119.771 74.1667 120.198 74.34C120.624 74.5133 121.091 74.6 121.598 74.6C122.131 74.6 122.584 74.5067 122.958 74.32C123.344 74.12 123.658 73.8533 123.898 73.52C124.138 73.1733 124.311 72.7733 124.418 72.32C124.524 71.8533 124.578 71.3533 124.578 70.82ZM126.518 70.82C126.518 71.6067 126.411 72.3333 126.198 73C125.998 73.6667 125.698 74.24 125.298 74.72C124.898 75.2 124.404 75.5733 123.818 75.84C123.244 76.1067 122.584 76.24 121.838 76.24C121.238 76.24 120.704 76.16 120.238 76C119.784 75.84 119.444 75.6867 119.218 75.54V79.7H117.358V65.92C117.798 65.8133 118.344 65.7 118.998 65.58C119.664 65.4467 120.431 65.38 121.298 65.38C122.098 65.38 122.818 65.5067 123.458 65.76C124.098 66.0133 124.644 66.3733 125.098 66.84C125.551 67.3067 125.898 67.88 126.138 68.56C126.391 69.2267 126.518 69.98 126.518 70.82ZM138.375 65.6V76H136.575V68.08C136.175 68.5867 135.735 69.18 135.255 69.86C134.775 70.54 134.295 71.2467 133.815 71.98C133.335 72.7 132.875 73.4133 132.435 74.12C131.995 74.8267 131.615 75.4533 131.295 76H129.635V65.6H131.435V73.08C131.782 72.5067 132.175 71.88 132.615 71.2C133.055 70.5067 133.508 69.8267 133.975 69.16C134.455 68.48 134.928 67.8333 135.395 67.22C135.875 66.5933 136.322 66.0533 136.735 65.6H138.375ZM140.849 77.94C140.995 78.0067 141.182 78.0667 141.409 78.12C141.649 78.1867 141.882 78.22 142.109 78.22C142.842 78.22 143.415 78.0533 143.829 77.72C144.242 77.4 144.615 76.8733 144.949 76.14C144.109 74.54 143.322 72.8467 142.589 71.06C141.869 69.26 141.269 67.44 140.789 65.6H142.789C142.935 66.2 143.109 66.8467 143.309 67.54C143.522 68.2333 143.755 68.9467 144.009 69.68C144.262 70.4133 144.535 71.1467 144.829 71.88C145.122 72.6133 145.429 73.32 145.749 74C146.255 72.6 146.695 71.2133 147.069 69.84C147.442 68.4667 147.795 67.0533 148.129 65.6H150.049C149.569 67.56 149.035 69.4467 148.449 71.26C147.862 73.06 147.229 74.7467 146.549 76.32C146.282 76.92 146.002 77.4333 145.709 77.86C145.429 78.3 145.115 78.66 144.769 78.94C144.422 79.22 144.029 79.4267 143.589 79.56C143.162 79.6933 142.675 79.76 142.129 79.76C141.982 79.76 141.829 79.7467 141.669 79.72C141.509 79.7067 141.349 79.68 141.189 79.64C141.042 79.6133 140.902 79.58 140.769 79.54C140.649 79.5 140.562 79.4667 140.509 79.44L140.849 77.94ZM154.49 68.34C154.357 69.66 154.257 70.98 154.19 72.3C154.123 73.6067 154.07 74.84 154.03 76H152.25C152.277 75.1867 152.317 74.34 152.37 73.46C152.423 72.5667 152.483 71.6733 152.55 70.78C152.617 69.8733 152.69 68.9867 152.77 68.12C152.85 67.24 152.937 66.4 153.03 65.6H154.73C155.157 66.2933 155.657 67.2467 156.23 68.46C156.803 69.66 157.463 71.0467 158.21 72.62C158.957 71.0467 159.617 69.66 160.19 68.46C160.763 67.2467 161.263 66.2933 161.69 65.6H163.41C163.503 66.4 163.59 67.24 163.67 68.12C163.75 68.9867 163.823 69.8733 163.89 70.78C163.957 71.6733 164.017 72.5667 164.07 73.46C164.123 74.34 164.163 75.1867 164.19 76H162.35C162.31 74.84 162.257 73.6067 162.19 72.3C162.123 70.98 162.023 69.66 161.89 68.34C161.677 68.7533 161.43 69.2533 161.15 69.84C160.87 70.4133 160.59 71 160.31 71.6C160.043 72.2 159.79 72.7733 159.55 73.32C159.31 73.8667 159.123 74.3 158.99 74.62H157.43C157.283 74.2867 157.083 73.8467 156.83 73.3C156.59 72.7533 156.33 72.18 156.05 71.58C155.783 70.9667 155.51 70.3733 155.23 69.8C154.95 69.2133 154.703 68.7267 154.49 68.34ZM167.059 70.82C167.059 69.9 167.192 69.1 167.459 68.42C167.726 67.7267 168.079 67.1533 168.519 66.7C168.959 66.2467 169.466 65.9067 170.039 65.68C170.612 65.4533 171.199 65.34 171.799 65.34C173.199 65.34 174.272 65.78 175.019 66.66C175.766 67.5267 176.139 68.8533 176.139 70.64C176.139 70.72 176.139 70.8267 176.139 70.96C176.139 71.08 176.132 71.1933 176.119 71.3H168.999C169.079 72.38 169.392 73.2 169.939 73.76C170.486 74.32 171.339 74.6 172.499 74.6C173.152 74.6 173.699 74.5467 174.139 74.44C174.592 74.32 174.932 74.2067 175.159 74.1L175.419 75.66C175.192 75.78 174.792 75.9067 174.219 76.04C173.659 76.1733 173.019 76.24 172.299 76.24C171.392 76.24 170.606 76.1067 169.939 75.84C169.286 75.56 168.746 75.18 168.319 74.7C167.892 74.22 167.572 73.6533 167.359 73C167.159 72.3333 167.059 71.6067 167.059 70.82ZM174.199 69.8C174.212 68.96 173.999 68.2733 173.559 67.74C173.132 67.1933 172.539 66.92 171.779 66.92C171.352 66.92 170.972 67.0067 170.639 67.18C170.319 67.34 170.046 67.5533 169.819 67.82C169.592 68.0867 169.412 68.3933 169.279 68.74C169.159 69.0867 169.079 69.44 169.039 69.8H174.199Z" fill="#0231A1"/>
</svg>
