<svg width="377" height="112" viewBox="0 0 377 112" fill="none" xmlns="http://www.w3.org/2000/svg">
<rect x="26" width="350.292" height="111.354" rx="10" fill="#CCD3E4"/>
<path d="M49.72 39V25.14H58.18V26.8H51.66V30.92H57.46V32.54H51.66V37.34H58.68V39H49.72ZM61.5258 28.9C61.9524 28.7933 62.5124 28.68 63.2058 28.56C63.9124 28.44 64.7258 28.38 65.6458 28.38C66.3124 28.38 66.8724 28.4733 67.3258 28.66C67.7791 28.8333 68.1591 29.0933 68.4658 29.44C68.5591 29.3733 68.7058 29.28 68.9058 29.16C69.1058 29.04 69.3524 28.9267 69.6458 28.82C69.9391 28.7 70.2658 28.6 70.6258 28.52C70.9858 28.4267 71.3724 28.38 71.7858 28.38C72.5858 28.38 73.2391 28.5 73.7458 28.74C74.2524 28.9667 74.6458 29.2933 74.9258 29.72C75.2191 30.1467 75.4124 30.6533 75.5058 31.24C75.6124 31.8267 75.6658 32.4667 75.6658 33.16V39H73.8058V33.56C73.8058 32.9467 73.7724 32.42 73.7058 31.98C73.6524 31.54 73.5391 31.1733 73.3658 30.88C73.2058 30.5867 72.9791 30.3733 72.6858 30.24C72.4058 30.0933 72.0391 30.02 71.5858 30.02C70.9591 30.02 70.4391 30.1067 70.0258 30.28C69.6258 30.44 69.3524 30.5867 69.2058 30.72C69.3124 31.0667 69.3924 31.4467 69.4458 31.86C69.4991 32.2733 69.5258 32.7067 69.5258 33.16V39H67.6658V33.56C67.6658 32.9467 67.6324 32.42 67.5658 31.98C67.4991 31.54 67.3791 31.1733 67.2058 30.88C67.0458 30.5867 66.8191 30.3733 66.5258 30.24C66.2458 30.0933 65.8858 30.02 65.4458 30.02C65.2591 30.02 65.0591 30.0267 64.8458 30.04C64.6324 30.0533 64.4258 30.0733 64.2258 30.1C64.0391 30.1133 63.8658 30.1333 63.7058 30.16C63.5458 30.1867 63.4391 30.2067 63.3858 30.22V39H61.5258V28.9ZM82.7723 37.66C83.2123 37.66 83.599 37.6533 83.9323 37.64C84.279 37.6133 84.5657 37.5733 84.7923 37.52V34.42C84.659 34.3533 84.439 34.3 84.1323 34.26C83.839 34.2067 83.479 34.18 83.0523 34.18C82.7723 34.18 82.4723 34.2 82.1523 34.24C81.8457 34.28 81.559 34.3667 81.2923 34.5C81.039 34.62 80.8257 34.7933 80.6523 35.02C80.479 35.2333 80.3923 35.52 80.3923 35.88C80.3923 36.5467 80.6057 37.0133 81.0323 37.28C81.459 37.5333 82.039 37.66 82.7723 37.66ZM82.6123 28.34C83.359 28.34 83.9857 28.44 84.4923 28.64C85.0123 28.8267 85.4257 29.1 85.7323 29.46C86.0523 29.8067 86.279 30.2267 86.4123 30.72C86.5457 31.2 86.6123 31.7333 86.6123 32.32V38.82C86.4523 38.8467 86.2257 38.8867 85.9323 38.94C85.6523 38.98 85.3323 39.02 84.9723 39.06C84.6123 39.1 84.219 39.1333 83.7923 39.16C83.379 39.2 82.9657 39.22 82.5523 39.22C81.9657 39.22 81.4257 39.16 80.9323 39.04C80.439 38.92 80.0123 38.7333 79.6523 38.48C79.2923 38.2133 79.0123 37.8667 78.8123 37.44C78.6123 37.0133 78.5123 36.5 78.5123 35.9C78.5123 35.3267 78.6257 34.8333 78.8523 34.42C79.0923 34.0067 79.4123 33.6733 79.8123 33.42C80.2123 33.1667 80.679 32.98 81.2123 32.86C81.7457 32.74 82.3057 32.68 82.8923 32.68C83.079 32.68 83.2723 32.6933 83.4723 32.72C83.6723 32.7333 83.859 32.76 84.0323 32.8C84.219 32.8267 84.379 32.8533 84.5123 32.88C84.6457 32.9067 84.739 32.9267 84.7923 32.94V32.42C84.7923 32.1133 84.759 31.8133 84.6923 31.52C84.6257 31.2133 84.5057 30.9467 84.3323 30.72C84.159 30.48 83.919 30.2933 83.6123 30.16C83.319 30.0133 82.9323 29.94 82.4523 29.94C81.839 29.94 81.299 29.9867 80.8323 30.08C80.379 30.16 80.039 30.2467 79.8123 30.34L79.5923 28.8C79.8323 28.6933 80.2323 28.5933 80.7923 28.5C81.3523 28.3933 81.959 28.34 82.6123 28.34ZM92.0616 39H90.2016V28.6H92.0616V39ZM91.1216 26.72C90.7882 26.72 90.5016 26.6133 90.2616 26.4C90.0349 26.1733 89.9216 25.8733 89.9216 25.5C89.9216 25.1267 90.0349 24.8333 90.2616 24.62C90.5016 24.3933 90.7882 24.28 91.1216 24.28C91.4549 24.28 91.7349 24.3933 91.9616 24.62C92.2016 24.8333 92.3216 25.1267 92.3216 25.5C92.3216 25.8733 92.2016 26.1733 91.9616 26.4C91.7349 26.6133 91.4549 26.72 91.1216 26.72ZM98.8802 39.2C97.7335 39.1733 96.9202 38.9267 96.4402 38.46C95.9602 37.9933 95.7202 37.2667 95.7202 36.28V23.8L97.5802 23.48V35.98C97.5802 36.2867 97.6068 36.54 97.6602 36.74C97.7135 36.94 97.8002 37.1 97.9202 37.22C98.0402 37.34 98.2002 37.4333 98.4002 37.5C98.6002 37.5533 98.8468 37.6 99.1402 37.64L98.8802 39.2ZM114.198 28.6V30.16H110.818V39H108.958V30.16H105.578V28.6H114.198ZM123.836 33.82C123.836 32.6067 123.536 31.6733 122.936 31.02C122.336 30.3667 121.536 30.04 120.536 30.04C119.976 30.04 119.536 30.06 119.216 30.1C118.909 30.14 118.662 30.1867 118.476 30.24V36.8C118.702 36.9867 119.029 37.1667 119.456 37.34C119.882 37.5133 120.349 37.6 120.856 37.6C121.389 37.6 121.842 37.5067 122.216 37.32C122.602 37.12 122.916 36.8533 123.156 36.52C123.396 36.1733 123.569 35.7733 123.676 35.32C123.782 34.8533 123.836 34.3533 123.836 33.82ZM125.776 33.82C125.776 34.6067 125.669 35.3333 125.456 36C125.256 36.6667 124.956 37.24 124.556 37.72C124.156 38.2 123.662 38.5733 123.076 38.84C122.502 39.1067 121.842 39.24 121.096 39.24C120.496 39.24 119.962 39.16 119.496 39C119.042 38.84 118.702 38.6867 118.476 38.54V42.7H116.616V28.92C117.056 28.8133 117.602 28.7 118.256 28.58C118.922 28.4467 119.689 28.38 120.556 28.38C121.356 28.38 122.076 28.5067 122.716 28.76C123.356 29.0133 123.902 29.3733 124.356 29.84C124.809 30.3067 125.156 30.88 125.396 31.56C125.649 32.2267 125.776 32.98 125.776 33.82ZM128.313 33.82C128.313 32.9 128.446 32.1 128.713 31.42C128.98 30.7267 129.333 30.1533 129.773 29.7C130.213 29.2467 130.72 28.9067 131.293 28.68C131.866 28.4533 132.453 28.34 133.053 28.34C134.453 28.34 135.526 28.78 136.273 29.66C137.02 30.5267 137.393 31.8533 137.393 33.64C137.393 33.72 137.393 33.8267 137.393 33.96C137.393 34.08 137.386 34.1933 137.373 34.3H130.253C130.333 35.38 130.646 36.2 131.193 36.76C131.74 37.32 132.593 37.6 133.753 37.6C134.406 37.6 134.953 37.5467 135.393 37.44C135.846 37.32 136.186 37.2067 136.413 37.1L136.673 38.66C136.446 38.78 136.046 38.9067 135.473 39.04C134.913 39.1733 134.273 39.24 133.553 39.24C132.646 39.24 131.86 39.1067 131.193 38.84C130.54 38.56 130 38.18 129.573 37.7C129.146 37.22 128.826 36.6533 128.613 36C128.413 35.3333 128.313 34.6067 128.313 33.82ZM135.453 32.8C135.466 31.96 135.253 31.2733 134.813 30.74C134.386 30.1933 133.793 29.92 133.033 29.92C132.606 29.92 132.226 30.0067 131.893 30.18C131.573 30.34 131.3 30.5533 131.073 30.82C130.846 31.0867 130.666 31.3933 130.533 31.74C130.413 32.0867 130.333 32.44 130.293 32.8H135.453ZM142.245 29.8C142.658 29.4667 143.138 29.2133 143.685 29.04C144.245 28.8533 144.778 28.76 145.285 28.76C146.778 28.76 147.905 29.22 148.665 30.14C149.438 31.0467 149.825 32.3133 149.825 33.94C149.825 34.6333 149.732 35.3 149.545 35.94C149.358 36.58 149.065 37.1467 148.665 37.64C148.278 38.1333 147.785 38.5267 147.185 38.82C146.585 39.1133 145.872 39.26 145.045 39.26C144.098 39.26 143.312 39.0867 142.685 38.74C142.058 38.3933 141.558 37.92 141.185 37.32C140.825 36.72 140.572 36.02 140.425 35.22C140.278 34.42 140.205 33.5733 140.205 32.68C140.205 31.52 140.285 30.44 140.445 29.44C140.618 28.44 140.925 27.56 141.365 26.8C141.805 26.04 142.412 25.4133 143.185 24.92C143.972 24.4133 144.978 24.0733 146.205 23.9C146.565 23.8467 146.878 23.8067 147.145 23.78C147.425 23.74 147.665 23.7067 147.865 23.68C148.078 23.6533 148.272 23.6267 148.445 23.6C148.618 23.56 148.798 23.52 148.985 23.48L149.185 25.16C149.092 25.1867 148.992 25.2067 148.885 25.22C148.792 25.2333 148.652 25.2533 148.465 25.28C148.292 25.3067 148.052 25.34 147.745 25.38C147.452 25.42 147.065 25.4667 146.585 25.52C145.265 25.6667 144.252 26.0667 143.545 26.72C142.838 27.3733 142.405 28.4 142.245 29.8ZM142.125 32.98C142.125 33.6067 142.165 34.2 142.245 34.76C142.338 35.32 142.492 35.8133 142.705 36.24C142.932 36.6667 143.232 37.0067 143.605 37.26C143.978 37.5 144.458 37.62 145.045 37.62C145.552 37.62 145.985 37.5267 146.345 37.34C146.705 37.14 146.998 36.8733 147.225 36.54C147.452 36.2067 147.618 35.82 147.725 35.38C147.832 34.9267 147.885 34.4467 147.885 33.94C147.885 33.4867 147.838 33.0467 147.745 32.62C147.665 32.1933 147.512 31.8133 147.285 31.48C147.058 31.1467 146.752 30.88 146.365 30.68C145.992 30.48 145.518 30.38 144.945 30.38C144.385 30.38 143.845 30.5 143.325 30.74C142.818 30.98 142.425 31.2733 142.145 31.62C142.132 31.7667 142.125 31.9733 142.125 32.24C142.125 32.5067 142.125 32.7533 142.125 32.98ZM151.739 40.94C151.886 41.0067 152.073 41.0667 152.299 41.12C152.539 41.1867 152.773 41.22 152.999 41.22C153.733 41.22 154.306 41.0533 154.719 40.72C155.133 40.4 155.506 39.8733 155.839 39.14C154.999 37.54 154.213 35.8467 153.479 34.06C152.759 32.26 152.159 30.44 151.679 28.6H153.679C153.826 29.2 153.999 29.8467 154.199 30.54C154.413 31.2333 154.646 31.9467 154.899 32.68C155.153 33.4133 155.426 34.1467 155.719 34.88C156.013 35.6133 156.319 36.32 156.639 37C157.146 35.6 157.586 34.2133 157.959 32.84C158.333 31.4667 158.686 30.0533 159.019 28.6H160.939C160.459 30.56 159.926 32.4467 159.339 34.26C158.753 36.06 158.119 37.7467 157.439 39.32C157.173 39.92 156.893 40.4333 156.599 40.86C156.319 41.3 156.006 41.66 155.659 41.94C155.313 42.22 154.919 42.4267 154.479 42.56C154.053 42.6933 153.566 42.76 153.019 42.76C152.873 42.76 152.719 42.7467 152.559 42.72C152.399 42.7067 152.239 42.68 152.079 42.64C151.933 42.6133 151.793 42.58 151.659 42.54C151.539 42.5 151.453 42.4667 151.399 42.44L151.739 40.94ZM162.586 33.82C162.586 32.9 162.72 32.1 162.986 31.42C163.253 30.7267 163.606 30.1533 164.046 29.7C164.486 29.2467 164.993 28.9067 165.566 28.68C166.14 28.4533 166.726 28.34 167.326 28.34C168.726 28.34 169.8 28.78 170.546 29.66C171.293 30.5267 171.666 31.8533 171.666 33.64C171.666 33.72 171.666 33.8267 171.666 33.96C171.666 34.08 171.66 34.1933 171.646 34.3H164.526C164.606 35.38 164.92 36.2 165.466 36.76C166.013 37.32 166.866 37.6 168.026 37.6C168.68 37.6 169.226 37.5467 169.666 37.44C170.12 37.32 170.46 37.2067 170.686 37.1L170.946 38.66C170.72 38.78 170.32 38.9067 169.746 39.04C169.186 39.1733 168.546 39.24 167.826 39.24C166.92 39.24 166.133 39.1067 165.466 38.84C164.813 38.56 164.273 38.18 163.846 37.7C163.42 37.22 163.1 36.6533 162.886 36C162.686 35.3333 162.586 34.6067 162.586 33.82ZM169.726 32.8C169.74 31.96 169.526 31.2733 169.086 30.74C168.66 30.1933 168.066 29.92 167.306 29.92C166.88 29.92 166.5 30.0067 166.166 30.18C165.846 30.34 165.573 30.5533 165.346 30.82C165.12 31.0867 164.94 31.3933 164.806 31.74C164.686 32.0867 164.606 32.44 164.566 32.8H169.726ZM182.178 28.6V30.16H178.798V39H176.938V30.16H173.558V28.6H182.178ZM189.116 39.24C188.276 39.24 187.536 39.1067 186.896 38.84C186.269 38.5733 185.736 38.2 185.296 37.72C184.869 37.24 184.549 36.6733 184.336 36.02C184.123 35.3533 184.016 34.62 184.016 33.82C184.016 33.02 184.129 32.2867 184.356 31.62C184.596 30.9533 184.929 30.38 185.356 29.9C185.783 29.4067 186.303 29.0267 186.916 28.76C187.543 28.48 188.236 28.34 188.996 28.34C189.463 28.34 189.929 28.38 190.396 28.46C190.863 28.54 191.309 28.6667 191.736 28.84L191.316 30.42C191.036 30.2867 190.709 30.18 190.336 30.1C189.976 30.02 189.589 29.98 189.176 29.98C188.136 29.98 187.336 30.3067 186.776 30.96C186.229 31.6133 185.956 32.5667 185.956 33.82C185.956 34.38 186.016 34.8933 186.136 35.36C186.269 35.8267 186.469 36.2267 186.736 36.56C187.016 36.8933 187.369 37.1533 187.796 37.34C188.223 37.5133 188.743 37.6 189.356 37.6C189.849 37.6 190.296 37.5533 190.696 37.46C191.096 37.3667 191.409 37.2667 191.636 37.16L191.896 38.72C191.789 38.7867 191.636 38.8533 191.436 38.92C191.236 38.9733 191.009 39.02 190.756 39.06C190.503 39.1133 190.229 39.1533 189.936 39.18C189.656 39.22 189.383 39.24 189.116 39.24ZM198.693 34.96C198.493 34.96 198.3 34.96 198.113 34.96C197.926 34.9467 197.746 34.9333 197.573 34.92C197.146 35.56 196.733 36.2467 196.333 36.98C195.946 37.7 195.6 38.3733 195.293 39H193.413C193.573 38.6133 193.76 38.22 193.973 37.82C194.186 37.4067 194.4 37.0067 194.613 36.62C194.84 36.2333 195.066 35.8667 195.293 35.52C195.52 35.1733 195.733 34.86 195.933 34.58C195.56 34.4467 195.253 34.2867 195.013 34.1C194.773 33.9 194.58 33.68 194.433 33.44C194.286 33.2 194.18 32.9467 194.113 32.68C194.06 32.4 194.033 32.12 194.033 31.84C194.033 31.2533 194.14 30.74 194.353 30.3C194.58 29.86 194.886 29.5 195.273 29.22C195.66 28.9267 196.113 28.7067 196.633 28.56C197.166 28.4133 197.746 28.34 198.373 28.34C199.253 28.34 200 28.38 200.613 28.46C201.226 28.54 201.74 28.6333 202.153 28.74V39H200.313V34.96H198.693ZM200.313 29.98C200.166 29.9533 199.92 29.9267 199.573 29.9C199.24 29.8733 198.853 29.86 198.413 29.86C197.653 29.86 197.04 30.02 196.573 30.34C196.106 30.6467 195.873 31.14 195.873 31.82C195.873 32.4867 196.113 32.9467 196.593 33.2C197.073 33.4533 197.693 33.58 198.453 33.58H200.313V29.98ZM207.81 36.72C207.823 36.8267 207.83 36.9333 207.83 37.04C207.83 37.1333 207.83 37.2333 207.83 37.34C207.83 38.18 207.703 39.0067 207.45 39.82C207.21 40.6467 206.877 41.4333 206.45 42.18L205.01 41.72C205.343 41.04 205.563 40.3467 205.67 39.64C205.777 38.9467 205.83 38.2933 205.83 37.68C205.83 37.5067 205.823 37.34 205.81 37.18C205.81 37.02 205.803 36.8667 205.79 36.72H207.81ZM217.581 28.6V31.66C217.581 32.4467 217.781 33 218.181 33.32C218.581 33.6267 219.127 33.78 219.821 33.78C220.327 33.78 220.747 33.7533 221.081 33.7C221.427 33.6467 221.734 33.5867 222.001 33.52V28.6H223.861V39H222.001V34.96C221.894 34.9867 221.754 35.02 221.581 35.06C221.407 35.1 221.207 35.14 220.981 35.18C220.767 35.2067 220.541 35.2333 220.301 35.26C220.061 35.2867 219.827 35.3 219.601 35.3C219.027 35.3 218.501 35.24 218.021 35.12C217.554 35 217.147 34.8 216.801 34.52C216.467 34.24 216.201 33.8733 216.001 33.42C215.814 32.9533 215.721 32.3733 215.721 31.68V28.6H217.581ZM234.905 28.6V30.16H231.525V39H229.665V30.16H226.285V28.6H234.905ZM246.503 33.8C246.503 34.6267 246.383 35.3733 246.143 36.04C245.903 36.7067 245.563 37.28 245.123 37.76C244.696 38.24 244.183 38.6133 243.583 38.88C242.983 39.1333 242.329 39.26 241.623 39.26C240.916 39.26 240.263 39.1333 239.663 38.88C239.063 38.6133 238.543 38.24 238.103 37.76C237.676 37.28 237.343 36.7067 237.103 36.04C236.863 35.3733 236.743 34.6267 236.743 33.8C236.743 32.9867 236.863 32.2467 237.103 31.58C237.343 30.9 237.676 30.32 238.103 29.84C238.543 29.36 239.063 28.9933 239.663 28.74C240.263 28.4733 240.916 28.34 241.623 28.34C242.329 28.34 242.983 28.4733 243.583 28.74C244.183 28.9933 244.696 29.36 245.123 29.84C245.563 30.32 245.903 30.9 246.143 31.58C246.383 32.2467 246.503 32.9867 246.503 33.8ZM244.563 33.8C244.563 32.6267 244.296 31.7 243.763 31.02C243.243 30.3267 242.529 29.98 241.623 29.98C240.716 29.98 239.996 30.3267 239.463 31.02C238.943 31.7 238.683 32.6267 238.683 33.8C238.683 34.9733 238.943 35.9067 239.463 36.6C239.996 37.28 240.716 37.62 241.623 37.62C242.529 37.62 243.243 37.28 243.763 36.6C244.296 35.9067 244.563 34.9733 244.563 33.8ZM251.3 29.8C251.713 29.4667 252.193 29.2133 252.74 29.04C253.3 28.8533 253.833 28.76 254.34 28.76C255.833 28.76 256.96 29.22 257.72 30.14C258.493 31.0467 258.88 32.3133 258.88 33.94C258.88 34.6333 258.786 35.3 258.6 35.94C258.413 36.58 258.12 37.1467 257.72 37.64C257.333 38.1333 256.84 38.5267 256.24 38.82C255.64 39.1133 254.926 39.26 254.1 39.26C253.153 39.26 252.366 39.0867 251.74 38.74C251.113 38.3933 250.613 37.92 250.24 37.32C249.88 36.72 249.626 36.02 249.48 35.22C249.333 34.42 249.26 33.5733 249.26 32.68C249.26 31.52 249.34 30.44 249.5 29.44C249.673 28.44 249.98 27.56 250.42 26.8C250.86 26.04 251.466 25.4133 252.24 24.92C253.026 24.4133 254.033 24.0733 255.26 23.9C255.62 23.8467 255.933 23.8067 256.2 23.78C256.48 23.74 256.72 23.7067 256.92 23.68C257.133 23.6533 257.326 23.6267 257.5 23.6C257.673 23.56 257.853 23.52 258.04 23.48L258.24 25.16C258.146 25.1867 258.046 25.2067 257.94 25.22C257.846 25.2333 257.706 25.2533 257.52 25.28C257.346 25.3067 257.106 25.34 256.8 25.38C256.506 25.42 256.12 25.4667 255.64 25.52C254.32 25.6667 253.306 26.0667 252.6 26.72C251.893 27.3733 251.46 28.4 251.3 29.8ZM251.18 32.98C251.18 33.6067 251.22 34.2 251.3 34.76C251.393 35.32 251.546 35.8133 251.76 36.24C251.986 36.6667 252.286 37.0067 252.66 37.26C253.033 37.5 253.513 37.62 254.1 37.62C254.606 37.62 255.04 37.5267 255.4 37.34C255.76 37.14 256.053 36.8733 256.28 36.54C256.506 36.2067 256.673 35.82 256.78 35.38C256.886 34.9267 256.94 34.4467 256.94 33.94C256.94 33.4867 256.893 33.0467 256.8 32.62C256.72 32.1933 256.566 31.8133 256.34 31.48C256.113 31.1467 255.806 30.88 255.42 30.68C255.046 30.48 254.573 30.38 254 30.38C253.44 30.38 252.9 30.5 252.38 30.74C251.873 30.98 251.48 31.2733 251.2 31.62C251.186 31.7667 251.18 31.9733 251.18 32.24C251.18 32.5067 251.18 32.7533 251.18 32.98ZM265.834 33.86C265.474 33.86 265.121 33.8733 264.774 33.9C264.441 33.9133 264.141 33.9533 263.874 34.02V37.6C263.954 37.6133 264.067 37.6267 264.214 37.64C264.374 37.6533 264.541 37.6667 264.714 37.68C264.901 37.68 265.087 37.6867 265.274 37.7C265.461 37.7 265.627 37.7 265.774 37.7C266.587 37.7 267.214 37.5467 267.654 37.24C268.094 36.9333 268.314 36.44 268.314 35.76C268.314 35.4267 268.241 35.14 268.094 34.9C267.961 34.66 267.774 34.4667 267.534 34.32C267.307 34.16 267.047 34.0467 266.754 33.98C266.461 33.9 266.154 33.86 265.834 33.86ZM262.014 28.6H263.874V32.58C264.101 32.5267 264.427 32.4733 264.854 32.42C265.294 32.3667 265.714 32.34 266.114 32.34C266.661 32.34 267.181 32.4067 267.674 32.54C268.167 32.66 268.601 32.86 268.974 33.14C269.347 33.4067 269.641 33.76 269.854 34.2C270.081 34.6267 270.194 35.14 270.194 35.74C270.194 36.3667 270.087 36.9 269.874 37.34C269.661 37.78 269.361 38.14 268.974 38.42C268.587 38.7 268.121 38.9 267.574 39.02C267.027 39.1533 266.427 39.22 265.774 39.22C265.147 39.22 264.514 39.18 263.874 39.1C263.234 39.0333 262.614 38.9267 262.014 38.78V28.6ZM273.974 39H272.114V28.6H273.974V39ZM284.619 37.6C284.699 37.6133 284.813 37.6267 284.959 37.64C285.106 37.6533 285.273 37.6667 285.459 37.68C285.646 37.68 285.839 37.6867 286.039 37.7C286.253 37.7 286.453 37.7 286.639 37.7C287.026 37.7 287.393 37.6733 287.739 37.62C288.099 37.5667 288.406 37.4733 288.659 37.34C288.926 37.2067 289.133 37.0333 289.279 36.82C289.439 36.5933 289.519 36.3067 289.519 35.96C289.519 35.6267 289.446 35.3533 289.299 35.14C289.166 34.9133 288.979 34.7333 288.739 34.6C288.499 34.4667 288.213 34.3733 287.879 34.32C287.559 34.2667 287.213 34.24 286.839 34.24H284.619V37.6ZM286.599 32.86C286.959 32.86 287.286 32.84 287.579 32.8C287.886 32.7467 288.146 32.66 288.359 32.54C288.586 32.42 288.759 32.26 288.879 32.06C289.013 31.86 289.079 31.6067 289.079 31.3C289.079 30.98 288.999 30.7267 288.839 30.54C288.679 30.3533 288.466 30.2133 288.199 30.12C287.946 30.0133 287.653 29.9467 287.319 29.92C286.999 29.88 286.673 29.86 286.339 29.86C286.033 29.86 285.719 29.8667 285.399 29.88C285.093 29.8933 284.833 29.9067 284.619 29.92V32.86H286.599ZM286.559 39.18C285.773 39.18 285.046 39.14 284.379 39.06C283.713 38.9933 283.186 38.9133 282.799 38.82V28.7C283.186 28.6067 283.713 28.5267 284.379 28.46C285.046 28.38 285.773 28.34 286.559 28.34C287.106 28.34 287.639 28.3867 288.159 28.48C288.679 28.5733 289.139 28.7333 289.539 28.96C289.939 29.1733 290.259 29.4733 290.499 29.86C290.753 30.2333 290.879 30.7 290.879 31.26C290.879 31.7667 290.753 32.2 290.499 32.56C290.246 32.92 289.906 33.2 289.479 33.4C290.053 33.6 290.506 33.9 290.839 34.3C291.186 34.6867 291.359 35.2333 291.359 35.94C291.359 36.5667 291.233 37.0867 290.979 37.5C290.739 37.9133 290.399 38.2467 289.959 38.5C289.533 38.7533 289.026 38.9267 288.439 39.02C287.853 39.1267 287.226 39.18 286.559 39.18ZM51.28 45.8C51.6933 45.4667 52.1733 45.2133 52.72 45.04C53.28 44.8533 53.8133 44.76 54.32 44.76C55.8133 44.76 56.94 45.22 57.7 46.14C58.4733 47.0467 58.86 48.3133 58.86 49.94C58.86 50.6333 58.7667 51.3 58.58 51.94C58.3933 52.58 58.1 53.1467 57.7 53.64C57.3133 54.1333 56.82 54.5267 56.22 54.82C55.62 55.1133 54.9067 55.26 54.08 55.26C53.1333 55.26 52.3467 55.0867 51.72 54.74C51.0933 54.3933 50.5933 53.92 50.22 53.32C49.86 52.72 49.6067 52.02 49.46 51.22C49.3133 50.42 49.24 49.5733 49.24 48.68C49.24 47.52 49.32 46.44 49.48 45.44C49.6533 44.44 49.96 43.56 50.4 42.8C50.84 42.04 51.4467 41.4133 52.22 40.92C53.0067 40.4133 54.0133 40.0733 55.24 39.9C55.6 39.8467 55.9133 39.8067 56.18 39.78C56.46 39.74 56.7 39.7067 56.9 39.68C57.1133 39.6533 57.3067 39.6267 57.48 39.6C57.6533 39.56 57.8333 39.52 58.02 39.48L58.22 41.16C58.1267 41.1867 58.0267 41.2067 57.92 41.22C57.8267 41.2333 57.6867 41.2533 57.5 41.28C57.3267 41.3067 57.0867 41.34 56.78 41.38C56.4867 41.42 56.1 41.4667 55.62 41.52C54.3 41.6667 53.2867 42.0667 52.58 42.72C51.8733 43.3733 51.44 44.4 51.28 45.8ZM51.16 48.98C51.16 49.6067 51.2 50.2 51.28 50.76C51.3733 51.32 51.5267 51.8133 51.74 52.24C51.9667 52.6667 52.2667 53.0067 52.64 53.26C53.0133 53.5 53.4933 53.62 54.08 53.62C54.5867 53.62 55.02 53.5267 55.38 53.34C55.74 53.14 56.0333 52.8733 56.26 52.54C56.4867 52.2067 56.6533 51.82 56.76 51.38C56.8667 50.9267 56.92 50.4467 56.92 49.94C56.92 49.4867 56.8733 49.0467 56.78 48.62C56.7 48.1933 56.5467 47.8133 56.32 47.48C56.0933 47.1467 55.7867 46.88 55.4 46.68C55.0267 46.48 54.5533 46.38 53.98 46.38C53.42 46.38 52.88 46.5 52.36 46.74C51.8533 46.98 51.46 47.2733 51.18 47.62C51.1667 47.7667 51.16 47.9733 51.16 48.24C51.16 48.5067 51.16 48.7533 51.16 48.98ZM60.7745 56.94C60.9212 57.0067 61.1079 57.0667 61.3345 57.12C61.5745 57.1867 61.8079 57.22 62.0345 57.22C62.7679 57.22 63.3412 57.0533 63.7545 56.72C64.1679 56.4 64.5412 55.8733 64.8745 55.14C64.0345 53.54 63.2479 51.8467 62.5145 50.06C61.7945 48.26 61.1945 46.44 60.7145 44.6H62.7145C62.8612 45.2 63.0345 45.8467 63.2345 46.54C63.4479 47.2333 63.6812 47.9467 63.9345 48.68C64.1879 49.4133 64.4612 50.1467 64.7545 50.88C65.0479 51.6133 65.3545 52.32 65.6745 53C66.1812 51.6 66.6212 50.2133 66.9945 48.84C67.3679 47.4667 67.7212 46.0533 68.0545 44.6H69.9745C69.4945 46.56 68.9612 48.4467 68.3745 50.26C67.7879 52.06 67.1545 53.7467 66.4745 55.32C66.2079 55.92 65.9279 56.4333 65.6345 56.86C65.3545 57.3 65.0412 57.66 64.6945 57.94C64.3479 58.22 63.9545 58.4267 63.5145 58.56C63.0879 58.6933 62.6012 58.76 62.0545 58.76C61.9079 58.76 61.7545 58.7467 61.5945 58.72C61.4345 58.7067 61.2745 58.68 61.1145 58.64C60.9679 58.6133 60.8279 58.58 60.6945 58.54C60.5745 58.5 60.4879 58.4667 60.4345 58.44L60.7745 56.94ZM70.6481 53.48H71.7681C72.2081 52.84 72.5548 52.18 72.8081 51.5C73.0748 50.82 73.2748 50.12 73.4081 49.4C73.5415 48.6667 73.6281 47.9067 73.6681 47.12C73.7081 46.32 73.7348 45.48 73.7481 44.6H80.5681V53.48H81.9681V57.9H80.2081V55H72.4081V57.9H70.6481V53.48ZM78.7081 53.48V46.16H75.4481C75.4348 46.7867 75.4015 47.42 75.3481 48.06C75.2948 48.6867 75.2081 49.3133 75.0881 49.94C74.9681 50.5533 74.7948 51.16 74.5681 51.76C74.3548 52.3467 74.0815 52.92 73.7481 53.48H78.7081ZM83.7472 56.94C83.8939 57.0067 84.0805 57.0667 84.3072 57.12C84.5472 57.1867 84.7805 57.22 85.0072 57.22C85.7405 57.22 86.3139 57.0533 86.7272 56.72C87.1405 56.4 87.5139 55.8733 87.8472 55.14C87.0072 53.54 86.2205 51.8467 85.4872 50.06C84.7672 48.26 84.1672 46.44 83.6872 44.6H85.6872C85.8339 45.2 86.0072 45.8467 86.2072 46.54C86.4205 47.2333 86.6539 47.9467 86.9072 48.68C87.1605 49.4133 87.4339 50.1467 87.7272 50.88C88.0205 51.6133 88.3272 52.32 88.6472 53C89.1539 51.6 89.5939 50.2133 89.9672 48.84C90.3405 47.4667 90.6939 46.0533 91.0272 44.6H92.9472C92.4672 46.56 91.9339 48.4467 91.3472 50.26C90.7605 52.06 90.1272 53.7467 89.4472 55.32C89.1805 55.92 88.9005 56.4333 88.6072 56.86C88.3272 57.3 88.0139 57.66 87.6672 57.94C87.3205 58.22 86.9272 58.4267 86.4872 58.56C86.0605 58.6933 85.5739 58.76 85.0272 58.76C84.8805 58.76 84.7272 58.7467 84.5672 58.72C84.4072 58.7067 84.2472 58.68 84.0872 58.64C83.9405 58.6133 83.8005 58.58 83.6672 58.54C83.5472 58.5 83.4605 58.4667 83.4072 58.44L83.7472 56.94ZM95.4086 55V44.6H97.2686V53.46H101.109V44.6H102.969V53.46H106.809V44.6H108.669V53.46H110.069V57.9H108.309V55H95.4086ZM112.008 49.82C112.008 48.9 112.142 48.1 112.408 47.42C112.675 46.7267 113.028 46.1533 113.468 45.7C113.908 45.2467 114.415 44.9067 114.988 44.68C115.562 44.4533 116.148 44.34 116.748 44.34C118.148 44.34 119.222 44.78 119.968 45.66C120.715 46.5267 121.088 47.8533 121.088 49.64C121.088 49.72 121.088 49.8267 121.088 49.96C121.088 50.08 121.082 50.1933 121.068 50.3H113.948C114.028 51.38 114.342 52.2 114.888 52.76C115.435 53.32 116.288 53.6 117.448 53.6C118.102 53.6 118.648 53.5467 119.088 53.44C119.542 53.32 119.882 53.2067 120.108 53.1L120.368 54.66C120.142 54.78 119.742 54.9067 119.168 55.04C118.608 55.1733 117.968 55.24 117.248 55.24C116.342 55.24 115.555 55.1067 114.888 54.84C114.235 54.56 113.695 54.18 113.268 53.7C112.842 53.22 112.522 52.6533 112.308 52C112.108 51.3333 112.008 50.6067 112.008 49.82ZM119.148 48.8C119.162 47.96 118.948 47.2733 118.508 46.74C118.082 46.1933 117.488 45.92 116.728 45.92C116.302 45.92 115.922 46.0067 115.588 46.18C115.268 46.34 114.995 46.5533 114.768 46.82C114.542 47.0867 114.362 47.3933 114.228 47.74C114.108 48.0867 114.028 48.44 113.988 48.8H119.148ZM126.24 47.34C126.107 48.66 126.007 49.98 125.94 51.3C125.873 52.6067 125.82 53.84 125.78 55H124C124.027 54.1867 124.067 53.34 124.12 52.46C124.173 51.5667 124.233 50.6733 124.3 49.78C124.367 48.8733 124.44 47.9867 124.52 47.12C124.6 46.24 124.687 45.4 124.78 44.6H126.48C126.907 45.2933 127.407 46.2467 127.98 47.46C128.553 48.66 129.213 50.0467 129.96 51.62C130.707 50.0467 131.367 48.66 131.94 47.46C132.513 46.2467 133.013 45.2933 133.44 44.6H135.16C135.253 45.4 135.34 46.24 135.42 47.12C135.5 47.9867 135.573 48.8733 135.64 49.78C135.707 50.6733 135.767 51.5667 135.82 52.46C135.873 53.34 135.913 54.1867 135.94 55H134.1C134.06 53.84 134.007 52.6067 133.94 51.3C133.873 49.98 133.773 48.66 133.64 47.34C133.427 47.7533 133.18 48.2533 132.9 48.84C132.62 49.4133 132.34 50 132.06 50.6C131.793 51.2 131.54 51.7733 131.3 52.32C131.06 52.8667 130.873 53.3 130.74 53.62H129.18C129.033 53.2867 128.833 52.8467 128.58 52.3C128.34 51.7533 128.08 51.18 127.8 50.58C127.533 49.9667 127.26 49.3733 126.98 48.8C126.7 48.2133 126.453 47.7267 126.24 47.34ZM146.498 47.34C146.365 48.66 146.265 49.98 146.198 51.3C146.131 52.6067 146.078 53.84 146.038 55H144.258C144.285 54.1867 144.325 53.34 144.378 52.46C144.431 51.5667 144.491 50.6733 144.558 49.78C144.625 48.8733 144.698 47.9867 144.778 47.12C144.858 46.24 144.945 45.4 145.038 44.6H146.738C147.165 45.2933 147.665 46.2467 148.238 47.46C148.811 48.66 149.471 50.0467 150.218 51.62C150.965 50.0467 151.625 48.66 152.198 47.46C152.771 46.2467 153.271 45.2933 153.698 44.6H155.418C155.511 45.4 155.598 46.24 155.678 47.12C155.758 47.9867 155.831 48.8733 155.898 49.78C155.965 50.6733 156.025 51.5667 156.078 52.46C156.131 53.34 156.171 54.1867 156.198 55H154.358C154.318 53.84 154.265 52.6067 154.198 51.3C154.131 49.98 154.031 48.66 153.898 47.34C153.685 47.7533 153.438 48.2533 153.158 48.84C152.878 49.4133 152.598 50 152.318 50.6C152.051 51.2 151.798 51.7733 151.558 52.32C151.318 52.8667 151.131 53.3 150.998 53.62H149.438C149.291 53.2867 149.091 52.8467 148.838 52.3C148.598 51.7533 148.338 51.18 148.058 50.58C147.791 49.9667 147.518 49.3733 147.238 48.8C146.958 48.2133 146.711 47.7267 146.498 47.34ZM168.827 49.8C168.827 50.6267 168.707 51.3733 168.467 52.04C168.227 52.7067 167.887 53.28 167.447 53.76C167.02 54.24 166.507 54.6133 165.907 54.88C165.307 55.1333 164.654 55.26 163.947 55.26C163.24 55.26 162.587 55.1333 161.987 54.88C161.387 54.6133 160.867 54.24 160.427 53.76C160 53.28 159.667 52.7067 159.427 52.04C159.187 51.3733 159.067 50.6267 159.067 49.8C159.067 48.9867 159.187 48.2467 159.427 47.58C159.667 46.9 160 46.32 160.427 45.84C160.867 45.36 161.387 44.9933 161.987 44.74C162.587 44.4733 163.24 44.34 163.947 44.34C164.654 44.34 165.307 44.4733 165.907 44.74C166.507 44.9933 167.02 45.36 167.447 45.84C167.887 46.32 168.227 46.9 168.467 47.58C168.707 48.2467 168.827 48.9867 168.827 49.8ZM166.887 49.8C166.887 48.6267 166.62 47.7 166.087 47.02C165.567 46.3267 164.854 45.98 163.947 45.98C163.04 45.98 162.32 46.3267 161.787 47.02C161.267 47.7 161.007 48.6267 161.007 49.8C161.007 50.9733 161.267 51.9067 161.787 52.6C162.32 53.28 163.04 53.62 163.947 53.62C164.854 53.62 165.567 53.28 166.087 52.6C166.62 51.9067 166.887 50.9733 166.887 49.8ZM170.664 53.48H171.784C172.224 52.84 172.57 52.18 172.824 51.5C173.09 50.82 173.29 50.12 173.424 49.4C173.557 48.6667 173.644 47.9067 173.684 47.12C173.724 46.32 173.75 45.48 173.764 44.6H180.584V53.48H181.984V57.9H180.224V55H172.424V57.9H170.664V53.48ZM178.724 53.48V46.16H175.464C175.45 46.7867 175.417 47.42 175.364 48.06C175.31 48.6867 175.224 49.3133 175.104 49.94C174.984 50.5533 174.81 51.16 174.584 51.76C174.37 52.3467 174.097 52.92 173.764 53.48H178.724ZM183.915 49.82C183.915 48.9 184.048 48.1 184.315 47.42C184.581 46.7267 184.935 46.1533 185.375 45.7C185.815 45.2467 186.321 44.9067 186.895 44.68C187.468 44.4533 188.055 44.34 188.655 44.34C190.055 44.34 191.128 44.78 191.875 45.66C192.621 46.5267 192.995 47.8533 192.995 49.64C192.995 49.72 192.995 49.8267 192.995 49.96C192.995 50.08 192.988 50.1933 192.975 50.3H185.855C185.935 51.38 186.248 52.2 186.795 52.76C187.341 53.32 188.195 53.6 189.355 53.6C190.008 53.6 190.555 53.5467 190.995 53.44C191.448 53.32 191.788 53.2067 192.015 53.1L192.275 54.66C192.048 54.78 191.648 54.9067 191.075 55.04C190.515 55.1733 189.875 55.24 189.155 55.24C188.248 55.24 187.461 55.1067 186.795 54.84C186.141 54.56 185.601 54.18 185.175 53.7C184.748 53.22 184.428 52.6533 184.215 52C184.015 51.3333 183.915 50.6067 183.915 49.82ZM191.055 48.8C191.068 47.96 190.855 47.2733 190.415 46.74C189.988 46.1933 189.395 45.92 188.635 45.92C188.208 45.92 187.828 46.0067 187.495 46.18C187.175 46.34 186.901 46.5533 186.675 46.82C186.448 47.0867 186.268 47.3933 186.135 47.74C186.015 48.0867 185.935 48.44 185.895 48.8H191.055ZM203.386 49.82C203.386 48.6067 203.086 47.6733 202.486 47.02C201.886 46.3667 201.086 46.04 200.086 46.04C199.526 46.04 199.086 46.06 198.766 46.1C198.46 46.14 198.213 46.1867 198.026 46.24V52.8C198.253 52.9867 198.58 53.1667 199.006 53.34C199.433 53.5133 199.9 53.6 200.406 53.6C200.94 53.6 201.393 53.5067 201.766 53.32C202.153 53.12 202.466 52.8533 202.706 52.52C202.946 52.1733 203.12 51.7733 203.226 51.32C203.333 50.8533 203.386 50.3533 203.386 49.82ZM205.326 49.82C205.326 50.6067 205.22 51.3333 205.006 52C204.806 52.6667 204.506 53.24 204.106 53.72C203.706 54.2 203.213 54.5733 202.626 54.84C202.053 55.1067 201.393 55.24 200.646 55.24C200.046 55.24 199.513 55.16 199.046 55C198.593 54.84 198.253 54.6867 198.026 54.54V58.7H196.166V44.92C196.606 44.8133 197.153 44.7 197.806 44.58C198.473 44.4467 199.24 44.38 200.106 44.38C200.906 44.38 201.626 44.5067 202.266 44.76C202.906 45.0133 203.453 45.3733 203.906 45.84C204.36 46.3067 204.706 46.88 204.946 47.56C205.2 48.2267 205.326 48.98 205.326 49.82ZM211.964 53.66C212.404 53.66 212.79 53.6533 213.124 53.64C213.47 53.6133 213.757 53.5733 213.984 53.52V50.42C213.85 50.3533 213.63 50.3 213.324 50.26C213.03 50.2067 212.67 50.18 212.244 50.18C211.964 50.18 211.664 50.2 211.344 50.24C211.037 50.28 210.75 50.3667 210.484 50.5C210.23 50.62 210.017 50.7933 209.844 51.02C209.67 51.2333 209.584 51.52 209.584 51.88C209.584 52.5467 209.797 53.0133 210.224 53.28C210.65 53.5333 211.23 53.66 211.964 53.66ZM211.804 44.34C212.55 44.34 213.177 44.44 213.684 44.64C214.204 44.8267 214.617 45.1 214.924 45.46C215.244 45.8067 215.47 46.2267 215.604 46.72C215.737 47.2 215.804 47.7333 215.804 48.32V54.82C215.644 54.8467 215.417 54.8867 215.124 54.94C214.844 54.98 214.524 55.02 214.164 55.06C213.804 55.1 213.41 55.1333 212.984 55.16C212.57 55.2 212.157 55.22 211.744 55.22C211.157 55.22 210.617 55.16 210.124 55.04C209.63 54.92 209.204 54.7333 208.844 54.48C208.484 54.2133 208.204 53.8667 208.004 53.44C207.804 53.0133 207.704 52.5 207.704 51.9C207.704 51.3267 207.817 50.8333 208.044 50.42C208.284 50.0067 208.604 49.6733 209.004 49.42C209.404 49.1667 209.87 48.98 210.404 48.86C210.937 48.74 211.497 48.68 212.084 48.68C212.27 48.68 212.464 48.6933 212.664 48.72C212.864 48.7333 213.05 48.76 213.224 48.8C213.41 48.8267 213.57 48.8533 213.704 48.88C213.837 48.9067 213.93 48.9267 213.984 48.94V48.42C213.984 48.1133 213.95 47.8133 213.884 47.52C213.817 47.2133 213.697 46.9467 213.524 46.72C213.35 46.48 213.11 46.2933 212.804 46.16C212.51 46.0133 212.124 45.94 211.644 45.94C211.03 45.94 210.49 45.9867 210.024 46.08C209.57 46.16 209.23 46.2467 209.004 46.34L208.784 44.8C209.024 44.6933 209.424 44.5933 209.984 44.5C210.544 44.3933 211.15 44.34 211.804 44.34ZM226.733 44.6V46.16H223.353V55H221.493V46.16H218.113V44.6H226.733ZM238.331 49.8C238.331 50.6267 238.211 51.3733 237.971 52.04C237.731 52.7067 237.391 53.28 236.951 53.76C236.524 54.24 236.011 54.6133 235.411 54.88C234.811 55.1333 234.157 55.26 233.451 55.26C232.744 55.26 232.091 55.1333 231.491 54.88C230.891 54.6133 230.371 54.24 229.931 53.76C229.504 53.28 229.171 52.7067 228.931 52.04C228.691 51.3733 228.571 50.6267 228.571 49.8C228.571 48.9867 228.691 48.2467 228.931 47.58C229.171 46.9 229.504 46.32 229.931 45.84C230.371 45.36 230.891 44.9933 231.491 44.74C232.091 44.4733 232.744 44.34 233.451 44.34C234.157 44.34 234.811 44.4733 235.411 44.74C236.011 44.9933 236.524 45.36 236.951 45.84C237.391 46.32 237.731 46.9 237.971 47.58C238.211 48.2467 238.331 48.9867 238.331 49.8ZM236.391 49.8C236.391 48.6267 236.124 47.7 235.591 47.02C235.071 46.3267 234.357 45.98 233.451 45.98C232.544 45.98 231.824 46.3267 231.291 47.02C230.771 47.7 230.511 48.6267 230.511 49.8C230.511 50.9733 230.771 51.9067 231.291 52.6C231.824 53.28 232.544 53.62 233.451 53.62C234.357 53.62 235.071 53.28 235.591 52.6C236.124 51.9067 236.391 50.9733 236.391 49.8ZM248.668 49.82C248.668 48.6067 248.368 47.6733 247.768 47.02C247.168 46.3667 246.368 46.04 245.368 46.04C244.808 46.04 244.368 46.06 244.048 46.1C243.741 46.14 243.494 46.1867 243.308 46.24V52.8C243.534 52.9867 243.861 53.1667 244.288 53.34C244.714 53.5133 245.181 53.6 245.688 53.6C246.221 53.6 246.674 53.5067 247.048 53.32C247.434 53.12 247.748 52.8533 247.988 52.52C248.228 52.1733 248.401 51.7733 248.508 51.32C248.614 50.8533 248.668 50.3533 248.668 49.82ZM250.608 49.82C250.608 50.6067 250.501 51.3333 250.288 52C250.088 52.6667 249.788 53.24 249.388 53.72C248.988 54.2 248.494 54.5733 247.908 54.84C247.334 55.1067 246.674 55.24 245.928 55.24C245.328 55.24 244.794 55.16 244.328 55C243.874 54.84 243.534 54.6867 243.308 54.54V58.7H241.448V44.92C241.888 44.8133 242.434 44.7 243.088 44.58C243.754 44.4467 244.521 44.38 245.388 44.38C246.188 44.38 246.908 44.5067 247.548 44.76C248.188 45.0133 248.734 45.3733 249.188 45.84C249.641 46.3067 249.988 46.88 250.228 47.56C250.481 48.2267 250.608 48.98 250.608 49.82ZM263.374 55.24C262.534 55.24 261.794 55.1067 261.154 54.84C260.527 54.5733 259.994 54.2 259.554 53.72C259.127 53.24 258.807 52.6733 258.594 52.02C258.381 51.3533 258.274 50.62 258.274 49.82C258.274 49.02 258.387 48.2867 258.614 47.62C258.854 46.9533 259.187 46.38 259.614 45.9C260.041 45.4067 260.561 45.0267 261.174 44.76C261.801 44.48 262.494 44.34 263.254 44.34C263.721 44.34 264.187 44.38 264.654 44.46C265.121 44.54 265.567 44.6667 265.994 44.84L265.574 46.42C265.294 46.2867 264.967 46.18 264.594 46.1C264.234 46.02 263.847 45.98 263.434 45.98C262.394 45.98 261.594 46.3067 261.034 46.96C260.487 47.6133 260.214 48.5667 260.214 49.82C260.214 50.38 260.274 50.8933 260.394 51.36C260.527 51.8267 260.727 52.2267 260.994 52.56C261.274 52.8933 261.627 53.1533 262.054 53.34C262.481 53.5133 263.001 53.6 263.614 53.6C264.107 53.6 264.554 53.5533 264.954 53.46C265.354 53.3667 265.667 53.2667 265.894 53.16L266.154 54.72C266.047 54.7867 265.894 54.8533 265.694 54.92C265.494 54.9733 265.267 55.02 265.014 55.06C264.761 55.1133 264.487 55.1533 264.194 55.18C263.914 55.22 263.641 55.24 263.374 55.24ZM270.631 47.34C270.497 48.66 270.397 49.98 270.331 51.3C270.264 52.6067 270.211 53.84 270.171 55H268.391C268.417 54.1867 268.457 53.34 268.511 52.46C268.564 51.5667 268.624 50.6733 268.691 49.78C268.757 48.8733 268.831 47.9867 268.911 47.12C268.991 46.24 269.077 45.4 269.171 44.6H270.871C271.297 45.2933 271.797 46.2467 272.371 47.46C272.944 48.66 273.604 50.0467 274.351 51.62C275.097 50.0467 275.757 48.66 276.331 47.46C276.904 46.2467 277.404 45.2933 277.831 44.6H279.551C279.644 45.4 279.731 46.24 279.811 47.12C279.891 47.9867 279.964 48.8733 280.031 49.78C280.097 50.6733 280.157 51.5667 280.211 52.46C280.264 53.34 280.304 54.1867 280.331 55H278.491C278.451 53.84 278.397 52.6067 278.331 51.3C278.264 49.98 278.164 48.66 278.031 47.34C277.817 47.7533 277.571 48.2533 277.291 48.84C277.011 49.4133 276.731 50 276.451 50.6C276.184 51.2 275.931 51.7733 275.691 52.32C275.451 52.8667 275.264 53.3 275.131 53.62H273.571C273.424 53.2867 273.224 52.8467 272.971 52.3C272.731 51.7533 272.471 51.18 272.191 50.58C271.924 49.9667 271.651 49.3733 271.371 48.8C271.091 48.2133 270.844 47.7267 270.631 47.34ZM292.96 49.8C292.96 50.6267 292.84 51.3733 292.6 52.04C292.36 52.7067 292.02 53.28 291.58 53.76C291.153 54.24 290.64 54.6133 290.04 54.88C289.44 55.1333 288.786 55.26 288.08 55.26C287.373 55.26 286.72 55.1333 286.12 54.88C285.52 54.6133 285 54.24 284.56 53.76C284.133 53.28 283.8 52.7067 283.56 52.04C283.32 51.3733 283.2 50.6267 283.2 49.8C283.2 48.9867 283.32 48.2467 283.56 47.58C283.8 46.9 284.133 46.32 284.56 45.84C285 45.36 285.52 44.9933 286.12 44.74C286.72 44.4733 287.373 44.34 288.08 44.34C288.786 44.34 289.44 44.4733 290.04 44.74C290.64 44.9933 291.153 45.36 291.58 45.84C292.02 46.32 292.36 46.9 292.6 47.58C292.84 48.2467 292.96 48.9867 292.96 49.8ZM291.02 49.8C291.02 48.6267 290.753 47.7 290.22 47.02C289.7 46.3267 288.986 45.98 288.08 45.98C287.173 45.98 286.453 46.3267 285.92 47.02C285.4 47.7 285.14 48.6267 285.14 49.8C285.14 50.9733 285.4 51.9067 285.92 52.6C286.453 53.28 287.173 53.62 288.08 53.62C288.986 53.62 289.7 53.28 290.22 52.6C290.753 51.9067 291.02 50.9733 291.02 49.8ZM302.517 46.16H297.937V55H296.077V44.6H302.517V46.16ZM58.78 65.8C58.78 66.6267 58.66 67.3733 58.42 68.04C58.18 68.7067 57.84 69.28 57.4 69.76C56.9733 70.24 56.46 70.6133 55.86 70.88C55.26 71.1333 54.6067 71.26 53.9 71.26C53.1933 71.26 52.54 71.1333 51.94 70.88C51.34 70.6133 50.82 70.24 50.38 69.76C49.9533 69.28 49.62 68.7067 49.38 68.04C49.14 67.3733 49.02 66.6267 49.02 65.8C49.02 64.9867 49.14 64.2467 49.38 63.58C49.62 62.9 49.9533 62.32 50.38 61.84C50.82 61.36 51.34 60.9933 51.94 60.74C52.54 60.4733 53.1933 60.34 53.9 60.34C54.6067 60.34 55.26 60.4733 55.86 60.74C56.46 60.9933 56.9733 61.36 57.4 61.84C57.84 62.32 58.18 62.9 58.42 63.58C58.66 64.2467 58.78 64.9867 58.78 65.8ZM56.84 65.8C56.84 64.6267 56.5733 63.7 56.04 63.02C55.52 62.3267 54.8067 61.98 53.9 61.98C52.9933 61.98 52.2733 62.3267 51.74 63.02C51.22 63.7 50.96 64.6267 50.96 65.8C50.96 66.9733 51.22 67.9067 51.74 68.6C52.2733 69.28 52.9933 69.62 53.9 69.62C54.8067 69.62 55.52 69.28 56.04 68.6C56.5733 67.9067 56.84 66.9733 56.84 65.8ZM69.2369 60.6V62.16H65.8569V71H63.9969V62.16H60.6169V60.6H69.2369ZM80.0147 71H78.1547V62.16H73.5147V71H71.6547V60.6H80.0147V71ZM90.9372 65.82C90.9372 64.6067 90.6372 63.6733 90.0372 63.02C89.4372 62.3667 88.6372 62.04 87.6372 62.04C87.0772 62.04 86.6372 62.06 86.3172 62.1C86.0105 62.14 85.7639 62.1867 85.5772 62.24V68.8C85.8039 68.9867 86.1305 69.1667 86.5572 69.34C86.9839 69.5133 87.4505 69.6 87.9572 69.6C88.4905 69.6 88.9439 69.5067 89.3172 69.32C89.7039 69.12 90.0172 68.8533 90.2572 68.52C90.4972 68.1733 90.6705 67.7733 90.7772 67.32C90.8839 66.8533 90.9372 66.3533 90.9372 65.82ZM92.8772 65.82C92.8772 66.6067 92.7705 67.3333 92.5572 68C92.3572 68.6667 92.0572 69.24 91.6572 69.72C91.2572 70.2 90.7639 70.5733 90.1772 70.84C89.6039 71.1067 88.9439 71.24 88.1972 71.24C87.5972 71.24 87.0639 71.16 86.5972 71C86.1439 70.84 85.8039 70.6867 85.5772 70.54V74.7H83.7172V60.92C84.1572 60.8133 84.7039 60.7 85.3572 60.58C86.0239 60.4467 86.7905 60.38 87.6572 60.38C88.4572 60.38 89.1772 60.5067 89.8172 60.76C90.4572 61.0133 91.0039 61.3733 91.4572 61.84C91.9105 62.3067 92.2572 62.88 92.4972 63.56C92.7505 64.2267 92.8772 64.98 92.8772 65.82ZM99.5145 69.66C99.9545 69.66 100.341 69.6533 100.675 69.64C101.021 69.6133 101.308 69.5733 101.535 69.52V66.42C101.401 66.3533 101.181 66.3 100.875 66.26C100.581 66.2067 100.221 66.18 99.7945 66.18C99.5145 66.18 99.2145 66.2 98.8945 66.24C98.5879 66.28 98.3012 66.3667 98.0345 66.5C97.7812 66.62 97.5679 66.7933 97.3945 67.02C97.2212 67.2333 97.1345 67.52 97.1345 67.88C97.1345 68.5467 97.3479 69.0133 97.7745 69.28C98.2012 69.5333 98.7812 69.66 99.5145 69.66ZM99.3545 60.34C100.101 60.34 100.728 60.44 101.235 60.64C101.755 60.8267 102.168 61.1 102.475 61.46C102.795 61.8067 103.021 62.2267 103.155 62.72C103.288 63.2 103.355 63.7333 103.355 64.32V70.82C103.195 70.8467 102.968 70.8867 102.675 70.94C102.395 70.98 102.075 71.02 101.715 71.06C101.355 71.1 100.961 71.1333 100.535 71.16C100.121 71.2 99.7079 71.22 99.2945 71.22C98.7079 71.22 98.1679 71.16 97.6745 71.04C97.1812 70.92 96.7545 70.7333 96.3945 70.48C96.0345 70.2133 95.7545 69.8667 95.5545 69.44C95.3545 69.0133 95.2545 68.5 95.2545 67.9C95.2545 67.3267 95.3679 66.8333 95.5945 66.42C95.8345 66.0067 96.1545 65.6733 96.5545 65.42C96.9545 65.1667 97.4212 64.98 97.9545 64.86C98.4879 64.74 99.0479 64.68 99.6345 64.68C99.8212 64.68 100.015 64.6933 100.215 64.72C100.415 64.7333 100.601 64.76 100.775 64.8C100.961 64.8267 101.121 64.8533 101.255 64.88C101.388 64.9067 101.481 64.9267 101.535 64.94V64.42C101.535 64.1133 101.501 63.8133 101.435 63.52C101.368 63.2133 101.248 62.9467 101.075 62.72C100.901 62.48 100.661 62.2933 100.355 62.16C100.061 62.0133 99.6745 61.94 99.1945 61.94C98.5812 61.94 98.0412 61.9867 97.5745 62.08C97.1212 62.16 96.7812 62.2467 96.5545 62.34L96.3345 60.8C96.5745 60.6933 96.9745 60.5933 97.5345 60.5C98.0945 60.3933 98.7012 60.34 99.3545 60.34ZM108.764 69.6C108.844 69.6133 108.957 69.6267 109.104 69.64C109.25 69.6533 109.417 69.6667 109.604 69.68C109.79 69.68 109.984 69.6867 110.184 69.7C110.397 69.7 110.597 69.7 110.784 69.7C111.17 69.7 111.537 69.6733 111.884 69.62C112.244 69.5667 112.55 69.4733 112.804 69.34C113.07 69.2067 113.277 69.0333 113.424 68.82C113.584 68.5933 113.664 68.3067 113.664 67.96C113.664 67.6267 113.59 67.3533 113.444 67.14C113.31 66.9133 113.124 66.7333 112.884 66.6C112.644 66.4667 112.357 66.3733 112.024 66.32C111.704 66.2667 111.357 66.24 110.984 66.24H108.764V69.6ZM110.744 64.86C111.104 64.86 111.43 64.84 111.724 64.8C112.03 64.7467 112.29 64.66 112.504 64.54C112.73 64.42 112.904 64.26 113.024 64.06C113.157 63.86 113.224 63.6067 113.224 63.3C113.224 62.98 113.144 62.7267 112.984 62.54C112.824 62.3533 112.61 62.2133 112.344 62.12C112.09 62.0133 111.797 61.9467 111.464 61.92C111.144 61.88 110.817 61.86 110.484 61.86C110.177 61.86 109.864 61.8667 109.544 61.88C109.237 61.8933 108.977 61.9067 108.764 61.92V64.86H110.744ZM110.704 71.18C109.917 71.18 109.19 71.14 108.524 71.06C107.857 70.9933 107.33 70.9133 106.944 70.82V60.7C107.33 60.6067 107.857 60.5267 108.524 60.46C109.19 60.38 109.917 60.34 110.704 60.34C111.25 60.34 111.784 60.3867 112.304 60.48C112.824 60.5733 113.284 60.7333 113.684 60.96C114.084 61.1733 114.404 61.4733 114.644 61.86C114.897 62.2333 115.024 62.7 115.024 63.26C115.024 63.7667 114.897 64.2 114.644 64.56C114.39 64.92 114.05 65.2 113.624 65.4C114.197 65.6 114.65 65.9 114.984 66.3C115.33 66.6867 115.504 67.2333 115.504 67.94C115.504 68.5667 115.377 69.0867 115.124 69.5C114.884 69.9133 114.544 70.2467 114.104 70.5C113.677 70.7533 113.17 70.9267 112.584 71.02C111.997 71.1267 111.37 71.18 110.704 71.18ZM127.141 60.6V71H125.341V63.08C124.941 63.5867 124.501 64.18 124.021 64.86C123.541 65.54 123.061 66.2467 122.581 66.98C122.101 67.7 121.641 68.4133 121.201 69.12C120.761 69.8267 120.381 70.4533 120.061 71H118.401V60.6H120.201V68.08C120.547 67.5067 120.941 66.88 121.381 66.2C121.821 65.5067 122.274 64.8267 122.741 64.16C123.221 63.48 123.694 62.8333 124.161 62.22C124.641 61.5933 125.087 61.0533 125.501 60.6H127.141ZM138.174 60.6V62.16H134.794V71H132.934V62.16H129.554V60.6H138.174ZM144.532 69.7C145.319 69.7 145.939 69.5467 146.392 69.24C146.846 68.9333 147.072 68.44 147.072 67.76C147.072 67.4267 147.006 67.14 146.872 66.9C146.739 66.66 146.552 66.4667 146.312 66.32C146.086 66.16 145.819 66.0467 145.512 65.98C145.206 65.9 144.879 65.86 144.532 65.86C144.172 65.86 143.799 65.8733 143.412 65.9C143.039 65.9133 142.719 65.9533 142.452 66.02V69.6C142.532 69.6133 142.652 69.6267 142.812 69.64C142.972 69.6533 143.146 69.6667 143.332 69.68C143.532 69.68 143.732 69.6867 143.932 69.7C144.146 69.7 144.346 69.7 144.532 69.7ZM140.592 70.78V60.6H142.452V64.58C142.559 64.5533 142.699 64.5267 142.872 64.5C143.059 64.4733 143.252 64.4467 143.452 64.42C143.666 64.3933 143.886 64.3733 144.112 64.36C144.339 64.3467 144.552 64.34 144.752 64.34C145.326 64.34 145.866 64.4067 146.372 64.54C146.879 64.66 147.319 64.86 147.692 65.14C148.079 65.4067 148.386 65.76 148.612 66.2C148.839 66.6267 148.952 67.14 148.952 67.74C148.952 68.3667 148.846 68.9 148.632 69.34C148.419 69.78 148.112 70.14 147.712 70.42C147.312 70.7 146.832 70.9 146.272 71.02C145.726 71.1533 145.112 71.22 144.432 71.22C143.766 71.22 143.112 71.18 142.472 71.1C141.832 71.0333 141.206 70.9267 140.592 70.78ZM160.648 71.12C160.368 71.12 160.061 71.1133 159.728 71.1C159.408 71.0867 159.081 71.0667 158.748 71.04C158.428 71.0133 158.108 70.98 157.788 70.94C157.468 70.9 157.174 70.8467 156.908 70.78V57.34C157.174 57.2733 157.468 57.22 157.788 57.18C158.108 57.14 158.428 57.1067 158.748 57.08C159.081 57.0533 159.408 57.0333 159.728 57.02C160.048 57.0067 160.348 57 160.628 57C161.428 57 162.174 57.06 162.868 57.18C163.574 57.3 164.181 57.5067 164.688 57.8C165.208 58.08 165.614 58.4533 165.908 58.92C166.201 59.3867 166.348 59.96 166.348 60.64C166.348 61.4 166.168 62.0267 165.808 62.52C165.448 63 164.968 63.36 164.368 63.6C165.181 63.84 165.828 64.22 166.308 64.74C166.788 65.26 167.028 65.9933 167.028 66.94C167.028 68.3267 166.514 69.3733 165.488 70.08C164.474 70.7733 162.861 71.12 160.648 71.12ZM158.828 64.54V69.42C158.974 69.4333 159.148 69.4467 159.348 69.46C159.521 69.4733 159.721 69.4867 159.948 69.5C160.188 69.5 160.461 69.5 160.768 69.5C161.341 69.5 161.881 69.4667 162.388 69.4C162.908 69.32 163.361 69.1867 163.748 69C164.134 68.8133 164.441 68.5533 164.668 68.22C164.908 67.8867 165.028 67.4667 165.028 66.96C165.028 66.5067 164.941 66.1267 164.768 65.82C164.594 65.5 164.341 65.2467 164.008 65.06C163.688 64.8733 163.301 64.74 162.848 64.66C162.394 64.58 161.888 64.54 161.328 64.54H158.828ZM158.828 62.98H160.868C161.348 62.98 161.801 62.9467 162.228 62.88C162.654 62.8133 163.021 62.6933 163.328 62.52C163.648 62.3467 163.894 62.12 164.068 61.84C164.254 61.56 164.348 61.2067 164.348 60.78C164.348 60.38 164.254 60.0467 164.068 59.78C163.881 59.5 163.621 59.28 163.288 59.12C162.968 58.9467 162.588 58.82 162.148 58.74C161.708 58.66 161.241 58.62 160.748 58.62C160.254 58.62 159.868 58.6267 159.588 58.64C159.308 58.6533 159.054 58.6733 158.828 58.7V62.98ZM173.659 69.66C174.099 69.66 174.486 69.6533 174.819 69.64C175.166 69.6133 175.452 69.5733 175.679 69.52V66.42C175.546 66.3533 175.326 66.3 175.019 66.26C174.726 66.2067 174.366 66.18 173.939 66.18C173.659 66.18 173.359 66.2 173.039 66.24C172.732 66.28 172.446 66.3667 172.179 66.5C171.926 66.62 171.712 66.7933 171.539 67.02C171.366 67.2333 171.279 67.52 171.279 67.88C171.279 68.5467 171.492 69.0133 171.919 69.28C172.346 69.5333 172.926 69.66 173.659 69.66ZM173.499 60.34C174.246 60.34 174.872 60.44 175.379 60.64C175.899 60.8267 176.312 61.1 176.619 61.46C176.939 61.8067 177.166 62.2267 177.299 62.72C177.432 63.2 177.499 63.7333 177.499 64.32V70.82C177.339 70.8467 177.112 70.8867 176.819 70.94C176.539 70.98 176.219 71.02 175.859 71.06C175.499 71.1 175.106 71.1333 174.679 71.16C174.266 71.2 173.852 71.22 173.439 71.22C172.852 71.22 172.312 71.16 171.819 71.04C171.326 70.92 170.899 70.7333 170.539 70.48C170.179 70.2133 169.899 69.8667 169.699 69.44C169.499 69.0133 169.399 68.5 169.399 67.9C169.399 67.3267 169.512 66.8333 169.739 66.42C169.979 66.0067 170.299 65.6733 170.699 65.42C171.099 65.1667 171.566 64.98 172.099 64.86C172.632 64.74 173.192 64.68 173.779 64.68C173.966 64.68 174.159 64.6933 174.359 64.72C174.559 64.7333 174.746 64.76 174.919 64.8C175.106 64.8267 175.266 64.8533 175.399 64.88C175.532 64.9067 175.626 64.9267 175.679 64.94V64.42C175.679 64.1133 175.646 63.8133 175.579 63.52C175.512 63.2133 175.392 62.9467 175.219 62.72C175.046 62.48 174.806 62.2933 174.499 62.16C174.206 62.0133 173.819 61.94 173.339 61.94C172.726 61.94 172.186 61.9867 171.719 62.08C171.266 62.16 170.926 62.2467 170.699 62.34L170.479 60.8C170.719 60.6933 171.119 60.5933 171.679 60.5C172.239 60.3933 172.846 60.34 173.499 60.34ZM183.068 63.34C182.935 64.66 182.835 65.98 182.768 67.3C182.702 68.6067 182.648 69.84 182.608 71H180.828C180.855 70.1867 180.895 69.34 180.948 68.46C181.002 67.5667 181.062 66.6733 181.128 65.78C181.195 64.8733 181.268 63.9867 181.348 63.12C181.428 62.24 181.515 61.4 181.608 60.6H183.308C183.735 61.2933 184.235 62.2467 184.808 63.46C185.382 64.66 186.042 66.0467 186.788 67.62C187.535 66.0467 188.195 64.66 188.768 63.46C189.342 62.2467 189.842 61.2933 190.268 60.6H191.988C192.082 61.4 192.168 62.24 192.248 63.12C192.328 63.9867 192.402 64.8733 192.468 65.78C192.535 66.6733 192.595 67.5667 192.648 68.46C192.702 69.34 192.742 70.1867 192.768 71H190.928C190.888 69.84 190.835 68.6067 190.768 67.3C190.702 65.98 190.602 64.66 190.468 63.34C190.255 63.7533 190.008 64.2533 189.728 64.84C189.448 65.4133 189.168 66 188.888 66.6C188.622 67.2 188.368 67.7733 188.128 68.32C187.888 68.8667 187.702 69.3 187.568 69.62H186.008C185.862 69.2867 185.662 68.8467 185.408 68.3C185.168 67.7533 184.908 67.18 184.628 66.58C184.362 65.9667 184.088 65.3733 183.808 64.8C183.528 64.2133 183.282 63.7267 183.068 63.34ZM204.966 62.16C204.966 62.6 204.953 63.0733 204.926 63.58C204.913 64.0733 204.879 64.5733 204.826 65.08C204.773 65.5733 204.699 66.0667 204.606 66.56C204.513 67.04 204.393 67.4933 204.246 67.92C204.099 68.3467 203.913 68.7467 203.686 69.12C203.473 69.4933 203.206 69.8267 202.886 70.12C202.566 70.4 202.193 70.64 201.766 70.84C201.339 71.0267 200.839 71.1467 200.266 71.2L200.006 69.64C200.659 69.5067 201.173 69.26 201.546 68.9C201.933 68.54 202.239 68.1 202.466 67.58C202.666 67.1267 202.813 66.6133 202.906 66.04C202.999 65.4667 203.066 64.8733 203.106 64.26C203.146 63.6333 203.166 63.0067 203.166 62.38C203.179 61.7533 203.186 61.16 203.186 60.6H210.106V71H208.246V62.16H204.966ZM222.979 65.8C222.979 66.6267 222.859 67.3733 222.619 68.04C222.379 68.7067 222.039 69.28 221.599 69.76C221.173 70.24 220.659 70.6133 220.059 70.88C219.459 71.1333 218.806 71.26 218.099 71.26C217.393 71.26 216.739 71.1333 216.139 70.88C215.539 70.6133 215.019 70.24 214.579 69.76C214.153 69.28 213.819 68.7067 213.579 68.04C213.339 67.3733 213.219 66.6267 213.219 65.8C213.219 64.9867 213.339 64.2467 213.579 63.58C213.819 62.9 214.153 62.32 214.579 61.84C215.019 61.36 215.539 60.9933 216.139 60.74C216.739 60.4733 217.393 60.34 218.099 60.34C218.806 60.34 219.459 60.4733 220.059 60.74C220.659 60.9933 221.173 61.36 221.599 61.84C222.039 62.32 222.379 62.9 222.619 63.58C222.859 64.2467 222.979 64.9867 222.979 65.8ZM221.039 65.8C221.039 64.6267 220.773 63.7 220.239 63.02C219.719 62.3267 219.006 61.98 218.099 61.98C217.193 61.98 216.473 62.3267 215.939 63.02C215.419 63.7 215.159 64.6267 215.159 65.8C215.159 66.9733 215.419 67.9067 215.939 68.6C216.473 69.28 217.193 69.62 218.099 69.62C219.006 69.62 219.719 69.28 220.239 68.6C220.773 67.9067 221.039 66.9733 221.039 65.8ZM232.536 62.16H227.956V71H226.096V60.6H232.536V62.16ZM243.695 60.6V71H241.895V63.08C241.495 63.5867 241.055 64.18 240.575 64.86C240.095 65.54 239.615 66.2467 239.135 66.98C238.655 67.7 238.195 68.4133 237.755 69.12C237.315 69.8267 236.935 70.4533 236.615 71H234.955V60.6H236.755V68.08C237.102 67.5067 237.495 66.88 237.935 66.2C238.375 65.5067 238.829 64.8267 239.295 64.16C239.775 63.48 240.249 62.8333 240.715 62.22C241.195 61.5933 241.642 61.0533 242.055 60.6H243.695ZM255.909 71H254.049V66.4H249.249V71H247.389V60.6H249.249V64.84H254.049V60.6H255.909V71ZM273.477 60.6V71H271.677V63.08C271.277 63.5867 270.837 64.18 270.357 64.86C269.877 65.54 269.397 66.2467 268.917 66.98C268.437 67.7 267.977 68.4133 267.537 69.12C267.097 69.8267 266.717 70.4533 266.397 71H264.737V60.6H266.537V68.08C266.883 67.5067 267.277 66.88 267.717 66.2C268.157 65.5067 268.61 64.8267 269.077 64.16C269.557 63.48 270.03 62.8333 270.497 62.22C270.977 61.5933 271.423 61.0533 271.837 60.6H273.477ZM57.96 87H56.1V78.16H51.46V87H49.6V76.6H57.96V87ZM65.1825 85.66C65.6225 85.66 66.0092 85.6533 66.3425 85.64C66.6892 85.6133 66.9758 85.5733 67.2025 85.52V82.42C67.0692 82.3533 66.8492 82.3 66.5425 82.26C66.2492 82.2067 65.8892 82.18 65.4625 82.18C65.1825 82.18 64.8825 82.2 64.5625 82.24C64.2558 82.28 63.9692 82.3667 63.7025 82.5C63.4492 82.62 63.2358 82.7933 63.0625 83.02C62.8892 83.2333 62.8025 83.52 62.8025 83.88C62.8025 84.5467 63.0158 85.0133 63.4425 85.28C63.8692 85.5333 64.4492 85.66 65.1825 85.66ZM65.0225 76.34C65.7692 76.34 66.3958 76.44 66.9025 76.64C67.4225 76.8267 67.8358 77.1 68.1425 77.46C68.4625 77.8067 68.6892 78.2267 68.8225 78.72C68.9558 79.2 69.0225 79.7333 69.0225 80.32V86.82C68.8625 86.8467 68.6358 86.8867 68.3425 86.94C68.0625 86.98 67.7425 87.02 67.3825 87.06C67.0225 87.1 66.6292 87.1333 66.2025 87.16C65.7892 87.2 65.3758 87.22 64.9625 87.22C64.3758 87.22 63.8358 87.16 63.3425 87.04C62.8492 86.92 62.4225 86.7333 62.0625 86.48C61.7025 86.2133 61.4225 85.8667 61.2225 85.44C61.0225 85.0133 60.9225 84.5 60.9225 83.9C60.9225 83.3267 61.0358 82.8333 61.2625 82.42C61.5025 82.0067 61.8225 81.6733 62.2225 81.42C62.6225 81.1667 63.0892 80.98 63.6225 80.86C64.1558 80.74 64.7158 80.68 65.3025 80.68C65.4892 80.68 65.6825 80.6933 65.8825 80.72C66.0825 80.7333 66.2692 80.76 66.4425 80.8C66.6292 80.8267 66.7892 80.8533 66.9225 80.88C67.0558 80.9067 67.1492 80.9267 67.2025 80.94V80.42C67.2025 80.1133 67.1692 79.8133 67.1025 79.52C67.0358 79.2133 66.9158 78.9467 66.7425 78.72C66.5692 78.48 66.3292 78.2933 66.0225 78.16C65.7292 78.0133 65.3425 77.94 64.8625 77.94C64.2492 77.94 63.7092 77.9867 63.2425 78.08C62.7892 78.16 62.4492 78.2467 62.2225 78.34L62.0025 76.8C62.2425 76.6933 62.6425 76.5933 63.2025 76.5C63.7625 76.3933 64.3692 76.34 65.0225 76.34ZM79.8317 81.82C79.8317 80.6067 79.5317 79.6733 78.9317 79.02C78.3317 78.3667 77.5317 78.04 76.5317 78.04C75.9717 78.04 75.5317 78.06 75.2117 78.1C74.9051 78.14 74.6584 78.1867 74.4717 78.24V84.8C74.6984 84.9867 75.0251 85.1667 75.4517 85.34C75.8784 85.5133 76.3451 85.6 76.8517 85.6C77.3851 85.6 77.8384 85.5067 78.2117 85.32C78.5984 85.12 78.9117 84.8533 79.1517 84.52C79.3917 84.1733 79.5651 83.7733 79.6717 83.32C79.7784 82.8533 79.8317 82.3533 79.8317 81.82ZM81.7717 81.82C81.7717 82.6067 81.6651 83.3333 81.4517 84C81.2517 84.6667 80.9517 85.24 80.5517 85.72C80.1517 86.2 79.6584 86.5733 79.0717 86.84C78.4984 87.1067 77.8384 87.24 77.0917 87.24C76.4917 87.24 75.9584 87.16 75.4917 87C75.0384 86.84 74.6984 86.6867 74.4717 86.54V90.7H72.6117V76.92C73.0517 76.8133 73.5984 76.7 74.2517 76.58C74.9184 76.4467 75.6851 76.38 76.5517 76.38C77.3517 76.38 78.0717 76.5067 78.7117 76.76C79.3517 77.0133 79.8984 77.3733 80.3517 77.84C80.8051 78.3067 81.1517 78.88 81.3917 79.56C81.6451 80.2267 81.7717 80.98 81.7717 81.82ZM94.0691 81.8C94.0691 82.6267 93.9491 83.3733 93.7091 84.04C93.4691 84.7067 93.1291 85.28 92.6891 85.76C92.2624 86.24 91.7491 86.6133 91.1491 86.88C90.5491 87.1333 89.8957 87.26 89.1891 87.26C88.4824 87.26 87.8291 87.1333 87.2291 86.88C86.6291 86.6133 86.1091 86.24 85.6691 85.76C85.2424 85.28 84.9091 84.7067 84.6691 84.04C84.4291 83.3733 84.3091 82.6267 84.3091 81.8C84.3091 80.9867 84.4291 80.2467 84.6691 79.58C84.9091 78.9 85.2424 78.32 85.6691 77.84C86.1091 77.36 86.6291 76.9933 87.2291 76.74C87.8291 76.4733 88.4824 76.34 89.1891 76.34C89.8957 76.34 90.5491 76.4733 91.1491 76.74C91.7491 76.9933 92.2624 77.36 92.6891 77.84C93.1291 78.32 93.4691 78.9 93.7091 79.58C93.9491 80.2467 94.0691 80.9867 94.0691 81.8ZM92.1291 81.8C92.1291 80.6267 91.8624 79.7 91.3291 79.02C90.8091 78.3267 90.0957 77.98 89.1891 77.98C88.2824 77.98 87.5624 78.3267 87.0291 79.02C86.5091 79.7 86.2491 80.6267 86.2491 81.8C86.2491 82.9733 86.5091 83.9067 87.0291 84.6C87.5624 85.28 88.2824 85.62 89.1891 85.62C90.0957 85.62 90.8091 85.28 91.3291 84.6C91.8624 83.9067 92.1291 82.9733 92.1291 81.8ZM100.806 78.16C100.806 78.6 100.793 79.0733 100.766 79.58C100.753 80.0733 100.719 80.5733 100.666 81.08C100.613 81.5733 100.539 82.0667 100.446 82.56C100.353 83.04 100.233 83.4933 100.086 83.92C99.9393 84.3467 99.7526 84.7467 99.5259 85.12C99.3126 85.4933 99.0459 85.8267 98.7259 86.12C98.4059 86.4 98.0326 86.64 97.6059 86.84C97.1793 87.0267 96.6793 87.1467 96.1059 87.2L95.8459 85.64C96.4993 85.5067 97.0126 85.26 97.3859 84.9C97.7726 84.54 98.0793 84.1 98.3059 83.58C98.5059 83.1267 98.6526 82.6133 98.7459 82.04C98.8393 81.4667 98.9059 80.8733 98.9459 80.26C98.9859 79.6333 99.0059 79.0067 99.0059 78.38C99.0193 77.7533 99.0259 77.16 99.0259 76.6H105.946V87H104.086V78.16H100.806ZM113.579 85.7C114.366 85.7 114.986 85.5467 115.439 85.24C115.892 84.9333 116.119 84.44 116.119 83.76C116.119 83.4267 116.052 83.14 115.919 82.9C115.786 82.66 115.599 82.4667 115.359 82.32C115.132 82.16 114.866 82.0467 114.559 81.98C114.252 81.9 113.926 81.86 113.579 81.86C113.219 81.86 112.846 81.8733 112.459 81.9C112.086 81.9133 111.766 81.9533 111.499 82.02V85.6C111.579 85.6133 111.699 85.6267 111.859 85.64C112.019 85.6533 112.192 85.6667 112.379 85.68C112.579 85.68 112.779 85.6867 112.979 85.7C113.192 85.7 113.392 85.7 113.579 85.7ZM109.639 86.78V76.6H111.499V80.58C111.606 80.5533 111.746 80.5267 111.919 80.5C112.106 80.4733 112.299 80.4467 112.499 80.42C112.712 80.3933 112.932 80.3733 113.159 80.36C113.386 80.3467 113.599 80.34 113.799 80.34C114.372 80.34 114.912 80.4067 115.419 80.54C115.926 80.66 116.366 80.86 116.739 81.14C117.126 81.4067 117.432 81.76 117.659 82.2C117.886 82.6267 117.999 83.14 117.999 83.74C117.999 84.3667 117.892 84.9 117.679 85.34C117.466 85.78 117.159 86.14 116.759 86.42C116.359 86.7 115.879 86.9 115.319 87.02C114.772 87.1533 114.159 87.22 113.479 87.22C112.812 87.22 112.159 87.18 111.519 87.1C110.879 87.0333 110.252 86.9267 109.639 86.78Z" fill="#0231A1"/>
<path d="M2.18315 34.7035C1.45963 34.2532 1.09787 34.0281 0.973951 33.7396C0.865736 33.4877 0.865736 33.2023 0.973951 32.9504C1.09787 32.6618 1.45963 32.4367 2.18315 31.9865L23.8221 18.5216C24.6204 18.0249 25.0196 17.7765 25.3489 17.8034C25.6359 17.8269 25.8989 17.973 26.0705 18.2043C26.2674 18.4697 26.2674 18.9398 26.2674 19.8801V46.8099C26.2674 47.7502 26.2674 48.2203 26.0705 48.4857C25.8989 48.717 25.6359 48.8631 25.3489 48.8866C25.0196 48.9135 24.6204 48.6651 23.8221 48.1683L2.18315 34.7035Z" fill="#CCD3E4"/>
</svg>
