<svg width="304" height="100" viewBox="0 0 304 100" fill="none" xmlns="http://www.w3.org/2000/svg">
    <rect x="22" width="282" height="100" rx="10" fill="#CCD3E4"/>
    <path
            d="M43.1095 14.14C42.6962 14.5933 42.2295 15.1 41.7095 15.66C41.1895 16.2067 40.6429 16.7733 40.0695 17.36C39.5095 17.9333 38.9495 18.5 38.3895 19.06C37.8295 19.62 37.3029 20.14 36.8095 20.62C37.3829 21.02 37.9895 21.5133 38.6295 22.1C39.2695 22.6867 39.8962 23.3133 40.5095 23.98C41.1229 24.6467 41.6962 25.3267 42.2295 26.02C42.7762 26.7133 43.2295 27.3733 43.5895 28H41.3095C40.9095 27.3733 40.4495 26.7467 39.9295 26.12C39.4095 25.48 38.8562 24.8733 38.2695 24.3C37.6962 23.7133 37.1095 23.1733 36.5095 22.68C35.9229 22.1867 35.3495 21.7667 34.7895 21.42V28H32.8495V14.14H34.7895V20.26C35.2562 19.82 35.7695 19.3267 36.3295 18.78C36.8895 18.22 37.4429 17.66 37.9895 17.1C38.5362 16.54 39.0495 16.0067 39.5295 15.5C40.0229 14.98 40.4362 14.5267 40.7695 14.14H43.1095ZM54.6165 22.8C54.6165 23.6267 54.4965 24.3733 54.2565 25.04C54.0165 25.7067 53.6765 26.28 53.2365 26.76C52.8099 27.24 52.2965 27.6133 51.6965 27.88C51.0965 28.1333 50.4432 28.26 49.7365 28.26C49.0299 28.26 48.3765 28.1333 47.7765 27.88C47.1765 27.6133 46.6565 27.24 46.2165 26.76C45.7899 26.28 45.4565 25.7067 45.2165 25.04C44.9765 24.3733 44.8565 23.6267 44.8565 22.8C44.8565 21.9867 44.9765 21.2467 45.2165 20.58C45.4565 19.9 45.7899 19.32 46.2165 18.84C46.6565 18.36 47.1765 17.9933 47.7765 17.74C48.3765 17.4733 49.0299 17.34 49.7365 17.34C50.4432 17.34 51.0965 17.4733 51.6965 17.74C52.2965 17.9933 52.8099 18.36 53.2365 18.84C53.6765 19.32 54.0165 19.9 54.2565 20.58C54.4965 21.2467 54.6165 21.9867 54.6165 22.8ZM52.6765 22.8C52.6765 21.6267 52.4099 20.7 51.8765 20.02C51.3565 19.3267 50.6432 18.98 49.7365 18.98C48.8299 18.98 48.1099 19.3267 47.5765 20.02C47.0565 20.7 46.7965 21.6267 46.7965 22.8C46.7965 23.9733 47.0565 24.9067 47.5765 25.6C48.1099 26.28 48.8299 26.62 49.7365 26.62C50.6432 26.62 51.3565 26.28 51.8765 25.6C52.4099 24.9067 52.6765 23.9733 52.6765 22.8ZM56.4534 26.48H57.5734C58.0134 25.84 58.3601 25.18 58.6134 24.5C58.8801 23.82 59.0801 23.12 59.2134 22.4C59.3468 21.6667 59.4334 20.9067 59.4734 20.12C59.5134 19.32 59.5401 18.48 59.5534 17.6H66.3734V26.48H67.7734V30.9H66.0134V28H58.2134V30.9H56.4534V26.48ZM64.5134 26.48V19.16H61.2534C61.2401 19.7867 61.2068 20.42 61.1534 21.06C61.1001 21.6867 61.0134 22.3133 60.8934 22.94C60.7734 23.5533 60.6001 24.16 60.3734 24.76C60.1601 25.3467 59.8868 25.92 59.5534 26.48H64.5134ZM83.9331 28H82.0731V23.4H77.2731V28H75.4131V17.6H77.2731V21.84H82.0731V17.6H83.9331V28ZM86.4119 29.94C86.5585 30.0067 86.7452 30.0667 86.9719 30.12C87.2119 30.1867 87.4452 30.22 87.6719 30.22C88.4052 30.22 88.9785 30.0533 89.3919 29.72C89.8052 29.4 90.1785 28.8733 90.5119 28.14C89.6719 26.54 88.8852 24.8467 88.1519 23.06C87.4319 21.26 86.8319 19.44 86.3519 17.6H88.3519C88.4985 18.2 88.6719 18.8467 88.8719 19.54C89.0852 20.2333 89.3185 20.9467 89.5719 21.68C89.8252 22.4133 90.0985 23.1467 90.3919 23.88C90.6852 24.6133 90.9919 25.32 91.3119 26C91.8185 24.6 92.2585 23.2133 92.6319 21.84C93.0052 20.4667 93.3585 19.0533 93.6919 17.6H95.6119C95.1319 19.56 94.5985 21.4467 94.0119 23.26C93.4252 25.06 92.7919 26.7467 92.1119 28.32C91.8452 28.92 91.5652 29.4333 91.2719 29.86C90.9919 30.3 90.6785 30.66 90.3319 30.94C89.9852 31.22 89.5919 31.4267 89.1519 31.56C88.7252 31.6933 88.2385 31.76 87.6919 31.76C87.5452 31.76 87.3919 31.7467 87.2319 31.72C87.0719 31.7067 86.9119 31.68 86.7519 31.64C86.6052 31.6133 86.4652 31.58 86.3319 31.54C86.2119 31.5 86.1252 31.4667 86.0719 31.44L86.4119 29.94ZM110.893 17.6C110.627 17.9333 110.327 18.3 109.993 18.7C109.66 19.0867 109.313 19.4933 108.953 19.92C108.593 20.3333 108.227 20.7467 107.853 21.16C107.493 21.5733 107.147 21.9667 106.813 22.34C107.213 22.7267 107.627 23.1467 108.053 23.6C108.48 24.0533 108.893 24.5267 109.293 25.02C109.707 25.5 110.1 26 110.473 26.52C110.847 27.0267 111.173 27.52 111.453 28H109.373C109.093 27.56 108.767 27.1 108.393 26.62C108.033 26.1267 107.653 25.6533 107.253 25.2C106.867 24.7467 106.473 24.3267 106.073 23.94C105.687 23.54 105.327 23.2133 104.993 22.96V28H103.213V22.96C102.88 23.2133 102.513 23.54 102.113 23.94C101.727 24.3267 101.333 24.7467 100.933 25.2C100.547 25.6533 100.167 26.1267 99.7933 26.62C99.4333 27.1 99.1133 27.56 98.8333 28H96.7733C97.0533 27.52 97.3733 27.0267 97.7333 26.52C98.1066 26.0133 98.4933 25.52 98.8933 25.04C99.3066 24.5467 99.7266 24.0733 100.153 23.62C100.58 23.1667 100.993 22.7467 101.393 22.36C101.06 21.9867 100.707 21.5933 100.333 21.18C99.9733 20.7667 99.6133 20.3533 99.2533 19.94C98.8933 19.5133 98.5466 19.1067 98.2133 18.72C97.8799 18.32 97.5733 17.9467 97.2933 17.6H99.3533C99.8333 18.2 100.387 18.8667 101.013 19.6C101.64 20.3333 102.373 21.18 103.213 22.14V17.6H104.993V22.14C105.833 21.18 106.567 20.3333 107.193 19.6C107.82 18.8667 108.373 18.2 108.853 17.6H110.893ZM112.72 22.82C112.72 21.9 112.853 21.1 113.12 20.42C113.386 19.7267 113.74 19.1533 114.18 18.7C114.62 18.2467 115.126 17.9067 115.7 17.68C116.273 17.4533 116.86 17.34 117.46 17.34C118.86 17.34 119.933 17.78 120.68 18.66C121.426 19.5267 121.8 20.8533 121.8 22.64C121.8 22.72 121.8 22.8267 121.8 22.96C121.8 23.08 121.793 23.1933 121.78 23.3H114.66C114.74 24.38 115.053 25.2 115.6 25.76C116.146 26.32 117 26.6 118.16 26.6C118.813 26.6 119.36 26.5467 119.8 26.44C120.253 26.32 120.593 26.2067 120.82 26.1L121.08 27.66C120.853 27.78 120.453 27.9067 119.88 28.04C119.32 28.1733 118.68 28.24 117.96 28.24C117.053 28.24 116.266 28.1067 115.6 27.84C114.946 27.56 114.406 27.18 113.98 26.7C113.553 26.22 113.233 25.6533 113.02 25C112.82 24.3333 112.72 23.6067 112.72 22.82ZM119.86 21.8C119.873 20.96 119.66 20.2733 119.22 19.74C118.793 19.1933 118.2 18.92 117.44 18.92C117.013 18.92 116.633 19.0067 116.3 19.18C115.98 19.34 115.706 19.5533 115.48 19.82C115.253 20.0867 115.073 20.3933 114.94 20.74C114.82 21.0867 114.74 21.44 114.7 21.8H119.86ZM133.492 28H131.632V23.4H126.832V28H124.972V17.6H126.832V21.84H131.632V17.6H133.492V28ZM141.039 26.48H142.159C142.599 25.84 142.946 25.18 143.199 24.5C143.466 23.82 143.666 23.12 143.799 22.4C143.933 21.6667 144.019 20.9067 144.059 20.12C144.099 19.32 144.126 18.48 144.139 17.6H150.959V26.48H152.359V30.9H150.599V28H142.799V30.9H141.039V26.48ZM149.099 26.48V19.16H145.839C145.826 19.7867 145.793 20.42 145.739 21.06C145.686 21.6867 145.599 22.3133 145.479 22.94C145.359 23.5533 145.186 24.16 144.959 24.76C144.746 25.3467 144.473 25.92 144.139 26.48H149.099ZM158.92 19.16C158.92 19.6 158.906 20.0733 158.88 20.58C158.866 21.0733 158.833 21.5733 158.78 22.08C158.726 22.5733 158.653 23.0667 158.56 23.56C158.466 24.04 158.346 24.4933 158.2 24.92C158.053 25.3467 157.866 25.7467 157.64 26.12C157.426 26.4933 157.16 26.8267 156.84 27.12C156.52 27.4 156.146 27.64 155.72 27.84C155.293 28.0267 154.793 28.1467 154.22 28.2L153.96 26.64C154.613 26.5067 155.126 26.26 155.5 25.9C155.886 25.54 156.193 25.1 156.42 24.58C156.62 24.1267 156.766 23.6133 156.86 23.04C156.953 22.4667 157.02 21.8733 157.06 21.26C157.1 20.6333 157.12 20.0067 157.12 19.38C157.133 18.7533 157.14 18.16 157.14 17.6H164.06V28H162.2V19.16H158.92ZM172.053 23.96C171.853 23.96 171.66 23.96 171.473 23.96C171.286 23.9467 171.106 23.9333 170.933 23.92C170.506 24.56 170.093 25.2467 169.693 25.98C169.306 26.7 168.96 27.3733 168.653 28H166.773C166.933 27.6133 167.12 27.22 167.333 26.82C167.546 26.4067 167.76 26.0067 167.973 25.62C168.2 25.2333 168.426 24.8667 168.653 24.52C168.88 24.1733 169.093 23.86 169.293 23.58C168.92 23.4467 168.613 23.2867 168.373 23.1C168.133 22.9 167.94 22.68 167.793 22.44C167.646 22.2 167.54 21.9467 167.473 21.68C167.42 21.4 167.393 21.12 167.393 20.84C167.393 20.2533 167.5 19.74 167.713 19.3C167.94 18.86 168.246 18.5 168.633 18.22C169.02 17.9267 169.473 17.7067 169.993 17.56C170.526 17.4133 171.106 17.34 171.733 17.34C172.613 17.34 173.36 17.38 173.973 17.46C174.586 17.54 175.1 17.6333 175.513 17.74V28H173.673V23.96H172.053ZM173.673 18.98C173.526 18.9533 173.28 18.9267 172.933 18.9C172.6 18.8733 172.213 18.86 171.773 18.86C171.013 18.86 170.4 19.02 169.933 19.34C169.466 19.6467 169.233 20.14 169.233 20.82C169.233 21.4867 169.473 21.9467 169.953 22.2C170.433 22.4533 171.053 22.58 171.813 22.58H173.673V18.98ZM41.0895 44H39.2295V35.16H34.5895V44H32.7295V33.6H41.0895V44ZM53.972 38.8C53.972 39.6267 53.852 40.3733 53.612 41.04C53.372 41.7067 53.032 42.28 52.592 42.76C52.1654 43.24 51.652 43.6133 51.052 43.88C50.452 44.1333 49.7987 44.26 49.092 44.26C48.3854 44.26 47.732 44.1333 47.132 43.88C46.532 43.6133 46.012 43.24 45.572 42.76C45.1454 42.28 44.812 41.7067 44.572 41.04C44.332 40.3733 44.212 39.6267 44.212 38.8C44.212 37.9867 44.332 37.2467 44.572 36.58C44.812 35.9 45.1454 35.32 45.572 34.84C46.012 34.36 46.532 33.9933 47.132 33.74C47.732 33.4733 48.3854 33.34 49.092 33.34C49.7987 33.34 50.452 33.4733 51.052 33.74C51.652 33.9933 52.1654 34.36 52.592 34.84C53.032 35.32 53.372 35.9 53.612 36.58C53.852 37.2467 53.972 37.9867 53.972 38.8ZM52.032 38.8C52.032 37.6267 51.7654 36.7 51.232 36.02C50.712 35.3267 49.9987 34.98 49.092 34.98C48.1854 34.98 47.4654 35.3267 46.932 36.02C46.412 36.7 46.152 37.6267 46.152 38.8C46.152 39.9733 46.412 40.9067 46.932 41.6C47.4654 42.28 48.1854 42.62 49.092 42.62C49.9987 42.62 50.712 42.28 51.232 41.6C51.7654 40.9067 52.032 39.9733 52.032 38.8ZM55.8089 42.48H56.9289C57.3689 41.84 57.7156 41.18 57.9689 40.5C58.2356 39.82 58.4356 39.12 58.5689 38.4C58.7022 37.6667 58.7889 36.9067 58.8289 36.12C58.8689 35.32 58.8956 34.48 58.9089 33.6H65.7289V42.48H67.1289V46.9H65.3689V44H57.5689V46.9H55.8089V42.48ZM63.8689 42.48V35.16H60.6089C60.5956 35.7867 60.5622 36.42 60.5089 37.06C60.4556 37.6867 60.3689 38.3133 60.2489 38.94C60.1289 39.5533 59.9556 40.16 59.7289 40.76C59.5156 41.3467 59.2422 41.92 58.9089 42.48H63.8689ZM76.9797 33.6V35.16H73.5997V44H71.7397V35.16H68.3597V33.6H76.9797ZM81.2175 42.6C81.2975 42.6133 81.4108 42.6267 81.5575 42.64C81.7042 42.6533 81.8708 42.6667 82.0575 42.68C82.2442 42.68 82.4375 42.6867 82.6375 42.7C82.8508 42.7 83.0508 42.7 83.2375 42.7C83.6242 42.7 83.9908 42.6733 84.3375 42.62C84.6975 42.5667 85.0042 42.4733 85.2575 42.34C85.5242 42.2067 85.7308 42.0333 85.8775 41.82C86.0375 41.5933 86.1175 41.3067 86.1175 40.96C86.1175 40.6267 86.0442 40.3533 85.8975 40.14C85.7642 39.9133 85.5775 39.7333 85.3375 39.6C85.0975 39.4667 84.8108 39.3733 84.4775 39.32C84.1575 39.2667 83.8108 39.24 83.4375 39.24H81.2175V42.6ZM83.1975 37.86C83.5575 37.86 83.8842 37.84 84.1775 37.8C84.4842 37.7467 84.7442 37.66 84.9575 37.54C85.1842 37.42 85.3575 37.26 85.4775 37.06C85.6108 36.86 85.6775 36.6067 85.6775 36.3C85.6775 35.98 85.5975 35.7267 85.4375 35.54C85.2775 35.3533 85.0642 35.2133 84.7975 35.12C84.5442 35.0133 84.2508 34.9467 83.9175 34.92C83.5975 34.88 83.2708 34.86 82.9375 34.86C82.6308 34.86 82.3175 34.8667 81.9975 34.88C81.6908 34.8933 81.4308 34.9067 81.2175 34.92V37.86H83.1975ZM83.1575 44.18C82.3708 44.18 81.6442 44.14 80.9775 44.06C80.3108 43.9933 79.7842 43.9133 79.3975 43.82V33.7C79.7842 33.6067 80.3108 33.5267 80.9775 33.46C81.6442 33.38 82.3708 33.34 83.1575 33.34C83.7042 33.34 84.2375 33.3867 84.7575 33.48C85.2775 33.5733 85.7375 33.7333 86.1375 33.96C86.5375 34.1733 86.8575 34.4733 87.0975 34.86C87.3508 35.2333 87.4775 35.7 87.4775 36.26C87.4775 36.7667 87.3508 37.2 87.0975 37.56C86.8442 37.92 86.5042 38.2 86.0775 38.4C86.6508 38.6 87.1042 38.9 87.4375 39.3C87.7842 39.6867 87.9575 40.2333 87.9575 40.94C87.9575 41.5667 87.8308 42.0867 87.5775 42.5C87.3375 42.9133 86.9975 43.2467 86.5575 43.5C86.1308 43.7533 85.6242 43.9267 85.0375 44.02C84.4508 44.1267 83.8242 44.18 83.1575 44.18ZM90.2745 38.82C90.2745 37.9 90.4078 37.1 90.6745 36.42C90.9412 35.7267 91.2945 35.1533 91.7345 34.7C92.1745 34.2467 92.6812 33.9067 93.2545 33.68C93.8279 33.4533 94.4145 33.34 95.0145 33.34C96.4145 33.34 97.4879 33.78 98.2345 34.66C98.9812 35.5267 99.3545 36.8533 99.3545 38.64C99.3545 38.72 99.3545 38.8267 99.3545 38.96C99.3545 39.08 99.3478 39.1933 99.3345 39.3H92.2145C92.2945 40.38 92.6079 41.2 93.1545 41.76C93.7012 42.32 94.5545 42.6 95.7145 42.6C96.3679 42.6 96.9145 42.5467 97.3545 42.44C97.8079 42.32 98.1479 42.2067 98.3745 42.1L98.6345 43.66C98.4079 43.78 98.0079 43.9067 97.4345 44.04C96.8745 44.1733 96.2345 44.24 95.5145 44.24C94.6079 44.24 93.8212 44.1067 93.1545 43.84C92.5012 43.56 91.9612 43.18 91.5345 42.7C91.1079 42.22 90.7878 41.6533 90.5745 41C90.3745 40.3333 90.2745 39.6067 90.2745 38.82ZM97.4145 37.8C97.4279 36.96 97.2145 36.2733 96.7745 35.74C96.3479 35.1933 95.7545 34.92 94.9945 34.92C94.5679 34.92 94.1879 35.0067 93.8545 35.18C93.5345 35.34 93.2612 35.5533 93.0345 35.82C92.8079 36.0867 92.6279 36.3933 92.4945 36.74C92.3745 37.0867 92.2945 37.44 92.2545 37.8H97.4145ZM109.746 38.82C109.746 37.6067 109.446 36.6733 108.846 36.02C108.246 35.3667 107.446 35.04 106.446 35.04C105.886 35.04 105.446 35.06 105.126 35.1C104.82 35.14 104.573 35.1867 104.386 35.24V41.8C104.613 41.9867 104.94 42.1667 105.366 42.34C105.793 42.5133 106.26 42.6 106.766 42.6C107.3 42.6 107.753 42.5067 108.126 42.32C108.513 42.12 108.826 41.8533 109.066 41.52C109.306 41.1733 109.48 40.7733 109.586 40.32C109.693 39.8533 109.746 39.3533 109.746 38.82ZM111.686 38.82C111.686 39.6067 111.58 40.3333 111.366 41C111.166 41.6667 110.866 42.24 110.466 42.72C110.066 43.2 109.573 43.5733 108.986 43.84C108.413 44.1067 107.753 44.24 107.006 44.24C106.406 44.24 105.873 44.16 105.406 44C104.953 43.84 104.613 43.6867 104.386 43.54V47.7H102.526V33.92C102.966 33.8133 103.513 33.7 104.166 33.58C104.833 33.4467 105.6 33.38 106.466 33.38C107.266 33.38 107.986 33.5067 108.626 33.76C109.266 34.0133 109.813 34.3733 110.266 34.84C110.72 35.3067 111.066 35.88 111.306 36.56C111.56 37.2267 111.686 37.98 111.686 38.82ZM127.175 33.6C126.908 33.9333 126.608 34.3 126.275 34.7C125.941 35.0867 125.595 35.4933 125.235 35.92C124.875 36.3333 124.508 36.7467 124.135 37.16C123.775 37.5733 123.428 37.9667 123.095 38.34C123.495 38.7267 123.908 39.1467 124.335 39.6C124.761 40.0533 125.175 40.5267 125.575 41.02C125.988 41.5 126.381 42 126.755 42.52C127.128 43.0267 127.455 43.52 127.735 44H125.655C125.375 43.56 125.048 43.1 124.675 42.62C124.315 42.1267 123.935 41.6533 123.535 41.2C123.148 40.7467 122.755 40.3267 122.355 39.94C121.968 39.54 121.608 39.2133 121.275 38.96V44H119.495V38.96C119.161 39.2133 118.795 39.54 118.395 39.94C118.008 40.3267 117.615 40.7467 117.215 41.2C116.828 41.6533 116.448 42.1267 116.075 42.62C115.715 43.1 115.395 43.56 115.115 44H113.055C113.335 43.52 113.655 43.0267 114.015 42.52C114.388 42.0133 114.775 41.52 115.175 41.04C115.588 40.5467 116.008 40.0733 116.435 39.62C116.861 39.1667 117.275 38.7467 117.675 38.36C117.341 37.9867 116.988 37.5933 116.615 37.18C116.255 36.7667 115.895 36.3533 115.535 35.94C115.175 35.5133 114.828 35.1067 114.495 34.72C114.161 34.32 113.855 33.9467 113.575 33.6H115.635C116.115 34.2 116.668 34.8667 117.295 35.6C117.921 36.3333 118.655 37.18 119.495 38.14V33.6H121.275V38.14C122.115 37.18 122.848 36.3333 123.475 35.6C124.101 34.8667 124.655 34.2 125.135 33.6H127.175ZM129.297 42.48H130.417C130.857 41.84 131.204 41.18 131.457 40.5C131.724 39.82 131.924 39.12 132.057 38.4C132.191 37.6667 132.277 36.9067 132.317 36.12C132.357 35.32 132.384 34.48 132.397 33.6H139.217V42.48H140.617V46.9H138.857V44H131.057V46.9H129.297V42.48ZM137.357 42.48V35.16H134.097C134.084 35.7867 134.051 36.42 133.997 37.06C133.944 37.6867 133.857 38.3133 133.737 38.94C133.617 39.5533 133.444 40.16 133.217 40.76C133.004 41.3467 132.731 41.92 132.397 42.48H137.357ZM142.548 38.82C142.548 37.9 142.681 37.1 142.948 36.42C143.215 35.7267 143.568 35.1533 144.008 34.7C144.448 34.2467 144.955 33.9067 145.528 33.68C146.101 33.4533 146.688 33.34 147.288 33.34C148.688 33.34 149.761 33.78 150.508 34.66C151.255 35.5267 151.628 36.8533 151.628 38.64C151.628 38.72 151.628 38.8267 151.628 38.96C151.628 39.08 151.621 39.1933 151.608 39.3H144.488C144.568 40.38 144.881 41.2 145.428 41.76C145.975 42.32 146.828 42.6 147.988 42.6C148.641 42.6 149.188 42.5467 149.628 42.44C150.081 42.32 150.421 42.2067 150.648 42.1L150.908 43.66C150.681 43.78 150.281 43.9067 149.708 44.04C149.148 44.1733 148.508 44.24 147.788 44.24C146.881 44.24 146.095 44.1067 145.428 43.84C144.775 43.56 144.235 43.18 143.808 42.7C143.381 42.22 143.061 41.6533 142.848 41C142.648 40.3333 142.548 39.6067 142.548 38.82ZM149.688 37.8C149.701 36.96 149.488 36.2733 149.048 35.74C148.621 35.1933 148.028 34.92 147.268 34.92C146.841 34.92 146.461 35.0067 146.128 35.18C145.808 35.34 145.535 35.5533 145.308 35.82C145.081 36.0867 144.901 36.3933 144.768 36.74C144.648 37.0867 144.568 37.44 144.528 37.8H149.688ZM163.32 44H161.46V39.4H156.66V44H154.8V33.6H156.66V37.84H161.46V33.6H163.32V44ZM175.759 33.6V44H173.959V36.08C173.559 36.5867 173.119 37.18 172.639 37.86C172.159 38.54 171.679 39.2467 171.199 39.98C170.719 40.7 170.259 41.4133 169.819 42.12C169.379 42.8267 168.999 43.4533 168.679 44H167.019V33.6H168.819V41.08C169.165 40.5067 169.559 39.88 169.999 39.2C170.439 38.5067 170.892 37.8267 171.359 37.16C171.839 36.48 172.312 35.8333 172.779 35.22C173.259 34.5933 173.705 34.0533 174.119 33.6H175.759ZM183.752 39.96C183.552 39.96 183.359 39.96 183.172 39.96C182.986 39.9467 182.806 39.9333 182.632 39.92C182.206 40.56 181.792 41.2467 181.392 41.98C181.006 42.7 180.659 43.3733 180.352 44H178.472C178.632 43.6133 178.819 43.22 179.032 42.82C179.246 42.4067 179.459 42.0067 179.672 41.62C179.899 41.2333 180.126 40.8667 180.352 40.52C180.579 40.1733 180.792 39.86 180.992 39.58C180.619 39.4467 180.312 39.2867 180.072 39.1C179.832 38.9 179.639 38.68 179.492 38.44C179.346 38.2 179.239 37.9467 179.172 37.68C179.119 37.4 179.092 37.12 179.092 36.84C179.092 36.2533 179.199 35.74 179.412 35.3C179.639 34.86 179.946 34.5 180.332 34.22C180.719 33.9267 181.172 33.7067 181.692 33.56C182.226 33.4133 182.806 33.34 183.432 33.34C184.312 33.34 185.059 33.38 185.672 33.46C186.286 33.54 186.799 33.6333 187.212 33.74V44H185.372V39.96H183.752ZM185.372 34.98C185.226 34.9533 184.979 34.9267 184.632 34.9C184.299 34.8733 183.912 34.86 183.472 34.86C182.712 34.86 182.099 35.02 181.632 35.34C181.166 35.6467 180.932 36.14 180.932 36.82C180.932 37.4867 181.172 37.9467 181.652 38.2C182.132 38.4533 182.752 38.58 183.512 38.58H185.372V34.98ZM192.869 41.72C192.883 41.8267 192.889 41.9333 192.889 42.04C192.889 42.1333 192.889 42.2333 192.889 42.34C192.889 43.18 192.763 44.0067 192.509 44.82C192.269 45.6467 191.936 46.4333 191.509 47.18L190.069 46.72C190.403 46.04 190.623 45.3467 190.729 44.64C190.836 43.9467 190.889 43.2933 190.889 42.68C190.889 42.5067 190.883 42.34 190.869 42.18C190.869 42.02 190.863 41.8667 190.849 41.72H192.869ZM202.64 33.6V36.66C202.64 37.4467 202.84 38 203.24 38.32C203.64 38.6267 204.187 38.78 204.88 38.78C205.387 38.78 205.807 38.7533 206.14 38.7C206.487 38.6467 206.793 38.5867 207.06 38.52V33.6H208.92V44H207.06V39.96C206.953 39.9867 206.813 40.02 206.64 40.06C206.467 40.1 206.267 40.14 206.04 40.18C205.827 40.2067 205.6 40.2333 205.36 40.26C205.12 40.2867 204.887 40.3 204.66 40.3C204.087 40.3 203.56 40.24 203.08 40.12C202.613 40 202.207 39.8 201.86 39.52C201.527 39.24 201.26 38.8733 201.06 38.42C200.873 37.9533 200.78 37.3733 200.78 36.68V33.6H202.64ZM219.964 33.6V35.16H216.584V44H214.724V35.16H211.344V33.6H219.964ZM231.562 38.8C231.562 39.6267 231.442 40.3733 231.202 41.04C230.962 41.7067 230.622 42.28 230.182 42.76C229.755 43.24 229.242 43.6133 228.642 43.88C228.042 44.1333 227.389 44.26 226.682 44.26C225.975 44.26 225.322 44.1333 224.722 43.88C224.122 43.6133 223.602 43.24 223.162 42.76C222.735 42.28 222.402 41.7067 222.162 41.04C221.922 40.3733 221.802 39.6267 221.802 38.8C221.802 37.9867 221.922 37.2467 222.162 36.58C222.402 35.9 222.735 35.32 223.162 34.84C223.602 34.36 224.122 33.9933 224.722 33.74C225.322 33.4733 225.975 33.34 226.682 33.34C227.389 33.34 228.042 33.4733 228.642 33.74C229.242 33.9933 229.755 34.36 230.182 34.84C230.622 35.32 230.962 35.9 231.202 36.58C231.442 37.2467 231.562 37.9867 231.562 38.8ZM229.622 38.8C229.622 37.6267 229.355 36.7 228.822 36.02C228.302 35.3267 227.589 34.98 226.682 34.98C225.775 34.98 225.055 35.3267 224.522 36.02C224.002 36.7 223.742 37.6267 223.742 38.8C223.742 39.9733 224.002 40.9067 224.522 41.6C225.055 42.28 225.775 42.62 226.682 42.62C227.589 42.62 228.302 42.28 228.822 41.6C229.355 40.9067 229.622 39.9733 229.622 38.8ZM243.668 44.12C243.388 44.12 243.081 44.1133 242.748 44.1C242.428 44.0867 242.101 44.0667 241.768 44.04C241.448 44.0133 241.128 43.98 240.808 43.94C240.488 43.9 240.194 43.8467 239.928 43.78V30.34C240.194 30.2733 240.488 30.22 240.808 30.18C241.128 30.14 241.448 30.1067 241.768 30.08C242.101 30.0533 242.428 30.0333 242.748 30.02C243.068 30.0067 243.368 30 243.648 30C244.448 30 245.194 30.06 245.888 30.18C246.594 30.3 247.201 30.5067 247.708 30.8C248.228 31.08 248.634 31.4533 248.928 31.92C249.221 32.3867 249.368 32.96 249.368 33.64C249.368 34.4 249.188 35.0267 248.828 35.52C248.468 36 247.988 36.36 247.388 36.6C248.201 36.84 248.848 37.22 249.328 37.74C249.808 38.26 250.048 38.9933 250.048 39.94C250.048 41.3267 249.534 42.3733 248.508 43.08C247.494 43.7733 245.881 44.12 243.668 44.12ZM241.848 37.54V42.42C241.994 42.4333 242.168 42.4467 242.368 42.46C242.541 42.4733 242.741 42.4867 242.968 42.5C243.208 42.5 243.481 42.5 243.788 42.5C244.361 42.5 244.901 42.4667 245.408 42.4C245.928 42.32 246.381 42.1867 246.768 42C247.154 41.8133 247.461 41.5533 247.688 41.22C247.928 40.8867 248.048 40.4667 248.048 39.96C248.048 39.5067 247.961 39.1267 247.788 38.82C247.614 38.5 247.361 38.2467 247.028 38.06C246.708 37.8733 246.321 37.74 245.868 37.66C245.414 37.58 244.908 37.54 244.348 37.54H241.848ZM241.848 35.98H243.888C244.368 35.98 244.821 35.9467 245.248 35.88C245.674 35.8133 246.041 35.6933 246.348 35.52C246.668 35.3467 246.914 35.12 247.088 34.84C247.274 34.56 247.368 34.2067 247.368 33.78C247.368 33.38 247.274 33.0467 247.088 32.78C246.901 32.5 246.641 32.28 246.308 32.12C245.988 31.9467 245.608 31.82 245.168 31.74C244.728 31.66 244.261 31.62 243.768 31.62C243.274 31.62 242.888 31.6267 242.608 31.64C242.328 31.6533 242.074 31.6733 241.848 31.7V35.98ZM256.979 38.86C256.619 38.86 256.266 38.8733 255.919 38.9C255.586 38.9133 255.286 38.9533 255.019 39.02V42.6C255.099 42.6133 255.213 42.6267 255.359 42.64C255.519 42.6533 255.686 42.6667 255.859 42.68C256.046 42.68 256.233 42.6867 256.419 42.7C256.606 42.7 256.773 42.7 256.919 42.7C257.733 42.7 258.359 42.5467 258.799 42.24C259.239 41.9333 259.459 41.44 259.459 40.76C259.459 40.4267 259.386 40.14 259.239 39.9C259.106 39.66 258.919 39.4667 258.679 39.32C258.453 39.16 258.193 39.0467 257.899 38.98C257.606 38.9 257.299 38.86 256.979 38.86ZM253.159 33.6H255.019V37.58C255.246 37.5267 255.573 37.4733 255.999 37.42C256.439 37.3667 256.859 37.34 257.259 37.34C257.806 37.34 258.326 37.4067 258.819 37.54C259.313 37.66 259.746 37.86 260.119 38.14C260.493 38.4067 260.786 38.76 260.999 39.2C261.226 39.6267 261.339 40.14 261.339 40.74C261.339 41.3667 261.233 41.9 261.019 42.34C260.806 42.78 260.506 43.14 260.119 43.42C259.733 43.7 259.266 43.9 258.719 44.02C258.173 44.1533 257.573 44.22 256.919 44.22C256.293 44.22 255.659 44.18 255.019 44.1C254.379 44.0333 253.759 43.9267 253.159 43.78V33.6ZM265.119 44H263.259V33.6H265.119V44ZM35.3695 49.34C35.9695 49.34 36.5295 49.4 37.0495 49.52C37.5695 49.64 38.0162 49.82 38.3895 50.06C38.7629 50.3 39.0562 50.6 39.2695 50.96C39.4829 51.32 39.5895 51.74 39.5895 52.22C39.5895 52.5267 39.5362 52.8067 39.4295 53.06C39.3229 53.3133 39.1895 53.54 39.0295 53.74C38.8695 53.94 38.6895 54.1133 38.4895 54.26C38.3029 54.3933 38.1229 54.4867 37.9495 54.54C38.5629 54.7267 39.0429 55.06 39.3895 55.54C39.7495 56.0067 39.9295 56.6 39.9295 57.32C39.9295 58.3067 39.5295 59.04 38.7295 59.52C37.9295 60 36.8429 60.24 35.4695 60.24C34.6295 60.24 33.9029 60.1733 33.2895 60.04C32.6895 59.9067 32.2628 59.78 32.0095 59.66L32.3295 58.08C32.5429 58.16 32.9229 58.2733 33.4695 58.42C34.0295 58.5533 34.6962 58.62 35.4695 58.62C36.3095 58.62 36.9495 58.4933 37.3895 58.24C37.8295 57.9733 38.0495 57.58 38.0495 57.06C38.0495 56.6867 37.9629 56.3867 37.7895 56.16C37.6295 55.92 37.4229 55.74 37.1695 55.62C36.9162 55.5 36.6429 55.42 36.3495 55.38C36.0562 55.34 35.7829 55.32 35.5295 55.32H33.7895V53.84H35.4695C35.7095 53.84 35.9562 53.8267 36.2095 53.8C36.4762 53.76 36.7162 53.6867 36.9295 53.58C37.1562 53.4733 37.3429 53.3267 37.4895 53.14C37.6362 52.94 37.7095 52.68 37.7095 52.36C37.7095 52.1067 37.6429 51.8933 37.5095 51.72C37.3895 51.5333 37.2228 51.38 37.0095 51.26C36.7962 51.14 36.5429 51.0533 36.2495 51C35.9695 50.9333 35.6762 50.9 35.3695 50.9C35.1295 50.9 34.8695 50.92 34.5895 50.96C34.3095 51 34.0362 51.0533 33.7695 51.12C33.5028 51.1733 33.2628 51.2333 33.0495 51.3C32.8362 51.3667 32.6829 51.4267 32.5895 51.48L32.2495 49.88C32.3562 49.84 32.5228 49.7867 32.7495 49.72C32.9762 49.6533 33.2295 49.5933 33.5095 49.54C33.8028 49.4867 34.1095 49.44 34.4295 49.4C34.7495 49.36 35.0629 49.34 35.3695 49.34ZM46.5347 58.66C46.9747 58.66 47.3613 58.6533 47.6947 58.64C48.0413 58.6133 48.328 58.5733 48.5547 58.52V55.42C48.4213 55.3533 48.2013 55.3 47.8947 55.26C47.6013 55.2067 47.2413 55.18 46.8147 55.18C46.5347 55.18 46.2347 55.2 45.9147 55.24C45.608 55.28 45.3213 55.3667 45.0547 55.5C44.8013 55.62 44.588 55.7933 44.4147 56.02C44.2413 56.2333 44.1547 56.52 44.1547 56.88C44.1547 57.5467 44.368 58.0133 44.7947 58.28C45.2213 58.5333 45.8013 58.66 46.5347 58.66ZM46.3747 49.34C47.1213 49.34 47.748 49.44 48.2547 49.64C48.7747 49.8267 49.188 50.1 49.4947 50.46C49.8147 50.8067 50.0413 51.2267 50.1747 51.72C50.308 52.2 50.3747 52.7333 50.3747 53.32V59.82C50.2147 59.8467 49.988 59.8867 49.6947 59.94C49.4147 59.98 49.0947 60.02 48.7347 60.06C48.3747 60.1 47.9813 60.1333 47.5547 60.16C47.1413 60.2 46.728 60.22 46.3147 60.22C45.728 60.22 45.188 60.16 44.6947 60.04C44.2013 59.92 43.7747 59.7333 43.4147 59.48C43.0547 59.2133 42.7747 58.8667 42.5747 58.44C42.3747 58.0133 42.2747 57.5 42.2747 56.9C42.2747 56.3267 42.388 55.8333 42.6147 55.42C42.8547 55.0067 43.1747 54.6733 43.5747 54.42C43.9747 54.1667 44.4413 53.98 44.9747 53.86C45.508 53.74 46.068 53.68 46.6547 53.68C46.8413 53.68 47.0347 53.6933 47.2347 53.72C47.4347 53.7333 47.6213 53.76 47.7947 53.8C47.9813 53.8267 48.1413 53.8533 48.2747 53.88C48.408 53.9067 48.5013 53.9267 48.5547 53.94V53.42C48.5547 53.1133 48.5213 52.8133 48.4547 52.52C48.388 52.2133 48.268 51.9467 48.0947 51.72C47.9213 51.48 47.6813 51.2933 47.3747 51.16C47.0813 51.0133 46.6947 50.94 46.2147 50.94C45.6013 50.94 45.0613 50.9867 44.5947 51.08C44.1413 51.16 43.8013 51.2467 43.5747 51.34L43.3547 49.8C43.5947 49.6933 43.9947 49.5933 44.5547 49.5C45.1147 49.3933 45.7213 49.34 46.3747 49.34ZM55.7839 58.6C55.8639 58.6133 55.9772 58.6267 56.1239 58.64C56.2706 58.6533 56.4372 58.6667 56.6239 58.68C56.8106 58.68 57.0039 58.6867 57.2039 58.7C57.4172 58.7 57.6172 58.7 57.8039 58.7C58.1906 58.7 58.5572 58.6733 58.9039 58.62C59.2639 58.5667 59.5706 58.4733 59.8239 58.34C60.0906 58.2067 60.2972 58.0333 60.4439 57.82C60.6039 57.5933 60.6839 57.3067 60.6839 56.96C60.6839 56.6267 60.6106 56.3533 60.4639 56.14C60.3306 55.9133 60.1439 55.7333 59.9039 55.6C59.6639 55.4667 59.3772 55.3733 59.0439 55.32C58.7239 55.2667 58.3772 55.24 58.0039 55.24H55.7839V58.6ZM57.7639 53.86C58.1239 53.86 58.4506 53.84 58.7439 53.8C59.0506 53.7467 59.3106 53.66 59.5239 53.54C59.7506 53.42 59.9239 53.26 60.0439 53.06C60.1772 52.86 60.2439 52.6067 60.2439 52.3C60.2439 51.98 60.1639 51.7267 60.0039 51.54C59.8439 51.3533 59.6306 51.2133 59.3639 51.12C59.1106 51.0133 58.8172 50.9467 58.4839 50.92C58.1639 50.88 57.8372 50.86 57.5039 50.86C57.1972 50.86 56.8839 50.8667 56.5639 50.88C56.2572 50.8933 55.9972 50.9067 55.7839 50.92V53.86H57.7639ZM57.7239 60.18C56.9372 60.18 56.2106 60.14 55.5439 60.06C54.8772 59.9933 54.3506 59.9133 53.9639 59.82V49.7C54.3506 49.6067 54.8772 49.5267 55.5439 49.46C56.2106 49.38 56.9372 49.34 57.7239 49.34C58.2706 49.34 58.8039 49.3867 59.3239 49.48C59.8439 49.5733 60.3039 49.7333 60.7039 49.96C61.1039 50.1733 61.4239 50.4733 61.6639 50.86C61.9172 51.2333 62.0439 51.7 62.0439 52.26C62.0439 52.7667 61.9172 53.2 61.6639 53.56C61.4106 53.92 61.0706 54.2 60.6439 54.4C61.2172 54.6 61.6706 54.9 62.0039 55.3C62.3506 55.6867 62.5239 56.2333 62.5239 56.94C62.5239 57.5667 62.3972 58.0867 62.1439 58.5C61.9039 58.9133 61.5639 59.2467 61.1239 59.5C60.6972 59.7533 60.1906 59.9267 59.6039 60.02C59.0172 60.1267 58.3906 60.18 57.7239 60.18ZM64.8409 54.82C64.8409 53.9 64.9743 53.1 65.2409 52.42C65.5076 51.7267 65.8609 51.1533 66.3009 50.7C66.7409 50.2467 67.2476 49.9067 67.8209 49.68C68.3943 49.4533 68.9809 49.34 69.5809 49.34C70.9809 49.34 72.0543 49.78 72.8009 50.66C73.5476 51.5267 73.9209 52.8533 73.9209 54.64C73.9209 54.72 73.9209 54.8267 73.9209 54.96C73.9209 55.08 73.9143 55.1933 73.9009 55.3H66.7809C66.8609 56.38 67.1743 57.2 67.7209 57.76C68.2676 58.32 69.1209 58.6 70.2809 58.6C70.9343 58.6 71.4809 58.5467 71.9209 58.44C72.3743 58.32 72.7143 58.2067 72.9409 58.1L73.2009 59.66C72.9743 59.78 72.5743 59.9067 72.0009 60.04C71.4409 60.1733 70.8009 60.24 70.0809 60.24C69.1743 60.24 68.3876 60.1067 67.7209 59.84C67.0676 59.56 66.5276 59.18 66.1009 58.7C65.6743 58.22 65.3543 57.6533 65.1409 57C64.9409 56.3333 64.8409 55.6067 64.8409 54.82ZM71.9809 53.8C71.9943 52.96 71.7809 52.2733 71.3409 51.74C70.9143 51.1933 70.3209 50.92 69.5609 50.92C69.1343 50.92 68.7543 51.0067 68.4209 51.18C68.1009 51.34 67.8276 51.5533 67.6009 51.82C67.3743 52.0867 67.1943 52.3933 67.0609 52.74C66.9409 53.0867 66.8609 53.44 66.8209 53.8H71.9809ZM84.3128 54.82C84.3128 53.6067 84.0128 52.6733 83.4128 52.02C82.8128 51.3667 82.0128 51.04 81.0128 51.04C80.4528 51.04 80.0128 51.06 79.6928 51.1C79.3861 51.14 79.1395 51.1867 78.9528 51.24V57.8C79.1795 57.9867 79.5061 58.1667 79.9328 58.34C80.3595 58.5133 80.8261 58.6 81.3328 58.6C81.8661 58.6 82.3195 58.5067 82.6928 58.32C83.0795 58.12 83.3928 57.8533 83.6328 57.52C83.8728 57.1733 84.0461 56.7733 84.1528 56.32C84.2595 55.8533 84.3128 55.3533 84.3128 54.82ZM86.2528 54.82C86.2528 55.6067 86.1461 56.3333 85.9328 57C85.7328 57.6667 85.4328 58.24 85.0328 58.72C84.6328 59.2 84.1395 59.5733 83.5528 59.84C82.9795 60.1067 82.3195 60.24 81.5728 60.24C80.9728 60.24 80.4395 60.16 79.9728 60C79.5195 59.84 79.1795 59.6867 78.9528 59.54V63.7H77.0928V49.92C77.5328 49.8133 78.0795 49.7 78.7328 49.58C79.3995 49.4467 80.1661 49.38 81.0328 49.38C81.8328 49.38 82.5528 49.5067 83.1928 49.76C83.8328 50.0133 84.3795 50.3733 84.8328 50.84C85.2861 51.3067 85.6328 51.88 85.8728 52.56C86.1261 53.2267 86.2528 53.98 86.2528 54.82ZM89.3701 60V49.6H91.2301V58.46H95.0701V49.6H96.9301V58.46H100.77V49.6H102.63V60H89.3701ZM115.075 49.6V60H113.275V52.08C112.875 52.5867 112.435 53.18 111.955 53.86C111.475 54.54 110.995 55.2467 110.515 55.98C110.035 56.7 109.575 57.4133 109.135 58.12C108.695 58.8267 108.315 59.4533 107.995 60H106.335V49.6H108.135V57.08C108.482 56.5067 108.875 55.88 109.315 55.2C109.755 54.5067 110.208 53.8267 110.675 53.16C111.155 52.48 111.628 51.8333 112.095 51.22C112.575 50.5933 113.022 50.0533 113.435 49.6H115.075ZM122.389 51.16C122.389 51.6 122.375 52.0733 122.349 52.58C122.335 53.0733 122.302 53.5733 122.249 54.08C122.195 54.5733 122.122 55.0667 122.029 55.56C121.935 56.04 121.815 56.4933 121.669 56.92C121.522 57.3467 121.335 57.7467 121.109 58.12C120.895 58.4933 120.629 58.8267 120.309 59.12C119.989 59.4 119.615 59.64 119.189 59.84C118.762 60.0267 118.262 60.1467 117.689 60.2L117.429 58.64C118.082 58.5067 118.595 58.26 118.969 57.9C119.355 57.54 119.662 57.1 119.889 56.58C120.089 56.1267 120.235 55.6133 120.329 55.04C120.422 54.4667 120.489 53.8733 120.529 53.26C120.569 52.6333 120.589 52.0067 120.589 51.38C120.602 50.7533 120.609 50.16 120.609 49.6H127.529V60H125.669V51.16H122.389ZM139.962 49.6V60H138.162V52.08C137.762 52.5867 137.322 53.18 136.842 53.86C136.362 54.54 135.882 55.2467 135.402 55.98C134.922 56.7 134.462 57.4133 134.022 58.12C133.582 58.8267 133.202 59.4533 132.882 60H131.222V49.6H133.022V57.08C133.368 56.5067 133.762 55.88 134.202 55.2C134.642 54.5067 135.095 53.8267 135.562 53.16C136.042 52.48 136.515 51.8333 136.982 51.22C137.462 50.5933 137.908 50.0533 138.322 49.6H139.962ZM157.964 54.8C157.964 55.6267 157.844 56.3733 157.604 57.04C157.364 57.7067 157.024 58.28 156.584 58.76C156.158 59.24 155.644 59.6133 155.044 59.88C154.444 60.1333 153.791 60.26 153.084 60.26C152.378 60.26 151.724 60.1333 151.124 59.88C150.524 59.6133 150.004 59.24 149.564 58.76C149.138 58.28 148.804 57.7067 148.564 57.04C148.324 56.3733 148.204 55.6267 148.204 54.8C148.204 53.9867 148.324 53.2467 148.564 52.58C148.804 51.9 149.138 51.32 149.564 50.84C150.004 50.36 150.524 49.9933 151.124 49.74C151.724 49.4733 152.378 49.34 153.084 49.34C153.791 49.34 154.444 49.4733 155.044 49.74C155.644 49.9933 156.158 50.36 156.584 50.84C157.024 51.32 157.364 51.9 157.604 52.58C157.844 53.2467 157.964 53.9867 157.964 54.8ZM156.024 54.8C156.024 53.6267 155.758 52.7 155.224 52.02C154.704 51.3267 153.991 50.98 153.084 50.98C152.178 50.98 151.458 51.3267 150.924 52.02C150.404 52.7 150.144 53.6267 150.144 54.8C150.144 55.9733 150.404 56.9067 150.924 57.6C151.458 58.28 152.178 58.62 153.084 58.62C153.991 58.62 154.704 58.28 155.224 57.6C155.758 56.9067 156.024 55.9733 156.024 54.8ZM162.761 50.8C163.174 50.4667 163.654 50.2133 164.201 50.04C164.761 49.8533 165.294 49.76 165.801 49.76C167.294 49.76 168.421 50.22 169.181 51.14C169.954 52.0467 170.341 53.3133 170.341 54.94C170.341 55.6333 170.248 56.3 170.061 56.94C169.874 57.58 169.581 58.1467 169.181 58.64C168.794 59.1333 168.301 59.5267 167.701 59.82C167.101 60.1133 166.388 60.26 165.561 60.26C164.614 60.26 163.828 60.0867 163.201 59.74C162.574 59.3933 162.074 58.92 161.701 58.32C161.341 57.72 161.088 57.02 160.941 56.22C160.794 55.42 160.721 54.5733 160.721 53.68C160.721 52.52 160.801 51.44 160.961 50.44C161.134 49.44 161.441 48.56 161.881 47.8C162.321 47.04 162.928 46.4133 163.701 45.92C164.488 45.4133 165.494 45.0733 166.721 44.9C167.081 44.8467 167.394 44.8067 167.661 44.78C167.941 44.74 168.181 44.7067 168.381 44.68C168.594 44.6533 168.788 44.6267 168.961 44.6C169.134 44.56 169.314 44.52 169.501 44.48L169.701 46.16C169.608 46.1867 169.508 46.2067 169.401 46.22C169.308 46.2333 169.168 46.2533 168.981 46.28C168.808 46.3067 168.568 46.34 168.261 46.38C167.968 46.42 167.581 46.4667 167.101 46.52C165.781 46.6667 164.768 47.0667 164.061 47.72C163.354 48.3733 162.921 49.4 162.761 50.8ZM162.641 53.98C162.641 54.6067 162.681 55.2 162.761 55.76C162.854 56.32 163.008 56.8133 163.221 57.24C163.448 57.6667 163.748 58.0067 164.121 58.26C164.494 58.5 164.974 58.62 165.561 58.62C166.068 58.62 166.501 58.5267 166.861 58.34C167.221 58.14 167.514 57.8733 167.741 57.54C167.968 57.2067 168.134 56.82 168.241 56.38C168.348 55.9267 168.401 55.4467 168.401 54.94C168.401 54.4867 168.354 54.0467 168.261 53.62C168.181 53.1933 168.028 52.8133 167.801 52.48C167.574 52.1467 167.268 51.88 166.881 51.68C166.508 51.48 166.034 51.38 165.461 51.38C164.901 51.38 164.361 51.5 163.841 51.74C163.334 51.98 162.941 52.2733 162.661 52.62C162.648 52.7667 162.641 52.9733 162.641 53.24C162.641 53.5067 162.641 53.7533 162.641 53.98ZM172.256 61.94C172.402 62.0067 172.589 62.0667 172.816 62.12C173.056 62.1867 173.289 62.22 173.516 62.22C174.249 62.22 174.822 62.0533 175.236 61.72C175.649 61.4 176.022 60.8733 176.356 60.14C175.516 58.54 174.729 56.8467 173.996 55.06C173.276 53.26 172.676 51.44 172.196 49.6H174.196C174.342 50.2 174.516 50.8467 174.716 51.54C174.929 52.2333 175.162 52.9467 175.416 53.68C175.669 54.4133 175.942 55.1467 176.236 55.88C176.529 56.6133 176.836 57.32 177.156 58C177.662 56.6 178.102 55.2133 178.476 53.84C178.849 52.4667 179.202 51.0533 179.536 49.6H181.456C180.976 51.56 180.442 53.4467 179.856 55.26C179.269 57.06 178.636 58.7467 177.956 60.32C177.689 60.92 177.409 61.4333 177.116 61.86C176.836 62.3 176.522 62.66 176.176 62.94C175.829 63.22 175.436 63.4267 174.996 63.56C174.569 63.6933 174.082 63.76 173.536 63.76C173.389 63.76 173.236 63.7467 173.076 63.72C172.916 63.7067 172.756 63.68 172.596 63.64C172.449 63.6133 172.309 63.58 172.176 63.54C172.056 63.5 171.969 63.4667 171.916 63.44L172.256 61.94ZM185.097 49.6V52.66C185.097 53.4467 185.297 54 185.697 54.32C186.097 54.6267 186.644 54.78 187.337 54.78C187.844 54.78 188.264 54.7533 188.597 54.7C188.944 54.6467 189.25 54.5867 189.517 54.52V49.6H191.377V60H189.517V55.96C189.41 55.9867 189.27 56.02 189.097 56.06C188.924 56.1 188.724 56.14 188.497 56.18C188.284 56.2067 188.057 56.2333 187.817 56.26C187.577 56.2867 187.344 56.3 187.117 56.3C186.544 56.3 186.017 56.24 185.537 56.12C185.07 56 184.664 55.8 184.317 55.52C183.984 55.24 183.717 54.8733 183.517 54.42C183.33 53.9533 183.237 53.3733 183.237 52.68V49.6H185.097ZM194.501 54.82C194.501 53.9 194.634 53.1 194.901 52.42C195.168 51.7267 195.521 51.1533 195.961 50.7C196.401 50.2467 196.908 49.9067 197.481 49.68C198.054 49.4533 198.641 49.34 199.241 49.34C200.641 49.34 201.714 49.78 202.461 50.66C203.208 51.5267 203.581 52.8533 203.581 54.64C203.581 54.72 203.581 54.8267 203.581 54.96C203.581 55.08 203.574 55.1933 203.561 55.3H196.441C196.521 56.38 196.834 57.2 197.381 57.76C197.928 58.32 198.781 58.6 199.941 58.6C200.594 58.6 201.141 58.5467 201.581 58.44C202.034 58.32 202.374 58.2067 202.601 58.1L202.861 59.66C202.634 59.78 202.234 59.9067 201.661 60.04C201.101 60.1733 200.461 60.24 199.741 60.24C198.834 60.24 198.048 60.1067 197.381 59.84C196.728 59.56 196.188 59.18 195.761 58.7C195.334 58.22 195.014 57.6533 194.801 57C194.601 56.3333 194.501 55.6067 194.501 54.82ZM201.641 53.8C201.654 52.96 201.441 52.2733 201.001 51.74C200.574 51.1933 199.981 50.92 199.221 50.92C198.794 50.92 198.414 51.0067 198.081 51.18C197.761 51.34 197.488 51.5533 197.261 51.82C197.034 52.0867 196.854 52.3933 196.721 52.74C196.601 53.0867 196.521 53.44 196.481 53.8H201.641ZM215.273 60H213.413V55.4H208.613V60H206.753V49.6H208.613V53.84H213.413V49.6H215.273V60ZM227.712 49.6V60H225.912V52.08C225.512 52.5867 225.072 53.18 224.592 53.86C224.112 54.54 223.632 55.2467 223.152 55.98C222.672 56.7 222.212 57.4133 221.772 58.12C221.332 58.8267 220.952 59.4533 220.632 60H218.972V49.6H220.772V57.08C221.118 56.5067 221.512 55.88 221.952 55.2C222.392 54.5067 222.845 53.8267 223.312 53.16C223.792 52.48 224.265 51.8333 224.732 51.22C225.212 50.5933 225.658 50.0533 226.072 49.6H227.712ZM230.825 54.82C230.825 53.9 230.959 53.1 231.225 52.42C231.492 51.7267 231.845 51.1533 232.285 50.7C232.725 50.2467 233.232 49.9067 233.805 49.68C234.379 49.4533 234.965 49.34 235.565 49.34C236.965 49.34 238.039 49.78 238.785 50.66C239.532 51.5267 239.905 52.8533 239.905 54.64C239.905 54.72 239.905 54.8267 239.905 54.96C239.905 55.08 239.899 55.1933 239.885 55.3H232.765C232.845 56.38 233.159 57.2 233.705 57.76C234.252 58.32 235.105 58.6 236.265 58.6C236.919 58.6 237.465 58.5467 237.905 58.44C238.359 58.32 238.699 58.2067 238.925 58.1L239.185 59.66C238.959 59.78 238.559 59.9067 237.985 60.04C237.425 60.1733 236.785 60.24 236.065 60.24C235.159 60.24 234.372 60.1067 233.705 59.84C233.052 59.56 232.512 59.18 232.085 58.7C231.659 58.22 231.339 57.6533 231.125 57C230.925 56.3333 230.825 55.6067 230.825 54.82ZM237.965 53.8C237.979 52.96 237.765 52.2733 237.325 51.74C236.899 51.1933 236.305 50.92 235.545 50.92C235.119 50.92 234.739 51.0067 234.405 51.18C234.085 51.34 233.812 51.5533 233.585 51.82C233.359 52.0867 233.179 52.3933 233.045 52.74C232.925 53.0867 232.845 53.44 232.805 53.8H237.965ZM250.026 58.6C250.106 58.6133 250.219 58.6267 250.366 58.64C250.513 58.6533 250.679 58.6667 250.866 58.68C251.053 58.68 251.246 58.6867 251.446 58.7C251.659 58.7 251.859 58.7 252.046 58.7C252.433 58.7 252.799 58.6733 253.146 58.62C253.506 58.5667 253.813 58.4733 254.066 58.34C254.333 58.2067 254.539 58.0333 254.686 57.82C254.846 57.5933 254.926 57.3067 254.926 56.96C254.926 56.6267 254.853 56.3533 254.706 56.14C254.573 55.9133 254.386 55.7333 254.146 55.6C253.906 55.4667 253.619 55.3733 253.286 55.32C252.966 55.2667 252.619 55.24 252.246 55.24H250.026V58.6ZM252.006 53.86C252.366 53.86 252.693 53.84 252.986 53.8C253.293 53.7467 253.553 53.66 253.766 53.54C253.993 53.42 254.166 53.26 254.286 53.06C254.419 52.86 254.486 52.6067 254.486 52.3C254.486 51.98 254.406 51.7267 254.246 51.54C254.086 51.3533 253.873 51.2133 253.606 51.12C253.353 51.0133 253.059 50.9467 252.726 50.92C252.406 50.88 252.079 50.86 251.746 50.86C251.439 50.86 251.126 50.8667 250.806 50.88C250.499 50.8933 250.239 50.9067 250.026 50.92V53.86H252.006ZM251.966 60.18C251.179 60.18 250.453 60.14 249.786 60.06C249.119 59.9933 248.593 59.9133 248.206 59.82V49.7C248.593 49.6067 249.119 49.5267 249.786 49.46C250.453 49.38 251.179 49.34 251.966 49.34C252.513 49.34 253.046 49.3867 253.566 49.48C254.086 49.5733 254.546 49.7333 254.946 49.96C255.346 50.1733 255.666 50.4733 255.906 50.86C256.159 51.2333 256.286 51.7 256.286 52.26C256.286 52.7667 256.159 53.2 255.906 53.56C255.653 53.92 255.313 54.2 254.886 54.4C255.459 54.6 255.913 54.9 256.246 55.3C256.593 55.6867 256.766 56.2333 256.766 56.94C256.766 57.5667 256.639 58.0867 256.386 58.5C256.146 58.9133 255.806 59.2467 255.366 59.5C254.939 59.7533 254.433 59.9267 253.846 60.02C253.259 60.1267 252.633 60.18 251.966 60.18ZM43.1095 62.14C42.6962 62.5933 42.2295 63.1 41.7095 63.66C41.1895 64.2067 40.6429 64.7733 40.0695 65.36C39.5095 65.9333 38.9495 66.5 38.3895 67.06C37.8295 67.62 37.3029 68.14 36.8095 68.62C37.3829 69.02 37.9895 69.5133 38.6295 70.1C39.2695 70.6867 39.8962 71.3133 40.5095 71.98C41.1229 72.6467 41.6962 73.3267 42.2295 74.02C42.7762 74.7133 43.2295 75.3733 43.5895 76H41.3095C40.9095 75.3733 40.4495 74.7467 39.9295 74.12C39.4095 73.48 38.8562 72.8733 38.2695 72.3C37.6962 71.7133 37.1095 71.1733 36.5095 70.68C35.9229 70.1867 35.3495 69.7667 34.7895 69.42V76H32.8495V62.14H34.7895V68.26C35.2562 67.82 35.7695 67.3267 36.3295 66.78C36.8895 66.22 37.4429 65.66 37.9895 65.1C38.5362 64.54 39.0495 64.0067 39.5295 63.5C40.0229 62.98 40.4362 62.5267 40.7695 62.14H43.1095ZM47.6276 74.6C47.7076 74.6133 47.821 74.6267 47.9676 74.64C48.1143 74.6533 48.281 74.6667 48.4676 74.68C48.6543 74.68 48.8476 74.6867 49.0476 74.7C49.261 74.7 49.461 74.7 49.6476 74.7C50.0343 74.7 50.401 74.6733 50.7476 74.62C51.1076 74.5667 51.4143 74.4733 51.6676 74.34C51.9343 74.2067 52.141 74.0333 52.2876 73.82C52.4476 73.5933 52.5276 73.3067 52.5276 72.96C52.5276 72.6267 52.4543 72.3533 52.3076 72.14C52.1743 71.9133 51.9876 71.7333 51.7476 71.6C51.5076 71.4667 51.221 71.3733 50.8876 71.32C50.5676 71.2667 50.221 71.24 49.8476 71.24H47.6276V74.6ZM49.6076 69.86C49.9676 69.86 50.2943 69.84 50.5876 69.8C50.8943 69.7467 51.1543 69.66 51.3676 69.54C51.5943 69.42 51.7676 69.26 51.8876 69.06C52.021 68.86 52.0876 68.6067 52.0876 68.3C52.0876 67.98 52.0076 67.7267 51.8476 67.54C51.6876 67.3533 51.4743 67.2133 51.2076 67.12C50.9543 67.0133 50.661 66.9467 50.3276 66.92C50.0076 66.88 49.681 66.86 49.3476 66.86C49.041 66.86 48.7276 66.8667 48.4076 66.88C48.101 66.8933 47.841 66.9067 47.6276 66.92V69.86H49.6076ZM49.5676 76.18C48.781 76.18 48.0543 76.14 47.3876 76.06C46.721 75.9933 46.1943 75.9133 45.8076 75.82V65.7C46.1943 65.6067 46.721 65.5267 47.3876 65.46C48.0543 65.38 48.781 65.34 49.5676 65.34C50.1143 65.34 50.6476 65.3867 51.1676 65.48C51.6876 65.5733 52.1476 65.7333 52.5476 65.96C52.9476 66.1733 53.2676 66.4733 53.5076 66.86C53.761 67.2333 53.8876 67.7 53.8876 68.26C53.8876 68.7667 53.761 69.2 53.5076 69.56C53.2543 69.92 52.9143 70.2 52.4876 70.4C53.061 70.6 53.5143 70.9 53.8476 71.3C54.1943 71.6867 54.3676 72.2333 54.3676 72.94C54.3676 73.5667 54.241 74.0867 53.9876 74.5C53.7476 74.9133 53.4076 75.2467 52.9676 75.5C52.541 75.7533 52.0343 75.9267 51.4476 76.02C50.861 76.1267 50.2343 76.18 49.5676 76.18ZM60.7847 74.66C61.2247 74.66 61.6113 74.6533 61.9447 74.64C62.2913 74.6133 62.578 74.5733 62.8047 74.52V71.42C62.6713 71.3533 62.4513 71.3 62.1447 71.26C61.8513 71.2067 61.4913 71.18 61.0647 71.18C60.7847 71.18 60.4847 71.2 60.1647 71.24C59.858 71.28 59.5713 71.3667 59.3047 71.5C59.0513 71.62 58.838 71.7933 58.6647 72.02C58.4913 72.2333 58.4047 72.52 58.4047 72.88C58.4047 73.5467 58.618 74.0133 59.0447 74.28C59.4713 74.5333 60.0513 74.66 60.7847 74.66ZM60.6247 65.34C61.3713 65.34 61.998 65.44 62.5047 65.64C63.0247 65.8267 63.438 66.1 63.7447 66.46C64.0647 66.8067 64.2913 67.2267 64.4247 67.72C64.558 68.2 64.6247 68.7333 64.6247 69.32V75.82C64.4647 75.8467 64.238 75.8867 63.9447 75.94C63.6647 75.98 63.3447 76.02 62.9847 76.06C62.6247 76.1 62.2313 76.1333 61.8047 76.16C61.3913 76.2 60.978 76.22 60.5647 76.22C59.978 76.22 59.438 76.16 58.9447 76.04C58.4513 75.92 58.0247 75.7333 57.6647 75.48C57.3047 75.2133 57.0247 74.8667 56.8247 74.44C56.6247 74.0133 56.5247 73.5 56.5247 72.9C56.5247 72.3267 56.638 71.8333 56.8647 71.42C57.1047 71.0067 57.4247 70.6733 57.8247 70.42C58.2247 70.1667 58.6913 69.98 59.2247 69.86C59.758 69.74 60.318 69.68 60.9047 69.68C61.0913 69.68 61.2847 69.6933 61.4847 69.72C61.6847 69.7333 61.8713 69.76 62.0447 69.8C62.2313 69.8267 62.3913 69.8533 62.5247 69.88C62.658 69.9067 62.7513 69.9267 62.8047 69.94V69.42C62.8047 69.1133 62.7713 68.8133 62.7047 68.52C62.638 68.2133 62.518 67.9467 62.3447 67.72C62.1713 67.48 61.9313 67.2933 61.6247 67.16C61.3313 67.0133 60.9447 66.94 60.4647 66.94C59.8513 66.94 59.3113 66.9867 58.8447 67.08C58.3913 67.16 58.0513 67.2467 57.8247 67.34L57.6047 65.8C57.8447 65.6933 58.2447 65.5933 58.8047 65.5C59.3647 65.3933 59.9713 65.34 60.6247 65.34ZM76.7339 76H74.8739V71.4H70.0739V76H68.2139V65.6H70.0739V69.84H74.8739V65.6H76.7339V76ZM87.7726 65.6V67.16H84.3926V76H82.5326V67.16H79.1526V65.6H87.7726ZM99.3705 70.8C99.3705 71.6267 99.2505 72.3733 99.0105 73.04C98.7705 73.7067 98.4305 74.28 97.9905 74.76C97.5638 75.24 97.0505 75.6133 96.4505 75.88C95.8505 76.1333 95.1971 76.26 94.4905 76.26C93.7838 76.26 93.1305 76.1333 92.5305 75.88C91.9305 75.6133 91.4105 75.24 90.9705 74.76C90.5438 74.28 90.2105 73.7067 89.9705 73.04C89.7305 72.3733 89.6105 71.6267 89.6105 70.8C89.6105 69.9867 89.7305 69.2467 89.9705 68.58C90.2105 67.9 90.5438 67.32 90.9705 66.84C91.4105 66.36 91.9305 65.9933 92.5305 65.74C93.1305 65.4733 93.7838 65.34 94.4905 65.34C95.1971 65.34 95.8505 65.4733 96.4505 65.74C97.0505 65.9933 97.5638 66.36 97.9905 66.84C98.4305 67.32 98.7705 67.9 99.0105 68.58C99.2505 69.2467 99.3705 69.9867 99.3705 70.8ZM97.4305 70.8C97.4305 69.6267 97.1638 68.7 96.6305 68.02C96.1105 67.3267 95.3971 66.98 94.4905 66.98C93.5838 66.98 92.8638 67.3267 92.3305 68.02C91.8105 68.7 91.5505 69.6267 91.5505 70.8C91.5505 71.9733 91.8105 72.9067 92.3305 73.6C92.8638 74.28 93.5838 74.62 94.4905 74.62C95.3971 74.62 96.1105 74.28 96.6305 73.6C97.1638 72.9067 97.4305 71.9733 97.4305 70.8ZM109.707 70.82C109.707 69.6067 109.407 68.6733 108.807 68.02C108.207 67.3667 107.407 67.04 106.407 67.04C105.847 67.04 105.407 67.06 105.087 67.1C104.781 67.14 104.534 67.1867 104.347 67.24V73.8C104.574 73.9867 104.901 74.1667 105.327 74.34C105.754 74.5133 106.221 74.6 106.727 74.6C107.261 74.6 107.714 74.5067 108.087 74.32C108.474 74.12 108.787 73.8533 109.027 73.52C109.267 73.1733 109.441 72.7733 109.547 72.32C109.654 71.8533 109.707 71.3533 109.707 70.82ZM111.647 70.82C111.647 71.6067 111.541 72.3333 111.327 73C111.127 73.6667 110.827 74.24 110.427 74.72C110.027 75.2 109.534 75.5733 108.947 75.84C108.374 76.1067 107.714 76.24 106.967 76.24C106.367 76.24 105.834 76.16 105.367 76C104.914 75.84 104.574 75.6867 104.347 75.54V79.7H102.487V65.92C102.927 65.8133 103.474 65.7 104.127 65.58C104.794 65.4467 105.561 65.38 106.427 65.38C107.227 65.38 107.947 65.5067 108.587 65.76C109.227 66.0133 109.774 66.3733 110.227 66.84C110.681 67.3067 111.027 67.88 111.267 68.56C111.521 69.2267 111.647 69.98 111.647 70.82ZM123.505 65.6V76H121.705V68.08C121.305 68.5867 120.865 69.18 120.385 69.86C119.905 70.54 119.425 71.2467 118.945 71.98C118.465 72.7 118.005 73.4133 117.565 74.12C117.125 74.8267 116.745 75.4533 116.425 76H114.765V65.6H116.565V73.08C116.911 72.5067 117.305 71.88 117.745 71.2C118.185 70.5067 118.638 69.8267 119.105 69.16C119.585 68.48 120.058 67.8333 120.525 67.22C121.005 66.5933 121.451 66.0533 121.865 65.6H123.505ZM125.978 77.94C126.125 78.0067 126.312 78.0667 126.538 78.12C126.778 78.1867 127.012 78.22 127.238 78.22C127.972 78.22 128.545 78.0533 128.958 77.72C129.372 77.4 129.745 76.8733 130.078 76.14C129.238 74.54 128.452 72.8467 127.718 71.06C126.998 69.26 126.398 67.44 125.918 65.6H127.918C128.065 66.2 128.238 66.8467 128.438 67.54C128.652 68.2333 128.885 68.9467 129.138 69.68C129.392 70.4133 129.665 71.1467 129.958 71.88C130.252 72.6133 130.558 73.32 130.878 74C131.385 72.6 131.825 71.2133 132.198 69.84C132.572 68.4667 132.925 67.0533 133.258 65.6H135.178C134.698 67.56 134.165 69.4467 133.578 71.26C132.992 73.06 132.358 74.7467 131.678 76.32C131.412 76.92 131.132 77.4333 130.838 77.86C130.558 78.3 130.245 78.66 129.898 78.94C129.552 79.22 129.158 79.4267 128.718 79.56C128.292 79.6933 127.805 79.76 127.258 79.76C127.112 79.76 126.958 79.7467 126.798 79.72C126.638 79.7067 126.478 79.68 126.318 79.64C126.172 79.6133 126.032 79.58 125.898 79.54C125.778 79.5 125.692 79.4667 125.638 79.44L125.978 77.94ZM139.62 68.34C139.486 69.66 139.386 70.98 139.32 72.3C139.253 73.6067 139.2 74.84 139.16 76H137.38C137.406 75.1867 137.446 74.34 137.5 73.46C137.553 72.5667 137.613 71.6733 137.68 70.78C137.746 69.8733 137.82 68.9867 137.9 68.12C137.98 67.24 138.066 66.4 138.16 65.6H139.86C140.286 66.2933 140.786 67.2467 141.36 68.46C141.933 69.66 142.593 71.0467 143.34 72.62C144.086 71.0467 144.746 69.66 145.32 68.46C145.893 67.2467 146.393 66.2933 146.82 65.6H148.54C148.633 66.4 148.72 67.24 148.8 68.12C148.88 68.9867 148.953 69.8733 149.02 70.78C149.086 71.6733 149.146 72.5667 149.2 73.46C149.253 74.34 149.293 75.1867 149.32 76H147.48C147.44 74.84 147.386 73.6067 147.32 72.3C147.253 70.98 147.153 69.66 147.02 68.34C146.806 68.7533 146.56 69.2533 146.28 69.84C146 70.4133 145.72 71 145.44 71.6C145.173 72.2 144.92 72.7733 144.68 73.32C144.44 73.8667 144.253 74.3 144.12 74.62H142.56C142.413 74.2867 142.213 73.8467 141.96 73.3C141.72 72.7533 141.46 72.18 141.18 71.58C140.913 70.9667 140.64 70.3733 140.36 69.8C140.08 69.2133 139.833 68.7267 139.62 68.34ZM152.189 70.82C152.189 69.9 152.322 69.1 152.589 68.42C152.855 67.7267 153.209 67.1533 153.649 66.7C154.089 66.2467 154.595 65.9067 155.169 65.68C155.742 65.4533 156.329 65.34 156.929 65.34C158.329 65.34 159.402 65.78 160.149 66.66C160.895 67.5267 161.269 68.8533 161.269 70.64C161.269 70.72 161.269 70.8267 161.269 70.96C161.269 71.08 161.262 71.1933 161.249 71.3H154.129C154.209 72.38 154.522 73.2 155.069 73.76C155.615 74.32 156.469 74.6 157.629 74.6C158.282 74.6 158.829 74.5467 159.269 74.44C159.722 74.32 160.062 74.2067 160.289 74.1L160.549 75.66C160.322 75.78 159.922 75.9067 159.349 76.04C158.789 76.1733 158.149 76.24 157.429 76.24C156.522 76.24 155.735 76.1067 155.069 75.84C154.415 75.56 153.875 75.18 153.449 74.7C153.022 74.22 152.702 73.6533 152.489 73C152.289 72.3333 152.189 71.6067 152.189 70.82ZM159.329 69.8C159.342 68.96 159.129 68.2733 158.689 67.74C158.262 67.1933 157.669 66.92 156.909 66.92C156.482 66.92 156.102 67.0067 155.769 67.18C155.449 67.34 155.175 67.5533 154.949 67.82C154.722 68.0867 154.542 68.3933 154.409 68.74C154.289 69.0867 154.209 69.44 154.169 69.8H159.329Z"
            fill="#0231A1"/>
    <path
            d="M2.18315 51.7035C1.45963 51.2532 1.09787 51.0281 0.973951 50.7396C0.865736 50.4877 0.865736 50.2023 0.973951 49.9504C1.09787 49.6618 1.45963 49.4367 2.18315 48.9865L23.8221 35.5216C24.6204 35.0249 25.0196 34.7765 25.3489 34.8034C25.6359 34.8269 25.8989 34.973 26.0705 35.2043C26.2674 35.4697 26.2674 35.9398 26.2674 36.8801V63.8099C26.2674 64.7502 26.2674 65.2203 26.0705 65.4857C25.8989 65.717 25.6359 65.8631 25.3489 65.8866C25.0196 65.9135 24.6204 65.6651 23.8221 65.1683L2.18315 51.7035Z"
            fill="#CCD3E4"/>
</svg>
