<svg width="283" height="146" viewBox="0 0 283 146" fill="none" xmlns="http://www.w3.org/2000/svg">
    <path
            d="M2.4 125.386C1.61241 124.931 1.21861 124.704 1.08645 124.407C0.971182 124.148 0.971182 123.852 1.08645 123.593C1.21861 123.296 1.61241 123.069 2.4 122.614L26.1 108.931C26.8876 108.476 27.2814 108.249 27.6045 108.283C27.8864 108.313 28.1424 108.461 28.309 108.69C28.5 108.953 28.5 109.407 28.5 110.317L28.5 137.683C28.5 138.593 28.5 139.047 28.309 139.31C28.1424 139.539 27.8864 139.687 27.6045 139.717C27.2814 139.751 26.8876 139.524 26.1 139.069L2.4 125.386Z"
            fill="#CCD3E4"/>
    <path
            d="M2.4 27.3856C1.61241 26.9309 1.21861 26.7036 1.08645 26.4067C0.971182 26.1478 0.971182 25.8522 1.08645 25.5933C1.21861 25.2964 1.61241 25.0691 2.4 24.6144L26.1 10.9312C26.8876 10.4764 27.2814 10.2491 27.6045 10.283C27.8864 10.3127 28.1424 10.4605 28.309 10.6898C28.5 10.9526 28.5 11.4074 28.5 12.3168L28.5 39.6832C28.5 40.5926 28.5 41.0474 28.309 41.3102C28.1424 41.5395 27.8864 41.6873 27.6045 41.717C27.2814 41.7509 26.8876 41.5236 26.1 41.0688L2.4 27.3856Z"
            fill="#CCD3E4"/>
    <rect x="24" width="259" height="146" rx="10" fill="#CCD3E4"/>
    <path
            d="M50.72 61V47.14H59.18V48.8H52.66V52.92H58.46V54.54H52.66V59.34H59.68V61H50.72ZM62.5258 50.9C62.9524 50.7933 63.5124 50.68 64.2058 50.56C64.9124 50.44 65.7258 50.38 66.6458 50.38C67.3124 50.38 67.8724 50.4733 68.3258 50.66C68.7791 50.8333 69.1591 51.0933 69.4658 51.44C69.5591 51.3733 69.7058 51.28 69.9058 51.16C70.1058 51.04 70.3524 50.9267 70.6458 50.82C70.9391 50.7 71.2658 50.6 71.6258 50.52C71.9858 50.4267 72.3724 50.38 72.7858 50.38C73.5858 50.38 74.2391 50.5 74.7458 50.74C75.2524 50.9667 75.6458 51.2933 75.9258 51.72C76.2191 52.1467 76.4124 52.6533 76.5058 53.24C76.6124 53.8267 76.6658 54.4667 76.6658 55.16V61H74.8058V55.56C74.8058 54.9467 74.7724 54.42 74.7058 53.98C74.6524 53.54 74.5391 53.1733 74.3658 52.88C74.2058 52.5867 73.9791 52.3733 73.6858 52.24C73.4058 52.0933 73.0391 52.02 72.5858 52.02C71.9591 52.02 71.4391 52.1067 71.0258 52.28C70.6258 52.44 70.3524 52.5867 70.2058 52.72C70.3124 53.0667 70.3924 53.4467 70.4458 53.86C70.4991 54.2733 70.5258 54.7067 70.5258 55.16V61H68.6658V55.56C68.6658 54.9467 68.6324 54.42 68.5658 53.98C68.4991 53.54 68.3791 53.1733 68.2058 52.88C68.0458 52.5867 67.8191 52.3733 67.5258 52.24C67.2458 52.0933 66.8858 52.02 66.4458 52.02C66.2591 52.02 66.0591 52.0267 65.8458 52.04C65.6324 52.0533 65.4258 52.0733 65.2258 52.1C65.0391 52.1133 64.8658 52.1333 64.7058 52.16C64.5458 52.1867 64.4391 52.2067 64.3858 52.22V61H62.5258V50.9ZM83.7723 59.66C84.2123 59.66 84.599 59.6533 84.9323 59.64C85.279 59.6133 85.5657 59.5733 85.7923 59.52V56.42C85.659 56.3533 85.439 56.3 85.1323 56.26C84.839 56.2067 84.479 56.18 84.0523 56.18C83.7723 56.18 83.4723 56.2 83.1523 56.24C82.8457 56.28 82.559 56.3667 82.2923 56.5C82.039 56.62 81.8257 56.7933 81.6523 57.02C81.479 57.2333 81.3923 57.52 81.3923 57.88C81.3923 58.5467 81.6057 59.0133 82.0323 59.28C82.459 59.5333 83.039 59.66 83.7723 59.66ZM83.6123 50.34C84.359 50.34 84.9857 50.44 85.4923 50.64C86.0123 50.8267 86.4257 51.1 86.7323 51.46C87.0523 51.8067 87.279 52.2267 87.4123 52.72C87.5457 53.2 87.6123 53.7333 87.6123 54.32V60.82C87.4523 60.8467 87.2257 60.8867 86.9323 60.94C86.6523 60.98 86.3323 61.02 85.9723 61.06C85.6123 61.1 85.219 61.1333 84.7923 61.16C84.379 61.2 83.9657 61.22 83.5523 61.22C82.9657 61.22 82.4257 61.16 81.9323 61.04C81.439 60.92 81.0123 60.7333 80.6523 60.48C80.2923 60.2133 80.0123 59.8667 79.8123 59.44C79.6123 59.0133 79.5123 58.5 79.5123 57.9C79.5123 57.3267 79.6257 56.8333 79.8523 56.42C80.0923 56.0067 80.4123 55.6733 80.8123 55.42C81.2123 55.1667 81.679 54.98 82.2123 54.86C82.7457 54.74 83.3057 54.68 83.8923 54.68C84.079 54.68 84.2723 54.6933 84.4723 54.72C84.6723 54.7333 84.859 54.76 85.0323 54.8C85.219 54.8267 85.379 54.8533 85.5123 54.88C85.6457 54.9067 85.739 54.9267 85.7923 54.94V54.42C85.7923 54.1133 85.759 53.8133 85.6923 53.52C85.6257 53.2133 85.5057 52.9467 85.3323 52.72C85.159 52.48 84.919 52.2933 84.6123 52.16C84.319 52.0133 83.9323 51.94 83.4523 51.94C82.839 51.94 82.299 51.9867 81.8323 52.08C81.379 52.16 81.039 52.2467 80.8123 52.34L80.5923 50.8C80.8323 50.6933 81.2323 50.5933 81.7923 50.5C82.3523 50.3933 82.959 50.34 83.6123 50.34ZM93.0616 61H91.2016V50.6H93.0616V61ZM92.1216 48.72C91.7882 48.72 91.5016 48.6133 91.2616 48.4C91.0349 48.1733 90.9216 47.8733 90.9216 47.5C90.9216 47.1267 91.0349 46.8333 91.2616 46.62C91.5016 46.3933 91.7882 46.28 92.1216 46.28C92.4549 46.28 92.7349 46.3933 92.9616 46.62C93.2016 46.8333 93.3216 47.1267 93.3216 47.5C93.3216 47.8733 93.2016 48.1733 92.9616 48.4C92.7349 48.6133 92.4549 48.72 92.1216 48.72ZM99.8802 61.2C98.7335 61.1733 97.9202 60.9267 97.4402 60.46C96.9602 59.9933 96.7202 59.2667 96.7202 58.28V45.8L98.5802 45.48V57.98C98.5802 58.2867 98.6068 58.54 98.6602 58.74C98.7135 58.94 98.8002 59.1 98.9202 59.22C99.0402 59.34 99.2002 59.4333 99.4002 59.5C99.6002 59.5533 99.8468 59.6 100.14 59.64L99.8802 61.2ZM116.598 50.6V61H114.798V53.08C114.398 53.5867 113.958 54.18 113.478 54.86C112.998 55.54 112.518 56.2467 112.038 56.98C111.558 57.7 111.098 58.4133 110.658 59.12C110.218 59.8267 109.838 60.4533 109.518 61H107.858V50.6H109.658V58.08C110.004 57.5067 110.398 56.88 110.838 56.2C111.278 55.5067 111.731 54.8267 112.198 54.16C112.678 53.48 113.151 52.8333 113.618 52.22C114.098 51.5933 114.544 51.0533 114.958 50.6H116.598ZM133.78 61H131.92V52.16H127.28V61H125.42V50.6H133.78V61ZM141.003 59.66C141.443 59.66 141.829 59.6533 142.163 59.64C142.509 59.6133 142.796 59.5733 143.023 59.52V56.42C142.889 56.3533 142.669 56.3 142.363 56.26C142.069 56.2067 141.709 56.18 141.283 56.18C141.003 56.18 140.703 56.2 140.383 56.24C140.076 56.28 139.789 56.3667 139.523 56.5C139.269 56.62 139.056 56.7933 138.883 57.02C138.709 57.2333 138.623 57.52 138.623 57.88C138.623 58.5467 138.836 59.0133 139.263 59.28C139.689 59.5333 140.269 59.66 141.003 59.66ZM140.843 50.34C141.589 50.34 142.216 50.44 142.723 50.64C143.243 50.8267 143.656 51.1 143.963 51.46C144.283 51.8067 144.509 52.2267 144.643 52.72C144.776 53.2 144.843 53.7333 144.843 54.32V60.82C144.683 60.8467 144.456 60.8867 144.163 60.94C143.883 60.98 143.563 61.02 143.203 61.06C142.843 61.1 142.449 61.1333 142.023 61.16C141.609 61.2 141.196 61.22 140.783 61.22C140.196 61.22 139.656 61.16 139.163 61.04C138.669 60.92 138.243 60.7333 137.883 60.48C137.523 60.2133 137.243 59.8667 137.043 59.44C136.843 59.0133 136.743 58.5 136.743 57.9C136.743 57.3267 136.856 56.8333 137.083 56.42C137.323 56.0067 137.643 55.6733 138.043 55.42C138.443 55.1667 138.909 54.98 139.443 54.86C139.976 54.74 140.536 54.68 141.123 54.68C141.309 54.68 141.503 54.6933 141.703 54.72C141.903 54.7333 142.089 54.76 142.263 54.8C142.449 54.8267 142.609 54.8533 142.743 54.88C142.876 54.9067 142.969 54.9267 143.023 54.94V54.42C143.023 54.1133 142.989 53.8133 142.923 53.52C142.856 53.2133 142.736 52.9467 142.563 52.72C142.389 52.48 142.149 52.2933 141.843 52.16C141.549 52.0133 141.163 51.94 140.683 51.94C140.069 51.94 139.529 51.9867 139.063 52.08C138.609 52.16 138.269 52.2467 138.043 52.34L137.823 50.8C138.063 50.6933 138.463 50.5933 139.023 50.5C139.583 50.3933 140.189 50.34 140.843 50.34ZM155.652 55.82C155.652 54.6067 155.352 53.6733 154.752 53.02C154.152 52.3667 153.352 52.04 152.352 52.04C151.792 52.04 151.352 52.06 151.032 52.1C150.725 52.14 150.479 52.1867 150.292 52.24V58.8C150.519 58.9867 150.845 59.1667 151.272 59.34C151.699 59.5133 152.165 59.6 152.672 59.6C153.205 59.6 153.659 59.5067 154.032 59.32C154.419 59.12 154.732 58.8533 154.972 58.52C155.212 58.1733 155.385 57.7733 155.492 57.32C155.599 56.8533 155.652 56.3533 155.652 55.82ZM157.592 55.82C157.592 56.6067 157.485 57.3333 157.272 58C157.072 58.6667 156.772 59.24 156.372 59.72C155.972 60.2 155.479 60.5733 154.892 60.84C154.319 61.1067 153.659 61.24 152.912 61.24C152.312 61.24 151.779 61.16 151.312 61C150.859 60.84 150.519 60.6867 150.292 60.54V64.7H148.432V50.92C148.872 50.8133 149.419 50.7 150.072 50.58C150.739 50.4467 151.505 50.38 152.372 50.38C153.172 50.38 153.892 50.5067 154.532 50.76C155.172 51.0133 155.719 51.3733 156.172 51.84C156.625 52.3067 156.972 52.88 157.212 53.56C157.465 54.2267 157.592 54.98 157.592 55.82ZM169.889 55.8C169.889 56.6267 169.769 57.3733 169.529 58.04C169.289 58.7067 168.949 59.28 168.509 59.76C168.083 60.24 167.569 60.6133 166.969 60.88C166.369 61.1333 165.716 61.26 165.009 61.26C164.303 61.26 163.649 61.1333 163.049 60.88C162.449 60.6133 161.929 60.24 161.489 59.76C161.063 59.28 160.729 58.7067 160.489 58.04C160.249 57.3733 160.129 56.6267 160.129 55.8C160.129 54.9867 160.249 54.2467 160.489 53.58C160.729 52.9 161.063 52.32 161.489 51.84C161.929 51.36 162.449 50.9933 163.049 50.74C163.649 50.4733 164.303 50.34 165.009 50.34C165.716 50.34 166.369 50.4733 166.969 50.74C167.569 50.9933 168.083 51.36 168.509 51.84C168.949 52.32 169.289 52.9 169.529 53.58C169.769 54.2467 169.889 54.9867 169.889 55.8ZM167.949 55.8C167.949 54.6267 167.683 53.7 167.149 53.02C166.629 52.3267 165.916 51.98 165.009 51.98C164.103 51.98 163.383 52.3267 162.849 53.02C162.329 53.7 162.069 54.6267 162.069 55.8C162.069 56.9733 162.329 57.9067 162.849 58.6C163.383 59.28 164.103 59.62 165.009 59.62C165.916 59.62 166.629 59.28 167.149 58.6C167.683 57.9067 167.949 56.9733 167.949 55.8ZM176.626 52.16C176.626 52.6 176.613 53.0733 176.586 53.58C176.573 54.0733 176.54 54.5733 176.486 55.08C176.433 55.5733 176.36 56.0667 176.266 56.56C176.173 57.04 176.053 57.4933 175.906 57.92C175.76 58.3467 175.573 58.7467 175.346 59.12C175.133 59.4933 174.866 59.8267 174.546 60.12C174.226 60.4 173.853 60.64 173.426 60.84C173 61.0267 172.5 61.1467 171.926 61.2L171.666 59.64C172.32 59.5067 172.833 59.26 173.206 58.9C173.593 58.54 173.9 58.1 174.126 57.58C174.326 57.1267 174.473 56.6133 174.566 56.04C174.66 55.4667 174.726 54.8733 174.766 54.26C174.806 53.6333 174.826 53.0067 174.826 52.38C174.84 51.7533 174.846 51.16 174.846 50.6H181.766V61H179.906V52.16H176.626ZM189.399 59.7C190.186 59.7 190.806 59.5467 191.259 59.24C191.713 58.9333 191.939 58.44 191.939 57.76C191.939 57.4267 191.873 57.14 191.739 56.9C191.606 56.66 191.419 56.4667 191.179 56.32C190.953 56.16 190.686 56.0467 190.379 55.98C190.073 55.9 189.746 55.86 189.399 55.86C189.039 55.86 188.666 55.8733 188.279 55.9C187.906 55.9133 187.586 55.9533 187.319 56.02V59.6C187.399 59.6133 187.519 59.6267 187.679 59.64C187.839 59.6533 188.013 59.6667 188.199 59.68C188.399 59.68 188.599 59.6867 188.799 59.7C189.013 59.7 189.213 59.7 189.399 59.7ZM185.459 60.78V50.6H187.319V54.58C187.426 54.5533 187.566 54.5267 187.739 54.5C187.926 54.4733 188.119 54.4467 188.319 54.42C188.533 54.3933 188.753 54.3733 188.979 54.36C189.206 54.3467 189.419 54.34 189.619 54.34C190.193 54.34 190.733 54.4067 191.239 54.54C191.746 54.66 192.186 54.86 192.559 55.14C192.946 55.4067 193.253 55.76 193.479 56.2C193.706 56.6267 193.819 57.14 193.819 57.74C193.819 58.3667 193.713 58.9 193.499 59.34C193.286 59.78 192.979 60.14 192.579 60.42C192.179 60.7 191.699 60.9 191.139 61.02C190.593 61.1533 189.979 61.22 189.299 61.22C188.633 61.22 187.979 61.18 187.339 61.1C186.699 61.0333 186.073 60.9267 185.459 60.78ZM198.486 58.72C198.499 58.8267 198.506 58.9333 198.506 59.04C198.506 59.1333 198.506 59.2333 198.506 59.34C198.506 60.18 198.379 61.0067 198.126 61.82C197.886 62.6467 197.552 63.4333 197.126 64.18L195.686 63.72C196.019 63.04 196.239 62.3467 196.346 61.64C196.452 60.9467 196.506 60.2933 196.506 59.68C196.506 59.5067 196.499 59.34 196.486 59.18C196.486 59.02 196.479 58.8667 196.466 58.72H198.486ZM54.4 71.34C54.8133 71.6333 55.26 72.0067 55.74 72.46C56.22 72.9 56.6867 73.38 57.14 73.9C57.6067 74.42 58.04 74.9533 58.44 75.5C58.84 76.0333 59.18 76.5333 59.46 77H57.26C56.9667 76.5467 56.62 76.0867 56.22 75.62C55.8333 75.14 55.4267 74.68 55 74.24C54.5733 73.8 54.14 73.3933 53.7 73.02C53.26 72.6467 52.8467 72.3333 52.46 72.08V77H50.6V66.6H52.46V71.06C52.78 70.7533 53.1467 70.4 53.56 70C53.9733 69.5867 54.3867 69.1733 54.8 68.76C55.2267 68.3333 55.62 67.9333 55.98 67.56C56.34 67.1733 56.6333 66.8533 56.86 66.6H59.02C58.7267 66.92 58.38 67.2867 57.98 67.7C57.5933 68.1 57.1867 68.5133 56.76 68.94C56.3467 69.3667 55.9333 69.7933 55.52 70.22C55.1067 70.6333 54.7333 71.0067 54.4 71.34ZM70.4363 71.8C70.4363 72.6267 70.3163 73.3733 70.0763 74.04C69.8363 74.7067 69.4963 75.28 69.0563 75.76C68.6296 76.24 68.1163 76.6133 67.5163 76.88C66.9163 77.1333 66.2629 77.26 65.5563 77.26C64.8496 77.26 64.1963 77.1333 63.5963 76.88C62.9963 76.6133 62.4763 76.24 62.0363 75.76C61.6096 75.28 61.2763 74.7067 61.0363 74.04C60.7963 73.3733 60.6763 72.6267 60.6763 71.8C60.6763 70.9867 60.7963 70.2467 61.0363 69.58C61.2763 68.9 61.6096 68.32 62.0363 67.84C62.4763 67.36 62.9963 66.9933 63.5963 66.74C64.1963 66.4733 64.8496 66.34 65.5563 66.34C66.2629 66.34 66.9163 66.4733 67.5163 66.74C68.1163 66.9933 68.6296 67.36 69.0563 67.84C69.4963 68.32 69.8363 68.9 70.0763 69.58C70.3163 70.2467 70.4363 70.9867 70.4363 71.8ZM68.4963 71.8C68.4963 70.6267 68.2296 69.7 67.6963 69.02C67.1763 68.3267 66.4629 67.98 65.5563 67.98C64.6496 67.98 63.9296 68.3267 63.3963 69.02C62.8763 69.7 62.6163 70.6267 62.6163 71.8C62.6163 72.9733 62.8763 73.9067 63.3963 74.6C63.9296 75.28 64.6496 75.62 65.5563 75.62C66.4629 75.62 67.1763 75.28 67.6963 74.6C68.2296 73.9067 68.4963 72.9733 68.4963 71.8ZM80.8931 66.6V68.16H77.5131V77H75.6531V68.16H72.2731V66.6H80.8931ZM92.4909 71.8C92.4909 72.6267 92.3709 73.3733 92.1309 74.04C91.8909 74.7067 91.5509 75.28 91.1109 75.76C90.6843 76.24 90.1709 76.6133 89.5709 76.88C88.9709 77.1333 88.3176 77.26 87.6109 77.26C86.9043 77.26 86.2509 77.1333 85.6509 76.88C85.0509 76.6133 84.5309 76.24 84.0909 75.76C83.6643 75.28 83.3309 74.7067 83.0909 74.04C82.8509 73.3733 82.7309 72.6267 82.7309 71.8C82.7309 70.9867 82.8509 70.2467 83.0909 69.58C83.3309 68.9 83.6643 68.32 84.0909 67.84C84.5309 67.36 85.0509 66.9933 85.6509 66.74C86.2509 66.4733 86.9043 66.34 87.6109 66.34C88.3176 66.34 88.9709 66.4733 89.5709 66.74C90.1709 66.9933 90.6843 67.36 91.1109 67.84C91.5509 68.32 91.8909 68.9 92.1309 69.58C92.3709 70.2467 92.4909 70.9867 92.4909 71.8ZM90.5509 71.8C90.5509 70.6267 90.2843 69.7 89.7509 69.02C89.2309 68.3267 88.5176 67.98 87.6109 67.98C86.7043 67.98 85.9843 68.3267 85.4509 69.02C84.9309 69.7 84.6709 70.6267 84.6709 71.8C84.6709 72.9733 84.9309 73.9067 85.4509 74.6C85.9843 75.28 86.7043 75.62 87.6109 75.62C88.5176 75.62 89.2309 75.28 89.7509 74.6C90.2843 73.9067 90.5509 72.9733 90.5509 71.8ZM102.828 71.82C102.828 70.6067 102.528 69.6733 101.928 69.02C101.328 68.3667 100.528 68.04 99.5278 68.04C98.9678 68.04 98.5278 68.06 98.2078 68.1C97.9011 68.14 97.6545 68.1867 97.4678 68.24V74.8C97.6945 74.9867 98.0211 75.1667 98.4478 75.34C98.8745 75.5133 99.3411 75.6 99.8478 75.6C100.381 75.6 100.834 75.5067 101.208 75.32C101.594 75.12 101.908 74.8533 102.148 74.52C102.388 74.1733 102.561 73.7733 102.668 73.32C102.774 72.8533 102.828 72.3533 102.828 71.82ZM104.768 71.82C104.768 72.6067 104.661 73.3333 104.448 74C104.248 74.6667 103.948 75.24 103.548 75.72C103.148 76.2 102.654 76.5733 102.068 76.84C101.494 77.1067 100.834 77.24 100.088 77.24C99.4878 77.24 98.9545 77.16 98.4878 77C98.0345 76.84 97.6945 76.6867 97.4678 76.54V80.7H95.6078V66.92C96.0478 66.8133 96.5945 66.7 97.2478 66.58C97.9145 66.4467 98.6811 66.38 99.5478 66.38C100.348 66.38 101.068 66.5067 101.708 66.76C102.348 67.0133 102.894 67.3733 103.348 67.84C103.801 68.3067 104.148 68.88 104.388 69.56C104.641 70.2267 104.768 70.98 104.768 71.82ZM111.705 71.86C111.345 71.86 110.992 71.8733 110.645 71.9C110.312 71.9133 110.012 71.9533 109.745 72.02V75.6C109.825 75.6133 109.938 75.6267 110.085 75.64C110.245 75.6533 110.412 75.6667 110.585 75.68C110.772 75.68 110.958 75.6867 111.145 75.7C111.332 75.7 111.498 75.7 111.645 75.7C112.458 75.7 113.085 75.5467 113.525 75.24C113.965 74.9333 114.185 74.44 114.185 73.76C114.185 73.4267 114.112 73.14 113.965 72.9C113.832 72.66 113.645 72.4667 113.405 72.32C113.178 72.16 112.918 72.0467 112.625 71.98C112.332 71.9 112.025 71.86 111.705 71.86ZM107.885 66.6H109.745V70.58C109.972 70.5267 110.298 70.4733 110.725 70.42C111.165 70.3667 111.585 70.34 111.985 70.34C112.532 70.34 113.052 70.4067 113.545 70.54C114.038 70.66 114.472 70.86 114.845 71.14C115.218 71.4067 115.512 71.76 115.725 72.2C115.952 72.6267 116.065 73.14 116.065 73.74C116.065 74.3667 115.958 74.9 115.745 75.34C115.532 75.78 115.232 76.14 114.845 76.42C114.458 76.7 113.992 76.9 113.445 77.02C112.898 77.1533 112.298 77.22 111.645 77.22C111.018 77.22 110.385 77.18 109.745 77.1C109.105 77.0333 108.485 76.9267 107.885 76.78V66.6ZM119.845 77H117.985V66.6H119.845V77ZM122.961 71.82C122.961 70.9 123.095 70.1 123.361 69.42C123.628 68.7267 123.981 68.1533 124.421 67.7C124.861 67.2467 125.368 66.9067 125.941 66.68C126.515 66.4533 127.101 66.34 127.701 66.34C129.101 66.34 130.175 66.78 130.921 67.66C131.668 68.5267 132.041 69.8533 132.041 71.64C132.041 71.72 132.041 71.8267 132.041 71.96C132.041 72.08 132.035 72.1933 132.021 72.3H124.901C124.981 73.38 125.295 74.2 125.841 74.76C126.388 75.32 127.241 75.6 128.401 75.6C129.055 75.6 129.601 75.5467 130.041 75.44C130.495 75.32 130.835 75.2067 131.061 75.1L131.321 76.66C131.095 76.78 130.695 76.9067 130.121 77.04C129.561 77.1733 128.921 77.24 128.201 77.24C127.295 77.24 126.508 77.1067 125.841 76.84C125.188 76.56 124.648 76.18 124.221 75.7C123.795 75.22 123.475 74.6533 123.261 74C123.061 73.3333 122.961 72.6067 122.961 71.82ZM130.101 70.8C130.115 69.96 129.901 69.2733 129.461 68.74C129.035 68.1933 128.441 67.92 127.681 67.92C127.255 67.92 126.875 68.0067 126.541 68.18C126.221 68.34 125.948 68.5533 125.721 68.82C125.495 69.0867 125.315 69.3933 125.181 69.74C125.061 70.0867 124.981 70.44 124.941 70.8H130.101ZM144.202 77.12C143.922 77.12 143.616 77.1133 143.282 77.1C142.962 77.0867 142.636 77.0667 142.302 77.04C141.982 77.0133 141.662 76.98 141.342 76.94C141.022 76.9 140.729 76.8467 140.462 76.78V63.34C140.729 63.2733 141.022 63.22 141.342 63.18C141.662 63.14 141.982 63.1067 142.302 63.08C142.636 63.0533 142.962 63.0333 143.282 63.02C143.602 63.0067 143.902 63 144.182 63C144.982 63 145.729 63.06 146.422 63.18C147.129 63.3 147.736 63.5067 148.242 63.8C148.762 64.08 149.169 64.4533 149.462 64.92C149.756 65.3867 149.902 65.96 149.902 66.64C149.902 67.4 149.722 68.0267 149.362 68.52C149.002 69 148.522 69.36 147.922 69.6C148.736 69.84 149.382 70.22 149.862 70.74C150.342 71.26 150.582 71.9933 150.582 72.94C150.582 74.3267 150.069 75.3733 149.042 76.08C148.029 76.7733 146.416 77.12 144.202 77.12ZM142.382 70.54V75.42C142.529 75.4333 142.702 75.4467 142.902 75.46C143.076 75.4733 143.276 75.4867 143.502 75.5C143.742 75.5 144.016 75.5 144.322 75.5C144.896 75.5 145.436 75.4667 145.942 75.4C146.462 75.32 146.916 75.1867 147.302 75C147.689 74.8133 147.996 74.5533 148.222 74.22C148.462 73.8867 148.582 73.4667 148.582 72.96C148.582 72.5067 148.496 72.1267 148.322 71.82C148.149 71.5 147.896 71.2467 147.562 71.06C147.242 70.8733 146.856 70.74 146.402 70.66C145.949 70.58 145.442 70.54 144.882 70.54H142.382ZM142.382 68.98H144.422C144.902 68.98 145.356 68.9467 145.782 68.88C146.209 68.8133 146.576 68.6933 146.882 68.52C147.202 68.3467 147.449 68.12 147.622 67.84C147.809 67.56 147.902 67.2067 147.902 66.78C147.902 66.38 147.809 66.0467 147.622 65.78C147.436 65.5 147.176 65.28 146.842 65.12C146.522 64.9467 146.142 64.82 145.702 64.74C145.262 64.66 144.796 64.62 144.302 64.62C143.809 64.62 143.422 64.6267 143.142 64.64C142.862 64.6533 142.609 64.6733 142.382 64.7V68.98ZM157.514 71.86C157.154 71.86 156.8 71.8733 156.454 71.9C156.12 71.9133 155.82 71.9533 155.554 72.02V75.6C155.634 75.6133 155.747 75.6267 155.894 75.64C156.054 75.6533 156.22 75.6667 156.394 75.68C156.58 75.68 156.767 75.6867 156.954 75.7C157.14 75.7 157.307 75.7 157.454 75.7C158.267 75.7 158.894 75.5467 159.334 75.24C159.774 74.9333 159.994 74.44 159.994 73.76C159.994 73.4267 159.92 73.14 159.774 72.9C159.64 72.66 159.454 72.4667 159.214 72.32C158.987 72.16 158.727 72.0467 158.434 71.98C158.14 71.9 157.834 71.86 157.514 71.86ZM153.694 66.6H155.554V70.58C155.78 70.5267 156.107 70.4733 156.534 70.42C156.974 70.3667 157.394 70.34 157.794 70.34C158.34 70.34 158.86 70.4067 159.354 70.54C159.847 70.66 160.28 70.86 160.654 71.14C161.027 71.4067 161.32 71.76 161.534 72.2C161.76 72.6267 161.874 73.14 161.874 73.74C161.874 74.3667 161.767 74.9 161.554 75.34C161.34 75.78 161.04 76.14 160.654 76.42C160.267 76.7 159.8 76.9 159.254 77.02C158.707 77.1533 158.107 77.22 157.454 77.22C156.827 77.22 156.194 77.18 155.554 77.1C154.914 77.0333 154.294 76.9267 153.694 76.78V66.6ZM165.654 77H163.794V66.6H165.654V77ZM173.259 78.94C173.406 79.0067 173.592 79.0667 173.819 79.12C174.059 79.1867 174.292 79.22 174.519 79.22C175.252 79.22 175.826 79.0533 176.239 78.72C176.652 78.4 177.026 77.8733 177.359 77.14C176.519 75.54 175.732 73.8467 174.999 72.06C174.279 70.26 173.679 68.44 173.199 66.6H175.199C175.346 67.2 175.519 67.8467 175.719 68.54C175.932 69.2333 176.166 69.9467 176.419 70.68C176.672 71.4133 176.946 72.1467 177.239 72.88C177.532 73.6133 177.839 74.32 178.159 75C178.666 73.6 179.106 72.2133 179.479 70.84C179.852 69.4667 180.206 68.0533 180.539 66.6H182.459C181.979 68.56 181.446 70.4467 180.859 72.26C180.272 74.06 179.639 75.7467 178.959 77.32C178.692 77.92 178.412 78.4333 178.119 78.86C177.839 79.3 177.526 79.66 177.179 79.94C176.832 80.22 176.439 80.4267 175.999 80.56C175.572 80.6933 175.086 80.76 174.539 80.76C174.392 80.76 174.239 80.7467 174.079 80.72C173.919 80.7067 173.759 80.68 173.599 80.64C173.452 80.6133 173.312 80.58 173.179 80.54C173.059 80.5 172.972 80.4667 172.919 80.44L173.259 78.94ZM188.72 71.34C189.134 71.6333 189.58 72.0067 190.06 72.46C190.54 72.9 191.007 73.38 191.46 73.9C191.927 74.42 192.36 74.9533 192.76 75.5C193.16 76.0333 193.5 76.5333 193.78 77H191.58C191.287 76.5467 190.94 76.0867 190.54 75.62C190.154 75.14 189.747 74.68 189.32 74.24C188.894 73.8 188.46 73.3933 188.02 73.02C187.58 72.6467 187.167 72.3333 186.78 72.08V77H184.92V66.6H186.78V71.06C187.1 70.7533 187.467 70.4 187.88 70C188.294 69.5867 188.707 69.1733 189.12 68.76C189.547 68.3333 189.94 67.9333 190.3 67.56C190.66 67.1733 190.954 66.8533 191.18 66.6H193.34C193.047 66.92 192.7 67.2867 192.3 67.7C191.914 68.1 191.507 68.5133 191.08 68.94C190.667 69.3667 190.254 69.7933 189.84 70.22C189.427 70.6333 189.054 71.0067 188.72 71.34ZM199.683 75.66C200.123 75.66 200.509 75.6533 200.843 75.64C201.189 75.6133 201.476 75.5733 201.703 75.52V72.42C201.569 72.3533 201.349 72.3 201.043 72.26C200.749 72.2067 200.389 72.18 199.963 72.18C199.683 72.18 199.383 72.2 199.063 72.24C198.756 72.28 198.469 72.3667 198.203 72.5C197.949 72.62 197.736 72.7933 197.563 73.02C197.389 73.2333 197.303 73.52 197.303 73.88C197.303 74.5467 197.516 75.0133 197.943 75.28C198.369 75.5333 198.949 75.66 199.683 75.66ZM199.523 66.34C200.269 66.34 200.896 66.44 201.403 66.64C201.923 66.8267 202.336 67.1 202.643 67.46C202.963 67.8067 203.189 68.2267 203.323 68.72C203.456 69.2 203.523 69.7333 203.523 70.32V76.82C203.363 76.8467 203.136 76.8867 202.843 76.94C202.563 76.98 202.243 77.02 201.883 77.06C201.523 77.1 201.129 77.1333 200.703 77.16C200.289 77.2 199.876 77.22 199.463 77.22C198.876 77.22 198.336 77.16 197.843 77.04C197.349 76.92 196.923 76.7333 196.563 76.48C196.203 76.2133 195.923 75.8667 195.723 75.44C195.523 75.0133 195.423 74.5 195.423 73.9C195.423 73.3267 195.536 72.8333 195.763 72.42C196.003 72.0067 196.323 71.6733 196.723 71.42C197.123 71.1667 197.589 70.98 198.123 70.86C198.656 70.74 199.216 70.68 199.803 70.68C199.989 70.68 200.183 70.6933 200.383 70.72C200.583 70.7333 200.769 70.76 200.943 70.8C201.129 70.8267 201.289 70.8533 201.423 70.88C201.556 70.9067 201.649 70.9267 201.703 70.94V70.42C201.703 70.1133 201.669 69.8133 201.603 69.52C201.536 69.2133 201.416 68.9467 201.243 68.72C201.069 68.48 200.829 68.2933 200.523 68.16C200.229 68.0133 199.843 67.94 199.363 67.94C198.749 67.94 198.209 67.9867 197.743 68.08C197.289 68.16 196.949 68.2467 196.723 68.34L196.503 66.8C196.743 66.6933 197.143 66.5933 197.703 66.5C198.263 66.3933 198.869 66.34 199.523 66.34ZM209.752 66.34C210.352 66.34 210.912 66.4 211.432 66.52C211.952 66.64 212.398 66.82 212.772 67.06C213.145 67.3 213.438 67.6 213.652 67.96C213.865 68.32 213.972 68.74 213.972 69.22C213.972 69.5267 213.918 69.8067 213.812 70.06C213.705 70.3133 213.572 70.54 213.412 70.74C213.252 70.94 213.072 71.1133 212.872 71.26C212.685 71.3933 212.505 71.4867 212.332 71.54C212.945 71.7267 213.425 72.06 213.772 72.54C214.132 73.0067 214.312 73.6 214.312 74.32C214.312 75.3067 213.912 76.04 213.112 76.52C212.312 77 211.225 77.24 209.852 77.24C209.012 77.24 208.285 77.1733 207.672 77.04C207.072 76.9067 206.645 76.78 206.392 76.66L206.712 75.08C206.925 75.16 207.305 75.2733 207.852 75.42C208.412 75.5533 209.078 75.62 209.852 75.62C210.692 75.62 211.332 75.4933 211.772 75.24C212.212 74.9733 212.432 74.58 212.432 74.06C212.432 73.6867 212.345 73.3867 212.172 73.16C212.012 72.92 211.805 72.74 211.552 72.62C211.298 72.5 211.025 72.42 210.732 72.38C210.438 72.34 210.165 72.32 209.912 72.32H208.172V70.84H209.852C210.092 70.84 210.338 70.8267 210.592 70.8C210.858 70.76 211.098 70.6867 211.312 70.58C211.538 70.4733 211.725 70.3267 211.872 70.14C212.018 69.94 212.092 69.68 212.092 69.36C212.092 69.1067 212.025 68.8933 211.892 68.72C211.772 68.5333 211.605 68.38 211.392 68.26C211.178 68.14 210.925 68.0533 210.632 68C210.352 67.9333 210.058 67.9 209.752 67.9C209.512 67.9 209.252 67.92 208.972 67.96C208.692 68 208.418 68.0533 208.152 68.12C207.885 68.1733 207.645 68.2333 207.432 68.3C207.218 68.3667 207.065 68.4267 206.972 68.48L206.632 66.88C206.738 66.84 206.905 66.7867 207.132 66.72C207.358 66.6533 207.612 66.5933 207.892 66.54C208.185 66.4867 208.492 66.44 208.812 66.4C209.132 66.36 209.445 66.34 209.752 66.34ZM220.917 75.66C221.357 75.66 221.744 75.6533 222.077 75.64C222.424 75.6133 222.71 75.5733 222.937 75.52V72.42C222.804 72.3533 222.584 72.3 222.277 72.26C221.984 72.2067 221.624 72.18 221.197 72.18C220.917 72.18 220.617 72.2 220.297 72.24C219.99 72.28 219.704 72.3667 219.437 72.5C219.184 72.62 218.97 72.7933 218.797 73.02C218.624 73.2333 218.537 73.52 218.537 73.88C218.537 74.5467 218.75 75.0133 219.177 75.28C219.604 75.5333 220.184 75.66 220.917 75.66ZM220.757 66.34C221.504 66.34 222.13 66.44 222.637 66.64C223.157 66.8267 223.57 67.1 223.877 67.46C224.197 67.8067 224.424 68.2267 224.557 68.72C224.69 69.2 224.757 69.7333 224.757 70.32V76.82C224.597 76.8467 224.37 76.8867 224.077 76.94C223.797 76.98 223.477 77.02 223.117 77.06C222.757 77.1 222.364 77.1333 221.937 77.16C221.524 77.2 221.11 77.22 220.697 77.22C220.11 77.22 219.57 77.16 219.077 77.04C218.584 76.92 218.157 76.7333 217.797 76.48C217.437 76.2133 217.157 75.8667 216.957 75.44C216.757 75.0133 216.657 74.5 216.657 73.9C216.657 73.3267 216.77 72.8333 216.997 72.42C217.237 72.0067 217.557 71.6733 217.957 71.42C218.357 71.1667 218.824 70.98 219.357 70.86C219.89 70.74 220.45 70.68 221.037 70.68C221.224 70.68 221.417 70.6933 221.617 70.72C221.817 70.7333 222.004 70.76 222.177 70.8C222.364 70.8267 222.524 70.8533 222.657 70.88C222.79 70.9067 222.884 70.9267 222.937 70.94V70.42C222.937 70.1133 222.904 69.8133 222.837 69.52C222.77 69.2133 222.65 68.9467 222.477 68.72C222.304 68.48 222.064 68.2933 221.757 68.16C221.464 68.0133 221.077 67.94 220.597 67.94C219.984 67.94 219.444 67.9867 218.977 68.08C218.524 68.16 218.184 68.2467 217.957 68.34L217.737 66.8C217.977 66.6933 218.377 66.5933 218.937 66.5C219.497 66.3933 220.104 66.34 220.757 66.34ZM231.966 68.16C231.966 68.6 231.953 69.0733 231.926 69.58C231.913 70.0733 231.879 70.5733 231.826 71.08C231.773 71.5733 231.699 72.0667 231.606 72.56C231.513 73.04 231.393 73.4933 231.246 73.92C231.099 74.3467 230.913 74.7467 230.686 75.12C230.473 75.4933 230.206 75.8267 229.886 76.12C229.566 76.4 229.193 76.64 228.766 76.84C228.339 77.0267 227.839 77.1467 227.266 77.2L227.006 75.64C227.659 75.5067 228.173 75.26 228.546 74.9C228.933 74.54 229.239 74.1 229.466 73.58C229.666 73.1267 229.813 72.6133 229.906 72.04C229.999 71.4667 230.066 70.8733 230.106 70.26C230.146 69.6333 230.166 69.0067 230.166 68.38C230.179 67.7533 230.186 67.16 230.186 66.6H237.106V77H235.246V68.16H231.966ZM249.539 66.6V77H247.739V69.08C247.339 69.5867 246.899 70.18 246.419 70.86C245.939 71.54 245.459 72.2467 244.979 72.98C244.499 73.7 244.039 74.4133 243.599 75.12C243.159 75.8267 242.779 76.4533 242.459 77H240.799V66.6H242.599V74.08C242.946 73.5067 243.339 72.88 243.779 72.2C244.219 71.5067 244.673 70.8267 245.139 70.16C245.619 69.48 246.093 68.8333 246.559 68.22C247.039 67.5933 247.486 67.0533 247.899 66.6H249.539ZM58.96 93H57.1V84.16H52.46V93H50.6V82.6H58.96V93ZM69.8825 87.82C69.8825 86.6067 69.5825 85.6733 68.9825 85.02C68.3825 84.3667 67.5825 84.04 66.5825 84.04C66.0225 84.04 65.5825 84.06 65.2625 84.1C64.9558 84.14 64.7092 84.1867 64.5225 84.24V90.8C64.7492 90.9867 65.0758 91.1667 65.5025 91.34C65.9292 91.5133 66.3958 91.6 66.9025 91.6C67.4358 91.6 67.8892 91.5067 68.2625 91.32C68.6492 91.12 68.9625 90.8533 69.2025 90.52C69.4425 90.1733 69.6158 89.7733 69.7225 89.32C69.8292 88.8533 69.8825 88.3533 69.8825 87.82ZM71.8225 87.82C71.8225 88.6067 71.7158 89.3333 71.5025 90C71.3025 90.6667 71.0025 91.24 70.6025 91.72C70.2025 92.2 69.7092 92.5733 69.1225 92.84C68.5492 93.1067 67.8892 93.24 67.1425 93.24C66.5425 93.24 66.0092 93.16 65.5425 93C65.0892 92.84 64.7492 92.6867 64.5225 92.54V96.7H62.6625V82.92C63.1025 82.8133 63.6492 82.7 64.3025 82.58C64.9692 82.4467 65.7358 82.38 66.6025 82.38C67.4025 82.38 68.1225 82.5067 68.7625 82.76C69.4025 83.0133 69.9492 83.3733 70.4025 83.84C70.8558 84.3067 71.2025 84.88 71.4425 85.56C71.6958 86.2267 71.8225 86.98 71.8225 87.82ZM83.6798 82.6V93H81.8798V85.08C81.4798 85.5867 81.0398 86.18 80.5598 86.86C80.0798 87.54 79.5998 88.2467 79.1198 88.98C78.6398 89.7 78.1798 90.4133 77.7398 91.12C77.2998 91.8267 76.9198 92.4533 76.5998 93H74.9398V82.6H76.7398V90.08C77.0865 89.5067 77.4798 88.88 77.9198 88.2C78.3598 87.5067 78.8132 86.8267 79.2798 86.16C79.7598 85.48 80.2332 84.8333 80.6998 84.22C81.1798 83.5933 81.6265 83.0533 82.0398 82.6H83.6798ZM99.7223 87.82C99.7223 86.6067 99.4223 85.6733 98.8223 85.02C98.2223 84.3667 97.4223 84.04 96.4223 84.04C95.8623 84.04 95.4223 84.06 95.1023 84.1C94.7957 84.14 94.549 84.1867 94.3623 84.24V90.8C94.589 90.9867 94.9157 91.1667 95.3423 91.34C95.769 91.5133 96.2357 91.6 96.7423 91.6C97.2757 91.6 97.729 91.5067 98.1023 91.32C98.489 91.12 98.8023 90.8533 99.0423 90.52C99.2823 90.1733 99.4557 89.7733 99.5623 89.32C99.669 88.8533 99.7223 88.3533 99.7223 87.82ZM101.662 87.82C101.662 88.6067 101.556 89.3333 101.342 90C101.142 90.6667 100.842 91.24 100.442 91.72C100.042 92.2 99.549 92.5733 98.9623 92.84C98.389 93.1067 97.729 93.24 96.9823 93.24C96.3823 93.24 95.849 93.16 95.3823 93C94.929 92.84 94.589 92.6867 94.3623 92.54V96.7H92.5023V82.92C92.9423 82.8133 93.489 82.7 94.1423 82.58C94.809 82.4467 95.5757 82.38 96.4423 82.38C97.2423 82.38 97.9623 82.5067 98.6023 82.76C99.2423 83.0133 99.789 83.3733 100.242 83.84C100.696 84.3067 101.042 84.88 101.282 85.56C101.536 86.2267 101.662 86.98 101.662 87.82ZM104.2 87.82C104.2 86.9 104.333 86.1 104.6 85.42C104.866 84.7267 105.22 84.1533 105.66 83.7C106.1 83.2467 106.606 82.9067 107.18 82.68C107.753 82.4533 108.34 82.34 108.94 82.34C110.34 82.34 111.413 82.78 112.16 83.66C112.906 84.5267 113.28 85.8533 113.28 87.64C113.28 87.72 113.28 87.8267 113.28 87.96C113.28 88.08 113.273 88.1933 113.26 88.3H106.14C106.22 89.38 106.533 90.2 107.08 90.76C107.626 91.32 108.48 91.6 109.64 91.6C110.293 91.6 110.84 91.5467 111.28 91.44C111.733 91.32 112.073 91.2067 112.3 91.1L112.56 92.66C112.333 92.78 111.933 92.9067 111.36 93.04C110.8 93.1733 110.16 93.24 109.44 93.24C108.533 93.24 107.746 93.1067 107.08 92.84C106.426 92.56 105.886 92.18 105.46 91.7C105.033 91.22 104.713 90.6533 104.5 90C104.3 89.3333 104.2 88.6067 104.2 87.82ZM111.34 86.8C111.353 85.96 111.14 85.2733 110.7 84.74C110.273 84.1933 109.68 83.92 108.92 83.92C108.493 83.92 108.113 84.0067 107.78 84.18C107.46 84.34 107.186 84.5533 106.96 84.82C106.733 85.0867 106.553 85.3933 106.42 85.74C106.3 86.0867 106.22 86.44 106.18 86.8H111.34ZM122.892 84.16H118.312V93H116.452V82.6H122.892V84.16ZM134.051 82.6V93H132.251V85.08C131.851 85.5867 131.411 86.18 130.931 86.86C130.451 87.54 129.971 88.2467 129.491 88.98C129.011 89.7 128.551 90.4133 128.111 91.12C127.671 91.8267 127.291 92.4533 126.971 93H125.311V82.6H127.111V90.08C127.458 89.5067 127.851 88.88 128.291 88.2C128.731 87.5067 129.184 86.8267 129.651 86.16C130.131 85.48 130.604 84.8333 131.071 84.22C131.551 83.5933 131.998 83.0533 132.411 82.6H134.051ZM142.265 93.24C141.425 93.24 140.685 93.1067 140.045 92.84C139.418 92.5733 138.885 92.2 138.445 91.72C138.018 91.24 137.698 90.6733 137.485 90.02C137.271 89.3533 137.165 88.62 137.165 87.82C137.165 87.02 137.278 86.2867 137.505 85.62C137.745 84.9533 138.078 84.38 138.505 83.9C138.931 83.4067 139.451 83.0267 140.065 82.76C140.691 82.48 141.385 82.34 142.145 82.34C142.611 82.34 143.078 82.38 143.545 82.46C144.011 82.54 144.458 82.6667 144.885 82.84L144.465 84.42C144.185 84.2867 143.858 84.18 143.485 84.1C143.125 84.02 142.738 83.98 142.325 83.98C141.285 83.98 140.485 84.3067 139.925 84.96C139.378 85.6133 139.105 86.5667 139.105 87.82C139.105 88.38 139.165 88.8933 139.285 89.36C139.418 89.8267 139.618 90.2267 139.885 90.56C140.165 90.8933 140.518 91.1533 140.945 91.34C141.371 91.5133 141.891 91.6 142.505 91.6C142.998 91.6 143.445 91.5533 143.845 91.46C144.245 91.3667 144.558 91.2667 144.785 91.16L145.045 92.72C144.938 92.7867 144.785 92.8533 144.585 92.92C144.385 92.9733 144.158 93.02 143.905 93.06C143.651 93.1133 143.378 93.1533 143.085 93.18C142.805 93.22 142.531 93.24 142.265 93.24ZM155.174 82.6V84.16H151.794V93H149.934V84.16H146.554V82.6H155.174ZM164.812 87.82C164.812 86.6067 164.512 85.6733 163.912 85.02C163.312 84.3667 162.512 84.04 161.512 84.04C160.952 84.04 160.512 84.06 160.192 84.1C159.886 84.14 159.639 84.1867 159.452 84.24V90.8C159.679 90.9867 160.006 91.1667 160.432 91.34C160.859 91.5133 161.326 91.6 161.832 91.6C162.366 91.6 162.819 91.5067 163.192 91.32C163.579 91.12 163.892 90.8533 164.132 90.52C164.372 90.1733 164.546 89.7733 164.652 89.32C164.759 88.8533 164.812 88.3533 164.812 87.82ZM166.752 87.82C166.752 88.6067 166.646 89.3333 166.432 90C166.232 90.6667 165.932 91.24 165.532 91.72C165.132 92.2 164.639 92.5733 164.052 92.84C163.479 93.1067 162.819 93.24 162.072 93.24C161.472 93.24 160.939 93.16 160.472 93C160.019 92.84 159.679 92.6867 159.452 92.54V96.7H157.592V82.92C158.032 82.8133 158.579 82.7 159.232 82.58C159.899 82.4467 160.666 82.38 161.532 82.38C162.332 82.38 163.052 82.5067 163.692 82.76C164.332 83.0133 164.879 83.3733 165.332 83.84C165.786 84.3067 166.132 84.88 166.372 85.56C166.626 86.2267 166.752 86.98 166.752 87.82ZM173.39 91.66C173.83 91.66 174.216 91.6533 174.55 91.64C174.896 91.6133 175.183 91.5733 175.41 91.52V88.42C175.276 88.3533 175.056 88.3 174.75 88.26C174.456 88.2067 174.096 88.18 173.67 88.18C173.39 88.18 173.09 88.2 172.77 88.24C172.463 88.28 172.176 88.3667 171.91 88.5C171.656 88.62 171.443 88.7933 171.27 89.02C171.096 89.2333 171.01 89.52 171.01 89.88C171.01 90.5467 171.223 91.0133 171.65 91.28C172.076 91.5333 172.656 91.66 173.39 91.66ZM173.23 82.34C173.976 82.34 174.603 82.44 175.11 82.64C175.63 82.8267 176.043 83.1 176.35 83.46C176.67 83.8067 176.896 84.2267 177.03 84.72C177.163 85.2 177.23 85.7333 177.23 86.32V92.82C177.07 92.8467 176.843 92.8867 176.55 92.94C176.27 92.98 175.95 93.02 175.59 93.06C175.23 93.1 174.836 93.1333 174.41 93.16C173.996 93.2 173.583 93.22 173.17 93.22C172.583 93.22 172.043 93.16 171.55 93.04C171.056 92.92 170.63 92.7333 170.27 92.48C169.91 92.2133 169.63 91.8667 169.43 91.44C169.23 91.0133 169.13 90.5 169.13 89.9C169.13 89.3267 169.243 88.8333 169.47 88.42C169.71 88.0067 170.03 87.6733 170.43 87.42C170.83 87.1667 171.296 86.98 171.83 86.86C172.363 86.74 172.923 86.68 173.51 86.68C173.696 86.68 173.89 86.6933 174.09 86.72C174.29 86.7333 174.476 86.76 174.65 86.8C174.836 86.8267 174.996 86.8533 175.13 86.88C175.263 86.9067 175.356 86.9267 175.41 86.94V86.42C175.41 86.1133 175.376 85.8133 175.31 85.52C175.243 85.2133 175.123 84.9467 174.95 84.72C174.776 84.48 174.536 84.2933 174.23 84.16C173.936 84.0133 173.55 83.94 173.07 83.94C172.456 83.94 171.916 83.9867 171.45 84.08C170.996 84.16 170.656 84.2467 170.43 84.34L170.21 82.8C170.45 82.6933 170.85 82.5933 171.41 82.5C171.97 82.3933 172.576 82.34 173.23 82.34ZM189.119 91.46H190.519V95.9H188.759V93H180.819V82.6H182.679V91.46H187.259V82.6H189.119V91.46ZM201.778 82.6V93H199.978V85.08C199.578 85.5867 199.138 86.18 198.658 86.86C198.178 87.54 197.698 88.2467 197.218 88.98C196.738 89.7 196.278 90.4133 195.838 91.12C195.398 91.8267 195.018 92.4533 194.698 93H193.038V82.6H194.838V90.08C195.184 89.5067 195.578 88.88 196.018 88.2C196.458 87.5067 196.911 86.8267 197.378 86.16C197.858 85.48 198.331 84.8333 198.798 84.22C199.278 83.5933 199.724 83.0533 200.138 82.6H201.778ZM214.211 82.6V93H212.411V85.08C212.011 85.5867 211.571 86.18 211.091 86.86C210.611 87.54 210.131 88.2467 209.651 88.98C209.171 89.7 208.711 90.4133 208.271 91.12C207.831 91.8267 207.451 92.4533 207.131 93H205.471V82.6H207.271V90.08C207.618 89.5067 208.011 88.88 208.451 88.2C208.891 87.5067 209.344 86.8267 209.811 86.16C210.291 85.48 210.764 84.8333 211.231 84.22C211.711 83.5933 212.158 83.0533 212.571 82.6H214.211Z"
            fill="#0231A1"/>
</svg>
