<svg width="304" height="100" viewBox="0 0 304 100" fill="none" xmlns="http://www.w3.org/2000/svg">
    <rect x="22" width="282" height="100" rx="10" fill="#CCD3E4"/>
    <path
            d="M32.8495 41V27.14H41.3095V28.8H34.7895V32.92H40.5895V34.54H34.7895V39.34H41.8095V41H32.8495ZM44.6553 30.9C45.082 30.7933 45.642 30.68 46.3353 30.56C47.042 30.44 47.8553 30.38 48.7753 30.38C49.442 30.38 50.002 30.4733 50.4553 30.66C50.9086 30.8333 51.2886 31.0933 51.5953 31.44C51.6886 31.3733 51.8353 31.28 52.0353 31.16C52.2353 31.04 52.482 30.9267 52.7753 30.82C53.0686 30.7 53.3953 30.6 53.7553 30.52C54.1153 30.4267 54.502 30.38 54.9153 30.38C55.7153 30.38 56.3686 30.5 56.8753 30.74C57.382 30.9667 57.7753 31.2933 58.0553 31.72C58.3486 32.1467 58.542 32.6533 58.6353 33.24C58.742 33.8267 58.7953 34.4667 58.7953 35.16V41H56.9353V35.56C56.9353 34.9467 56.902 34.42 56.8353 33.98C56.782 33.54 56.6686 33.1733 56.4953 32.88C56.3353 32.5867 56.1086 32.3733 55.8153 32.24C55.5353 32.0933 55.1686 32.02 54.7153 32.02C54.0886 32.02 53.5686 32.1067 53.1553 32.28C52.7553 32.44 52.482 32.5867 52.3353 32.72C52.442 33.0667 52.522 33.4467 52.5753 33.86C52.6286 34.2733 52.6553 34.7067 52.6553 35.16V41H50.7953V35.56C50.7953 34.9467 50.762 34.42 50.6953 33.98C50.6286 33.54 50.5086 33.1733 50.3353 32.88C50.1753 32.5867 49.9486 32.3733 49.6553 32.24C49.3753 32.0933 49.0153 32.02 48.5753 32.02C48.3886 32.02 48.1886 32.0267 47.9753 32.04C47.762 32.0533 47.5553 32.0733 47.3553 32.1C47.1686 32.1133 46.9953 32.1333 46.8353 32.16C46.6753 32.1867 46.5686 32.2067 46.5153 32.22V41H44.6553V30.9ZM65.9019 39.66C66.3419 39.66 66.7285 39.6533 67.0619 39.64C67.4085 39.6133 67.6952 39.5733 67.9219 39.52V36.42C67.7885 36.3533 67.5685 36.3 67.2619 36.26C66.9685 36.2067 66.6085 36.18 66.1819 36.18C65.9019 36.18 65.6019 36.2 65.2819 36.24C64.9752 36.28 64.6885 36.3667 64.4219 36.5C64.1685 36.62 63.9552 36.7933 63.7819 37.02C63.6085 37.2333 63.5219 37.52 63.5219 37.88C63.5219 38.5467 63.7352 39.0133 64.1619 39.28C64.5885 39.5333 65.1685 39.66 65.9019 39.66ZM65.7419 30.34C66.4885 30.34 67.1152 30.44 67.6219 30.64C68.1419 30.8267 68.5552 31.1 68.8619 31.46C69.1819 31.8067 69.4085 32.2267 69.5419 32.72C69.6752 33.2 69.7419 33.7333 69.7419 34.32V40.82C69.5819 40.8467 69.3552 40.8867 69.0619 40.94C68.7819 40.98 68.4619 41.02 68.1019 41.06C67.7419 41.1 67.3485 41.1333 66.9219 41.16C66.5085 41.2 66.0952 41.22 65.6819 41.22C65.0952 41.22 64.5552 41.16 64.0619 41.04C63.5685 40.92 63.1419 40.7333 62.7819 40.48C62.4219 40.2133 62.1419 39.8667 61.9419 39.44C61.7419 39.0133 61.6419 38.5 61.6419 37.9C61.6419 37.3267 61.7552 36.8333 61.9819 36.42C62.2219 36.0067 62.5419 35.6733 62.9419 35.42C63.3419 35.1667 63.8085 34.98 64.3419 34.86C64.8752 34.74 65.4352 34.68 66.0219 34.68C66.2085 34.68 66.4019 34.6933 66.6019 34.72C66.8019 34.7333 66.9885 34.76 67.1619 34.8C67.3485 34.8267 67.5085 34.8533 67.6419 34.88C67.7752 34.9067 67.8685 34.9267 67.9219 34.94V34.42C67.9219 34.1133 67.8885 33.8133 67.8219 33.52C67.7552 33.2133 67.6352 32.9467 67.4619 32.72C67.2885 32.48 67.0485 32.2933 66.7419 32.16C66.4485 32.0133 66.0619 31.94 65.5819 31.94C64.9685 31.94 64.4285 31.9867 63.9619 32.08C63.5085 32.16 63.1685 32.2467 62.9419 32.34L62.7219 30.8C62.9619 30.6933 63.3619 30.5933 63.9219 30.5C64.4819 30.3933 65.0885 30.34 65.7419 30.34ZM75.1911 41H73.3311V30.6H75.1911V41ZM74.2511 28.72C73.9177 28.72 73.6311 28.6133 73.3911 28.4C73.1644 28.1733 73.0511 27.8733 73.0511 27.5C73.0511 27.1267 73.1644 26.8333 73.3911 26.62C73.6311 26.3933 73.9177 26.28 74.2511 26.28C74.5844 26.28 74.8644 26.3933 75.0911 26.62C75.3311 26.8333 75.4511 27.1267 75.4511 27.5C75.4511 27.8733 75.3311 28.1733 75.0911 28.4C74.8644 28.6133 74.5844 28.72 74.2511 28.72ZM82.0097 41.2C80.863 41.1733 80.0497 40.9267 79.5697 40.46C79.0897 39.9933 78.8497 39.2667 78.8497 38.28V25.8L80.7097 25.48V37.98C80.7097 38.2867 80.7363 38.54 80.7897 38.74C80.843 38.94 80.9297 39.1 81.0497 39.22C81.1697 39.34 81.3297 39.4333 81.5297 39.5C81.7297 39.5533 81.9763 39.6 82.2697 39.64L82.0097 41.2ZM97.3273 30.6V32.16H93.9473V41H92.0873V32.16H88.7073V30.6H97.3273ZM106.965 35.82C106.965 34.6067 106.665 33.6733 106.065 33.02C105.465 32.3667 104.665 32.04 103.665 32.04C103.105 32.04 102.665 32.06 102.345 32.1C102.038 32.14 101.792 32.1867 101.605 32.24V38.8C101.832 38.9867 102.158 39.1667 102.585 39.34C103.012 39.5133 103.478 39.6 103.985 39.6C104.518 39.6 104.972 39.5067 105.345 39.32C105.732 39.12 106.045 38.8533 106.285 38.52C106.525 38.1733 106.698 37.7733 106.805 37.32C106.912 36.8533 106.965 36.3533 106.965 35.82ZM108.905 35.82C108.905 36.6067 108.798 37.3333 108.585 38C108.385 38.6667 108.085 39.24 107.685 39.72C107.285 40.2 106.792 40.5733 106.205 40.84C105.632 41.1067 104.972 41.24 104.225 41.24C103.625 41.24 103.092 41.16 102.625 41C102.172 40.84 101.832 40.6867 101.605 40.54V44.7H99.7451V30.92C100.185 30.8133 100.732 30.7 101.385 30.58C102.052 30.4467 102.818 30.38 103.685 30.38C104.485 30.38 105.205 30.5067 105.845 30.76C106.485 31.0133 107.032 31.3733 107.485 31.84C107.938 32.3067 108.285 32.88 108.525 33.56C108.778 34.2267 108.905 34.98 108.905 35.82ZM111.442 35.82C111.442 34.9 111.576 34.1 111.842 33.42C112.109 32.7267 112.462 32.1533 112.902 31.7C113.342 31.2467 113.849 30.9067 114.422 30.68C114.996 30.4533 115.582 30.34 116.182 30.34C117.582 30.34 118.656 30.78 119.402 31.66C120.149 32.5267 120.522 33.8533 120.522 35.64C120.522 35.72 120.522 35.8267 120.522 35.96C120.522 36.08 120.516 36.1933 120.502 36.3H113.382C113.462 37.38 113.776 38.2 114.322 38.76C114.869 39.32 115.722 39.6 116.882 39.6C117.536 39.6 118.082 39.5467 118.522 39.44C118.976 39.32 119.316 39.2067 119.542 39.1L119.802 40.66C119.576 40.78 119.176 40.9067 118.602 41.04C118.042 41.1733 117.402 41.24 116.682 41.24C115.776 41.24 114.989 41.1067 114.322 40.84C113.669 40.56 113.129 40.18 112.702 39.7C112.276 39.22 111.956 38.6533 111.742 38C111.542 37.3333 111.442 36.6067 111.442 35.82ZM118.582 34.8C118.596 33.96 118.382 33.2733 117.942 32.74C117.516 32.1933 116.922 31.92 116.162 31.92C115.736 31.92 115.356 32.0067 115.022 32.18C114.702 32.34 114.429 32.5533 114.202 32.82C113.976 33.0867 113.796 33.3933 113.662 33.74C113.542 34.0867 113.462 34.44 113.422 34.8H118.582ZM125.374 31.8C125.788 31.4667 126.268 31.2133 126.814 31.04C127.374 30.8533 127.908 30.76 128.414 30.76C129.908 30.76 131.034 31.22 131.794 32.14C132.568 33.0467 132.954 34.3133 132.954 35.94C132.954 36.6333 132.861 37.3 132.674 37.94C132.488 38.58 132.194 39.1467 131.794 39.64C131.408 40.1333 130.914 40.5267 130.314 40.82C129.714 41.1133 129.001 41.26 128.174 41.26C127.228 41.26 126.441 41.0867 125.814 40.74C125.188 40.3933 124.688 39.92 124.314 39.32C123.954 38.72 123.701 38.02 123.554 37.22C123.408 36.42 123.334 35.5733 123.334 34.68C123.334 33.52 123.414 32.44 123.574 31.44C123.748 30.44 124.054 29.56 124.494 28.8C124.934 28.04 125.541 27.4133 126.314 26.92C127.101 26.4133 128.108 26.0733 129.334 25.9C129.694 25.8467 130.008 25.8067 130.274 25.78C130.554 25.74 130.794 25.7067 130.994 25.68C131.208 25.6533 131.401 25.6267 131.574 25.6C131.748 25.56 131.928 25.52 132.114 25.48L132.314 27.16C132.221 27.1867 132.121 27.2067 132.014 27.22C131.921 27.2333 131.781 27.2533 131.594 27.28C131.421 27.3067 131.181 27.34 130.874 27.38C130.581 27.42 130.194 27.4667 129.714 27.52C128.394 27.6667 127.381 28.0667 126.674 28.72C125.968 29.3733 125.534 30.4 125.374 31.8ZM125.254 34.98C125.254 35.6067 125.294 36.2 125.374 36.76C125.468 37.32 125.621 37.8133 125.834 38.24C126.061 38.6667 126.361 39.0067 126.734 39.26C127.108 39.5 127.588 39.62 128.174 39.62C128.681 39.62 129.114 39.5267 129.474 39.34C129.834 39.14 130.128 38.8733 130.354 38.54C130.581 38.2067 130.748 37.82 130.854 37.38C130.961 36.9267 131.014 36.4467 131.014 35.94C131.014 35.4867 130.968 35.0467 130.874 34.62C130.794 34.1933 130.641 33.8133 130.414 33.48C130.188 33.1467 129.881 32.88 129.494 32.68C129.121 32.48 128.648 32.38 128.074 32.38C127.514 32.38 126.974 32.5 126.454 32.74C125.948 32.98 125.554 33.2733 125.274 33.62C125.261 33.7667 125.254 33.9733 125.254 34.24C125.254 34.5067 125.254 34.7533 125.254 34.98ZM134.869 42.94C135.016 43.0067 135.202 43.0667 135.429 43.12C135.669 43.1867 135.902 43.22 136.129 43.22C136.862 43.22 137.436 43.0533 137.849 42.72C138.262 42.4 138.636 41.8733 138.969 41.14C138.129 39.54 137.342 37.8467 136.609 36.06C135.889 34.26 135.289 32.44 134.809 30.6H136.809C136.956 31.2 137.129 31.8467 137.329 32.54C137.542 33.2333 137.776 33.9467 138.029 34.68C138.282 35.4133 138.556 36.1467 138.849 36.88C139.142 37.6133 139.449 38.32 139.769 39C140.276 37.6 140.716 36.2133 141.089 34.84C141.462 33.4667 141.816 32.0533 142.149 30.6H144.069C143.589 32.56 143.056 34.4467 142.469 36.26C141.882 38.06 141.249 39.7467 140.569 41.32C140.302 41.92 140.022 42.4333 139.729 42.86C139.449 43.3 139.136 43.66 138.789 43.94C138.442 44.22 138.049 44.4267 137.609 44.56C137.182 44.6933 136.696 44.76 136.149 44.76C136.002 44.76 135.849 44.7467 135.689 44.72C135.529 44.7067 135.369 44.68 135.209 44.64C135.062 44.6133 134.922 44.58 134.789 44.54C134.669 44.5 134.582 44.4667 134.529 44.44L134.869 42.94ZM145.716 35.82C145.716 34.9 145.849 34.1 146.116 33.42C146.383 32.7267 146.736 32.1533 147.176 31.7C147.616 31.2467 148.123 30.9067 148.696 30.68C149.269 30.4533 149.856 30.34 150.456 30.34C151.856 30.34 152.929 30.78 153.676 31.66C154.423 32.5267 154.796 33.8533 154.796 35.64C154.796 35.72 154.796 35.8267 154.796 35.96C154.796 36.08 154.789 36.1933 154.776 36.3H147.656C147.736 37.38 148.049 38.2 148.596 38.76C149.143 39.32 149.996 39.6 151.156 39.6C151.809 39.6 152.356 39.5467 152.796 39.44C153.249 39.32 153.589 39.2067 153.816 39.1L154.076 40.66C153.849 40.78 153.449 40.9067 152.876 41.04C152.316 41.1733 151.676 41.24 150.956 41.24C150.049 41.24 149.263 41.1067 148.596 40.84C147.943 40.56 147.403 40.18 146.976 39.7C146.549 39.22 146.229 38.6533 146.016 38C145.816 37.3333 145.716 36.6067 145.716 35.82ZM152.856 34.8C152.869 33.96 152.656 33.2733 152.216 32.74C151.789 32.1933 151.196 31.92 150.436 31.92C150.009 31.92 149.629 32.0067 149.296 32.18C148.976 32.34 148.703 32.5533 148.476 32.82C148.249 33.0867 148.069 33.3933 147.936 33.74C147.816 34.0867 147.736 34.44 147.696 34.8H152.856ZM165.308 30.6V32.16H161.928V41H160.068V32.16H156.688V30.6H165.308ZM172.246 41.24C171.406 41.24 170.666 41.1067 170.026 40.84C169.399 40.5733 168.866 40.2 168.426 39.72C167.999 39.24 167.679 38.6733 167.466 38.02C167.252 37.3533 167.146 36.62 167.146 35.82C167.146 35.02 167.259 34.2867 167.486 33.62C167.726 32.9533 168.059 32.38 168.486 31.9C168.912 31.4067 169.432 31.0267 170.046 30.76C170.672 30.48 171.366 30.34 172.126 30.34C172.592 30.34 173.059 30.38 173.526 30.46C173.992 30.54 174.439 30.6667 174.866 30.84L174.446 32.42C174.166 32.2867 173.839 32.18 173.466 32.1C173.106 32.02 172.719 31.98 172.306 31.98C171.266 31.98 170.466 32.3067 169.906 32.96C169.359 33.6133 169.086 34.5667 169.086 35.82C169.086 36.38 169.146 36.8933 169.266 37.36C169.399 37.8267 169.599 38.2267 169.866 38.56C170.146 38.8933 170.499 39.1533 170.926 39.34C171.352 39.5133 171.872 39.6 172.486 39.6C172.979 39.6 173.426 39.5533 173.826 39.46C174.226 39.3667 174.539 39.2667 174.766 39.16L175.026 40.72C174.919 40.7867 174.766 40.8533 174.566 40.92C174.366 40.9733 174.139 41.02 173.886 41.06C173.632 41.1133 173.359 41.1533 173.066 41.18C172.786 41.22 172.512 41.24 172.246 41.24ZM181.822 36.96C181.622 36.96 181.429 36.96 181.242 36.96C181.056 36.9467 180.876 36.9333 180.702 36.92C180.276 37.56 179.862 38.2467 179.462 38.98C179.076 39.7 178.729 40.3733 178.422 41H176.542C176.702 40.6133 176.889 40.22 177.102 39.82C177.316 39.4067 177.529 39.0067 177.742 38.62C177.969 38.2333 178.196 37.8667 178.422 37.52C178.649 37.1733 178.862 36.86 179.062 36.58C178.689 36.4467 178.382 36.2867 178.142 36.1C177.902 35.9 177.709 35.68 177.562 35.44C177.416 35.2 177.309 34.9467 177.242 34.68C177.189 34.4 177.162 34.12 177.162 33.84C177.162 33.2533 177.269 32.74 177.482 32.3C177.709 31.86 178.016 31.5 178.402 31.22C178.789 30.9267 179.242 30.7067 179.762 30.56C180.296 30.4133 180.876 30.34 181.502 30.34C182.382 30.34 183.129 30.38 183.742 30.46C184.356 30.54 184.869 30.6333 185.282 30.74V41H183.442V36.96H181.822ZM183.442 31.98C183.296 31.9533 183.049 31.9267 182.702 31.9C182.369 31.8733 181.982 31.86 181.542 31.86C180.782 31.86 180.169 32.02 179.702 32.34C179.236 32.6467 179.002 33.14 179.002 33.82C179.002 34.4867 179.242 34.9467 179.722 35.2C180.202 35.4533 180.822 35.58 181.582 35.58H183.442V31.98ZM190.94 38.72C190.953 38.8267 190.96 38.9333 190.96 39.04C190.96 39.1333 190.96 39.2333 190.96 39.34C190.96 40.18 190.833 41.0067 190.58 41.82C190.34 42.6467 190.006 43.4333 189.58 44.18L188.14 43.72C188.473 43.04 188.693 42.3467 188.8 41.64C188.906 40.9467 188.96 40.2933 188.96 39.68C188.96 39.5067 188.953 39.34 188.94 39.18C188.94 39.02 188.933 38.8667 188.92 38.72H190.94ZM200.71 30.6V33.66C200.71 34.4467 200.91 35 201.31 35.32C201.71 35.6267 202.257 35.78 202.95 35.78C203.457 35.78 203.877 35.7533 204.21 35.7C204.557 35.6467 204.864 35.5867 205.13 35.52V30.6H206.99V41H205.13V36.96C205.024 36.9867 204.884 37.02 204.71 37.06C204.537 37.1 204.337 37.14 204.11 37.18C203.897 37.2067 203.67 37.2333 203.43 37.26C203.19 37.2867 202.957 37.3 202.73 37.3C202.157 37.3 201.63 37.24 201.15 37.12C200.684 37 200.277 36.8 199.93 36.52C199.597 36.24 199.33 35.8733 199.13 35.42C198.944 34.9533 198.85 34.3733 198.85 33.68V30.6H200.71ZM218.034 30.6V32.16H214.654V41H212.794V32.16H209.414V30.6H218.034ZM229.632 35.8C229.632 36.6267 229.512 37.3733 229.272 38.04C229.032 38.7067 228.692 39.28 228.252 39.76C227.826 40.24 227.312 40.6133 226.712 40.88C226.112 41.1333 225.459 41.26 224.752 41.26C224.046 41.26 223.392 41.1333 222.792 40.88C222.192 40.6133 221.672 40.24 221.232 39.76C220.806 39.28 220.472 38.7067 220.232 38.04C219.992 37.3733 219.872 36.6267 219.872 35.8C219.872 34.9867 219.992 34.2467 220.232 33.58C220.472 32.9 220.806 32.32 221.232 31.84C221.672 31.36 222.192 30.9933 222.792 30.74C223.392 30.4733 224.046 30.34 224.752 30.34C225.459 30.34 226.112 30.4733 226.712 30.74C227.312 30.9933 227.826 31.36 228.252 31.84C228.692 32.32 229.032 32.9 229.272 33.58C229.512 34.2467 229.632 34.9867 229.632 35.8ZM227.692 35.8C227.692 34.6267 227.426 33.7 226.892 33.02C226.372 32.3267 225.659 31.98 224.752 31.98C223.846 31.98 223.126 32.3267 222.592 33.02C222.072 33.7 221.812 34.6267 221.812 35.8C221.812 36.9733 222.072 37.9067 222.592 38.6C223.126 39.28 223.846 39.62 224.752 39.62C225.659 39.62 226.372 39.28 226.892 38.6C227.426 37.9067 227.692 36.9733 227.692 35.8ZM234.429 31.8C234.842 31.4667 235.322 31.2133 235.869 31.04C236.429 30.8533 236.962 30.76 237.469 30.76C238.962 30.76 240.089 31.22 240.849 32.14C241.622 33.0467 242.009 34.3133 242.009 35.94C242.009 36.6333 241.916 37.3 241.729 37.94C241.542 38.58 241.249 39.1467 240.849 39.64C240.462 40.1333 239.969 40.5267 239.369 40.82C238.769 41.1133 238.056 41.26 237.229 41.26C236.282 41.26 235.496 41.0867 234.869 40.74C234.242 40.3933 233.742 39.92 233.369 39.32C233.009 38.72 232.756 38.02 232.609 37.22C232.462 36.42 232.389 35.5733 232.389 34.68C232.389 33.52 232.469 32.44 232.629 31.44C232.802 30.44 233.109 29.56 233.549 28.8C233.989 28.04 234.596 27.4133 235.369 26.92C236.156 26.4133 237.162 26.0733 238.389 25.9C238.749 25.8467 239.062 25.8067 239.329 25.78C239.609 25.74 239.849 25.7067 240.049 25.68C240.262 25.6533 240.456 25.6267 240.629 25.6C240.802 25.56 240.982 25.52 241.169 25.48L241.369 27.16C241.276 27.1867 241.176 27.2067 241.069 27.22C240.976 27.2333 240.836 27.2533 240.649 27.28C240.476 27.3067 240.236 27.34 239.929 27.38C239.636 27.42 239.249 27.4667 238.769 27.52C237.449 27.6667 236.436 28.0667 235.729 28.72C235.022 29.3733 234.589 30.4 234.429 31.8ZM234.309 34.98C234.309 35.6067 234.349 36.2 234.429 36.76C234.522 37.32 234.676 37.8133 234.889 38.24C235.116 38.6667 235.416 39.0067 235.789 39.26C236.162 39.5 236.642 39.62 237.229 39.62C237.736 39.62 238.169 39.5267 238.529 39.34C238.889 39.14 239.182 38.8733 239.409 38.54C239.636 38.2067 239.802 37.82 239.909 37.38C240.016 36.9267 240.069 36.4467 240.069 35.94C240.069 35.4867 240.022 35.0467 239.929 34.62C239.849 34.1933 239.696 33.8133 239.469 33.48C239.242 33.1467 238.936 32.88 238.549 32.68C238.176 32.48 237.702 32.38 237.129 32.38C236.569 32.38 236.029 32.5 235.509 32.74C235.002 32.98 234.609 33.2733 234.329 33.62C234.316 33.7667 234.309 33.9733 234.309 34.24C234.309 34.5067 234.309 34.7533 234.309 34.98ZM248.964 35.86C248.604 35.86 248.25 35.8733 247.904 35.9C247.57 35.9133 247.27 35.9533 247.004 36.02V39.6C247.084 39.6133 247.197 39.6267 247.344 39.64C247.504 39.6533 247.67 39.6667 247.844 39.68C248.03 39.68 248.217 39.6867 248.404 39.7C248.59 39.7 248.757 39.7 248.904 39.7C249.717 39.7 250.344 39.5467 250.784 39.24C251.224 38.9333 251.444 38.44 251.444 37.76C251.444 37.4267 251.37 37.14 251.224 36.9C251.09 36.66 250.904 36.4667 250.664 36.32C250.437 36.16 250.177 36.0467 249.884 35.98C249.59 35.9 249.284 35.86 248.964 35.86ZM245.144 30.6H247.004V34.58C247.23 34.5267 247.557 34.4733 247.984 34.42C248.424 34.3667 248.844 34.34 249.244 34.34C249.79 34.34 250.31 34.4067 250.804 34.54C251.297 34.66 251.73 34.86 252.104 35.14C252.477 35.4067 252.77 35.76 252.984 36.2C253.21 36.6267 253.324 37.14 253.324 37.74C253.324 38.3667 253.217 38.9 253.004 39.34C252.79 39.78 252.49 40.14 252.104 40.42C251.717 40.7 251.25 40.9 250.704 41.02C250.157 41.1533 249.557 41.22 248.904 41.22C248.277 41.22 247.644 41.18 247.004 41.1C246.364 41.0333 245.744 40.9267 245.144 40.78V30.6ZM257.104 41H255.244V30.6H257.104V41ZM267.749 39.6C267.829 39.6133 267.942 39.6267 268.089 39.64C268.235 39.6533 268.402 39.6667 268.589 39.68C268.775 39.68 268.969 39.6867 269.169 39.7C269.382 39.7 269.582 39.7 269.769 39.7C270.155 39.7 270.522 39.6733 270.869 39.62C271.229 39.5667 271.535 39.4733 271.789 39.34C272.055 39.2067 272.262 39.0333 272.409 38.82C272.569 38.5933 272.649 38.3067 272.649 37.96C272.649 37.6267 272.575 37.3533 272.429 37.14C272.295 36.9133 272.109 36.7333 271.869 36.6C271.629 36.4667 271.342 36.3733 271.009 36.32C270.689 36.2667 270.342 36.24 269.969 36.24H267.749V39.6ZM269.729 34.86C270.089 34.86 270.415 34.84 270.709 34.8C271.015 34.7467 271.275 34.66 271.489 34.54C271.715 34.42 271.889 34.26 272.009 34.06C272.142 33.86 272.209 33.6067 272.209 33.3C272.209 32.98 272.129 32.7267 271.969 32.54C271.809 32.3533 271.595 32.2133 271.329 32.12C271.075 32.0133 270.782 31.9467 270.449 31.92C270.129 31.88 269.802 31.86 269.469 31.86C269.162 31.86 268.849 31.8667 268.529 31.88C268.222 31.8933 267.962 31.9067 267.749 31.92V34.86H269.729ZM269.689 41.18C268.902 41.18 268.175 41.14 267.509 41.06C266.842 40.9933 266.315 40.9133 265.929 40.82V30.7C266.315 30.6067 266.842 30.5267 267.509 30.46C268.175 30.38 268.902 30.34 269.689 30.34C270.235 30.34 270.769 30.3867 271.289 30.48C271.809 30.5733 272.269 30.7333 272.669 30.96C273.069 31.1733 273.389 31.4733 273.629 31.86C273.882 32.2333 274.009 32.7 274.009 33.26C274.009 33.7667 273.882 34.2 273.629 34.56C273.375 34.92 273.035 35.2 272.609 35.4C273.182 35.6 273.635 35.9 273.969 36.3C274.315 36.6867 274.489 37.2333 274.489 37.94C274.489 38.5667 274.362 39.0867 274.109 39.5C273.869 39.9133 273.529 40.2467 273.089 40.5C272.662 40.7533 272.155 40.9267 271.569 41.02C270.982 41.1267 270.355 41.18 269.689 41.18ZM34.4095 47.8C34.8229 47.4667 35.3029 47.2133 35.8495 47.04C36.4095 46.8533 36.9429 46.76 37.4495 46.76C38.9429 46.76 40.0695 47.22 40.8295 48.14C41.6029 49.0467 41.9895 50.3133 41.9895 51.94C41.9895 52.6333 41.8962 53.3 41.7095 53.94C41.5229 54.58 41.2295 55.1467 40.8295 55.64C40.4429 56.1333 39.9495 56.5267 39.3495 56.82C38.7495 57.1133 38.0362 57.26 37.2095 57.26C36.2629 57.26 35.4762 57.0867 34.8495 56.74C34.2229 56.3933 33.7229 55.92 33.3495 55.32C32.9895 54.72 32.7362 54.02 32.5895 53.22C32.4429 52.42 32.3695 51.5733 32.3695 50.68C32.3695 49.52 32.4495 48.44 32.6095 47.44C32.7829 46.44 33.0895 45.56 33.5295 44.8C33.9695 44.04 34.5762 43.4133 35.3495 42.92C36.1362 42.4133 37.1429 42.0733 38.3695 41.9C38.7295 41.8467 39.0429 41.8067 39.3095 41.78C39.5895 41.74 39.8295 41.7067 40.0295 41.68C40.2429 41.6533 40.4362 41.6267 40.6095 41.6C40.7829 41.56 40.9629 41.52 41.1495 41.48L41.3495 43.16C41.2562 43.1867 41.1562 43.2067 41.0495 43.22C40.9562 43.2333 40.8162 43.2533 40.6295 43.28C40.4562 43.3067 40.2162 43.34 39.9095 43.38C39.6162 43.42 39.2295 43.4667 38.7495 43.52C37.4295 43.6667 36.4162 44.0667 35.7095 44.72C35.0029 45.3733 34.5695 46.4 34.4095 47.8ZM34.2895 50.98C34.2895 51.6067 34.3295 52.2 34.4095 52.76C34.5029 53.32 34.6562 53.8133 34.8695 54.24C35.0962 54.6667 35.3962 55.0067 35.7695 55.26C36.1429 55.5 36.6229 55.62 37.2095 55.62C37.7162 55.62 38.1495 55.5267 38.5095 55.34C38.8695 55.14 39.1629 54.8733 39.3895 54.54C39.6162 54.2067 39.7829 53.82 39.8895 53.38C39.9962 52.9267 40.0495 52.4467 40.0495 51.94C40.0495 51.4867 40.0029 51.0467 39.9095 50.62C39.8295 50.1933 39.6762 49.8133 39.4495 49.48C39.2229 49.1467 38.9162 48.88 38.5295 48.68C38.1562 48.48 37.6829 48.38 37.1095 48.38C36.5495 48.38 36.0095 48.5 35.4895 48.74C34.9829 48.98 34.5895 49.2733 34.3095 49.62C34.2962 49.7667 34.2895 49.9733 34.2895 50.24C34.2895 50.5067 34.2895 50.7533 34.2895 50.98ZM43.904 58.94C44.0507 59.0067 44.2374 59.0667 44.464 59.12C44.704 59.1867 44.9374 59.22 45.164 59.22C45.8974 59.22 46.4707 59.0533 46.884 58.72C47.2974 58.4 47.6707 57.8733 48.004 57.14C47.164 55.54 46.3774 53.8467 45.644 52.06C44.924 50.26 44.324 48.44 43.844 46.6H45.844C45.9907 47.2 46.164 47.8467 46.364 48.54C46.5774 49.2333 46.8107 49.9467 47.064 50.68C47.3174 51.4133 47.5907 52.1467 47.884 52.88C48.1774 53.6133 48.484 54.32 48.804 55C49.3107 53.6 49.7507 52.2133 50.124 50.84C50.4974 49.4667 50.8507 48.0533 51.184 46.6H53.104C52.624 48.56 52.0907 50.4467 51.504 52.26C50.9174 54.06 50.284 55.7467 49.604 57.32C49.3374 57.92 49.0574 58.4333 48.764 58.86C48.484 59.3 48.1707 59.66 47.824 59.94C47.4774 60.22 47.084 60.4267 46.644 60.56C46.2174 60.6933 45.7307 60.76 45.184 60.76C45.0374 60.76 44.884 60.7467 44.724 60.72C44.564 60.7067 44.404 60.68 44.244 60.64C44.0974 60.6133 43.9574 60.58 43.824 60.54C43.704 60.5 43.6174 60.4667 43.564 60.44L43.904 58.94ZM53.7776 55.48H54.8976C55.3376 54.84 55.6843 54.18 55.9376 53.5C56.2043 52.82 56.4043 52.12 56.5376 51.4C56.671 50.6667 56.7576 49.9067 56.7976 49.12C56.8376 48.32 56.8643 47.48 56.8776 46.6H63.6976V55.48H65.0976V59.9H63.3376V57H55.5376V59.9H53.7776V55.48ZM61.8376 55.48V48.16H58.5776C58.5643 48.7867 58.531 49.42 58.4776 50.06C58.4243 50.6867 58.3376 51.3133 58.2176 51.94C58.0976 52.5533 57.9243 53.16 57.6976 53.76C57.4843 54.3467 57.211 54.92 56.8776 55.48H61.8376ZM66.8767 58.94C67.0234 59.0067 67.21 59.0667 67.4367 59.12C67.6767 59.1867 67.91 59.22 68.1367 59.22C68.87 59.22 69.4434 59.0533 69.8567 58.72C70.27 58.4 70.6434 57.8733 70.9767 57.14C70.1367 55.54 69.35 53.8467 68.6167 52.06C67.8967 50.26 67.2967 48.44 66.8167 46.6H68.8167C68.9634 47.2 69.1367 47.8467 69.3367 48.54C69.55 49.2333 69.7834 49.9467 70.0367 50.68C70.29 51.4133 70.5634 52.1467 70.8567 52.88C71.15 53.6133 71.4567 54.32 71.7767 55C72.2834 53.6 72.7234 52.2133 73.0967 50.84C73.47 49.4667 73.8234 48.0533 74.1567 46.6H76.0767C75.5967 48.56 75.0634 50.4467 74.4767 52.26C73.89 54.06 73.2567 55.7467 72.5767 57.32C72.31 57.92 72.03 58.4333 71.7367 58.86C71.4567 59.3 71.1434 59.66 70.7967 59.94C70.45 60.22 70.0567 60.4267 69.6167 60.56C69.19 60.6933 68.7034 60.76 68.1567 60.76C68.01 60.76 67.8567 60.7467 67.6967 60.72C67.5367 60.7067 67.3767 60.68 67.2167 60.64C67.07 60.6133 66.93 60.58 66.7967 60.54C66.6767 60.5 66.59 60.4667 66.5367 60.44L66.8767 58.94ZM78.5381 57V46.6H80.3981V55.46H84.2381V46.6H86.0981V55.46H89.9381V46.6H91.7981V55.46H93.1981V59.9H91.4381V57H78.5381ZM95.1378 51.82C95.1378 50.9 95.2711 50.1 95.5378 49.42C95.8045 48.7267 96.1578 48.1533 96.5978 47.7C97.0378 47.2467 97.5445 46.9067 98.1178 46.68C98.6911 46.4533 99.2778 46.34 99.8778 46.34C101.278 46.34 102.351 46.78 103.098 47.66C103.844 48.5267 104.218 49.8533 104.218 51.64C104.218 51.72 104.218 51.8267 104.218 51.96C104.218 52.08 104.211 52.1933 104.198 52.3H97.0778C97.1578 53.38 97.4711 54.2 98.0178 54.76C98.5645 55.32 99.4178 55.6 100.578 55.6C101.231 55.6 101.778 55.5467 102.218 55.44C102.671 55.32 103.011 55.2067 103.238 55.1L103.498 56.66C103.271 56.78 102.871 56.9067 102.298 57.04C101.738 57.1733 101.098 57.24 100.378 57.24C99.4711 57.24 98.6845 57.1067 98.0178 56.84C97.3645 56.56 96.8245 56.18 96.3978 55.7C95.9711 55.22 95.6511 54.6533 95.4378 54C95.2378 53.3333 95.1378 52.6067 95.1378 51.82ZM102.278 50.8C102.291 49.96 102.078 49.2733 101.638 48.74C101.211 48.1933 100.618 47.92 99.8578 47.92C99.4311 47.92 99.0511 48.0067 98.7178 48.18C98.3978 48.34 98.1245 48.5533 97.8978 48.82C97.6711 49.0867 97.4911 49.3933 97.3578 49.74C97.2378 50.0867 97.1578 50.44 97.1178 50.8H102.278ZM109.37 49.34C109.236 50.66 109.136 51.98 109.07 53.3C109.003 54.6067 108.95 55.84 108.91 57H107.13C107.156 56.1867 107.196 55.34 107.25 54.46C107.303 53.5667 107.363 52.6733 107.43 51.78C107.496 50.8733 107.57 49.9867 107.65 49.12C107.73 48.24 107.816 47.4 107.91 46.6H109.61C110.036 47.2933 110.536 48.2467 111.11 49.46C111.683 50.66 112.343 52.0467 113.09 53.62C113.836 52.0467 114.496 50.66 115.07 49.46C115.643 48.2467 116.143 47.2933 116.57 46.6H118.29C118.383 47.4 118.47 48.24 118.55 49.12C118.63 49.9867 118.703 50.8733 118.77 51.78C118.836 52.6733 118.896 53.5667 118.95 54.46C119.003 55.34 119.043 56.1867 119.07 57H117.23C117.19 55.84 117.136 54.6067 117.07 53.3C117.003 51.98 116.903 50.66 116.77 49.34C116.556 49.7533 116.31 50.2533 116.03 50.84C115.75 51.4133 115.47 52 115.19 52.6C114.923 53.2 114.67 53.7733 114.43 54.32C114.19 54.8667 114.003 55.3 113.87 55.62H112.31C112.163 55.2867 111.963 54.8467 111.71 54.3C111.47 53.7533 111.21 53.18 110.93 52.58C110.663 51.9667 110.39 51.3733 110.11 50.8C109.83 50.2133 109.583 49.7267 109.37 49.34ZM129.627 49.34C129.494 50.66 129.394 51.98 129.327 53.3C129.261 54.6067 129.207 55.84 129.167 57H127.387C127.414 56.1867 127.454 55.34 127.507 54.46C127.561 53.5667 127.621 52.6733 127.687 51.78C127.754 50.8733 127.827 49.9867 127.907 49.12C127.987 48.24 128.074 47.4 128.167 46.6H129.867C130.294 47.2933 130.794 48.2467 131.367 49.46C131.941 50.66 132.601 52.0467 133.347 53.62C134.094 52.0467 134.754 50.66 135.327 49.46C135.901 48.2467 136.401 47.2933 136.827 46.6H138.547C138.641 47.4 138.727 48.24 138.807 49.12C138.887 49.9867 138.961 50.8733 139.027 51.78C139.094 52.6733 139.154 53.5667 139.207 54.46C139.261 55.34 139.301 56.1867 139.327 57H137.487C137.447 55.84 137.394 54.6067 137.327 53.3C137.261 51.98 137.161 50.66 137.027 49.34C136.814 49.7533 136.567 50.2533 136.287 50.84C136.007 51.4133 135.727 52 135.447 52.6C135.181 53.2 134.927 53.7733 134.687 54.32C134.447 54.8667 134.261 55.3 134.127 55.62H132.567C132.421 55.2867 132.221 54.8467 131.967 54.3C131.727 53.7533 131.467 53.18 131.187 52.58C130.921 51.9667 130.647 51.3733 130.367 50.8C130.087 50.2133 129.841 49.7267 129.627 49.34ZM151.956 51.8C151.956 52.6267 151.836 53.3733 151.596 54.04C151.356 54.7067 151.016 55.28 150.576 55.76C150.15 56.24 149.636 56.6133 149.036 56.88C148.436 57.1333 147.783 57.26 147.076 57.26C146.37 57.26 145.716 57.1333 145.116 56.88C144.516 56.6133 143.996 56.24 143.556 55.76C143.13 55.28 142.796 54.7067 142.556 54.04C142.316 53.3733 142.196 52.6267 142.196 51.8C142.196 50.9867 142.316 50.2467 142.556 49.58C142.796 48.9 143.13 48.32 143.556 47.84C143.996 47.36 144.516 46.9933 145.116 46.74C145.716 46.4733 146.37 46.34 147.076 46.34C147.783 46.34 148.436 46.4733 149.036 46.74C149.636 46.9933 150.15 47.36 150.576 47.84C151.016 48.32 151.356 48.9 151.596 49.58C151.836 50.2467 151.956 50.9867 151.956 51.8ZM150.016 51.8C150.016 50.6267 149.75 49.7 149.216 49.02C148.696 48.3267 147.983 47.98 147.076 47.98C146.17 47.98 145.45 48.3267 144.916 49.02C144.396 49.7 144.136 50.6267 144.136 51.8C144.136 52.9733 144.396 53.9067 144.916 54.6C145.45 55.28 146.17 55.62 147.076 55.62C147.983 55.62 148.696 55.28 149.216 54.6C149.75 53.9067 150.016 52.9733 150.016 51.8ZM153.793 55.48H154.913C155.353 54.84 155.7 54.18 155.953 53.5C156.22 52.82 156.42 52.12 156.553 51.4C156.687 50.6667 156.773 49.9067 156.813 49.12C156.853 48.32 156.88 47.48 156.893 46.6H163.713V55.48H165.113V59.9H163.353V57H155.553V59.9H153.793V55.48ZM161.853 55.48V48.16H158.593C158.58 48.7867 158.547 49.42 158.493 50.06C158.44 50.6867 158.353 51.3133 158.233 51.94C158.113 52.5533 157.94 53.16 157.713 53.76C157.5 54.3467 157.227 54.92 156.893 55.48H161.853ZM167.044 51.82C167.044 50.9 167.177 50.1 167.444 49.42C167.711 48.7267 168.064 48.1533 168.504 47.7C168.944 47.2467 169.451 46.9067 170.024 46.68C170.597 46.4533 171.184 46.34 171.784 46.34C173.184 46.34 174.257 46.78 175.004 47.66C175.751 48.5267 176.124 49.8533 176.124 51.64C176.124 51.72 176.124 51.8267 176.124 51.96C176.124 52.08 176.117 52.1933 176.104 52.3H168.984C169.064 53.38 169.377 54.2 169.924 54.76C170.471 55.32 171.324 55.6 172.484 55.6C173.137 55.6 173.684 55.5467 174.124 55.44C174.577 55.32 174.917 55.2067 175.144 55.1L175.404 56.66C175.177 56.78 174.777 56.9067 174.204 57.04C173.644 57.1733 173.004 57.24 172.284 57.24C171.377 57.24 170.591 57.1067 169.924 56.84C169.271 56.56 168.731 56.18 168.304 55.7C167.877 55.22 167.557 54.6533 167.344 54C167.144 53.3333 167.044 52.6067 167.044 51.82ZM174.184 50.8C174.197 49.96 173.984 49.2733 173.544 48.74C173.117 48.1933 172.524 47.92 171.764 47.92C171.337 47.92 170.957 48.0067 170.624 48.18C170.304 48.34 170.031 48.5533 169.804 48.82C169.577 49.0867 169.397 49.3933 169.264 49.74C169.144 50.0867 169.064 50.44 169.024 50.8H174.184ZM186.516 51.82C186.516 50.6067 186.216 49.6733 185.616 49.02C185.016 48.3667 184.216 48.04 183.216 48.04C182.656 48.04 182.216 48.06 181.896 48.1C181.589 48.14 181.343 48.1867 181.156 48.24V54.8C181.383 54.9867 181.709 55.1667 182.136 55.34C182.563 55.5133 183.029 55.6 183.536 55.6C184.069 55.6 184.523 55.5067 184.896 55.32C185.283 55.12 185.596 54.8533 185.836 54.52C186.076 54.1733 186.249 53.7733 186.356 53.32C186.463 52.8533 186.516 52.3533 186.516 51.82ZM188.456 51.82C188.456 52.6067 188.349 53.3333 188.136 54C187.936 54.6667 187.636 55.24 187.236 55.72C186.836 56.2 186.343 56.5733 185.756 56.84C185.183 57.1067 184.523 57.24 183.776 57.24C183.176 57.24 182.643 57.16 182.176 57C181.723 56.84 181.383 56.6867 181.156 56.54V60.7H179.296V46.92C179.736 46.8133 180.283 46.7 180.936 46.58C181.603 46.4467 182.369 46.38 183.236 46.38C184.036 46.38 184.756 46.5067 185.396 46.76C186.036 47.0133 186.583 47.3733 187.036 47.84C187.489 48.3067 187.836 48.88 188.076 49.56C188.329 50.2267 188.456 50.98 188.456 51.82ZM195.093 55.66C195.533 55.66 195.92 55.6533 196.253 55.64C196.6 55.6133 196.887 55.5733 197.113 55.52V52.42C196.98 52.3533 196.76 52.3 196.453 52.26C196.16 52.2067 195.8 52.18 195.373 52.18C195.093 52.18 194.793 52.2 194.473 52.24C194.167 52.28 193.88 52.3667 193.613 52.5C193.36 52.62 193.147 52.7933 192.973 53.02C192.8 53.2333 192.713 53.52 192.713 53.88C192.713 54.5467 192.927 55.0133 193.353 55.28C193.78 55.5333 194.36 55.66 195.093 55.66ZM194.933 46.34C195.68 46.34 196.307 46.44 196.813 46.64C197.333 46.8267 197.747 47.1 198.053 47.46C198.373 47.8067 198.6 48.2267 198.733 48.72C198.867 49.2 198.933 49.7333 198.933 50.32V56.82C198.773 56.8467 198.547 56.8867 198.253 56.94C197.973 56.98 197.653 57.02 197.293 57.06C196.933 57.1 196.54 57.1333 196.113 57.16C195.7 57.2 195.287 57.22 194.873 57.22C194.287 57.22 193.747 57.16 193.253 57.04C192.76 56.92 192.333 56.7333 191.973 56.48C191.613 56.2133 191.333 55.8667 191.133 55.44C190.933 55.0133 190.833 54.5 190.833 53.9C190.833 53.3267 190.947 52.8333 191.173 52.42C191.413 52.0067 191.733 51.6733 192.133 51.42C192.533 51.1667 193 50.98 193.533 50.86C194.067 50.74 194.627 50.68 195.213 50.68C195.4 50.68 195.593 50.6933 195.793 50.72C195.993 50.7333 196.18 50.76 196.353 50.8C196.54 50.8267 196.7 50.8533 196.833 50.88C196.967 50.9067 197.06 50.9267 197.113 50.94V50.42C197.113 50.1133 197.08 49.8133 197.013 49.52C196.947 49.2133 196.827 48.9467 196.653 48.72C196.48 48.48 196.24 48.2933 195.933 48.16C195.64 48.0133 195.253 47.94 194.773 47.94C194.16 47.94 193.62 47.9867 193.153 48.08C192.7 48.16 192.36 48.2467 192.133 48.34L191.913 46.8C192.153 46.6933 192.553 46.5933 193.113 46.5C193.673 46.3933 194.28 46.34 194.933 46.34ZM209.862 46.6V48.16H206.482V57H204.622V48.16H201.242V46.6H209.862ZM221.46 51.8C221.46 52.6267 221.34 53.3733 221.1 54.04C220.86 54.7067 220.52 55.28 220.08 55.76C219.654 56.24 219.14 56.6133 218.54 56.88C217.94 57.1333 217.287 57.26 216.58 57.26C215.874 57.26 215.22 57.1333 214.62 56.88C214.02 56.6133 213.5 56.24 213.06 55.76C212.634 55.28 212.3 54.7067 212.06 54.04C211.82 53.3733 211.7 52.6267 211.7 51.8C211.7 50.9867 211.82 50.2467 212.06 49.58C212.3 48.9 212.634 48.32 213.06 47.84C213.5 47.36 214.02 46.9933 214.62 46.74C215.22 46.4733 215.874 46.34 216.58 46.34C217.287 46.34 217.94 46.4733 218.54 46.74C219.14 46.9933 219.654 47.36 220.08 47.84C220.52 48.32 220.86 48.9 221.1 49.58C221.34 50.2467 221.46 50.9867 221.46 51.8ZM219.52 51.8C219.52 50.6267 219.254 49.7 218.72 49.02C218.2 48.3267 217.487 47.98 216.58 47.98C215.674 47.98 214.954 48.3267 214.42 49.02C213.9 49.7 213.64 50.6267 213.64 51.8C213.64 52.9733 213.9 53.9067 214.42 54.6C214.954 55.28 215.674 55.62 216.58 55.62C217.487 55.62 218.2 55.28 218.72 54.6C219.254 53.9067 219.52 52.9733 219.52 51.8ZM231.797 51.82C231.797 50.6067 231.497 49.6733 230.897 49.02C230.297 48.3667 229.497 48.04 228.497 48.04C227.937 48.04 227.497 48.06 227.177 48.1C226.871 48.14 226.624 48.1867 226.437 48.24V54.8C226.664 54.9867 226.991 55.1667 227.417 55.34C227.844 55.5133 228.311 55.6 228.817 55.6C229.351 55.6 229.804 55.5067 230.177 55.32C230.564 55.12 230.877 54.8533 231.117 54.52C231.357 54.1733 231.531 53.7733 231.637 53.32C231.744 52.8533 231.797 52.3533 231.797 51.82ZM233.737 51.82C233.737 52.6067 233.631 53.3333 233.417 54C233.217 54.6667 232.917 55.24 232.517 55.72C232.117 56.2 231.624 56.5733 231.037 56.84C230.464 57.1067 229.804 57.24 229.057 57.24C228.457 57.24 227.924 57.16 227.457 57C227.004 56.84 226.664 56.6867 226.437 56.54V60.7H224.577V46.92C225.017 46.8133 225.564 46.7 226.217 46.58C226.884 46.4467 227.651 46.38 228.517 46.38C229.317 46.38 230.037 46.5067 230.677 46.76C231.317 47.0133 231.864 47.3733 232.317 47.84C232.771 48.3067 233.117 48.88 233.357 49.56C233.611 50.2267 233.737 50.98 233.737 51.82ZM246.503 57.24C245.663 57.24 244.923 57.1067 244.283 56.84C243.657 56.5733 243.123 56.2 242.683 55.72C242.257 55.24 241.937 54.6733 241.723 54.02C241.51 53.3533 241.403 52.62 241.403 51.82C241.403 51.02 241.517 50.2867 241.743 49.62C241.983 48.9533 242.317 48.38 242.743 47.9C243.17 47.4067 243.69 47.0267 244.303 46.76C244.93 46.48 245.623 46.34 246.383 46.34C246.85 46.34 247.317 46.38 247.783 46.46C248.25 46.54 248.697 46.6667 249.123 46.84L248.703 48.42C248.423 48.2867 248.097 48.18 247.723 48.1C247.363 48.02 246.977 47.98 246.563 47.98C245.523 47.98 244.723 48.3067 244.163 48.96C243.617 49.6133 243.343 50.5667 243.343 51.82C243.343 52.38 243.403 52.8933 243.523 53.36C243.657 53.8267 243.857 54.2267 244.123 54.56C244.403 54.8933 244.757 55.1533 245.183 55.34C245.61 55.5133 246.13 55.6 246.743 55.6C247.237 55.6 247.683 55.5533 248.083 55.46C248.483 55.3667 248.797 55.2667 249.023 55.16L249.283 56.72C249.177 56.7867 249.023 56.8533 248.823 56.92C248.623 56.9733 248.397 57.02 248.143 57.06C247.89 57.1133 247.617 57.1533 247.323 57.18C247.043 57.22 246.77 57.24 246.503 57.24ZM253.76 49.34C253.627 50.66 253.527 51.98 253.46 53.3C253.394 54.6067 253.34 55.84 253.3 57H251.52C251.547 56.1867 251.587 55.34 251.64 54.46C251.694 53.5667 251.754 52.6733 251.82 51.78C251.887 50.8733 251.96 49.9867 252.04 49.12C252.12 48.24 252.207 47.4 252.3 46.6H254C254.427 47.2933 254.927 48.2467 255.5 49.46C256.074 50.66 256.734 52.0467 257.48 53.62C258.227 52.0467 258.887 50.66 259.46 49.46C260.034 48.2467 260.534 47.2933 260.96 46.6H262.68C262.774 47.4 262.86 48.24 262.94 49.12C263.02 49.9867 263.094 50.8733 263.16 51.78C263.227 52.6733 263.287 53.5667 263.34 54.46C263.394 55.34 263.434 56.1867 263.46 57H261.62C261.58 55.84 261.527 54.6067 261.46 53.3C261.394 51.98 261.294 50.66 261.16 49.34C260.947 49.7533 260.7 50.2533 260.42 50.84C260.14 51.4133 259.86 52 259.58 52.6C259.314 53.2 259.06 53.7733 258.82 54.32C258.58 54.8667 258.394 55.3 258.26 55.62H256.7C256.554 55.2867 256.354 54.8467 256.1 54.3C255.86 53.7533 255.6 53.18 255.32 52.58C255.054 51.9667 254.78 51.3733 254.5 50.8C254.22 50.2133 253.974 49.7267 253.76 49.34ZM276.089 51.8C276.089 52.6267 275.969 53.3733 275.729 54.04C275.489 54.7067 275.149 55.28 274.709 55.76C274.283 56.24 273.769 56.6133 273.169 56.88C272.569 57.1333 271.916 57.26 271.209 57.26C270.503 57.26 269.849 57.1333 269.249 56.88C268.649 56.6133 268.129 56.24 267.689 55.76C267.263 55.28 266.929 54.7067 266.689 54.04C266.449 53.3733 266.329 52.6267 266.329 51.8C266.329 50.9867 266.449 50.2467 266.689 49.58C266.929 48.9 267.263 48.32 267.689 47.84C268.129 47.36 268.649 46.9933 269.249 46.74C269.849 46.4733 270.503 46.34 271.209 46.34C271.916 46.34 272.569 46.4733 273.169 46.74C273.769 46.9933 274.283 47.36 274.709 47.84C275.149 48.32 275.489 48.9 275.729 49.58C275.969 50.2467 276.089 50.9867 276.089 51.8ZM274.149 51.8C274.149 50.6267 273.883 49.7 273.349 49.02C272.829 48.3267 272.116 47.98 271.209 47.98C270.303 47.98 269.583 48.3267 269.049 49.02C268.529 49.7 268.269 50.6267 268.269 51.8C268.269 52.9733 268.529 53.9067 269.049 54.6C269.583 55.28 270.303 55.62 271.209 55.62C272.116 55.62 272.829 55.28 273.349 54.6C273.883 53.9067 274.149 52.9733 274.149 51.8ZM285.646 48.16H281.066V57H279.206V46.6H285.646V48.16ZM37.2495 73.24C36.4095 73.24 35.6695 73.1067 35.0295 72.84C34.4029 72.5733 33.8695 72.2 33.4295 71.72C33.0029 71.24 32.6829 70.6733 32.4695 70.02C32.2562 69.3533 32.1495 68.62 32.1495 67.82C32.1495 67.02 32.2628 66.2867 32.4895 65.62C32.7295 64.9533 33.0629 64.38 33.4895 63.9C33.9162 63.4067 34.4362 63.0267 35.0495 62.76C35.6762 62.48 36.3695 62.34 37.1295 62.34C37.5962 62.34 38.0629 62.38 38.5295 62.46C38.9962 62.54 39.4429 62.6667 39.8695 62.84L39.4495 64.42C39.1695 64.2867 38.8429 64.18 38.4695 64.1C38.1095 64.02 37.7229 63.98 37.3095 63.98C36.2695 63.98 35.4695 64.3067 34.9095 64.96C34.3629 65.6133 34.0895 66.5667 34.0895 67.82C34.0895 68.38 34.1495 68.8933 34.2695 69.36C34.4029 69.8267 34.6029 70.2267 34.8695 70.56C35.1495 70.8933 35.5029 71.1533 35.9295 71.34C36.3562 71.5133 36.8762 71.6 37.4895 71.6C37.9829 71.6 38.4295 71.5533 38.8295 71.46C39.2295 71.3667 39.5429 71.2667 39.7695 71.16L40.0295 72.72C39.9229 72.7867 39.7695 72.8533 39.5695 72.92C39.3695 72.9733 39.1429 73.02 38.8895 73.06C38.6362 73.1133 38.3629 73.1533 38.0695 73.18C37.7895 73.22 37.5162 73.24 37.2495 73.24ZM44.3464 71.6C44.4264 71.6133 44.5397 71.6267 44.6864 71.64C44.8331 71.6533 44.9997 71.6667 45.1864 71.68C45.3731 71.68 45.5664 71.6867 45.7664 71.7C45.9797 71.7 46.1797 71.7 46.3664 71.7C46.7531 71.7 47.1197 71.6733 47.4664 71.62C47.8264 71.5667 48.1331 71.4733 48.3864 71.34C48.6531 71.2067 48.8597 71.0333 49.0064 70.82C49.1664 70.5933 49.2464 70.3067 49.2464 69.96C49.2464 69.6267 49.1731 69.3533 49.0264 69.14C48.8931 68.9133 48.7064 68.7333 48.4664 68.6C48.2264 68.4667 47.9397 68.3733 47.6064 68.32C47.2864 68.2667 46.9397 68.24 46.5664 68.24H44.3464V71.6ZM46.3264 66.86C46.6864 66.86 47.0131 66.84 47.3064 66.8C47.6131 66.7467 47.8731 66.66 48.0864 66.54C48.3131 66.42 48.4864 66.26 48.6064 66.06C48.7397 65.86 48.8064 65.6067 48.8064 65.3C48.8064 64.98 48.7264 64.7267 48.5664 64.54C48.4064 64.3533 48.1931 64.2133 47.9264 64.12C47.6731 64.0133 47.3797 63.9467 47.0464 63.92C46.7264 63.88 46.3997 63.86 46.0664 63.86C45.7597 63.86 45.4464 63.8667 45.1264 63.88C44.8197 63.8933 44.5597 63.9067 44.3464 63.92V66.86H46.3264ZM46.2864 73.18C45.4997 73.18 44.7731 73.14 44.1064 73.06C43.4397 72.9933 42.9131 72.9133 42.5264 72.82V62.7C42.9131 62.6067 43.4397 62.5267 44.1064 62.46C44.7731 62.38 45.4997 62.34 46.2864 62.34C46.8331 62.34 47.3664 62.3867 47.8864 62.48C48.4064 62.5733 48.8664 62.7333 49.2664 62.96C49.6664 63.1733 49.9864 63.4733 50.2264 63.86C50.4797 64.2333 50.6064 64.7 50.6064 65.26C50.6064 65.7667 50.4797 66.2 50.2264 66.56C49.9731 66.92 49.6331 67.2 49.2064 67.4C49.7797 67.6 50.2331 67.9 50.5664 68.3C50.9131 68.6867 51.0864 69.2333 51.0864 69.94C51.0864 70.5667 50.9597 71.0867 50.7064 71.5C50.4664 71.9133 50.1264 72.2467 49.6864 72.5C49.2597 72.7533 48.7531 72.9267 48.1664 73.02C47.5797 73.1267 46.9531 73.18 46.2864 73.18ZM58.2834 68.96C58.0834 68.96 57.8901 68.96 57.7034 68.96C57.5168 68.9467 57.3368 68.9333 57.1634 68.92C56.7368 69.56 56.3234 70.2467 55.9234 70.98C55.5368 71.7 55.1901 72.3733 54.8834 73H53.0034C53.1634 72.6133 53.3501 72.22 53.5634 71.82C53.7768 71.4067 53.9901 71.0067 54.2034 70.62C54.4301 70.2333 54.6568 69.8667 54.8834 69.52C55.1101 69.1733 55.3234 68.86 55.5234 68.58C55.1501 68.4467 54.8434 68.2867 54.6034 68.1C54.3634 67.9 54.1701 67.68 54.0234 67.44C53.8768 67.2 53.7701 66.9467 53.7034 66.68C53.6501 66.4 53.6234 66.12 53.6234 65.84C53.6234 65.2533 53.7301 64.74 53.9434 64.3C54.1701 63.86 54.4768 63.5 54.8634 63.22C55.2501 62.9267 55.7034 62.7067 56.2234 62.56C56.7568 62.4133 57.3368 62.34 57.9634 62.34C58.8434 62.34 59.5901 62.38 60.2034 62.46C60.8168 62.54 61.3301 62.6333 61.7434 62.74V73H59.9034V68.96H58.2834ZM59.9034 63.98C59.7568 63.9533 59.5101 63.9267 59.1634 63.9C58.8301 63.8733 58.4434 63.86 58.0034 63.86C57.2434 63.86 56.6301 64.02 56.1634 64.34C55.6968 64.6467 55.4634 65.14 55.4634 65.82C55.4634 66.4867 55.7034 66.9467 56.1834 67.2C56.6634 67.4533 57.2834 67.58 58.0434 67.58H59.9034V63.98ZM68.0805 62.34C68.6805 62.34 69.2405 62.4 69.7605 62.52C70.2805 62.64 70.7271 62.82 71.1005 63.06C71.4738 63.3 71.7671 63.6 71.9805 63.96C72.1938 64.32 72.3005 64.74 72.3005 65.22C72.3005 65.5267 72.2471 65.8067 72.1405 66.06C72.0338 66.3133 71.9005 66.54 71.7405 66.74C71.5805 66.94 71.4005 67.1133 71.2005 67.26C71.0138 67.3933 70.8338 67.4867 70.6605 67.54C71.2738 67.7267 71.7538 68.06 72.1005 68.54C72.4605 69.0067 72.6405 69.6 72.6405 70.32C72.6405 71.3067 72.2405 72.04 71.4405 72.52C70.6405 73 69.5538 73.24 68.1805 73.24C67.3405 73.24 66.6138 73.1733 66.0005 73.04C65.4005 72.9067 64.9738 72.78 64.7205 72.66L65.0405 71.08C65.2538 71.16 65.6338 71.2733 66.1805 71.42C66.7405 71.5533 67.4071 71.62 68.1805 71.62C69.0205 71.62 69.6605 71.4933 70.1005 71.24C70.5405 70.9733 70.7605 70.58 70.7605 70.06C70.7605 69.6867 70.6738 69.3867 70.5005 69.16C70.3405 68.92 70.1338 68.74 69.8805 68.62C69.6271 68.5 69.3538 68.42 69.0605 68.38C68.7671 68.34 68.4938 68.32 68.2405 68.32H66.5005V66.84H68.1805C68.4205 66.84 68.6671 66.8267 68.9205 66.8C69.1871 66.76 69.4271 66.6867 69.6405 66.58C69.8671 66.4733 70.0538 66.3267 70.2005 66.14C70.3471 65.94 70.4205 65.68 70.4205 65.36C70.4205 65.1067 70.3538 64.8933 70.2205 64.72C70.1005 64.5333 69.9338 64.38 69.7205 64.26C69.5071 64.14 69.2538 64.0533 68.9605 64C68.6805 63.9333 68.3871 63.9 68.0805 63.9C67.8405 63.9 67.5805 63.92 67.3005 63.96C67.0205 64 66.7471 64.0533 66.4805 64.12C66.2138 64.1733 65.9738 64.2333 65.7605 64.3C65.5471 64.3667 65.3938 64.4267 65.3005 64.48L64.9605 62.88C65.0671 62.84 65.2338 62.7867 65.4605 62.72C65.6871 62.6533 65.9405 62.5933 66.2205 62.54C66.5138 62.4867 66.8205 62.44 67.1405 62.4C67.4605 62.36 67.7738 62.34 68.0805 62.34ZM79.2456 71.66C79.6856 71.66 80.0723 71.6533 80.4056 71.64C80.7523 71.6133 81.0389 71.5733 81.2656 71.52V68.42C81.1323 68.3533 80.9123 68.3 80.6056 68.26C80.3123 68.2067 79.9523 68.18 79.5256 68.18C79.2456 68.18 78.9456 68.2 78.6256 68.24C78.3189 68.28 78.0323 68.3667 77.7656 68.5C77.5123 68.62 77.2989 68.7933 77.1256 69.02C76.9523 69.2333 76.8656 69.52 76.8656 69.88C76.8656 70.5467 77.0789 71.0133 77.5056 71.28C77.9323 71.5333 78.5123 71.66 79.2456 71.66ZM79.0856 62.34C79.8323 62.34 80.4589 62.44 80.9656 62.64C81.4856 62.8267 81.8989 63.1 82.2056 63.46C82.5256 63.8067 82.7523 64.2267 82.8856 64.72C83.0189 65.2 83.0856 65.7333 83.0856 66.32V72.82C82.9256 72.8467 82.6989 72.8867 82.4056 72.94C82.1256 72.98 81.8056 73.02 81.4456 73.06C81.0856 73.1 80.6923 73.1333 80.2656 73.16C79.8523 73.2 79.4389 73.22 79.0256 73.22C78.4389 73.22 77.8989 73.16 77.4056 73.04C76.9123 72.92 76.4856 72.7333 76.1256 72.48C75.7656 72.2133 75.4856 71.8667 75.2856 71.44C75.0856 71.0133 74.9856 70.5 74.9856 69.9C74.9856 69.3267 75.0989 68.8333 75.3256 68.42C75.5656 68.0067 75.8856 67.6733 76.2856 67.42C76.6856 67.1667 77.1523 66.98 77.6856 66.86C78.2189 66.74 78.7789 66.68 79.3656 66.68C79.5523 66.68 79.7456 66.6933 79.9456 66.72C80.1456 66.7333 80.3323 66.76 80.5056 66.8C80.6923 66.8267 80.8523 66.8533 80.9856 66.88C81.1189 66.9067 81.2123 66.9267 81.2656 66.94V66.42C81.2656 66.1133 81.2323 65.8133 81.1656 65.52C81.0989 65.2133 80.9789 64.9467 80.8056 64.72C80.6323 64.48 80.3923 64.2933 80.0856 64.16C79.7923 64.0133 79.4056 63.94 78.9256 63.94C78.3123 63.94 77.7723 63.9867 77.3056 64.08C76.8523 64.16 76.5123 64.2467 76.2856 64.34L76.0656 62.8C76.3056 62.6933 76.7056 62.5933 77.2656 62.5C77.8256 62.3933 78.4323 62.34 79.0856 62.34ZM94.0148 62.6V64.16H90.6348V73H88.7748V64.16H85.3948V62.6H94.0148ZM100.373 71.7C101.159 71.7 101.779 71.5467 102.233 71.24C102.686 70.9333 102.913 70.44 102.913 69.76C102.913 69.4267 102.846 69.14 102.713 68.9C102.579 68.66 102.393 68.4667 102.153 68.32C101.926 68.16 101.659 68.0467 101.353 67.98C101.046 67.9 100.719 67.86 100.373 67.86C100.013 67.86 99.6393 67.8733 99.2526 67.9C98.8793 67.9133 98.5593 67.9533 98.2926 68.02V71.6C98.3726 71.6133 98.4926 71.6267 98.6526 71.64C98.8126 71.6533 98.986 71.6667 99.1726 71.68C99.3726 71.68 99.5726 71.6867 99.7726 71.7C99.986 71.7 100.186 71.7 100.373 71.7ZM96.4326 72.78V62.6H98.2926V66.58C98.3993 66.5533 98.5393 66.5267 98.7126 66.5C98.8993 66.4733 99.0926 66.4467 99.2926 66.42C99.506 66.3933 99.726 66.3733 99.9526 66.36C100.179 66.3467 100.393 66.34 100.593 66.34C101.166 66.34 101.706 66.4067 102.213 66.54C102.719 66.66 103.159 66.86 103.533 67.14C103.919 67.4067 104.226 67.76 104.453 68.2C104.679 68.6267 104.793 69.14 104.793 69.74C104.793 70.3667 104.686 70.9 104.473 71.34C104.259 71.78 103.953 72.14 103.553 72.42C103.153 72.7 102.673 72.9 102.113 73.02C101.566 73.1533 100.953 73.22 100.273 73.22C99.606 73.22 98.9526 73.18 98.3126 73.1C97.6726 73.0333 97.046 72.9267 96.4326 72.78ZM112.019 73.24C111.179 73.24 110.439 73.1067 109.799 72.84C109.172 72.5733 108.639 72.2 108.199 71.72C107.772 71.24 107.452 70.6733 107.239 70.02C107.026 69.3533 106.919 68.62 106.919 67.82C106.919 67.02 107.032 66.2867 107.259 65.62C107.499 64.9533 107.832 64.38 108.259 63.9C108.686 63.4067 109.206 63.0267 109.819 62.76C110.446 62.48 111.139 62.34 111.899 62.34C112.366 62.34 112.832 62.38 113.299 62.46C113.766 62.54 114.212 62.6667 114.639 62.84L114.219 64.42C113.939 64.2867 113.612 64.18 113.239 64.1C112.879 64.02 112.492 63.98 112.079 63.98C111.039 63.98 110.239 64.3067 109.679 64.96C109.132 65.6133 108.859 66.5667 108.859 67.82C108.859 68.38 108.919 68.8933 109.039 69.36C109.172 69.8267 109.372 70.2267 109.639 70.56C109.919 70.8933 110.272 71.1533 110.699 71.34C111.126 71.5133 111.646 71.6 112.259 71.6C112.752 71.6 113.199 71.5533 113.599 71.46C113.999 71.3667 114.312 71.2667 114.539 71.16L114.799 72.72C114.692 72.7867 114.539 72.8533 114.339 72.92C114.139 72.9733 113.912 73.02 113.659 73.06C113.406 73.1133 113.132 73.1533 112.839 73.18C112.559 73.22 112.286 73.24 112.019 73.24ZM121.596 68.96C121.396 68.96 121.203 68.96 121.016 68.96C120.829 68.9467 120.649 68.9333 120.476 68.92C120.049 69.56 119.636 70.2467 119.236 70.98C118.849 71.7 118.503 72.3733 118.196 73H116.316C116.476 72.6133 116.663 72.22 116.876 71.82C117.089 71.4067 117.303 71.0067 117.516 70.62C117.743 70.2333 117.969 69.8667 118.196 69.52C118.423 69.1733 118.636 68.86 118.836 68.58C118.463 68.4467 118.156 68.2867 117.916 68.1C117.676 67.9 117.483 67.68 117.336 67.44C117.189 67.2 117.083 66.9467 117.016 66.68C116.963 66.4 116.936 66.12 116.936 65.84C116.936 65.2533 117.043 64.74 117.256 64.3C117.483 63.86 117.789 63.5 118.176 63.22C118.563 62.9267 119.016 62.7067 119.536 62.56C120.069 62.4133 120.649 62.34 121.276 62.34C122.156 62.34 122.903 62.38 123.516 62.46C124.129 62.54 124.643 62.6333 125.056 62.74V73H123.216V68.96H121.596ZM123.216 63.98C123.069 63.9533 122.823 63.9267 122.476 63.9C122.143 63.8733 121.756 63.86 121.316 63.86C120.556 63.86 119.943 64.02 119.476 64.34C119.009 64.6467 118.776 65.14 118.776 65.82C118.776 66.4867 119.016 66.9467 119.496 67.2C119.976 67.4533 120.596 67.58 121.356 67.58H123.216V63.98ZM138.402 73.24C137.562 73.24 136.822 73.1067 136.182 72.84C135.555 72.5733 135.022 72.2 134.582 71.72C134.155 71.24 133.835 70.6733 133.622 70.02C133.409 69.3533 133.302 68.62 133.302 67.82C133.302 67.02 133.415 66.2867 133.642 65.62C133.882 64.9533 134.215 64.38 134.642 63.9C135.069 63.4067 135.589 63.0267 136.202 62.76C136.829 62.48 137.522 62.34 138.282 62.34C138.749 62.34 139.215 62.38 139.682 62.46C140.149 62.54 140.595 62.6667 141.022 62.84L140.602 64.42C140.322 64.2867 139.995 64.18 139.622 64.1C139.262 64.02 138.875 63.98 138.462 63.98C137.422 63.98 136.622 64.3067 136.062 64.96C135.515 65.6133 135.242 66.5667 135.242 67.82C135.242 68.38 135.302 68.8933 135.422 69.36C135.555 69.8267 135.755 70.2267 136.022 70.56C136.302 70.8933 136.655 71.1533 137.082 71.34C137.509 71.5133 138.029 71.6 138.642 71.6C139.135 71.6 139.582 71.5533 139.982 71.46C140.382 71.3667 140.695 71.2667 140.922 71.16L141.182 72.72C141.075 72.7867 140.922 72.8533 140.722 72.92C140.522 72.9733 140.295 73.02 140.042 73.06C139.789 73.1133 139.515 73.1533 139.222 73.18C138.942 73.22 138.669 73.24 138.402 73.24ZM152.668 73.12C152.388 73.12 152.081 73.1133 151.748 73.1C151.428 73.0867 151.101 73.0667 150.768 73.04C150.448 73.0133 150.128 72.98 149.808 72.94C149.488 72.9 149.194 72.8467 148.928 72.78V59.34C149.194 59.2733 149.488 59.22 149.808 59.18C150.128 59.14 150.448 59.1067 150.768 59.08C151.101 59.0533 151.428 59.0333 151.748 59.02C152.068 59.0067 152.368 59 152.648 59C153.448 59 154.194 59.06 154.888 59.18C155.594 59.3 156.201 59.5067 156.708 59.8C157.228 60.08 157.634 60.4533 157.928 60.92C158.221 61.3867 158.368 61.96 158.368 62.64C158.368 63.4 158.188 64.0267 157.828 64.52C157.468 65 156.988 65.36 156.388 65.6C157.201 65.84 157.848 66.22 158.328 66.74C158.808 67.26 159.048 67.9933 159.048 68.94C159.048 70.3267 158.534 71.3733 157.508 72.08C156.494 72.7733 154.881 73.12 152.668 73.12ZM150.848 66.54V71.42C150.994 71.4333 151.168 71.4467 151.368 71.46C151.541 71.4733 151.741 71.4867 151.968 71.5C152.208 71.5 152.481 71.5 152.788 71.5C153.361 71.5 153.901 71.4667 154.408 71.4C154.928 71.32 155.381 71.1867 155.768 71C156.154 70.8133 156.461 70.5533 156.688 70.22C156.928 69.8867 157.048 69.4667 157.048 68.96C157.048 68.5067 156.961 68.1267 156.788 67.82C156.614 67.5 156.361 67.2467 156.028 67.06C155.708 66.8733 155.321 66.74 154.868 66.66C154.414 66.58 153.908 66.54 153.348 66.54H150.848ZM150.848 64.98H152.888C153.368 64.98 153.821 64.9467 154.248 64.88C154.674 64.8133 155.041 64.6933 155.348 64.52C155.668 64.3467 155.914 64.12 156.088 63.84C156.274 63.56 156.368 63.2067 156.368 62.78C156.368 62.38 156.274 62.0467 156.088 61.78C155.901 61.5 155.641 61.28 155.308 61.12C154.988 60.9467 154.608 60.82 154.168 60.74C153.728 60.66 153.261 60.62 152.768 60.62C152.274 60.62 151.888 60.6267 151.608 60.64C151.328 60.6533 151.074 60.6733 150.848 60.7V64.98ZM165.679 71.66C166.119 71.66 166.506 71.6533 166.839 71.64C167.186 71.6133 167.473 71.5733 167.699 71.52V68.42C167.566 68.3533 167.346 68.3 167.039 68.26C166.746 68.2067 166.386 68.18 165.959 68.18C165.679 68.18 165.379 68.2 165.059 68.24C164.753 68.28 164.466 68.3667 164.199 68.5C163.946 68.62 163.733 68.7933 163.559 69.02C163.386 69.2333 163.299 69.52 163.299 69.88C163.299 70.5467 163.513 71.0133 163.939 71.28C164.366 71.5333 164.946 71.66 165.679 71.66ZM165.519 62.34C166.266 62.34 166.893 62.44 167.399 62.64C167.919 62.8267 168.333 63.1 168.639 63.46C168.959 63.8067 169.186 64.2267 169.319 64.72C169.453 65.2 169.519 65.7333 169.519 66.32V72.82C169.359 72.8467 169.133 72.8867 168.839 72.94C168.559 72.98 168.239 73.02 167.879 73.06C167.519 73.1 167.126 73.1333 166.699 73.16C166.286 73.2 165.873 73.22 165.459 73.22C164.873 73.22 164.333 73.16 163.839 73.04C163.346 72.92 162.919 72.7333 162.559 72.48C162.199 72.2133 161.919 71.8667 161.719 71.44C161.519 71.0133 161.419 70.5 161.419 69.9C161.419 69.3267 161.533 68.8333 161.759 68.42C161.999 68.0067 162.319 67.6733 162.719 67.42C163.119 67.1667 163.586 66.98 164.119 66.86C164.653 66.74 165.213 66.68 165.799 66.68C165.986 66.68 166.179 66.6933 166.379 66.72C166.579 66.7333 166.766 66.76 166.939 66.8C167.126 66.8267 167.286 66.8533 167.419 66.88C167.553 66.9067 167.646 66.9267 167.699 66.94V66.42C167.699 66.1133 167.666 65.8133 167.599 65.52C167.533 65.2133 167.413 64.9467 167.239 64.72C167.066 64.48 166.826 64.2933 166.519 64.16C166.226 64.0133 165.839 63.94 165.359 63.94C164.746 63.94 164.206 63.9867 163.739 64.08C163.286 64.16 162.946 64.2467 162.719 64.34L162.499 62.8C162.739 62.6933 163.139 62.5933 163.699 62.5C164.259 62.3933 164.866 62.34 165.519 62.34ZM175.088 65.34C174.955 66.66 174.855 67.98 174.788 69.3C174.722 70.6067 174.668 71.84 174.628 73H172.848C172.875 72.1867 172.915 71.34 172.968 70.46C173.022 69.5667 173.082 68.6733 173.148 67.78C173.215 66.8733 173.288 65.9867 173.368 65.12C173.448 64.24 173.535 63.4 173.628 62.6H175.328C175.755 63.2933 176.255 64.2467 176.828 65.46C177.402 66.66 178.062 68.0467 178.808 69.62C179.555 68.0467 180.215 66.66 180.788 65.46C181.362 64.2467 181.862 63.2933 182.288 62.6H184.008C184.102 63.4 184.188 64.24 184.268 65.12C184.348 65.9867 184.422 66.8733 184.488 67.78C184.555 68.6733 184.615 69.5667 184.668 70.46C184.722 71.34 184.762 72.1867 184.788 73H182.948C182.908 71.84 182.855 70.6067 182.788 69.3C182.722 67.98 182.622 66.66 182.488 65.34C182.275 65.7533 182.028 66.2533 181.748 66.84C181.468 67.4133 181.188 68 180.908 68.6C180.642 69.2 180.388 69.7733 180.148 70.32C179.908 70.8667 179.722 71.3 179.588 71.62H178.028C177.882 71.2867 177.682 70.8467 177.428 70.3C177.188 69.7533 176.928 69.18 176.648 68.58C176.382 67.9667 176.108 67.3733 175.828 66.8C175.548 66.2133 175.302 65.7267 175.088 65.34ZM196.977 62.6V73H195.177V65.08C194.777 65.5867 194.337 66.18 193.857 66.86C193.377 67.54 192.897 68.2467 192.417 68.98C191.937 69.7 191.477 70.4133 191.037 71.12C190.597 71.8267 190.217 72.4533 189.897 73H188.237V62.6H190.037V70.08C190.384 69.5067 190.777 68.88 191.217 68.2C191.657 67.5067 192.111 66.8267 192.577 66.16C193.057 65.48 193.531 64.8333 193.997 64.22C194.477 63.5933 194.924 63.0533 195.337 62.6H196.977Z"
            fill="#0231A1"/>
    <path
            d="M2.18315 51.7035C1.45963 51.2532 1.09787 51.0281 0.973951 50.7396C0.865736 50.4877 0.865736 50.2023 0.973951 49.9504C1.09787 49.6618 1.45963 49.4367 2.18315 48.9865L23.8221 35.5216C24.6204 35.0249 25.0196 34.7765 25.3489 34.8034C25.6359 34.8269 25.8989 34.973 26.0705 35.2043C26.2674 35.4697 26.2674 35.9398 26.2674 36.8801V63.8099C26.2674 64.7502 26.2674 65.2203 26.0705 65.4857C25.8989 65.717 25.6359 65.8631 25.3489 65.8866C25.0196 65.9135 24.6204 65.6651 23.8221 65.1683L2.18315 51.7035Z"
            fill="#CCD3E4"/>
</svg>
