<svg width="304" height="252" viewBox="0 0 304 252" fill="none" xmlns="http://www.w3.org/2000/svg">
    <rect x="22.3594" width="281.221" height="252" rx="10" fill="#CCD3E4"/>
    <path
            d="M2.18315 31.7035C1.45963 31.2532 1.09787 31.0281 0.973951 30.7396C0.865736 30.4877 0.865736 30.2023 0.973951 29.9504C1.09787 29.6618 1.45963 29.4367 2.18315 28.9865L23.8221 15.5216C24.6204 15.0249 25.0196 14.7765 25.3489 14.8034C25.6359 14.8269 25.8989 14.973 26.0705 15.2043C26.2674 15.4697 26.2674 15.9398 26.2674 16.8801V43.8099C26.2674 44.7502 26.2674 45.2203 26.0705 45.4857C25.8989 45.717 25.6359 45.8631 25.3489 45.8866C25.0196 45.9135 24.6204 45.6651 23.8221 45.1683L2.18315 31.7035Z"
            fill="#CCD3E4"/>
    <path
            d="M2.18315 127.703C1.45963 127.253 1.09787 127.028 0.973951 126.74C0.865736 126.488 0.865736 126.202 0.973951 125.95C1.09787 125.662 1.45963 125.437 2.18315 124.987L23.8221 111.522C24.6204 111.025 25.0196 110.776 25.3489 110.803C25.6359 110.827 25.8989 110.973 26.0705 111.204C26.2674 111.47 26.2674 111.94 26.2674 112.88V139.81C26.2674 140.75 26.2674 141.22 26.0705 141.486C25.8989 141.717 25.6359 141.863 25.3489 141.887C25.0196 141.913 24.6204 141.665 23.8221 141.168L2.18315 127.703Z"
            fill="#CCD3E4"/>
    <path
            d="M2.18315 226.703C1.45963 226.253 1.09787 226.028 0.973951 225.74C0.865736 225.488 0.865736 225.202 0.973951 224.95C1.09787 224.662 1.45963 224.437 2.18315 223.987L23.8221 210.522C24.6204 210.025 25.0196 209.776 25.3489 209.803C25.6359 209.827 25.8989 209.973 26.0705 210.204C26.2674 210.47 26.2674 210.94 26.2674 211.88V238.81C26.2674 239.75 26.2674 240.22 26.0705 240.486C25.8989 240.717 25.6359 240.863 25.3489 240.887C25.0196 240.913 24.6204 240.665 23.8221 240.168L2.18315 226.703Z"
            fill="#CCD3E4"/>
    <path
            d="M40.46 103.12C40.18 103.12 39.8733 103.113 39.54 103.1C39.22 103.087 38.8933 103.067 38.56 103.04C38.24 103.013 37.92 102.98 37.6 102.94C37.28 102.9 36.9867 102.847 36.72 102.78V89.34C36.9867 89.2733 37.28 89.22 37.6 89.18C37.92 89.14 38.24 89.1067 38.56 89.08C38.8933 89.0533 39.22 89.0333 39.54 89.02C39.86 89.0067 40.16 89 40.44 89C41.24 89 41.9867 89.06 42.68 89.18C43.3867 89.3 43.9933 89.5067 44.5 89.8C45.02 90.08 45.4267 90.4533 45.72 90.92C46.0133 91.3867 46.16 91.96 46.16 92.64C46.16 93.4 45.98 94.0267 45.62 94.52C45.26 95 44.78 95.36 44.18 95.6C44.9933 95.84 45.64 96.22 46.12 96.74C46.6 97.26 46.84 97.9933 46.84 98.94C46.84 100.327 46.3267 101.373 45.3 102.08C44.2867 102.773 42.6733 103.12 40.46 103.12ZM38.64 96.54V101.42C38.7867 101.433 38.96 101.447 39.16 101.46C39.3333 101.473 39.5333 101.487 39.76 101.5C40 101.5 40.2733 101.5 40.58 101.5C41.1533 101.5 41.6933 101.467 42.2 101.4C42.72 101.32 43.1733 101.187 43.56 101C43.9467 100.813 44.2533 100.553 44.48 100.22C44.72 99.8867 44.84 99.4667 44.84 98.96C44.84 98.5067 44.7533 98.1267 44.58 97.82C44.4067 97.5 44.1533 97.2467 43.82 97.06C43.5 96.8733 43.1133 96.74 42.66 96.66C42.2067 96.58 41.7 96.54 41.14 96.54H38.64ZM38.64 94.98H40.68C41.16 94.98 41.6133 94.9467 42.04 94.88C42.4667 94.8133 42.8333 94.6933 43.14 94.52C43.46 94.3467 43.7067 94.12 43.88 93.84C44.0667 93.56 44.16 93.2067 44.16 92.78C44.16 92.38 44.0667 92.0467 43.88 91.78C43.6933 91.5 43.4333 91.28 43.1 91.12C42.78 90.9467 42.4 90.82 41.96 90.74C41.52 90.66 41.0533 90.62 40.56 90.62C40.0667 90.62 39.68 90.6267 39.4 90.64C39.12 90.6533 38.8667 90.6733 38.64 90.7V94.98ZM53.4716 101.66C53.9116 101.66 54.2982 101.653 54.6316 101.64C54.9782 101.613 55.2649 101.573 55.4916 101.52V98.42C55.3582 98.3533 55.1382 98.3 54.8316 98.26C54.5382 98.2067 54.1782 98.18 53.7516 98.18C53.4716 98.18 53.1716 98.2 52.8516 98.24C52.5449 98.28 52.2582 98.3667 51.9916 98.5C51.7382 98.62 51.5249 98.7933 51.3516 99.02C51.1782 99.2333 51.0916 99.52 51.0916 99.88C51.0916 100.547 51.3049 101.013 51.7316 101.28C52.1582 101.533 52.7382 101.66 53.4716 101.66ZM53.3116 92.34C54.0582 92.34 54.6849 92.44 55.1916 92.64C55.7116 92.8267 56.1249 93.1 56.4316 93.46C56.7516 93.8067 56.9782 94.2267 57.1116 94.72C57.2449 95.2 57.3116 95.7333 57.3116 96.32V102.82C57.1516 102.847 56.9249 102.887 56.6316 102.94C56.3516 102.98 56.0316 103.02 55.6716 103.06C55.3116 103.1 54.9182 103.133 54.4916 103.16C54.0782 103.2 53.6649 103.22 53.2516 103.22C52.6649 103.22 52.1249 103.16 51.6316 103.04C51.1382 102.92 50.7116 102.733 50.3516 102.48C49.9916 102.213 49.7116 101.867 49.5116 101.44C49.3116 101.013 49.2116 100.5 49.2116 99.9C49.2116 99.3267 49.3249 98.8333 49.5516 98.42C49.7916 98.0067 50.1116 97.6733 50.5116 97.42C50.9116 97.1667 51.3782 96.98 51.9116 96.86C52.4449 96.74 53.0049 96.68 53.5916 96.68C53.7782 96.68 53.9716 96.6933 54.1716 96.72C54.3716 96.7333 54.5582 96.76 54.7316 96.8C54.9182 96.8267 55.0782 96.8533 55.2116 96.88C55.3449 96.9067 55.4382 96.9267 55.4916 96.94V96.42C55.4916 96.1133 55.4582 95.8133 55.3916 95.52C55.3249 95.2133 55.2049 94.9467 55.0316 94.72C54.8582 94.48 54.6182 94.2933 54.3116 94.16C54.0182 94.0133 53.6316 93.94 53.1516 93.94C52.5382 93.94 51.9982 93.9867 51.5316 94.08C51.0782 94.16 50.7382 94.2467 50.5116 94.34L50.2916 92.8C50.5316 92.6933 50.9316 92.5933 51.4916 92.5C52.0516 92.3933 52.6582 92.34 53.3116 92.34ZM60.9008 103V92.6H62.7608V101.46H66.6008V92.6H68.4608V101.46H72.3008V92.6H74.1608V103H60.9008ZM77.2856 97.82C77.2856 96.9 77.419 96.1 77.6856 95.42C77.9523 94.7267 78.3056 94.1533 78.7456 93.7C79.1856 93.2467 79.6923 92.9067 80.2656 92.68C80.839 92.4533 81.4256 92.34 82.0256 92.34C83.4256 92.34 84.499 92.78 85.2456 93.66C85.9923 94.5267 86.3656 95.8533 86.3656 97.64C86.3656 97.72 86.3656 97.8267 86.3656 97.96C86.3656 98.08 86.359 98.1933 86.3456 98.3H79.2256C79.3056 99.38 79.619 100.2 80.1656 100.76C80.7123 101.32 81.5656 101.6 82.7256 101.6C83.379 101.6 83.9256 101.547 84.3656 101.44C84.819 101.32 85.159 101.207 85.3856 101.1L85.6456 102.66C85.419 102.78 85.019 102.907 84.4456 103.04C83.8856 103.173 83.2456 103.24 82.5256 103.24C81.619 103.24 80.8323 103.107 80.1656 102.84C79.5123 102.56 78.9723 102.18 78.5456 101.7C78.119 101.22 77.799 100.653 77.5856 100C77.3856 99.3333 77.2856 98.6067 77.2856 97.82ZM84.4256 96.8C84.439 95.96 84.2256 95.2733 83.7856 94.74C83.359 94.1933 82.7656 93.92 82.0056 93.92C81.579 93.92 81.199 94.0067 80.8656 94.18C80.5456 94.34 80.2723 94.5533 80.0456 94.82C79.819 95.0867 79.639 95.3933 79.5056 95.74C79.3856 96.0867 79.3056 96.44 79.2656 96.8H84.4256ZM102.646 99.72C103.286 99.72 103.88 99.6333 104.426 99.46C104.986 99.2733 105.466 99.0067 105.866 98.66C106.28 98.3 106.606 97.8667 106.846 97.36C107.086 96.84 107.206 96.2467 107.206 95.58C107.206 94.9133 107.086 94.3267 106.846 93.82C106.606 93.3 106.28 92.8667 105.866 92.52C105.466 92.16 104.986 91.8933 104.426 91.72C103.88 91.5333 103.286 91.44 102.646 91.44V99.72ZM100.766 101.32C99.9131 101.32 99.0864 101.193 98.2864 100.94C97.4997 100.687 96.7997 100.32 96.1864 99.84C95.5864 99.3467 95.0997 98.7467 94.7264 98.04C94.3664 97.32 94.1864 96.5 94.1864 95.58C94.1864 94.66 94.3664 93.8467 94.7264 93.14C95.0997 92.4333 95.5864 91.84 96.1864 91.36C96.7997 90.8667 97.4997 90.4933 98.2864 90.24C99.0864 89.9867 99.9131 89.8533 100.766 89.84V88.24H102.646V89.84C103.5 89.8533 104.32 89.9867 105.106 90.24C105.893 90.4933 106.593 90.8667 107.206 91.36C107.82 91.84 108.306 92.4333 108.666 93.14C109.04 93.8467 109.226 94.66 109.226 95.58C109.226 96.5 109.04 97.32 108.666 98.04C108.306 98.7467 107.82 99.3467 107.206 99.84C106.593 100.32 105.893 100.687 105.106 100.94C104.32 101.193 103.5 101.32 102.646 101.32V103H100.766V101.32ZM100.766 91.44C100.126 91.44 99.5264 91.5333 98.9664 91.72C98.4197 91.8933 97.9397 92.16 97.5264 92.52C97.1264 92.8667 96.8064 93.3 96.5664 93.82C96.3264 94.3267 96.2064 94.9133 96.2064 95.58C96.2064 96.2467 96.3264 96.84 96.5664 97.36C96.8064 97.8667 97.1264 98.3 97.5264 98.66C97.9397 99.0067 98.4197 99.2733 98.9664 99.46C99.5264 99.6333 100.126 99.72 100.766 99.72V91.44ZM112.572 103V89.14H114.472V99.4C114.898 98.6933 115.418 97.8867 116.032 96.98C116.658 96.0733 117.318 95.1533 118.012 94.22C118.718 93.2733 119.425 92.36 120.132 91.48C120.852 90.5867 121.525 89.8067 122.152 89.14H123.692V103H121.792V92.18C121.418 92.6067 121.012 93.1 120.572 93.66C120.132 94.22 119.678 94.82 119.212 95.46C118.745 96.0867 118.272 96.74 117.792 97.42C117.325 98.1 116.872 98.7733 116.432 99.44C115.992 100.093 115.578 100.727 115.192 101.34C114.818 101.953 114.485 102.507 114.192 103H112.572ZM127.062 96.06C127.062 94.8733 127.236 93.8267 127.582 92.92C127.942 92.0133 128.422 91.26 129.022 90.66C129.636 90.0467 130.342 89.5867 131.142 89.28C131.956 88.9733 132.816 88.82 133.722 88.82C134.616 88.82 135.456 88.9733 136.242 89.28C137.042 89.5867 137.742 90.0467 138.342 90.66C138.942 91.26 139.416 92.0133 139.762 92.92C140.122 93.8267 140.302 94.8733 140.302 96.06C140.302 97.2467 140.122 98.2933 139.762 99.2C139.416 100.107 138.942 100.867 138.342 101.48C137.742 102.08 137.042 102.533 136.242 102.84C135.456 103.147 134.616 103.3 133.722 103.3C132.816 103.3 131.956 103.147 131.142 102.84C130.342 102.533 129.636 102.08 129.022 101.48C128.422 100.867 127.942 100.107 127.582 99.2C127.236 98.2933 127.062 97.2467 127.062 96.06ZM129.102 96.06C129.102 96.9 129.209 97.6667 129.422 98.36C129.636 99.04 129.936 99.62 130.322 100.1C130.722 100.58 131.202 100.953 131.762 101.22C132.336 101.473 132.976 101.6 133.682 101.6C134.389 101.6 135.022 101.473 135.582 101.22C136.142 100.953 136.616 100.58 137.002 100.1C137.402 99.62 137.709 99.04 137.922 98.36C138.136 97.6667 138.242 96.9 138.242 96.06C138.242 95.22 138.136 94.46 137.922 93.78C137.709 93.0867 137.402 92.5 137.002 92.02C136.616 91.54 136.142 91.1733 135.582 90.92C135.022 90.6533 134.389 90.52 133.682 90.52C132.976 90.52 132.336 90.6533 131.762 90.92C131.202 91.1733 130.722 91.54 130.322 92.02C129.936 92.5 129.636 93.0867 129.422 93.78C129.209 94.46 129.102 95.22 129.102 96.06ZM156.038 92.6V94.16H152.658V103H150.798V94.16H147.418V92.6H156.038ZM165.675 97.82C165.675 96.6067 165.375 95.6733 164.775 95.02C164.175 94.3667 163.375 94.04 162.375 94.04C161.815 94.04 161.375 94.06 161.055 94.1C160.749 94.14 160.502 94.1867 160.315 94.24V100.8C160.542 100.987 160.869 101.167 161.295 101.34C161.722 101.513 162.189 101.6 162.695 101.6C163.229 101.6 163.682 101.507 164.055 101.32C164.442 101.12 164.755 100.853 164.995 100.52C165.235 100.173 165.409 99.7733 165.515 99.32C165.622 98.8533 165.675 98.3533 165.675 97.82ZM167.615 97.82C167.615 98.6067 167.509 99.3333 167.295 100C167.095 100.667 166.795 101.24 166.395 101.72C165.995 102.2 165.502 102.573 164.915 102.84C164.342 103.107 163.682 103.24 162.935 103.24C162.335 103.24 161.802 103.16 161.335 103C160.882 102.84 160.542 102.687 160.315 102.54V106.7H158.455V92.92C158.895 92.8133 159.442 92.7 160.095 92.58C160.762 92.4467 161.529 92.38 162.395 92.38C163.195 92.38 163.915 92.5067 164.555 92.76C165.195 93.0133 165.742 93.3733 166.195 93.84C166.649 94.3067 166.995 94.88 167.235 95.56C167.489 96.2267 167.615 96.98 167.615 97.82ZM170.153 97.82C170.153 96.9 170.286 96.1 170.553 95.42C170.819 94.7267 171.173 94.1533 171.613 93.7C172.053 93.2467 172.559 92.9067 173.133 92.68C173.706 92.4533 174.293 92.34 174.893 92.34C176.293 92.34 177.366 92.78 178.113 93.66C178.859 94.5267 179.233 95.8533 179.233 97.64C179.233 97.72 179.233 97.8267 179.233 97.96C179.233 98.08 179.226 98.1933 179.213 98.3H172.093C172.173 99.38 172.486 100.2 173.033 100.76C173.579 101.32 174.433 101.6 175.593 101.6C176.246 101.6 176.793 101.547 177.233 101.44C177.686 101.32 178.026 101.207 178.253 101.1L178.513 102.66C178.286 102.78 177.886 102.907 177.313 103.04C176.753 103.173 176.113 103.24 175.393 103.24C174.486 103.24 173.699 103.107 173.033 102.84C172.379 102.56 171.839 102.18 171.413 101.7C170.986 101.22 170.666 100.653 170.453 100C170.253 99.3333 170.153 98.6067 170.153 97.82ZM177.293 96.8C177.306 95.96 177.093 95.2733 176.653 94.74C176.226 94.1933 175.633 93.92 174.873 93.92C174.446 93.92 174.066 94.0067 173.733 94.18C173.413 94.34 173.139 94.5533 172.913 94.82C172.686 95.0867 172.506 95.3933 172.373 95.74C172.253 96.0867 172.173 96.44 172.133 96.8H177.293ZM184.085 93.8C184.498 93.4667 184.978 93.2133 185.525 93.04C186.085 92.8533 186.618 92.76 187.125 92.76C188.618 92.76 189.745 93.22 190.505 94.14C191.278 95.0467 191.665 96.3133 191.665 97.94C191.665 98.6333 191.571 99.3 191.385 99.94C191.198 100.58 190.905 101.147 190.505 101.64C190.118 102.133 189.625 102.527 189.025 102.82C188.425 103.113 187.711 103.26 186.885 103.26C185.938 103.26 185.151 103.087 184.525 102.74C183.898 102.393 183.398 101.92 183.025 101.32C182.665 100.72 182.411 100.02 182.265 99.22C182.118 98.42 182.045 97.5733 182.045 96.68C182.045 95.52 182.125 94.44 182.285 93.44C182.458 92.44 182.765 91.56 183.205 90.8C183.645 90.04 184.251 89.4133 185.025 88.92C185.811 88.4133 186.818 88.0733 188.045 87.9C188.405 87.8467 188.718 87.8067 188.985 87.78C189.265 87.74 189.505 87.7067 189.705 87.68C189.918 87.6533 190.111 87.6267 190.285 87.6C190.458 87.56 190.638 87.52 190.825 87.48L191.025 89.16C190.931 89.1867 190.831 89.2067 190.725 89.22C190.631 89.2333 190.491 89.2533 190.305 89.28C190.131 89.3067 189.891 89.34 189.585 89.38C189.291 89.42 188.905 89.4667 188.425 89.52C187.105 89.6667 186.091 90.0667 185.385 90.72C184.678 91.3733 184.245 92.4 184.085 93.8ZM183.965 96.98C183.965 97.6067 184.005 98.2 184.085 98.76C184.178 99.32 184.331 99.8133 184.545 100.24C184.771 100.667 185.071 101.007 185.445 101.26C185.818 101.5 186.298 101.62 186.885 101.62C187.391 101.62 187.825 101.527 188.185 101.34C188.545 101.14 188.838 100.873 189.065 100.54C189.291 100.207 189.458 99.82 189.565 99.38C189.671 98.9267 189.725 98.4467 189.725 97.94C189.725 97.4867 189.678 97.0467 189.585 96.62C189.505 96.1933 189.351 95.8133 189.125 95.48C188.898 95.1467 188.591 94.88 188.205 94.68C187.831 94.48 187.358 94.38 186.785 94.38C186.225 94.38 185.685 94.5 185.165 94.74C184.658 94.98 184.265 95.2733 183.985 95.62C183.971 95.7667 183.965 95.9733 183.965 96.24C183.965 96.5067 183.965 96.7533 183.965 96.98ZM193.579 104.94C193.726 105.007 193.913 105.067 194.139 105.12C194.379 105.187 194.613 105.22 194.839 105.22C195.573 105.22 196.146 105.053 196.559 104.72C196.973 104.4 197.346 103.873 197.679 103.14C196.839 101.54 196.053 99.8467 195.319 98.06C194.599 96.26 193.999 94.44 193.519 92.6H195.519C195.666 93.2 195.839 93.8467 196.039 94.54C196.253 95.2333 196.486 95.9467 196.739 96.68C196.993 97.4133 197.266 98.1467 197.559 98.88C197.853 99.6133 198.159 100.32 198.479 101C198.986 99.6 199.426 98.2133 199.799 96.84C200.173 95.4667 200.526 94.0533 200.859 92.6H202.779C202.299 94.56 201.766 96.4467 201.179 98.26C200.593 100.06 199.959 101.747 199.279 103.32C199.013 103.92 198.733 104.433 198.439 104.86C198.159 105.3 197.846 105.66 197.499 105.94C197.153 106.22 196.759 106.427 196.319 106.56C195.893 106.693 195.406 106.76 194.859 106.76C194.713 106.76 194.559 106.747 194.399 106.72C194.239 106.707 194.079 106.68 193.919 106.64C193.773 106.613 193.633 106.58 193.499 106.54C193.379 106.5 193.293 106.467 193.239 106.44L193.579 104.94ZM204.426 97.82C204.426 96.9 204.56 96.1 204.826 95.42C205.093 94.7267 205.446 94.1533 205.886 93.7C206.326 93.2467 206.833 92.9067 207.406 92.68C207.98 92.4533 208.566 92.34 209.166 92.34C210.566 92.34 211.64 92.78 212.386 93.66C213.133 94.5267 213.506 95.8533 213.506 97.64C213.506 97.72 213.506 97.8267 213.506 97.96C213.506 98.08 213.5 98.1933 213.486 98.3H206.366C206.446 99.38 206.76 100.2 207.306 100.76C207.853 101.32 208.706 101.6 209.866 101.6C210.52 101.6 211.066 101.547 211.506 101.44C211.96 101.32 212.3 101.207 212.526 101.1L212.786 102.66C212.56 102.78 212.16 102.907 211.586 103.04C211.026 103.173 210.386 103.24 209.666 103.24C208.76 103.24 207.973 103.107 207.306 102.84C206.653 102.56 206.113 102.18 205.686 101.7C205.26 101.22 204.94 100.653 204.726 100C204.526 99.3333 204.426 98.6067 204.426 97.82ZM211.566 96.8C211.58 95.96 211.366 95.2733 210.926 94.74C210.5 94.1933 209.906 93.92 209.146 93.92C208.72 93.92 208.34 94.0067 208.006 94.18C207.686 94.34 207.413 94.5533 207.186 94.82C206.96 95.0867 206.78 95.3933 206.646 95.74C206.526 96.0867 206.446 96.44 206.406 96.8H211.566ZM224.018 92.6V94.16H220.638V103H218.778V94.16H215.398V92.6H224.018ZM230.956 103.24C230.116 103.24 229.376 103.107 228.736 102.84C228.109 102.573 227.576 102.2 227.136 101.72C226.709 101.24 226.389 100.673 226.176 100.02C225.963 99.3533 225.856 98.62 225.856 97.82C225.856 97.02 225.969 96.2867 226.196 95.62C226.436 94.9533 226.769 94.38 227.196 93.9C227.623 93.4067 228.143 93.0267 228.756 92.76C229.383 92.48 230.076 92.34 230.836 92.34C231.303 92.34 231.769 92.38 232.236 92.46C232.703 92.54 233.149 92.6667 233.576 92.84L233.156 94.42C232.876 94.2867 232.549 94.18 232.176 94.1C231.816 94.02 231.429 93.98 231.016 93.98C229.976 93.98 229.176 94.3067 228.616 94.96C228.069 95.6133 227.796 96.5667 227.796 97.82C227.796 98.38 227.856 98.8933 227.976 99.36C228.109 99.8267 228.309 100.227 228.576 100.56C228.856 100.893 229.209 101.153 229.636 101.34C230.063 101.513 230.583 101.6 231.196 101.6C231.689 101.6 232.136 101.553 232.536 101.46C232.936 101.367 233.249 101.267 233.476 101.16L233.736 102.72C233.629 102.787 233.476 102.853 233.276 102.92C233.076 102.973 232.849 103.02 232.596 103.06C232.343 103.113 232.069 103.153 231.776 103.18C231.496 103.22 231.223 103.24 230.956 103.24ZM240.533 98.96C240.333 98.96 240.139 98.96 239.953 98.96C239.766 98.9467 239.586 98.9333 239.413 98.92C238.986 99.56 238.573 100.247 238.173 100.98C237.786 101.7 237.439 102.373 237.133 103H235.253C235.413 102.613 235.599 102.22 235.813 101.82C236.026 101.407 236.239 101.007 236.453 100.62C236.679 100.233 236.906 99.8667 237.133 99.52C237.359 99.1733 237.573 98.86 237.773 98.58C237.399 98.4467 237.093 98.2867 236.853 98.1C236.613 97.9 236.419 97.68 236.273 97.44C236.126 97.2 236.019 96.9467 235.953 96.68C235.899 96.4 235.873 96.12 235.873 95.84C235.873 95.2533 235.979 94.74 236.193 94.3C236.419 93.86 236.726 93.5 237.113 93.22C237.499 92.9267 237.953 92.7067 238.473 92.56C239.006 92.4133 239.586 92.34 240.213 92.34C241.093 92.34 241.839 92.38 242.453 92.46C243.066 92.54 243.579 92.6333 243.993 92.74V103H242.153V98.96H240.533ZM242.153 93.98C242.006 93.9533 241.759 93.9267 241.413 93.9C241.079 93.8733 240.693 93.86 240.253 93.86C239.493 93.86 238.879 94.02 238.413 94.34C237.946 94.6467 237.713 95.14 237.713 95.82C237.713 96.4867 237.953 96.9467 238.433 97.2C238.913 97.4533 239.533 97.58 240.293 97.58H242.153V93.98ZM251.539 101.48H252.659C253.099 100.84 253.445 100.18 253.699 99.5C253.965 98.82 254.165 98.12 254.299 97.4C254.432 96.6667 254.519 95.9067 254.559 95.12C254.599 94.32 254.625 93.48 254.639 92.6H261.459V101.48H262.859V105.9H261.099V103H253.299V105.9H251.539V101.48ZM259.599 101.48V94.16H256.339C256.325 94.7867 256.292 95.42 256.239 96.06C256.185 96.6867 256.099 97.3133 255.979 97.94C255.859 98.5533 255.685 99.16 255.459 99.76C255.245 100.347 254.972 100.92 254.639 101.48H259.599ZM269.419 94.16C269.419 94.6 269.406 95.0733 269.379 95.58C269.366 96.0733 269.333 96.5733 269.279 97.08C269.226 97.5733 269.153 98.0667 269.059 98.56C268.966 99.04 268.846 99.4933 268.699 99.92C268.553 100.347 268.366 100.747 268.139 101.12C267.926 101.493 267.659 101.827 267.339 102.12C267.019 102.4 266.646 102.64 266.219 102.84C265.793 103.027 265.293 103.147 264.719 103.2L264.459 101.64C265.113 101.507 265.626 101.26 265.999 100.9C266.386 100.54 266.693 100.1 266.919 99.58C267.119 99.1267 267.266 98.6133 267.359 98.04C267.453 97.4667 267.519 96.8733 267.559 96.26C267.599 95.6333 267.619 95.0067 267.619 94.38C267.633 93.7533 267.639 93.16 267.639 92.6H274.559V103H272.699V94.16H269.419ZM282.552 98.96C282.352 98.96 282.159 98.96 281.972 98.96C281.786 98.9467 281.606 98.9333 281.432 98.92C281.006 99.56 280.592 100.247 280.192 100.98C279.806 101.7 279.459 102.373 279.152 103H277.272C277.432 102.613 277.619 102.22 277.832 101.82C278.046 101.407 278.259 101.007 278.472 100.62C278.699 100.233 278.926 99.8667 279.152 99.52C279.379 99.1733 279.592 98.86 279.792 98.58C279.419 98.4467 279.112 98.2867 278.872 98.1C278.632 97.9 278.439 97.68 278.292 97.44C278.146 97.2 278.039 96.9467 277.972 96.68C277.919 96.4 277.892 96.12 277.892 95.84C277.892 95.2533 277.999 94.74 278.212 94.3C278.439 93.86 278.746 93.5 279.132 93.22C279.519 92.9267 279.972 92.7067 280.492 92.56C281.026 92.4133 281.606 92.34 282.232 92.34C283.112 92.34 283.859 92.38 284.472 92.46C285.086 92.54 285.599 92.6333 286.012 92.74V103H284.172V98.96H282.552ZM284.172 93.98C284.026 93.9533 283.779 93.9267 283.432 93.9C283.099 93.8733 282.712 93.86 282.272 93.86C281.512 93.86 280.899 94.02 280.432 94.34C279.966 94.6467 279.732 95.14 279.732 95.82C279.732 96.4867 279.972 96.9467 280.452 97.2C280.932 97.4533 281.552 97.58 282.312 97.58H284.172V93.98ZM44.96 119H43.1V110.16H38.46V119H36.6V108.6H44.96V119ZM57.8425 113.8C57.8425 114.627 57.7225 115.373 57.4825 116.04C57.2425 116.707 56.9025 117.28 56.4625 117.76C56.0358 118.24 55.5225 118.613 54.9225 118.88C54.3225 119.133 53.6692 119.26 52.9625 119.26C52.2558 119.26 51.6025 119.133 51.0025 118.88C50.4025 118.613 49.8825 118.24 49.4425 117.76C49.0158 117.28 48.6825 116.707 48.4425 116.04C48.2025 115.373 48.0825 114.627 48.0825 113.8C48.0825 112.987 48.2025 112.247 48.4425 111.58C48.6825 110.9 49.0158 110.32 49.4425 109.84C49.8825 109.36 50.4025 108.993 51.0025 108.74C51.6025 108.473 52.2558 108.34 52.9625 108.34C53.6692 108.34 54.3225 108.473 54.9225 108.74C55.5225 108.993 56.0358 109.36 56.4625 109.84C56.9025 110.32 57.2425 110.9 57.4825 111.58C57.7225 112.247 57.8425 112.987 57.8425 113.8ZM55.9025 113.8C55.9025 112.627 55.6358 111.7 55.1025 111.02C54.5825 110.327 53.8692 109.98 52.9625 109.98C52.0558 109.98 51.3358 110.327 50.8025 111.02C50.2825 111.7 50.0225 112.627 50.0225 113.8C50.0225 114.973 50.2825 115.907 50.8025 116.6C51.3358 117.28 52.0558 117.62 52.9625 117.62C53.8692 117.62 54.5825 117.28 55.1025 116.6C55.6358 115.907 55.9025 114.973 55.9025 113.8ZM59.6794 117.48H60.7994C61.2394 116.84 61.586 116.18 61.8394 115.5C62.106 114.82 62.306 114.12 62.4394 113.4C62.5727 112.667 62.6594 111.907 62.6994 111.12C62.7394 110.32 62.766 109.48 62.7794 108.6H69.5994V117.48H70.9994V121.9H69.2394V119H61.4394V121.9H59.6794V117.48ZM67.7394 117.48V110.16H64.4794C64.466 110.787 64.4327 111.42 64.3794 112.06C64.326 112.687 64.2394 113.313 64.1194 113.94C63.9994 114.553 63.826 115.16 63.5994 115.76C63.386 116.347 63.1127 116.92 62.7794 117.48H67.7394ZM80.8502 108.6V110.16H77.4702V119H75.6102V110.16H72.2302V108.6H80.8502ZM85.088 117.6C85.168 117.613 85.2813 117.627 85.428 117.64C85.5746 117.653 85.7413 117.667 85.928 117.68C86.1146 117.68 86.308 117.687 86.508 117.7C86.7213 117.7 86.9213 117.7 87.108 117.7C87.4946 117.7 87.8613 117.673 88.208 117.62C88.568 117.567 88.8746 117.473 89.128 117.34C89.3946 117.207 89.6013 117.033 89.748 116.82C89.908 116.593 89.988 116.307 89.988 115.96C89.988 115.627 89.9146 115.353 89.768 115.14C89.6346 114.913 89.448 114.733 89.208 114.6C88.968 114.467 88.6813 114.373 88.348 114.32C88.028 114.267 87.6813 114.24 87.308 114.24H85.088V117.6ZM87.068 112.86C87.428 112.86 87.7546 112.84 88.048 112.8C88.3546 112.747 88.6146 112.66 88.828 112.54C89.0546 112.42 89.228 112.26 89.348 112.06C89.4813 111.86 89.548 111.607 89.548 111.3C89.548 110.98 89.468 110.727 89.308 110.54C89.148 110.353 88.9346 110.213 88.668 110.12C88.4146 110.013 88.1213 109.947 87.788 109.92C87.468 109.88 87.1413 109.86 86.808 109.86C86.5013 109.86 86.188 109.867 85.868 109.88C85.5613 109.893 85.3013 109.907 85.088 109.92V112.86H87.068ZM87.028 119.18C86.2413 119.18 85.5146 119.14 84.848 119.06C84.1813 118.993 83.6546 118.913 83.268 118.82V108.7C83.6546 108.607 84.1813 108.527 84.848 108.46C85.5146 108.38 86.2413 108.34 87.028 108.34C87.5746 108.34 88.108 108.387 88.628 108.48C89.148 108.573 89.608 108.733 90.008 108.96C90.408 109.173 90.728 109.473 90.968 109.86C91.2213 110.233 91.348 110.7 91.348 111.26C91.348 111.767 91.2213 112.2 90.968 112.56C90.7146 112.92 90.3746 113.2 89.948 113.4C90.5213 113.6 90.9746 113.9 91.308 114.3C91.6546 114.687 91.828 115.233 91.828 115.94C91.828 116.567 91.7013 117.087 91.448 117.5C91.208 117.913 90.868 118.247 90.428 118.5C90.0013 118.753 89.4946 118.927 88.908 119.02C88.3213 119.127 87.6946 119.18 87.028 119.18ZM94.145 113.82C94.145 112.9 94.2783 112.1 94.545 111.42C94.8117 110.727 95.165 110.153 95.605 109.7C96.045 109.247 96.5517 108.907 97.125 108.68C97.6983 108.453 98.285 108.34 98.885 108.34C100.285 108.34 101.358 108.78 102.105 109.66C102.852 110.527 103.225 111.853 103.225 113.64C103.225 113.72 103.225 113.827 103.225 113.96C103.225 114.08 103.218 114.193 103.205 114.3H96.085C96.165 115.38 96.4783 116.2 97.025 116.76C97.5717 117.32 98.425 117.6 99.585 117.6C100.238 117.6 100.785 117.547 101.225 117.44C101.678 117.32 102.018 117.207 102.245 117.1L102.505 118.66C102.278 118.78 101.878 118.907 101.305 119.04C100.745 119.173 100.105 119.24 99.385 119.24C98.4783 119.24 97.6917 119.107 97.025 118.84C96.3717 118.56 95.8317 118.18 95.405 117.7C94.9783 117.22 94.6583 116.653 94.445 116C94.245 115.333 94.145 114.607 94.145 113.82ZM101.285 112.8C101.298 111.96 101.085 111.273 100.645 110.74C100.218 110.193 99.625 109.92 98.865 109.92C98.4383 109.92 98.0583 110.007 97.725 110.18C97.405 110.34 97.1317 110.553 96.905 110.82C96.6783 111.087 96.4983 111.393 96.365 111.74C96.245 112.087 96.165 112.44 96.125 112.8H101.285ZM113.617 113.82C113.617 112.607 113.317 111.673 112.717 111.02C112.117 110.367 111.317 110.04 110.317 110.04C109.757 110.04 109.317 110.06 108.997 110.1C108.69 110.14 108.444 110.187 108.257 110.24V116.8C108.484 116.987 108.81 117.167 109.237 117.34C109.664 117.513 110.13 117.6 110.637 117.6C111.17 117.6 111.624 117.507 111.997 117.32C112.384 117.12 112.697 116.853 112.937 116.52C113.177 116.173 113.35 115.773 113.457 115.32C113.564 114.853 113.617 114.353 113.617 113.82ZM115.557 113.82C115.557 114.607 115.45 115.333 115.237 116C115.037 116.667 114.737 117.24 114.337 117.72C113.937 118.2 113.444 118.573 112.857 118.84C112.284 119.107 111.624 119.24 110.877 119.24C110.277 119.24 109.744 119.16 109.277 119C108.824 118.84 108.484 118.687 108.257 118.54V122.7H106.397V108.92C106.837 108.813 107.384 108.7 108.037 108.58C108.704 108.447 109.47 108.38 110.337 108.38C111.137 108.38 111.857 108.507 112.497 108.76C113.137 109.013 113.684 109.373 114.137 109.84C114.59 110.307 114.937 110.88 115.177 111.56C115.43 112.227 115.557 112.98 115.557 113.82ZM131.045 108.6C130.778 108.933 130.478 109.3 130.145 109.7C129.812 110.087 129.465 110.493 129.105 110.92C128.745 111.333 128.378 111.747 128.005 112.16C127.645 112.573 127.298 112.967 126.965 113.34C127.365 113.727 127.778 114.147 128.205 114.6C128.632 115.053 129.045 115.527 129.445 116.02C129.858 116.5 130.252 117 130.625 117.52C130.998 118.027 131.325 118.52 131.605 119H129.525C129.245 118.56 128.918 118.1 128.545 117.62C128.185 117.127 127.805 116.653 127.405 116.2C127.018 115.747 126.625 115.327 126.225 114.94C125.838 114.54 125.478 114.213 125.145 113.96V119H123.365V113.96C123.032 114.213 122.665 114.54 122.265 114.94C121.878 115.327 121.485 115.747 121.085 116.2C120.698 116.653 120.318 117.127 119.945 117.62C119.585 118.1 119.265 118.56 118.985 119H116.925C117.205 118.52 117.525 118.027 117.885 117.52C118.258 117.013 118.645 116.52 119.045 116.04C119.458 115.547 119.878 115.073 120.305 114.62C120.732 114.167 121.145 113.747 121.545 113.36C121.212 112.987 120.858 112.593 120.485 112.18C120.125 111.767 119.765 111.353 119.405 110.94C119.045 110.513 118.698 110.107 118.365 109.72C118.032 109.32 117.725 108.947 117.445 108.6H119.505C119.985 109.2 120.538 109.867 121.165 110.6C121.792 111.333 122.525 112.18 123.365 113.14V108.6H125.145V113.14C125.985 112.18 126.718 111.333 127.345 110.6C127.972 109.867 128.525 109.2 129.005 108.6H131.045ZM133.168 117.48H134.288C134.728 116.84 135.074 116.18 135.328 115.5C135.594 114.82 135.794 114.12 135.928 113.4C136.061 112.667 136.148 111.907 136.188 111.12C136.228 110.32 136.254 109.48 136.268 108.6H143.088V117.48H144.488V121.9H142.728V119H134.928V121.9H133.168V117.48ZM141.228 117.48V110.16H137.968C137.954 110.787 137.921 111.42 137.868 112.06C137.814 112.687 137.728 113.313 137.608 113.94C137.488 114.553 137.314 115.16 137.088 115.76C136.874 116.347 136.601 116.92 136.268 117.48H141.228ZM146.418 113.82C146.418 112.9 146.552 112.1 146.818 111.42C147.085 110.727 147.438 110.153 147.878 109.7C148.318 109.247 148.825 108.907 149.398 108.68C149.972 108.453 150.558 108.34 151.158 108.34C152.558 108.34 153.632 108.78 154.378 109.66C155.125 110.527 155.498 111.853 155.498 113.64C155.498 113.72 155.498 113.827 155.498 113.96C155.498 114.08 155.492 114.193 155.478 114.3H148.358C148.438 115.38 148.752 116.2 149.298 116.76C149.845 117.32 150.698 117.6 151.858 117.6C152.512 117.6 153.058 117.547 153.498 117.44C153.952 117.32 154.292 117.207 154.518 117.1L154.778 118.66C154.552 118.78 154.152 118.907 153.578 119.04C153.018 119.173 152.378 119.24 151.658 119.24C150.752 119.24 149.965 119.107 149.298 118.84C148.645 118.56 148.105 118.18 147.678 117.7C147.252 117.22 146.932 116.653 146.718 116C146.518 115.333 146.418 114.607 146.418 113.82ZM153.558 112.8C153.572 111.96 153.358 111.273 152.918 110.74C152.492 110.193 151.898 109.92 151.138 109.92C150.712 109.92 150.332 110.007 149.998 110.18C149.678 110.34 149.405 110.553 149.178 110.82C148.952 111.087 148.772 111.393 148.638 111.74C148.518 112.087 148.438 112.44 148.398 112.8H153.558ZM167.19 119H165.33V114.4H160.53V119H158.67V108.6H160.53V112.84H165.33V108.6H167.19V119ZM179.629 108.6V119H177.829V111.08C177.429 111.587 176.989 112.18 176.509 112.86C176.029 113.54 175.549 114.247 175.069 114.98C174.589 115.7 174.129 116.413 173.689 117.12C173.249 117.827 172.869 118.453 172.549 119H170.889V108.6H172.689V116.08C173.036 115.507 173.429 114.88 173.869 114.2C174.309 113.507 174.762 112.827 175.229 112.16C175.709 111.48 176.182 110.833 176.649 110.22C177.129 109.593 177.576 109.053 177.989 108.6H179.629ZM187.623 114.96C187.423 114.96 187.229 114.96 187.043 114.96C186.856 114.947 186.676 114.933 186.503 114.92C186.076 115.56 185.663 116.247 185.263 116.98C184.876 117.7 184.529 118.373 184.223 119H182.343C182.503 118.613 182.689 118.22 182.903 117.82C183.116 117.407 183.329 117.007 183.543 116.62C183.769 116.233 183.996 115.867 184.223 115.52C184.449 115.173 184.663 114.86 184.863 114.58C184.489 114.447 184.183 114.287 183.943 114.1C183.703 113.9 183.509 113.68 183.363 113.44C183.216 113.2 183.109 112.947 183.043 112.68C182.989 112.4 182.963 112.12 182.963 111.84C182.963 111.253 183.069 110.74 183.283 110.3C183.509 109.86 183.816 109.5 184.203 109.22C184.589 108.927 185.043 108.707 185.563 108.56C186.096 108.413 186.676 108.34 187.303 108.34C188.183 108.34 188.929 108.38 189.543 108.46C190.156 108.54 190.669 108.633 191.083 108.74V119H189.243V114.96H187.623ZM189.243 109.98C189.096 109.953 188.849 109.927 188.503 109.9C188.169 109.873 187.783 109.86 187.343 109.86C186.583 109.86 185.969 110.02 185.503 110.34C185.036 110.647 184.803 111.14 184.803 111.82C184.803 112.487 185.043 112.947 185.523 113.2C186.003 113.453 186.623 113.58 187.383 113.58H189.243V109.98ZM44.96 135H43.1V126.16H38.46V135H36.6V124.6H44.96V135ZM55.8825 129.82C55.8825 128.607 55.5825 127.673 54.9825 127.02C54.3825 126.367 53.5825 126.04 52.5825 126.04C52.0225 126.04 51.5825 126.06 51.2625 126.1C50.9558 126.14 50.7092 126.187 50.5225 126.24V132.8C50.7492 132.987 51.0758 133.167 51.5025 133.34C51.9292 133.513 52.3958 133.6 52.9025 133.6C53.4358 133.6 53.8892 133.507 54.2625 133.32C54.6492 133.12 54.9625 132.853 55.2025 132.52C55.4425 132.173 55.6158 131.773 55.7225 131.32C55.8292 130.853 55.8825 130.353 55.8825 129.82ZM57.8225 129.82C57.8225 130.607 57.7158 131.333 57.5025 132C57.3025 132.667 57.0025 133.24 56.6025 133.72C56.2025 134.2 55.7092 134.573 55.1225 134.84C54.5492 135.107 53.8892 135.24 53.1425 135.24C52.5425 135.24 52.0092 135.16 51.5425 135C51.0892 134.84 50.7492 134.687 50.5225 134.54V138.7H48.6625V124.92C49.1025 124.813 49.6492 124.7 50.3025 124.58C50.9692 124.447 51.7358 124.38 52.6025 124.38C53.4025 124.38 54.1225 124.507 54.7625 124.76C55.4025 125.013 55.9492 125.373 56.4025 125.84C56.8558 126.307 57.2025 126.88 57.4425 127.56C57.6958 128.227 57.8225 128.98 57.8225 129.82ZM69.6798 124.6V135H67.8798V127.08C67.4798 127.587 67.0398 128.18 66.5598 128.86C66.0798 129.54 65.5998 130.247 65.1198 130.98C64.6398 131.7 64.1798 132.413 63.7398 133.12C63.2998 133.827 62.9198 134.453 62.5998 135H60.9398V124.6H62.7398V132.08C63.0865 131.507 63.4798 130.88 63.9198 130.2C64.3598 129.507 64.8132 128.827 65.2798 128.16C65.7598 127.48 66.2332 126.833 66.6998 126.22C67.1798 125.593 67.6265 125.053 68.0398 124.6H69.6798ZM81.8934 135H80.0334V130.4H75.2334V135H73.3734V124.6H75.2334V128.84H80.0334V124.6H81.8934V135ZM89.1122 133.66C89.5522 133.66 89.9389 133.653 90.2722 133.64C90.6189 133.613 90.9055 133.573 91.1322 133.52V130.42C90.9989 130.353 90.7789 130.3 90.4722 130.26C90.1789 130.207 89.8189 130.18 89.3922 130.18C89.1122 130.18 88.8122 130.2 88.4922 130.24C88.1855 130.28 87.8989 130.367 87.6322 130.5C87.3789 130.62 87.1655 130.793 86.9922 131.02C86.8189 131.233 86.7322 131.52 86.7322 131.88C86.7322 132.547 86.9455 133.013 87.3722 133.28C87.7989 133.533 88.3789 133.66 89.1122 133.66ZM88.9522 124.34C89.6989 124.34 90.3255 124.44 90.8322 124.64C91.3522 124.827 91.7655 125.1 92.0722 125.46C92.3922 125.807 92.6189 126.227 92.7522 126.72C92.8855 127.2 92.9522 127.733 92.9522 128.32V134.82C92.7922 134.847 92.5655 134.887 92.2722 134.94C91.9922 134.98 91.6722 135.02 91.3122 135.06C90.9522 135.1 90.5589 135.133 90.1322 135.16C89.7189 135.2 89.3055 135.22 88.8922 135.22C88.3055 135.22 87.7655 135.16 87.2722 135.04C86.7789 134.92 86.3522 134.733 85.9922 134.48C85.6322 134.213 85.3522 133.867 85.1522 133.44C84.9522 133.013 84.8522 132.5 84.8522 131.9C84.8522 131.327 84.9655 130.833 85.1922 130.42C85.4322 130.007 85.7522 129.673 86.1522 129.42C86.5522 129.167 87.0189 128.98 87.5522 128.86C88.0855 128.74 88.6455 128.68 89.2322 128.68C89.4189 128.68 89.6122 128.693 89.8122 128.72C90.0122 128.733 90.1989 128.76 90.3722 128.8C90.5589 128.827 90.7189 128.853 90.8522 128.88C90.9855 128.907 91.0789 128.927 91.1322 128.94V128.42C91.1322 128.113 91.0989 127.813 91.0322 127.52C90.9655 127.213 90.8455 126.947 90.6722 126.72C90.4989 126.48 90.2589 126.293 89.9522 126.16C89.6589 126.013 89.2722 125.94 88.7922 125.94C88.1789 125.94 87.6389 125.987 87.1722 126.08C86.7189 126.16 86.3789 126.247 86.1522 126.34L85.9322 124.8C86.1722 124.693 86.5722 124.593 87.1322 124.5C87.6922 124.393 88.2989 124.34 88.9522 124.34ZM95.2614 133.48H96.3814C96.8214 132.84 97.1681 132.18 97.4214 131.5C97.6881 130.82 97.8881 130.12 98.0214 129.4C98.1547 128.667 98.2414 127.907 98.2814 127.12C98.3214 126.32 98.3481 125.48 98.3614 124.6H105.181V133.48H106.581V137.9H104.821V135H97.0214V137.9H95.2614V133.48ZM103.321 133.48V126.16H100.061C100.048 126.787 100.015 127.42 99.9614 128.06C99.9081 128.687 99.8214 129.313 99.7014 129.94C99.5814 130.553 99.4081 131.16 99.1814 131.76C98.9681 132.347 98.6947 132.92 98.3614 133.48H103.321ZM113.142 126.16C113.142 126.6 113.129 127.073 113.102 127.58C113.089 128.073 113.055 128.573 113.002 129.08C112.949 129.573 112.875 130.067 112.782 130.56C112.689 131.04 112.569 131.493 112.422 131.92C112.275 132.347 112.089 132.747 111.862 133.12C111.649 133.493 111.382 133.827 111.062 134.12C110.742 134.4 110.369 134.64 109.942 134.84C109.515 135.027 109.015 135.147 108.442 135.2L108.182 133.64C108.835 133.507 109.349 133.26 109.722 132.9C110.109 132.54 110.415 132.1 110.642 131.58C110.842 131.127 110.989 130.613 111.082 130.04C111.175 129.467 111.242 128.873 111.282 128.26C111.322 127.633 111.342 127.007 111.342 126.38C111.355 125.753 111.362 125.16 111.362 124.6H118.282V135H116.422V126.16H113.142ZM121.395 129.82C121.395 128.9 121.528 128.1 121.795 127.42C122.062 126.727 122.415 126.153 122.855 125.7C123.295 125.247 123.802 124.907 124.375 124.68C124.948 124.453 125.535 124.34 126.135 124.34C127.535 124.34 128.608 124.78 129.355 125.66C130.102 126.527 130.475 127.853 130.475 129.64C130.475 129.72 130.475 129.827 130.475 129.96C130.475 130.08 130.468 130.193 130.455 130.3H123.335C123.415 131.38 123.728 132.2 124.275 132.76C124.822 133.32 125.675 133.6 126.835 133.6C127.488 133.6 128.035 133.547 128.475 133.44C128.928 133.32 129.268 133.207 129.495 133.1L129.755 134.66C129.528 134.78 129.128 134.907 128.555 135.04C127.995 135.173 127.355 135.24 126.635 135.24C125.728 135.24 124.942 135.107 124.275 134.84C123.622 134.56 123.082 134.18 122.655 133.7C122.228 133.22 121.908 132.653 121.695 132C121.495 131.333 121.395 130.607 121.395 129.82ZM128.535 128.8C128.548 127.96 128.335 127.273 127.895 126.74C127.468 126.193 126.875 125.92 126.115 125.92C125.688 125.92 125.308 126.007 124.975 126.18C124.655 126.34 124.382 126.553 124.155 126.82C123.928 127.087 123.748 127.393 123.615 127.74C123.495 128.087 123.415 128.44 123.375 128.8H128.535ZM146.467 124.6C146.2 124.933 145.9 125.3 145.567 125.7C145.234 126.087 144.887 126.493 144.527 126.92C144.167 127.333 143.8 127.747 143.427 128.16C143.067 128.573 142.72 128.967 142.387 129.34C142.787 129.727 143.2 130.147 143.627 130.6C144.054 131.053 144.467 131.527 144.867 132.02C145.28 132.5 145.674 133 146.047 133.52C146.42 134.027 146.747 134.52 147.027 135H144.947C144.667 134.56 144.34 134.1 143.967 133.62C143.607 133.127 143.227 132.653 142.827 132.2C142.44 131.747 142.047 131.327 141.647 130.94C141.26 130.54 140.9 130.213 140.567 129.96V135H138.787V129.96C138.454 130.213 138.087 130.54 137.687 130.94C137.3 131.327 136.907 131.747 136.507 132.2C136.12 132.653 135.74 133.127 135.367 133.62C135.007 134.1 134.687 134.56 134.407 135H132.347C132.627 134.52 132.947 134.027 133.307 133.52C133.68 133.013 134.067 132.52 134.467 132.04C134.88 131.547 135.3 131.073 135.727 130.62C136.154 130.167 136.567 129.747 136.967 129.36C136.634 128.987 136.28 128.593 135.907 128.18C135.547 127.767 135.187 127.353 134.827 126.94C134.467 126.513 134.12 126.107 133.787 125.72C133.454 125.32 133.147 124.947 132.867 124.6H134.927C135.407 125.2 135.96 125.867 136.587 126.6C137.214 127.333 137.947 128.18 138.787 129.14V124.6H140.567V129.14C141.407 128.18 142.14 127.333 142.767 126.6C143.394 125.867 143.947 125.2 144.427 124.6H146.467ZM157.921 135H156.061V130.4H151.261V135H149.401V124.6H151.261V128.84H156.061V124.6H157.921V135ZM170.8 129.8C170.8 130.627 170.68 131.373 170.44 132.04C170.2 132.707 169.86 133.28 169.42 133.76C168.993 134.24 168.48 134.613 167.88 134.88C167.28 135.133 166.626 135.26 165.92 135.26C165.213 135.26 164.56 135.133 163.96 134.88C163.36 134.613 162.84 134.24 162.4 133.76C161.973 133.28 161.64 132.707 161.4 132.04C161.16 131.373 161.04 130.627 161.04 129.8C161.04 128.987 161.16 128.247 161.4 127.58C161.64 126.9 161.973 126.32 162.4 125.84C162.84 125.36 163.36 124.993 163.96 124.74C164.56 124.473 165.213 124.34 165.92 124.34C166.626 124.34 167.28 124.473 167.88 124.74C168.48 124.993 168.993 125.36 169.42 125.84C169.86 126.32 170.2 126.9 170.44 127.58C170.68 128.247 170.8 128.987 170.8 129.8ZM168.86 129.8C168.86 128.627 168.593 127.7 168.06 127.02C167.54 126.327 166.826 125.98 165.92 125.98C165.013 125.98 164.293 126.327 163.76 127.02C163.24 127.7 162.98 128.627 162.98 129.8C162.98 130.973 163.24 131.907 163.76 132.6C164.293 133.28 165.013 133.62 165.92 133.62C166.826 133.62 167.54 133.28 168.06 132.6C168.593 131.907 168.86 130.973 168.86 129.8ZM178.436 135.24C177.596 135.24 176.856 135.107 176.216 134.84C175.59 134.573 175.056 134.2 174.616 133.72C174.19 133.24 173.87 132.673 173.656 132.02C173.443 131.353 173.336 130.62 173.336 129.82C173.336 129.02 173.45 128.287 173.676 127.62C173.916 126.953 174.25 126.38 174.676 125.9C175.103 125.407 175.623 125.027 176.236 124.76C176.863 124.48 177.556 124.34 178.316 124.34C178.783 124.34 179.25 124.38 179.716 124.46C180.183 124.54 180.63 124.667 181.056 124.84L180.636 126.42C180.356 126.287 180.03 126.18 179.656 126.1C179.296 126.02 178.91 125.98 178.496 125.98C177.456 125.98 176.656 126.307 176.096 126.96C175.55 127.613 175.276 128.567 175.276 129.82C175.276 130.38 175.336 130.893 175.456 131.36C175.59 131.827 175.79 132.227 176.056 132.56C176.336 132.893 176.69 133.153 177.116 133.34C177.543 133.513 178.063 133.6 178.676 133.6C179.17 133.6 179.616 133.553 180.016 133.46C180.416 133.367 180.73 133.267 180.956 133.16L181.216 134.72C181.11 134.787 180.956 134.853 180.756 134.92C180.556 134.973 180.33 135.02 180.076 135.06C179.823 135.113 179.55 135.153 179.256 135.18C178.976 135.22 178.703 135.24 178.436 135.24ZM191.346 124.6V126.16H187.966V135H186.106V126.16H182.726V124.6H191.346ZM202.504 124.6V135H200.704V127.08C200.304 127.587 199.864 128.18 199.384 128.86C198.904 129.54 198.424 130.247 197.944 130.98C197.464 131.7 197.004 132.413 196.564 133.12C196.124 133.827 195.744 134.453 195.424 135H193.764V124.6H195.564V132.08C195.911 131.507 196.304 130.88 196.744 130.2C197.184 129.507 197.637 128.827 198.104 128.16C198.584 127.48 199.057 126.833 199.524 126.22C200.004 125.593 200.451 125.053 200.864 124.6H202.504ZM215.127 129.34C215.54 129.633 215.987 130.007 216.467 130.46C216.947 130.9 217.413 131.38 217.867 131.9C218.333 132.42 218.767 132.953 219.167 133.5C219.567 134.033 219.907 134.533 220.187 135H217.987C217.693 134.547 217.347 134.087 216.947 133.62C216.56 133.14 216.153 132.68 215.727 132.24C215.3 131.8 214.867 131.393 214.427 131.02C213.987 130.647 213.573 130.333 213.187 130.08V135H211.327V124.6H213.187V129.06C213.507 128.753 213.873 128.4 214.287 128C214.7 127.587 215.113 127.173 215.527 126.76C215.953 126.333 216.347 125.933 216.707 125.56C217.067 125.173 217.36 124.853 217.587 124.6H219.747C219.453 124.92 219.107 125.287 218.707 125.7C218.32 126.1 217.913 126.513 217.487 126.94C217.073 127.367 216.66 127.793 216.247 128.22C215.833 128.633 215.46 129.007 215.127 129.34ZM231.163 129.8C231.163 130.627 231.043 131.373 230.803 132.04C230.563 132.707 230.223 133.28 229.783 133.76C229.356 134.24 228.843 134.613 228.243 134.88C227.643 135.133 226.989 135.26 226.283 135.26C225.576 135.26 224.923 135.133 224.323 134.88C223.723 134.613 223.203 134.24 222.763 133.76C222.336 133.28 222.003 132.707 221.763 132.04C221.523 131.373 221.403 130.627 221.403 129.8C221.403 128.987 221.523 128.247 221.763 127.58C222.003 126.9 222.336 126.32 222.763 125.84C223.203 125.36 223.723 124.993 224.323 124.74C224.923 124.473 225.576 124.34 226.283 124.34C226.989 124.34 227.643 124.473 228.243 124.74C228.843 124.993 229.356 125.36 229.783 125.84C230.223 126.32 230.563 126.9 230.803 127.58C231.043 128.247 231.163 128.987 231.163 129.8ZM229.223 129.8C229.223 128.627 228.956 127.7 228.423 127.02C227.903 126.327 227.189 125.98 226.283 125.98C225.376 125.98 224.656 126.327 224.123 127.02C223.603 127.7 223.343 128.627 223.343 129.8C223.343 130.973 223.603 131.907 224.123 132.6C224.656 133.28 225.376 133.62 226.283 133.62C227.189 133.62 227.903 133.28 228.423 132.6C228.956 131.907 229.223 130.973 229.223 129.8ZM233 133.48H234.12C234.56 132.84 234.906 132.18 235.16 131.5C235.426 130.82 235.626 130.12 235.76 129.4C235.893 128.667 235.98 127.907 236.02 127.12C236.06 126.32 236.086 125.48 236.1 124.6H242.92V133.48H244.32V137.9H242.56V135H234.76V137.9H233V133.48ZM241.06 133.48V126.16H237.8C237.786 126.787 237.753 127.42 237.7 128.06C237.646 128.687 237.56 129.313 237.44 129.94C237.32 130.553 237.146 131.16 236.92 131.76C236.706 132.347 236.433 132.92 236.1 133.48H241.06ZM250.35 133.66C250.79 133.66 251.177 133.653 251.51 133.64C251.857 133.613 252.144 133.573 252.37 133.52V130.42C252.237 130.353 252.017 130.3 251.71 130.26C251.417 130.207 251.057 130.18 250.63 130.18C250.35 130.18 250.05 130.2 249.73 130.24C249.424 130.28 249.137 130.367 248.87 130.5C248.617 130.62 248.404 130.793 248.23 131.02C248.057 131.233 247.97 131.52 247.97 131.88C247.97 132.547 248.184 133.013 248.61 133.28C249.037 133.533 249.617 133.66 250.35 133.66ZM250.19 124.34C250.937 124.34 251.564 124.44 252.07 124.64C252.59 124.827 253.004 125.1 253.31 125.46C253.63 125.807 253.857 126.227 253.99 126.72C254.124 127.2 254.19 127.733 254.19 128.32V134.82C254.03 134.847 253.804 134.887 253.51 134.94C253.23 134.98 252.91 135.02 252.55 135.06C252.19 135.1 251.797 135.133 251.37 135.16C250.957 135.2 250.544 135.22 250.13 135.22C249.544 135.22 249.004 135.16 248.51 135.04C248.017 134.92 247.59 134.733 247.23 134.48C246.87 134.213 246.59 133.867 246.39 133.44C246.19 133.013 246.09 132.5 246.09 131.9C246.09 131.327 246.204 130.833 246.43 130.42C246.67 130.007 246.99 129.673 247.39 129.42C247.79 129.167 248.257 128.98 248.79 128.86C249.324 128.74 249.884 128.68 250.47 128.68C250.657 128.68 250.85 128.693 251.05 128.72C251.25 128.733 251.437 128.76 251.61 128.8C251.797 128.827 251.957 128.853 252.09 128.88C252.224 128.907 252.317 128.927 252.37 128.94V128.42C252.37 128.113 252.337 127.813 252.27 127.52C252.204 127.213 252.084 126.947 251.91 126.72C251.737 126.48 251.497 126.293 251.19 126.16C250.897 126.013 250.51 125.94 250.03 125.94C249.417 125.94 248.877 125.987 248.41 126.08C247.957 126.16 247.617 126.247 247.39 126.34L247.17 124.8C247.41 124.693 247.81 124.593 248.37 124.5C248.93 124.393 249.537 124.34 250.19 124.34ZM40.46 151.12C40.18 151.12 39.8733 151.113 39.54 151.1C39.22 151.087 38.8933 151.067 38.56 151.04C38.24 151.013 37.92 150.98 37.6 150.94C37.28 150.9 36.9867 150.847 36.72 150.78V137.34C36.9867 137.273 37.28 137.22 37.6 137.18C37.92 137.14 38.24 137.107 38.56 137.08C38.8933 137.053 39.22 137.033 39.54 137.02C39.86 137.007 40.16 137 40.44 137C41.24 137 41.9867 137.06 42.68 137.18C43.3867 137.3 43.9933 137.507 44.5 137.8C45.02 138.08 45.4267 138.453 45.72 138.92C46.0133 139.387 46.16 139.96 46.16 140.64C46.16 141.4 45.98 142.027 45.62 142.52C45.26 143 44.78 143.36 44.18 143.6C44.9933 143.84 45.64 144.22 46.12 144.74C46.6 145.26 46.84 145.993 46.84 146.94C46.84 148.327 46.3267 149.373 45.3 150.08C44.2867 150.773 42.6733 151.12 40.46 151.12ZM38.64 144.54V149.42C38.7867 149.433 38.96 149.447 39.16 149.46C39.3333 149.473 39.5333 149.487 39.76 149.5C40 149.5 40.2733 149.5 40.58 149.5C41.1533 149.5 41.6933 149.467 42.2 149.4C42.72 149.32 43.1733 149.187 43.56 149C43.9467 148.813 44.2533 148.553 44.48 148.22C44.72 147.887 44.84 147.467 44.84 146.96C44.84 146.507 44.7533 146.127 44.58 145.82C44.4067 145.5 44.1533 145.247 43.82 145.06C43.5 144.873 43.1133 144.74 42.66 144.66C42.2067 144.58 41.7 144.54 41.14 144.54H38.64ZM38.64 142.98H40.68C41.16 142.98 41.6133 142.947 42.04 142.88C42.4667 142.813 42.8333 142.693 43.14 142.52C43.46 142.347 43.7067 142.12 43.88 141.84C44.0667 141.56 44.16 141.207 44.16 140.78C44.16 140.38 44.0667 140.047 43.88 139.78C43.6933 139.5 43.4333 139.28 43.1 139.12C42.78 138.947 42.4 138.82 41.96 138.74C41.52 138.66 41.0533 138.62 40.56 138.62C40.0667 138.62 39.68 138.627 39.4 138.64C39.12 138.653 38.8667 138.673 38.64 138.7V142.98ZM53.4716 149.66C53.9116 149.66 54.2982 149.653 54.6316 149.64C54.9782 149.613 55.2649 149.573 55.4916 149.52V146.42C55.3582 146.353 55.1382 146.3 54.8316 146.26C54.5382 146.207 54.1782 146.18 53.7516 146.18C53.4716 146.18 53.1716 146.2 52.8516 146.24C52.5449 146.28 52.2582 146.367 51.9916 146.5C51.7382 146.62 51.5249 146.793 51.3516 147.02C51.1782 147.233 51.0916 147.52 51.0916 147.88C51.0916 148.547 51.3049 149.013 51.7316 149.28C52.1582 149.533 52.7382 149.66 53.4716 149.66ZM53.3116 140.34C54.0582 140.34 54.6849 140.44 55.1916 140.64C55.7116 140.827 56.1249 141.1 56.4316 141.46C56.7516 141.807 56.9782 142.227 57.1116 142.72C57.2449 143.2 57.3116 143.733 57.3116 144.32V150.82C57.1516 150.847 56.9249 150.887 56.6316 150.94C56.3516 150.98 56.0316 151.02 55.6716 151.06C55.3116 151.1 54.9182 151.133 54.4916 151.16C54.0782 151.2 53.6649 151.22 53.2516 151.22C52.6649 151.22 52.1249 151.16 51.6316 151.04C51.1382 150.92 50.7116 150.733 50.3516 150.48C49.9916 150.213 49.7116 149.867 49.5116 149.44C49.3116 149.013 49.2116 148.5 49.2116 147.9C49.2116 147.327 49.3249 146.833 49.5516 146.42C49.7916 146.007 50.1116 145.673 50.5116 145.42C50.9116 145.167 51.3782 144.98 51.9116 144.86C52.4449 144.74 53.0049 144.68 53.5916 144.68C53.7782 144.68 53.9716 144.693 54.1716 144.72C54.3716 144.733 54.5582 144.76 54.7316 144.8C54.9182 144.827 55.0782 144.853 55.2116 144.88C55.3449 144.907 55.4382 144.927 55.4916 144.94V144.42C55.4916 144.113 55.4582 143.813 55.3916 143.52C55.3249 143.213 55.2049 142.947 55.0316 142.72C54.8582 142.48 54.6182 142.293 54.3116 142.16C54.0182 142.013 53.6316 141.94 53.1516 141.94C52.5382 141.94 51.9982 141.987 51.5316 142.08C51.0782 142.16 50.7382 142.247 50.5116 142.34L50.2916 140.8C50.5316 140.693 50.9316 140.593 51.4916 140.5C52.0516 140.393 52.6582 140.34 53.3116 140.34ZM62.8808 143.34C62.7474 144.66 62.6474 145.98 62.5808 147.3C62.5141 148.607 62.4608 149.84 62.4208 151H60.6408C60.6674 150.187 60.7074 149.34 60.7608 148.46C60.8141 147.567 60.8741 146.673 60.9408 145.78C61.0074 144.873 61.0808 143.987 61.1608 143.12C61.2408 142.24 61.3274 141.4 61.4208 140.6H63.1208C63.5474 141.293 64.0474 142.247 64.6208 143.46C65.1941 144.66 65.8541 146.047 66.6008 147.62C67.3474 146.047 68.0074 144.66 68.5808 143.46C69.1541 142.247 69.6541 141.293 70.0808 140.6H71.8008C71.8941 141.4 71.9808 142.24 72.0608 143.12C72.1408 143.987 72.2141 144.873 72.2808 145.78C72.3474 146.673 72.4074 147.567 72.4608 148.46C72.5141 149.34 72.5541 150.187 72.5808 151H70.7408C70.7008 149.84 70.6474 148.607 70.5808 147.3C70.5141 145.98 70.4141 144.66 70.2808 143.34C70.0674 143.753 69.8208 144.253 69.5408 144.84C69.2608 145.413 68.9808 146 68.7008 146.6C68.4341 147.2 68.1808 147.773 67.9408 148.32C67.7008 148.867 67.5141 149.3 67.3808 149.62H65.8208C65.6741 149.287 65.4741 148.847 65.2208 148.3C64.9808 147.753 64.7208 147.18 64.4408 146.58C64.1741 145.967 63.9008 145.373 63.6208 144.8C63.3408 144.213 63.0941 143.727 62.8808 143.34Z"
            fill="#0231A1"/>
</svg>
