<svg width="304" height="100" viewBox="0 0 304 100" fill="none" xmlns="http://www.w3.org/2000/svg">
    <rect x="22" width="282" height="100" rx="10" fill="#CCD3E4"/>
    <path
            d="M43.3895 27.14V41H41.4495V28.8H34.7895V41H32.8495V27.14H43.3895ZM50.7339 39.66C51.1739 39.66 51.5606 39.6533 51.8939 39.64C52.2406 39.6133 52.5272 39.5733 52.7539 39.52V36.42C52.6206 36.3533 52.4006 36.3 52.0939 36.26C51.8006 36.2067 51.4406 36.18 51.0139 36.18C50.7339 36.18 50.4339 36.2 50.1139 36.24C49.8072 36.28 49.5206 36.3667 49.2539 36.5C49.0006 36.62 48.7872 36.7933 48.6139 37.02C48.4406 37.2333 48.3539 37.52 48.3539 37.88C48.3539 38.5467 48.5672 39.0133 48.9939 39.28C49.4206 39.5333 50.0006 39.66 50.7339 39.66ZM50.5739 30.34C51.3206 30.34 51.9472 30.44 52.4539 30.64C52.9739 30.8267 53.3872 31.1 53.6939 31.46C54.0139 31.8067 54.2406 32.2267 54.3739 32.72C54.5072 33.2 54.5739 33.7333 54.5739 34.32V40.82C54.4139 40.8467 54.1872 40.8867 53.8939 40.94C53.6139 40.98 53.2939 41.02 52.9339 41.06C52.5739 41.1 52.1806 41.1333 51.7539 41.16C51.3406 41.2 50.9272 41.22 50.5139 41.22C49.9272 41.22 49.3872 41.16 48.8939 41.04C48.4006 40.92 47.9739 40.7333 47.6139 40.48C47.2539 40.2133 46.9739 39.8667 46.7739 39.44C46.5739 39.0133 46.4739 38.5 46.4739 37.9C46.4739 37.3267 46.5872 36.8333 46.8139 36.42C47.0539 36.0067 47.3739 35.6733 47.7739 35.42C48.1739 35.1667 48.6406 34.98 49.1739 34.86C49.7072 34.74 50.2672 34.68 50.8539 34.68C51.0406 34.68 51.2339 34.6933 51.4339 34.72C51.6339 34.7333 51.8206 34.76 51.9939 34.8C52.1806 34.8267 52.3406 34.8533 52.4739 34.88C52.6072 34.9067 52.7006 34.9267 52.7539 34.94V34.42C52.7539 34.1133 52.7206 33.8133 52.6539 33.52C52.5872 33.2133 52.4672 32.9467 52.2939 32.72C52.1206 32.48 51.8806 32.2933 51.5739 32.16C51.2806 32.0133 50.8939 31.94 50.4139 31.94C49.8006 31.94 49.2606 31.9867 48.7939 32.08C48.3406 32.16 48.0006 32.2467 47.7739 32.34L47.5539 30.8C47.7939 30.6933 48.1939 30.5933 48.7539 30.5C49.3139 30.3933 49.9206 30.34 50.5739 30.34ZM65.3831 35.82C65.3831 34.6067 65.0831 33.6733 64.4831 33.02C63.8831 32.3667 63.0831 32.04 62.0831 32.04C61.5231 32.04 61.0831 32.06 60.7631 32.1C60.4564 32.14 60.2098 32.1867 60.0231 32.24V38.8C60.2498 38.9867 60.5764 39.1667 61.0031 39.34C61.4298 39.5133 61.8964 39.6 62.4031 39.6C62.9364 39.6 63.3898 39.5067 63.7631 39.32C64.1498 39.12 64.4631 38.8533 64.7031 38.52C64.9431 38.1733 65.1164 37.7733 65.2231 37.32C65.3298 36.8533 65.3831 36.3533 65.3831 35.82ZM67.3231 35.82C67.3231 36.6067 67.2164 37.3333 67.0031 38C66.8031 38.6667 66.5031 39.24 66.1031 39.72C65.7031 40.2 65.2098 40.5733 64.6231 40.84C64.0498 41.1067 63.3898 41.24 62.6431 41.24C62.0431 41.24 61.5098 41.16 61.0431 41C60.5898 40.84 60.2498 40.6867 60.0231 40.54V44.7H58.1631V30.92C58.6031 30.8133 59.1498 30.7 59.8031 30.58C60.4698 30.4467 61.2364 30.38 62.1031 30.38C62.9031 30.38 63.6231 30.5067 64.2631 30.76C64.9031 31.0133 65.4498 31.3733 65.9031 31.84C66.3564 32.3067 66.7031 32.88 66.9431 33.56C67.1964 34.2267 67.3231 34.98 67.3231 35.82ZM79.6205 35.8C79.6205 36.6267 79.5005 37.3733 79.2605 38.04C79.0205 38.7067 78.6805 39.28 78.2405 39.76C77.8138 40.24 77.3005 40.6133 76.7005 40.88C76.1005 41.1333 75.4471 41.26 74.7405 41.26C74.0338 41.26 73.3805 41.1333 72.7805 40.88C72.1805 40.6133 71.6605 40.24 71.2205 39.76C70.7938 39.28 70.4605 38.7067 70.2205 38.04C69.9805 37.3733 69.8605 36.6267 69.8605 35.8C69.8605 34.9867 69.9805 34.2467 70.2205 33.58C70.4605 32.9 70.7938 32.32 71.2205 31.84C71.6605 31.36 72.1805 30.9933 72.7805 30.74C73.3805 30.4733 74.0338 30.34 74.7405 30.34C75.4471 30.34 76.1005 30.4733 76.7005 30.74C77.3005 30.9933 77.8138 31.36 78.2405 31.84C78.6805 32.32 79.0205 32.9 79.2605 33.58C79.5005 34.2467 79.6205 34.9867 79.6205 35.8ZM77.6805 35.8C77.6805 34.6267 77.4138 33.7 76.8805 33.02C76.3605 32.3267 75.6471 31.98 74.7405 31.98C73.8338 31.98 73.1138 32.3267 72.5805 33.02C72.0605 33.7 71.8005 34.6267 71.8005 35.8C71.8005 36.9733 72.0605 37.9067 72.5805 38.6C73.1138 39.28 73.8338 39.62 74.7405 39.62C75.6471 39.62 76.3605 39.28 76.8805 38.6C77.4138 37.9067 77.6805 36.9733 77.6805 35.8ZM86.3573 32.16C86.3573 32.6 86.344 33.0733 86.3173 33.58C86.304 34.0733 86.2707 34.5733 86.2173 35.08C86.164 35.5733 86.0907 36.0667 85.9973 36.56C85.904 37.04 85.784 37.4933 85.6373 37.92C85.4907 38.3467 85.304 38.7467 85.0773 39.12C84.864 39.4933 84.5973 39.8267 84.2773 40.12C83.9573 40.4 83.584 40.64 83.1573 40.84C82.7307 41.0267 82.2307 41.1467 81.6573 41.2L81.3973 39.64C82.0507 39.5067 82.564 39.26 82.9373 38.9C83.324 38.54 83.6307 38.1 83.8573 37.58C84.0573 37.1267 84.204 36.6133 84.2973 36.04C84.3907 35.4667 84.4573 34.8733 84.4973 34.26C84.5373 33.6333 84.5573 33.0067 84.5573 32.38C84.5707 31.7533 84.5773 31.16 84.5773 30.6H91.4973V41H89.6373V32.16H86.3573ZM99.1305 39.7C99.9171 39.7 100.537 39.5467 100.99 39.24C101.444 38.9333 101.67 38.44 101.67 37.76C101.67 37.4267 101.604 37.14 101.47 36.9C101.337 36.66 101.15 36.4667 100.91 36.32C100.684 36.16 100.417 36.0467 100.11 35.98C99.8038 35.9 99.4771 35.86 99.1305 35.86C98.7705 35.86 98.3971 35.8733 98.0105 35.9C97.6371 35.9133 97.3171 35.9533 97.0505 36.02V39.6C97.1305 39.6133 97.2505 39.6267 97.4105 39.64C97.5705 39.6533 97.7438 39.6667 97.9305 39.68C98.1305 39.68 98.3305 39.6867 98.5305 39.7C98.7438 39.7 98.9438 39.7 99.1305 39.7ZM95.1905 40.78V30.6H97.0505V34.58C97.1571 34.5533 97.2971 34.5267 97.4705 34.5C97.6571 34.4733 97.8505 34.4467 98.0505 34.42C98.2638 34.3933 98.4838 34.3733 98.7105 34.36C98.9371 34.3467 99.1505 34.34 99.3505 34.34C99.9238 34.34 100.464 34.4067 100.97 34.54C101.477 34.66 101.917 34.86 102.29 35.14C102.677 35.4067 102.984 35.76 103.21 36.2C103.437 36.6267 103.55 37.14 103.55 37.74C103.55 38.3667 103.444 38.9 103.23 39.34C103.017 39.78 102.71 40.14 102.31 40.42C101.91 40.7 101.43 40.9 100.87 41.02C100.324 41.1533 99.7105 41.22 99.0305 41.22C98.3638 41.22 97.7105 41.18 97.0705 41.1C96.4305 41.0333 95.8038 40.9267 95.1905 40.78ZM118.726 30.6V32.16H115.346V41H113.486V32.16H110.106V30.6H118.726ZM128.364 35.82C128.364 34.6067 128.064 33.6733 127.464 33.02C126.864 32.3667 126.064 32.04 125.064 32.04C124.504 32.04 124.064 32.06 123.744 32.1C123.437 32.14 123.19 32.1867 123.004 32.24V38.8C123.23 38.9867 123.557 39.1667 123.984 39.34C124.41 39.5133 124.877 39.6 125.384 39.6C125.917 39.6 126.37 39.5067 126.744 39.32C127.13 39.12 127.444 38.8533 127.684 38.52C127.924 38.1733 128.097 37.7733 128.204 37.32C128.31 36.8533 128.364 36.3533 128.364 35.82ZM130.304 35.82C130.304 36.6067 130.197 37.3333 129.984 38C129.784 38.6667 129.484 39.24 129.084 39.72C128.684 40.2 128.19 40.5733 127.604 40.84C127.03 41.1067 126.37 41.24 125.624 41.24C125.024 41.24 124.49 41.16 124.024 41C123.57 40.84 123.23 40.6867 123.004 40.54V44.7H121.144V30.92C121.584 30.8133 122.13 30.7 122.784 30.58C123.45 30.4467 124.217 30.38 125.084 30.38C125.884 30.38 126.604 30.5067 127.244 30.76C127.884 31.0133 128.43 31.3733 128.884 31.84C129.337 32.3067 129.684 32.88 129.924 33.56C130.177 34.2267 130.304 34.98 130.304 35.82ZM132.841 35.82C132.841 34.9 132.974 34.1 133.241 33.42C133.508 32.7267 133.861 32.1533 134.301 31.7C134.741 31.2467 135.248 30.9067 135.821 30.68C136.394 30.4533 136.981 30.34 137.581 30.34C138.981 30.34 140.054 30.78 140.801 31.66C141.548 32.5267 141.921 33.8533 141.921 35.64C141.921 35.72 141.921 35.8267 141.921 35.96C141.921 36.08 141.914 36.1933 141.901 36.3H134.781C134.861 37.38 135.174 38.2 135.721 38.76C136.268 39.32 137.121 39.6 138.281 39.6C138.934 39.6 139.481 39.5467 139.921 39.44C140.374 39.32 140.714 39.2067 140.941 39.1L141.201 40.66C140.974 40.78 140.574 40.9067 140.001 41.04C139.441 41.1733 138.801 41.24 138.081 41.24C137.174 41.24 136.388 41.1067 135.721 40.84C135.068 40.56 134.528 40.18 134.101 39.7C133.674 39.22 133.354 38.6533 133.141 38C132.941 37.3333 132.841 36.6067 132.841 35.82ZM139.981 34.8C139.994 33.96 139.781 33.2733 139.341 32.74C138.914 32.1933 138.321 31.92 137.561 31.92C137.134 31.92 136.754 32.0067 136.421 32.18C136.101 32.34 135.828 32.5533 135.601 32.82C135.374 33.0867 135.194 33.3933 135.061 33.74C134.941 34.0867 134.861 34.44 134.821 34.8H139.981ZM146.773 31.8C147.186 31.4667 147.666 31.2133 148.213 31.04C148.773 30.8533 149.306 30.76 149.813 30.76C151.306 30.76 152.433 31.22 153.193 32.14C153.966 33.0467 154.353 34.3133 154.353 35.94C154.353 36.6333 154.259 37.3 154.073 37.94C153.886 38.58 153.593 39.1467 153.193 39.64C152.806 40.1333 152.313 40.5267 151.713 40.82C151.113 41.1133 150.399 41.26 149.573 41.26C148.626 41.26 147.839 41.0867 147.213 40.74C146.586 40.3933 146.086 39.92 145.713 39.32C145.353 38.72 145.099 38.02 144.953 37.22C144.806 36.42 144.733 35.5733 144.733 34.68C144.733 33.52 144.813 32.44 144.973 31.44C145.146 30.44 145.453 29.56 145.893 28.8C146.333 28.04 146.939 27.4133 147.713 26.92C148.499 26.4133 149.506 26.0733 150.733 25.9C151.093 25.8467 151.406 25.8067 151.673 25.78C151.953 25.74 152.193 25.7067 152.393 25.68C152.606 25.6533 152.799 25.6267 152.973 25.6C153.146 25.56 153.326 25.52 153.513 25.48L153.713 27.16C153.619 27.1867 153.519 27.2067 153.413 27.22C153.319 27.2333 153.179 27.2533 152.993 27.28C152.819 27.3067 152.579 27.34 152.273 27.38C151.979 27.42 151.593 27.4667 151.113 27.52C149.793 27.6667 148.779 28.0667 148.073 28.72C147.366 29.3733 146.933 30.4 146.773 31.8ZM146.653 34.98C146.653 35.6067 146.693 36.2 146.773 36.76C146.866 37.32 147.019 37.8133 147.233 38.24C147.459 38.6667 147.759 39.0067 148.133 39.26C148.506 39.5 148.986 39.62 149.573 39.62C150.079 39.62 150.513 39.5267 150.873 39.34C151.233 39.14 151.526 38.8733 151.753 38.54C151.979 38.2067 152.146 37.82 152.253 37.38C152.359 36.9267 152.413 36.4467 152.413 35.94C152.413 35.4867 152.366 35.0467 152.273 34.62C152.193 34.1933 152.039 33.8133 151.813 33.48C151.586 33.1467 151.279 32.88 150.893 32.68C150.519 32.48 150.046 32.38 149.473 32.38C148.913 32.38 148.373 32.5 147.853 32.74C147.346 32.98 146.953 33.2733 146.673 33.62C146.659 33.7667 146.653 33.9733 146.653 34.24C146.653 34.5067 146.653 34.7533 146.653 34.98ZM156.267 42.94C156.414 43.0067 156.601 43.0667 156.827 43.12C157.067 43.1867 157.301 43.22 157.527 43.22C158.261 43.22 158.834 43.0533 159.247 42.72C159.661 42.4 160.034 41.8733 160.367 41.14C159.527 39.54 158.741 37.8467 158.007 36.06C157.287 34.26 156.687 32.44 156.207 30.6H158.207C158.354 31.2 158.527 31.8467 158.727 32.54C158.941 33.2333 159.174 33.9467 159.427 34.68C159.681 35.4133 159.954 36.1467 160.247 36.88C160.541 37.6133 160.847 38.32 161.167 39C161.674 37.6 162.114 36.2133 162.487 34.84C162.861 33.4667 163.214 32.0533 163.547 30.6H165.467C164.987 32.56 164.454 34.4467 163.867 36.26C163.281 38.06 162.647 39.7467 161.967 41.32C161.701 41.92 161.421 42.4333 161.127 42.86C160.847 43.3 160.534 43.66 160.187 43.94C159.841 44.22 159.447 44.4267 159.007 44.56C158.581 44.6933 158.094 44.76 157.547 44.76C157.401 44.76 157.247 44.7467 157.087 44.72C156.927 44.7067 156.767 44.68 156.607 44.64C156.461 44.6133 156.321 44.58 156.187 44.54C156.067 44.5 155.981 44.4667 155.927 44.44L156.267 42.94ZM167.114 35.82C167.114 34.9 167.248 34.1 167.514 33.42C167.781 32.7267 168.134 32.1533 168.574 31.7C169.014 31.2467 169.521 30.9067 170.094 30.68C170.668 30.4533 171.254 30.34 171.854 30.34C173.254 30.34 174.328 30.78 175.074 31.66C175.821 32.5267 176.194 33.8533 176.194 35.64C176.194 35.72 176.194 35.8267 176.194 35.96C176.194 36.08 176.188 36.1933 176.174 36.3H169.054C169.134 37.38 169.448 38.2 169.994 38.76C170.541 39.32 171.394 39.6 172.554 39.6C173.208 39.6 173.754 39.5467 174.194 39.44C174.648 39.32 174.988 39.2067 175.214 39.1L175.474 40.66C175.248 40.78 174.848 40.9067 174.274 41.04C173.714 41.1733 173.074 41.24 172.354 41.24C171.448 41.24 170.661 41.1067 169.994 40.84C169.341 40.56 168.801 40.18 168.374 39.7C167.948 39.22 167.628 38.6533 167.414 38C167.214 37.3333 167.114 36.6067 167.114 35.82ZM174.254 34.8C174.268 33.96 174.054 33.2733 173.614 32.74C173.188 32.1933 172.594 31.92 171.834 31.92C171.408 31.92 171.028 32.0067 170.694 32.18C170.374 32.34 170.101 32.5533 169.874 32.82C169.648 33.0867 169.468 33.3933 169.334 33.74C169.214 34.0867 169.134 34.44 169.094 34.8H174.254ZM186.706 30.6V32.16H183.326V41H181.466V32.16H178.086V30.6H186.706ZM193.644 41.24C192.804 41.24 192.064 41.1067 191.424 40.84C190.797 40.5733 190.264 40.2 189.824 39.72C189.397 39.24 189.077 38.6733 188.864 38.02C188.651 37.3533 188.544 36.62 188.544 35.82C188.544 35.02 188.657 34.2867 188.884 33.62C189.124 32.9533 189.457 32.38 189.884 31.9C190.311 31.4067 190.831 31.0267 191.444 30.76C192.071 30.48 192.764 30.34 193.524 30.34C193.991 30.34 194.457 30.38 194.924 30.46C195.391 30.54 195.837 30.6667 196.264 30.84L195.844 32.42C195.564 32.2867 195.237 32.18 194.864 32.1C194.504 32.02 194.117 31.98 193.704 31.98C192.664 31.98 191.864 32.3067 191.304 32.96C190.757 33.6133 190.484 34.5667 190.484 35.82C190.484 36.38 190.544 36.8933 190.664 37.36C190.797 37.8267 190.997 38.2267 191.264 38.56C191.544 38.8933 191.897 39.1533 192.324 39.34C192.751 39.5133 193.271 39.6 193.884 39.6C194.377 39.6 194.824 39.5533 195.224 39.46C195.624 39.3667 195.937 39.2667 196.164 39.16L196.424 40.72C196.317 40.7867 196.164 40.8533 195.964 40.92C195.764 40.9733 195.537 41.02 195.284 41.06C195.031 41.1133 194.757 41.1533 194.464 41.18C194.184 41.22 193.911 41.24 193.644 41.24ZM203.221 36.96C203.021 36.96 202.828 36.96 202.641 36.96C202.454 36.9467 202.274 36.9333 202.101 36.92C201.674 37.56 201.261 38.2467 200.861 38.98C200.474 39.7 200.128 40.3733 199.821 41H197.941C198.101 40.6133 198.288 40.22 198.501 39.82C198.714 39.4067 198.928 39.0067 199.141 38.62C199.368 38.2333 199.594 37.8667 199.821 37.52C200.048 37.1733 200.261 36.86 200.461 36.58C200.088 36.4467 199.781 36.2867 199.541 36.1C199.301 35.9 199.108 35.68 198.961 35.44C198.814 35.2 198.708 34.9467 198.641 34.68C198.588 34.4 198.561 34.12 198.561 33.84C198.561 33.2533 198.668 32.74 198.881 32.3C199.108 31.86 199.414 31.5 199.801 31.22C200.188 30.9267 200.641 30.7067 201.161 30.56C201.694 30.4133 202.274 30.34 202.901 30.34C203.781 30.34 204.528 30.38 205.141 30.46C205.754 30.54 206.268 30.6333 206.681 30.74V41H204.841V36.96H203.221ZM204.841 31.98C204.694 31.9533 204.448 31.9267 204.101 31.9C203.768 31.8733 203.381 31.86 202.941 31.86C202.181 31.86 201.568 32.02 201.101 32.34C200.634 32.6467 200.401 33.14 200.401 33.82C200.401 34.4867 200.641 34.9467 201.121 35.2C201.601 35.4533 202.221 35.58 202.981 35.58H204.841V31.98ZM214.227 39.48H215.347C215.787 38.84 216.134 38.18 216.387 37.5C216.654 36.82 216.854 36.12 216.987 35.4C217.12 34.6667 217.207 33.9067 217.247 33.12C217.287 32.32 217.314 31.48 217.327 30.6H224.147V39.48H225.547V43.9H223.787V41H215.987V43.9H214.227V39.48ZM222.287 39.48V32.16H219.027C219.014 32.7867 218.98 33.42 218.927 34.06C218.874 34.6867 218.787 35.3133 218.667 35.94C218.547 36.5533 218.374 37.16 218.147 37.76C217.934 38.3467 217.66 38.92 217.327 39.48H222.287ZM232.107 32.16C232.107 32.6 232.094 33.0733 232.067 33.58C232.054 34.0733 232.021 34.5733 231.967 35.08C231.914 35.5733 231.841 36.0667 231.747 36.56C231.654 37.04 231.534 37.4933 231.387 37.92C231.241 38.3467 231.054 38.7467 230.827 39.12C230.614 39.4933 230.347 39.8267 230.027 40.12C229.707 40.4 229.334 40.64 228.907 40.84C228.481 41.0267 227.981 41.1467 227.407 41.2L227.147 39.64C227.801 39.5067 228.314 39.26 228.687 38.9C229.074 38.54 229.381 38.1 229.607 37.58C229.807 37.1267 229.954 36.6133 230.047 36.04C230.141 35.4667 230.207 34.8733 230.247 34.26C230.287 33.6333 230.307 33.0067 230.307 32.38C230.321 31.7533 230.327 31.16 230.327 30.6H237.247V41H235.387V32.16H232.107ZM245.24 36.96C245.04 36.96 244.847 36.96 244.66 36.96C244.474 36.9467 244.294 36.9333 244.12 36.92C243.694 37.56 243.28 38.2467 242.88 38.98C242.494 39.7 242.147 40.3733 241.84 41H239.96C240.12 40.6133 240.307 40.22 240.52 39.82C240.734 39.4067 240.947 39.0067 241.16 38.62C241.387 38.2333 241.614 37.8667 241.84 37.52C242.067 37.1733 242.28 36.86 242.48 36.58C242.107 36.4467 241.8 36.2867 241.56 36.1C241.32 35.9 241.127 35.68 240.98 35.44C240.834 35.2 240.727 34.9467 240.66 34.68C240.607 34.4 240.58 34.12 240.58 33.84C240.58 33.2533 240.687 32.74 240.9 32.3C241.127 31.86 241.434 31.5 241.82 31.22C242.207 30.9267 242.66 30.7067 243.18 30.56C243.714 30.4133 244.294 30.34 244.92 30.34C245.8 30.34 246.547 30.38 247.16 30.46C247.774 30.54 248.287 30.6333 248.7 30.74V41H246.86V36.96H245.24ZM246.86 31.98C246.714 31.9533 246.467 31.9267 246.12 31.9C245.787 31.8733 245.4 31.86 244.96 31.86C244.2 31.86 243.587 32.02 243.12 32.34C242.654 32.6467 242.42 33.14 242.42 33.82C242.42 34.4867 242.66 34.9467 243.14 35.2C243.62 35.4533 244.24 35.58 245 35.58H246.86V31.98ZM36.2495 55.66C36.6895 55.66 37.0762 55.6533 37.4095 55.64C37.7562 55.6133 38.0429 55.5733 38.2695 55.52V52.42C38.1362 52.3533 37.9162 52.3 37.6095 52.26C37.3162 52.2067 36.9562 52.18 36.5295 52.18C36.2495 52.18 35.9495 52.2 35.6295 52.24C35.3229 52.28 35.0362 52.3667 34.7695 52.5C34.5162 52.62 34.3029 52.7933 34.1295 53.02C33.9562 53.2333 33.8695 53.52 33.8695 53.88C33.8695 54.5467 34.0829 55.0133 34.5095 55.28C34.9362 55.5333 35.5162 55.66 36.2495 55.66ZM36.0895 46.34C36.8362 46.34 37.4629 46.44 37.9695 46.64C38.4895 46.8267 38.9029 47.1 39.2095 47.46C39.5295 47.8067 39.7562 48.2267 39.8895 48.72C40.0229 49.2 40.0895 49.7333 40.0895 50.32V56.82C39.9295 56.8467 39.7029 56.8867 39.4095 56.94C39.1295 56.98 38.8095 57.02 38.4495 57.06C38.0895 57.1 37.6962 57.1333 37.2695 57.16C36.8562 57.2 36.4429 57.22 36.0295 57.22C35.4429 57.22 34.9029 57.16 34.4095 57.04C33.9162 56.92 33.4895 56.7333 33.1295 56.48C32.7695 56.2133 32.4895 55.8667 32.2895 55.44C32.0895 55.0133 31.9895 54.5 31.9895 53.9C31.9895 53.3267 32.1028 52.8333 32.3295 52.42C32.5695 52.0067 32.8895 51.6733 33.2895 51.42C33.6895 51.1667 34.1562 50.98 34.6895 50.86C35.2229 50.74 35.7829 50.68 36.3695 50.68C36.5562 50.68 36.7495 50.6933 36.9495 50.72C37.1495 50.7333 37.3362 50.76 37.5095 50.8C37.6962 50.8267 37.8562 50.8533 37.9895 50.88C38.1229 50.9067 38.2162 50.9267 38.2695 50.94V50.42C38.2695 50.1133 38.2362 49.8133 38.1695 49.52C38.1029 49.2133 37.9829 48.9467 37.8095 48.72C37.6362 48.48 37.3962 48.2933 37.0895 48.16C36.7962 48.0133 36.4095 47.94 35.9295 47.94C35.3162 47.94 34.7762 47.9867 34.3095 48.08C33.8562 48.16 33.5162 48.2467 33.2895 48.34L33.0695 46.8C33.3095 46.6933 33.7095 46.5933 34.2695 46.5C34.8295 46.3933 35.4362 46.34 36.0895 46.34ZM42.1658 58.94C42.3124 59.0067 42.4991 59.0667 42.7258 59.12C42.9658 59.1867 43.1991 59.22 43.4258 59.22C44.1591 59.22 44.7324 59.0533 45.1458 58.72C45.5591 58.4 45.9324 57.8733 46.2658 57.14C45.4258 55.54 44.6391 53.8467 43.9058 52.06C43.1858 50.26 42.5858 48.44 42.1058 46.6H44.1058C44.2524 47.2 44.4258 47.8467 44.6258 48.54C44.8391 49.2333 45.0724 49.9467 45.3258 50.68C45.5791 51.4133 45.8524 52.1467 46.1458 52.88C46.4391 53.6133 46.7458 54.32 47.0658 55C47.5724 53.6 48.0124 52.2133 48.3858 50.84C48.7591 49.4667 49.1124 48.0533 49.4458 46.6H51.3658C50.8858 48.56 50.3524 50.4467 49.7658 52.26C49.1791 54.06 48.5458 55.7467 47.8658 57.32C47.5991 57.92 47.3191 58.4333 47.0258 58.86C46.7458 59.3 46.4324 59.66 46.0858 59.94C45.7391 60.22 45.3458 60.4267 44.9058 60.56C44.4791 60.6933 43.9924 60.76 43.4458 60.76C43.2991 60.76 43.1458 60.7467 42.9858 60.72C42.8258 60.7067 42.6658 60.68 42.5058 60.64C42.3591 60.6133 42.2191 60.58 42.0858 60.54C41.9658 60.5 41.8791 60.4667 41.8258 60.44L42.1658 58.94ZM61.5969 46.6V48.16H58.2169V57H56.3569V48.16H52.9769V46.6H61.5969ZM63.4347 51.82C63.4347 50.9 63.568 50.1 63.8347 49.42C64.1013 48.7267 64.4547 48.1533 64.8947 47.7C65.3347 47.2467 65.8413 46.9067 66.4147 46.68C66.988 46.4533 67.5747 46.34 68.1747 46.34C69.5747 46.34 70.648 46.78 71.3947 47.66C72.1413 48.5267 72.5147 49.8533 72.5147 51.64C72.5147 51.72 72.5147 51.8267 72.5147 51.96C72.5147 52.08 72.508 52.1933 72.4947 52.3H65.3747C65.4547 53.38 65.768 54.2 66.3147 54.76C66.8613 55.32 67.7147 55.6 68.8747 55.6C69.528 55.6 70.0747 55.5467 70.5147 55.44C70.968 55.32 71.308 55.2067 71.5347 55.1L71.7947 56.66C71.568 56.78 71.168 56.9067 70.5947 57.04C70.0347 57.1733 69.3947 57.24 68.6747 57.24C67.768 57.24 66.9813 57.1067 66.3147 56.84C65.6613 56.56 65.1213 56.18 64.6947 55.7C64.268 55.22 63.948 54.6533 63.7347 54C63.5347 53.3333 63.4347 52.6067 63.4347 51.82ZM70.5747 50.8C70.588 49.96 70.3747 49.2733 69.9347 48.74C69.508 48.1933 68.9147 47.92 68.1547 47.92C67.728 47.92 67.348 48.0067 67.0147 48.18C66.6947 48.34 66.4213 48.5533 66.1947 48.82C65.968 49.0867 65.788 49.3933 65.6547 49.74C65.5347 50.0867 65.4547 50.44 65.4147 50.8H70.5747ZM84.2065 57H82.3465V52.4H77.5465V57H75.6865V46.6H77.5465V50.84H82.3465V46.6H84.2065V57ZM95.2453 46.6V48.16H91.8653V57H90.0053V48.16H86.6253V46.6H95.2453ZM106.403 46.6V57H104.603V49.08C104.203 49.5867 103.763 50.18 103.283 50.86C102.803 51.54 102.323 52.2467 101.843 52.98C101.363 53.7 100.903 54.4133 100.463 55.12C100.023 55.8267 99.6431 56.4533 99.3231 57H97.6631V46.6H99.4631V54.08C99.8098 53.5067 100.203 52.88 100.643 52.2C101.083 51.5067 101.536 50.8267 102.003 50.16C102.483 49.48 102.956 48.8333 103.423 48.22C103.903 47.5933 104.35 47.0533 104.763 46.6H106.403ZM111.397 51.8C111.397 52.3867 111.49 52.9067 111.677 53.36C111.877 53.8133 112.15 54.2 112.497 54.52C112.843 54.8267 113.25 55.0667 113.717 55.24C114.197 55.4 114.71 55.4867 115.257 55.5V48.1C114.71 48.1133 114.197 48.2067 113.717 48.38C113.25 48.5533 112.843 48.8 112.497 49.12C112.15 49.4267 111.877 49.8067 111.677 50.26C111.49 50.7133 111.397 51.2267 111.397 51.8ZM117.057 55.5C117.603 55.4867 118.11 55.4 118.577 55.24C119.057 55.0667 119.47 54.8267 119.817 54.52C120.163 54.2 120.43 53.8133 120.617 53.36C120.817 52.9067 120.917 52.3867 120.917 51.8C120.917 51.2267 120.817 50.7133 120.617 50.26C120.43 49.8067 120.163 49.4267 119.817 49.12C119.47 48.8 119.057 48.5533 118.577 48.38C118.11 48.2067 117.603 48.1133 117.057 48.1V55.5ZM117.057 60.7H115.257V57.06C114.47 57.0467 113.73 56.92 113.037 56.68C112.343 56.44 111.73 56.1 111.197 55.66C110.677 55.2067 110.263 54.66 109.957 54.02C109.65 53.3667 109.497 52.6267 109.497 51.8C109.497 50.9733 109.65 50.24 109.957 49.6C110.263 48.9467 110.677 48.4 111.197 47.96C111.73 47.5067 112.343 47.16 113.037 46.92C113.73 46.68 114.47 46.5533 115.257 46.54V41.8L117.057 41.48V46.54C117.83 46.5533 118.563 46.68 119.257 46.92C119.963 47.16 120.577 47.5067 121.097 47.96C121.63 48.4 122.05 48.9467 122.357 49.6C122.663 50.24 122.817 50.9733 122.817 51.8C122.817 52.6267 122.663 53.3667 122.357 54.02C122.05 54.66 121.63 55.2067 121.097 55.66C120.577 56.1 119.963 56.44 119.257 56.68C118.563 56.92 117.83 57.0467 117.057 57.06V60.7ZM134.649 46.6V57H132.849V49.08C132.449 49.5867 132.009 50.18 131.529 50.86C131.049 51.54 130.569 52.2467 130.089 52.98C129.609 53.7 129.149 54.4133 128.709 55.12C128.269 55.8267 127.889 56.4533 127.569 57H125.909V46.6H127.709V54.08C128.056 53.5067 128.449 52.88 128.889 52.2C129.329 51.5067 129.783 50.8267 130.249 50.16C130.729 49.48 131.203 48.8333 131.669 48.22C132.149 47.5933 132.596 47.0533 133.009 46.6H134.649ZM142.143 51.34C142.556 51.6333 143.003 52.0067 143.483 52.46C143.963 52.9 144.429 53.38 144.883 53.9C145.349 54.42 145.783 54.9533 146.183 55.5C146.583 56.0333 146.923 56.5333 147.203 57H145.003C144.709 56.5467 144.363 56.0867 143.963 55.62C143.576 55.14 143.169 54.68 142.743 54.24C142.316 53.8 141.883 53.3933 141.443 53.02C141.003 52.6467 140.589 52.3333 140.203 52.08V57H138.343V46.6H140.203V51.06C140.523 50.7533 140.889 50.4 141.303 50C141.716 49.5867 142.129 49.1733 142.543 48.76C142.969 48.3333 143.363 47.9333 143.723 47.56C144.083 47.1733 144.376 46.8533 144.603 46.6H146.763C146.469 46.92 146.123 47.2867 145.723 47.7C145.336 48.1 144.929 48.5133 144.503 48.94C144.089 49.3667 143.676 49.7933 143.263 50.22C142.849 50.6333 142.476 51.0067 142.143 51.34ZM153.105 55.66C153.545 55.66 153.932 55.6533 154.265 55.64C154.612 55.6133 154.898 55.5733 155.125 55.52V52.42C154.992 52.3533 154.772 52.3 154.465 52.26C154.172 52.2067 153.812 52.18 153.385 52.18C153.105 52.18 152.805 52.2 152.485 52.24C152.178 52.28 151.892 52.3667 151.625 52.5C151.372 52.62 151.158 52.7933 150.985 53.02C150.812 53.2333 150.725 53.52 150.725 53.88C150.725 54.5467 150.938 55.0133 151.365 55.28C151.792 55.5333 152.372 55.66 153.105 55.66ZM152.945 46.34C153.692 46.34 154.318 46.44 154.825 46.64C155.345 46.8267 155.758 47.1 156.065 47.46C156.385 47.8067 156.612 48.2267 156.745 48.72C156.878 49.2 156.945 49.7333 156.945 50.32V56.82C156.785 56.8467 156.558 56.8867 156.265 56.94C155.985 56.98 155.665 57.02 155.305 57.06C154.945 57.1 154.552 57.1333 154.125 57.16C153.712 57.2 153.298 57.22 152.885 57.22C152.298 57.22 151.758 57.16 151.265 57.04C150.772 56.92 150.345 56.7333 149.985 56.48C149.625 56.2133 149.345 55.8667 149.145 55.44C148.945 55.0133 148.845 54.5 148.845 53.9C148.845 53.3267 148.958 52.8333 149.185 52.42C149.425 52.0067 149.745 51.6733 150.145 51.42C150.545 51.1667 151.012 50.98 151.545 50.86C152.078 50.74 152.638 50.68 153.225 50.68C153.412 50.68 153.605 50.6933 153.805 50.72C154.005 50.7333 154.192 50.76 154.365 50.8C154.552 50.8267 154.712 50.8533 154.845 50.88C154.978 50.9067 155.072 50.9267 155.125 50.94V50.42C155.125 50.1133 155.092 49.8133 155.025 49.52C154.958 49.2133 154.838 48.9467 154.665 48.72C154.492 48.48 154.252 48.2933 153.945 48.16C153.652 48.0133 153.265 47.94 152.785 47.94C152.172 47.94 151.632 47.9867 151.165 48.08C150.712 48.16 150.372 48.2467 150.145 48.34L149.925 46.8C150.165 46.6933 150.565 46.5933 151.125 46.5C151.685 46.3933 152.292 46.34 152.945 46.34ZM168.834 55.46H170.234V59.9H168.474V57H160.534V46.6H162.394V55.46H166.974V46.6H168.834V55.46ZM181.493 46.6V57H179.693V49.08C179.293 49.5867 178.853 50.18 178.373 50.86C177.893 51.54 177.413 52.2467 176.933 52.98C176.453 53.7 175.993 54.4133 175.553 55.12C175.113 55.8267 174.733 56.4533 174.413 57H172.753V46.6H174.553V54.08C174.9 53.5067 175.293 52.88 175.733 52.2C176.173 51.5067 176.626 50.8267 177.093 50.16C177.573 49.48 178.046 48.8333 178.513 48.22C178.993 47.5933 179.44 47.0533 179.853 46.6H181.493ZM193.927 46.6V57H192.127V49.08C191.727 49.5867 191.287 50.18 190.807 50.86C190.327 51.54 189.847 52.2467 189.367 52.98C188.887 53.7 188.427 54.4133 187.987 55.12C187.547 55.8267 187.167 56.4533 186.847 57H185.187V46.6H186.987V54.08C187.333 53.5067 187.727 52.88 188.167 52.2C188.607 51.5067 189.06 50.8267 189.527 50.16C190.007 49.48 190.48 48.8333 190.947 48.22C191.427 47.5933 191.873 47.0533 192.287 46.6H193.927ZM204.569 55.6C204.649 55.6133 204.762 55.6267 204.909 55.64C205.056 55.6533 205.222 55.6667 205.409 55.68C205.596 55.68 205.789 55.6867 205.989 55.7C206.202 55.7 206.402 55.7 206.589 55.7C206.976 55.7 207.342 55.6733 207.689 55.62C208.049 55.5667 208.356 55.4733 208.609 55.34C208.876 55.2067 209.082 55.0333 209.229 54.82C209.389 54.5933 209.469 54.3067 209.469 53.96C209.469 53.6267 209.396 53.3533 209.249 53.14C209.116 52.9133 208.929 52.7333 208.689 52.6C208.449 52.4667 208.162 52.3733 207.829 52.32C207.509 52.2667 207.162 52.24 206.789 52.24H204.569V55.6ZM206.549 50.86C206.909 50.86 207.236 50.84 207.529 50.8C207.836 50.7467 208.096 50.66 208.309 50.54C208.536 50.42 208.709 50.26 208.829 50.06C208.962 49.86 209.029 49.6067 209.029 49.3C209.029 48.98 208.949 48.7267 208.789 48.54C208.629 48.3533 208.416 48.2133 208.149 48.12C207.896 48.0133 207.602 47.9467 207.269 47.92C206.949 47.88 206.622 47.86 206.289 47.86C205.982 47.86 205.669 47.8667 205.349 47.88C205.042 47.8933 204.782 47.9067 204.569 47.92V50.86H206.549ZM206.509 57.18C205.722 57.18 204.996 57.14 204.329 57.06C203.662 56.9933 203.136 56.9133 202.749 56.82V46.7C203.136 46.6067 203.662 46.5267 204.329 46.46C204.996 46.38 205.722 46.34 206.509 46.34C207.056 46.34 207.589 46.3867 208.109 46.48C208.629 46.5733 209.089 46.7333 209.489 46.96C209.889 47.1733 210.209 47.4733 210.449 47.86C210.702 48.2333 210.829 48.7 210.829 49.26C210.829 49.7667 210.702 50.2 210.449 50.56C210.196 50.92 209.856 51.2 209.429 51.4C210.002 51.6 210.456 51.9 210.789 52.3C211.136 52.6867 211.309 53.2333 211.309 53.94C211.309 54.5667 211.182 55.0867 210.929 55.5C210.689 55.9133 210.349 56.2467 209.909 56.5C209.482 56.7533 208.976 56.9267 208.389 57.02C207.802 57.1267 207.176 57.18 206.509 57.18ZM34.4095 63.8C34.8229 63.4667 35.3029 63.2133 35.8495 63.04C36.4095 62.8533 36.9429 62.76 37.4495 62.76C38.9429 62.76 40.0695 63.22 40.8295 64.14C41.6029 65.0467 41.9895 66.3133 41.9895 67.94C41.9895 68.6333 41.8962 69.3 41.7095 69.94C41.5229 70.58 41.2295 71.1467 40.8295 71.64C40.4429 72.1333 39.9495 72.5267 39.3495 72.82C38.7495 73.1133 38.0362 73.26 37.2095 73.26C36.2629 73.26 35.4762 73.0867 34.8495 72.74C34.2229 72.3933 33.7229 71.92 33.3495 71.32C32.9895 70.72 32.7362 70.02 32.5895 69.22C32.4429 68.42 32.3695 67.5733 32.3695 66.68C32.3695 65.52 32.4495 64.44 32.6095 63.44C32.7829 62.44 33.0895 61.56 33.5295 60.8C33.9695 60.04 34.5762 59.4133 35.3495 58.92C36.1362 58.4133 37.1429 58.0733 38.3695 57.9C38.7295 57.8467 39.0429 57.8067 39.3095 57.78C39.5895 57.74 39.8295 57.7067 40.0295 57.68C40.2429 57.6533 40.4362 57.6267 40.6095 57.6C40.7829 57.56 40.9629 57.52 41.1495 57.48L41.3495 59.16C41.2562 59.1867 41.1562 59.2067 41.0495 59.22C40.9562 59.2333 40.8162 59.2533 40.6295 59.28C40.4562 59.3067 40.2162 59.34 39.9095 59.38C39.6162 59.42 39.2295 59.4667 38.7495 59.52C37.4295 59.6667 36.4162 60.0667 35.7095 60.72C35.0029 61.3733 34.5695 62.4 34.4095 63.8ZM34.2895 66.98C34.2895 67.6067 34.3295 68.2 34.4095 68.76C34.5029 69.32 34.6562 69.8133 34.8695 70.24C35.0962 70.6667 35.3962 71.0067 35.7695 71.26C36.1429 71.5 36.6229 71.62 37.2095 71.62C37.7162 71.62 38.1495 71.5267 38.5095 71.34C38.8695 71.14 39.1629 70.8733 39.3895 70.54C39.6162 70.2067 39.7829 69.82 39.8895 69.38C39.9962 68.9267 40.0495 68.4467 40.0495 67.94C40.0495 67.4867 40.0029 67.0467 39.9095 66.62C39.8295 66.1933 39.6762 65.8133 39.4495 65.48C39.2229 65.1467 38.9162 64.88 38.5295 64.68C38.1562 64.48 37.6829 64.38 37.1095 64.38C36.5495 64.38 36.0095 64.5 35.4895 64.74C34.9829 64.98 34.5895 65.2733 34.3095 65.62C34.2962 65.7667 34.2895 65.9733 34.2895 66.24C34.2895 66.5067 34.2895 66.7533 34.2895 66.98ZM43.904 74.94C44.0507 75.0067 44.2374 75.0667 44.464 75.12C44.704 75.1867 44.9374 75.22 45.164 75.22C45.8974 75.22 46.4707 75.0533 46.884 74.72C47.2974 74.4 47.6707 73.8733 48.004 73.14C47.164 71.54 46.3774 69.8467 45.644 68.06C44.924 66.26 44.324 64.44 43.844 62.6H45.844C45.9907 63.2 46.164 63.8467 46.364 64.54C46.5774 65.2333 46.8107 65.9467 47.064 66.68C47.3174 67.4133 47.5907 68.1467 47.884 68.88C48.1774 69.6133 48.484 70.32 48.804 71C49.3107 69.6 49.7507 68.2133 50.124 66.84C50.4974 65.4667 50.8507 64.0533 51.184 62.6H53.104C52.624 64.56 52.0907 66.4467 51.504 68.26C50.9174 70.06 50.284 71.7467 49.604 73.32C49.3374 73.92 49.0574 74.4333 48.764 74.86C48.484 75.3 48.1707 75.66 47.824 75.94C47.4774 76.22 47.084 76.4267 46.644 76.56C46.2174 76.6933 45.7307 76.76 45.184 76.76C45.0374 76.76 44.884 76.7467 44.724 76.72C44.564 76.7067 44.404 76.68 44.244 76.64C44.0974 76.6133 43.9574 76.58 43.824 76.54C43.704 76.5 43.6174 76.4667 43.564 76.44L43.904 74.94ZM53.7776 71.48H54.8976C55.3376 70.84 55.6843 70.18 55.9376 69.5C56.2043 68.82 56.4043 68.12 56.5376 67.4C56.671 66.6667 56.7576 65.9067 56.7976 65.12C56.8376 64.32 56.8643 63.48 56.8776 62.6H63.6976V71.48H65.0976V75.9H63.3376V73H55.5376V75.9H53.7776V71.48ZM61.8376 71.48V64.16H58.5776C58.5643 64.7867 58.531 65.42 58.4776 66.06C58.4243 66.6867 58.3376 67.3133 58.2176 67.94C58.0976 68.5533 57.9243 69.16 57.6976 69.76C57.4843 70.3467 57.211 70.92 56.8776 71.48H61.8376ZM66.8767 74.94C67.0234 75.0067 67.21 75.0667 67.4367 75.12C67.6767 75.1867 67.91 75.22 68.1367 75.22C68.87 75.22 69.4434 75.0533 69.8567 74.72C70.27 74.4 70.6434 73.8733 70.9767 73.14C70.1367 71.54 69.35 69.8467 68.6167 68.06C67.8967 66.26 67.2967 64.44 66.8167 62.6H68.8167C68.9634 63.2 69.1367 63.8467 69.3367 64.54C69.55 65.2333 69.7834 65.9467 70.0367 66.68C70.29 67.4133 70.5634 68.1467 70.8567 68.88C71.15 69.6133 71.4567 70.32 71.7767 71C72.2834 69.6 72.7234 68.2133 73.0967 66.84C73.47 65.4667 73.8234 64.0533 74.1567 62.6H76.0767C75.5967 64.56 75.0634 66.4467 74.4767 68.26C73.89 70.06 73.2567 71.7467 72.5767 73.32C72.31 73.92 72.03 74.4333 71.7367 74.86C71.4567 75.3 71.1434 75.66 70.7967 75.94C70.45 76.22 70.0567 76.4267 69.6167 76.56C69.19 76.6933 68.7034 76.76 68.1567 76.76C68.01 76.76 67.8567 76.7467 67.6967 76.72C67.5367 76.7067 67.3767 76.68 67.2167 76.64C67.07 76.6133 66.93 76.58 66.7967 76.54C66.6767 76.5 66.59 76.4667 66.5367 76.44L66.8767 74.94ZM78.5381 73V62.6H80.3981V71.46H84.2381V62.6H86.0981V71.46H89.9381V62.6H91.7981V71.46H93.1981V75.9H91.4381V73H78.5381ZM95.1378 67.82C95.1378 66.9 95.2711 66.1 95.5378 65.42C95.8045 64.7267 96.1578 64.1533 96.5978 63.7C97.0378 63.2467 97.5445 62.9067 98.1178 62.68C98.6911 62.4533 99.2778 62.34 99.8778 62.34C101.278 62.34 102.351 62.78 103.098 63.66C103.844 64.5267 104.218 65.8533 104.218 67.64C104.218 67.72 104.218 67.8267 104.218 67.96C104.218 68.08 104.211 68.1933 104.198 68.3H97.0778C97.1578 69.38 97.4711 70.2 98.0178 70.76C98.5645 71.32 99.4178 71.6 100.578 71.6C101.231 71.6 101.778 71.5467 102.218 71.44C102.671 71.32 103.011 71.2067 103.238 71.1L103.498 72.66C103.271 72.78 102.871 72.9067 102.298 73.04C101.738 73.1733 101.098 73.24 100.378 73.24C99.4711 73.24 98.6845 73.1067 98.0178 72.84C97.3645 72.56 96.8245 72.18 96.3978 71.7C95.9711 71.22 95.6511 70.6533 95.4378 70C95.2378 69.3333 95.1378 68.6067 95.1378 67.82ZM102.278 66.8C102.291 65.96 102.078 65.2733 101.638 64.74C101.211 64.1933 100.618 63.92 99.8578 63.92C99.4311 63.92 99.0511 64.0067 98.7178 64.18C98.3978 64.34 98.1245 64.5533 97.8978 64.82C97.6711 65.0867 97.4911 65.3933 97.3578 65.74C97.2378 66.0867 97.1578 66.44 97.1178 66.8H102.278ZM109.37 65.34C109.236 66.66 109.136 67.98 109.07 69.3C109.003 70.6067 108.95 71.84 108.91 73H107.13C107.156 72.1867 107.196 71.34 107.25 70.46C107.303 69.5667 107.363 68.6733 107.43 67.78C107.496 66.8733 107.57 65.9867 107.65 65.12C107.73 64.24 107.816 63.4 107.91 62.6H109.61C110.036 63.2933 110.536 64.2467 111.11 65.46C111.683 66.66 112.343 68.0467 113.09 69.62C113.836 68.0467 114.496 66.66 115.07 65.46C115.643 64.2467 116.143 63.2933 116.57 62.6H118.29C118.383 63.4 118.47 64.24 118.55 65.12C118.63 65.9867 118.703 66.8733 118.77 67.78C118.836 68.6733 118.896 69.5667 118.95 70.46C119.003 71.34 119.043 72.1867 119.07 73H117.23C117.19 71.84 117.136 70.6067 117.07 69.3C117.003 67.98 116.903 66.66 116.77 65.34C116.556 65.7533 116.31 66.2533 116.03 66.84C115.75 67.4133 115.47 68 115.19 68.6C114.923 69.2 114.67 69.7733 114.43 70.32C114.19 70.8667 114.003 71.3 113.87 71.62H112.31C112.163 71.2867 111.963 70.8467 111.71 70.3C111.47 69.7533 111.21 69.18 110.93 68.58C110.663 67.9667 110.39 67.3733 110.11 66.8C109.83 66.2133 109.583 65.7267 109.37 65.34Z"
            fill="#0231A1"/>
    <path
            d="M2.18315 51.7035C1.45963 51.2532 1.09787 51.0281 0.973951 50.7396C0.865736 50.4877 0.865736 50.2023 0.973951 49.9504C1.09787 49.6618 1.45963 49.4367 2.18315 48.9865L23.8221 35.5216C24.6204 35.0249 25.0196 34.7765 25.3489 34.8034C25.6359 34.8269 25.8989 34.973 26.0705 35.2043C26.2674 35.4697 26.2674 35.9398 26.2674 36.8801V63.8099C26.2674 64.7502 26.2674 65.2203 26.0705 65.4857C25.8989 65.717 25.6359 65.8631 25.3489 65.8866C25.0196 65.9135 24.6204 65.6651 23.8221 65.1683L2.18315 51.7035Z"
            fill="#CCD3E4"/>
</svg>
